<svg width="400" height="244" viewBox="0 0 400 244" fill="none" xmlns="http://www.w3.org/2000/svg">
<path d="M337.673 43.7747C338.014 41.3048 334.528 39.2735 331.902 39.06C330.65 38.9619 329.357 39.1523 328.174 38.7426C325.595 37.825 324.568 34.5357 322.092 33.4854C320.222 32.6948 318.052 33.3988 316.258 34.3106C314.463 35.2224 312.657 36.3708 310.631 36.4977C308.871 36.6131 306.955 35.9553 305.437 36.8151C304.283 37.4557 303.706 38.783 302.627 39.562C301.548 40.3411 300.244 40.4854 298.957 40.5546C297.67 40.6239 296.343 40.6412 295.171 41.1779C294 41.7145 293.036 42.9495 293.278 44.2133L337.673 43.7747Z" fill="#EBEBEB"/>
<path d="M237.911 182.039C238.379 181.41 218.06 149.37 218.06 149.37L203.517 147.062L188.548 166.625L182.2 163.647L137.765 181.012L106.602 141.309L101.847 146.254L89.3592 127.689L81.3377 145.458L68.9767 176.095L60.6148 169.857L37.3931 193.477H259.517C259.517 193.477 237.438 182.668 237.911 182.039Z" fill="#F5F5F5"/>
<path d="M318.483 192.916C318.483 192.996 252.148 193.066 170.335 193.066C88.5225 193.066 22.1641 192.996 22.1641 192.916C22.1641 192.835 88.4937 192.766 170.324 192.766C252.154 192.766 318.483 192.835 318.483 192.916Z" fill="#E0E0E0"/>
<path d="M307.719 201.431C307.719 201.518 293.291 201.587 275.465 201.587C257.639 201.587 243.212 201.518 243.212 201.431C243.212 201.345 257.639 201.281 275.465 201.281C293.291 201.281 307.719 201.351 307.719 201.431Z" fill="#E0E0E0"/>
<path d="M83.9941 68.8067C84.4962 65.2 79.3774 62.228 75.5687 61.9221C73.7451 61.7721 71.8523 62.0549 70.1211 61.4489C66.3758 60.1447 64.8754 55.303 61.2225 53.7622C58.4871 52.6081 55.3421 53.6353 52.6875 54.9683C50.0329 56.3014 47.4014 58.0095 44.4583 58.1711C41.8845 58.3327 39.0857 57.3805 36.8351 58.6386C35.1558 59.5734 34.2786 61.524 32.732 62.6493C31.1855 63.7746 29.2696 64.0054 27.3652 64.1093C25.4608 64.2132 23.5392 64.2305 21.831 65.0095C20.1228 65.7886 18.7032 67.6006 19.061 69.4531L83.9941 68.8067Z" fill="#EBEBEB"/>
<path d="M347.824 128.673C348.257 125.534 343.825 122.948 340.495 122.683C338.908 122.55 337.258 122.798 335.757 122.273C332.497 121.119 331.193 116.923 328.013 115.585C325.635 114.581 322.894 115.475 320.592 116.635C318.289 117.795 316.01 119.255 313.43 119.416C311.191 119.561 308.761 118.73 306.799 119.826C305.339 120.64 304.572 122.325 303.227 123.318C301.883 124.31 300.192 124.472 298.559 124.581C296.926 124.691 295.235 124.685 293.746 125.366C292.257 126.047 291.028 127.623 291.334 129.233L347.824 128.673Z" fill="#F5F5F5"/>
<path d="M238.792 30.1001C239.098 27.8841 235.97 26.0605 233.598 25.8701C232.473 25.7777 231.29 25.9509 230.251 25.5815C227.943 24.7794 227.031 21.8074 224.786 20.861C223.107 20.1512 221.174 20.786 219.546 21.5997C217.919 22.4134 216.309 23.4521 214.491 23.5675C212.916 23.6714 211.196 23.0828 209.811 23.8561C208.784 24.4332 208.241 25.5873 207.289 26.3202C206.3 26.9308 205.156 27.2415 203.994 27.2147C202.837 27.195 201.686 27.3907 200.601 27.7918C199.55 28.2707 198.679 29.3845 198.898 30.5156L238.792 30.1001Z" fill="#F5F5F5"/>
<path d="M400 243.265C399.192 227.332 399.544 232.878 398.736 216.939L370.332 201.115L344.797 211.156L340.307 218.433C337.576 222.83 333.858 226.529 329.446 229.236C323.987 232.601 316.624 237.893 313.958 243.265H400Z" fill="#E0E0E0"/>
<path d="M0 204.358L29.1657 214.024L63.5077 243.242H0V204.358Z" fill="#E0E0E0"/>
<path d="M350.468 165.62L356.528 208.78L358.103 208.826C357.099 194.174 356.026 179.21 350.468 165.62Z" fill="#E0E0E0"/>
<path d="M367.296 163.625C363.066 168.242 361.363 174.641 360.29 180.828C358.766 189.599 358.628 199.958 359.084 208.851L361.3 208.903C360.421 193.567 362.456 178.204 367.296 163.625Z" fill="#E0E0E0"/>
<path d="M351.578 191.142C351.087 189.001 350.533 186.826 349.316 185.008C347.665 182.544 344.976 180.969 342.275 179.78C339.575 178.591 336.73 177.598 334.289 175.925C337.012 180.391 343.199 181.58 346.344 185.735C347.913 187.813 348.566 190.421 349.177 192.949C350.516 198.466 351.341 203.238 352.68 208.755H354.469C353.877 202.829 352.912 196.946 351.578 191.142Z" fill="#E0E0E0"/>
<path d="M362.916 208.815C362.916 208.815 364.434 191.676 365.559 188.531C366.684 185.386 377.32 176.689 377.216 177.099C377.112 177.509 369.241 187.019 368.116 188.964C366.99 190.909 365.045 208.815 365.045 208.815H362.916Z" fill="#E0E0E0"/>
<path d="M298.39 205.87C298.268 205.892 298.144 205.902 298.02 205.899L296.976 205.928L293.121 205.974L280.425 206.02L267.729 205.974L263.88 205.928L262.83 205.899C262.708 205.902 262.586 205.892 262.466 205.87C262.586 205.845 262.708 205.835 262.83 205.841H263.88L267.729 205.795L280.425 205.749L293.121 205.795L296.976 205.841H298.02C298.144 205.835 298.268 205.845 298.39 205.87Z" fill="#E0E0E0"/>
<path d="M320.187 214.401C320.559 214.667 320.873 215.006 321.111 215.396C321.349 215.787 321.506 216.222 321.572 216.675C321.699 217.583 321.616 218.509 321.33 219.381C320.696 221.109 319.627 222.644 318.225 223.836C316.996 222.307 317.071 220.033 317.157 218.879C317.325 217.055 318.721 213.864 320.187 214.401Z" fill="#FF725E"/>
<path d="M319.41 226.983C319.397 226.471 319.521 225.965 319.768 225.517C320.015 225.069 320.378 224.694 320.818 224.432C321.26 224.175 321.75 224.01 322.257 223.946C322.765 223.881 323.28 223.919 323.772 224.057C324.01 224.092 324.236 224.178 324.436 224.311C324.636 224.444 324.803 224.619 324.926 224.825C325.007 225.032 325.031 225.256 324.995 225.475C324.96 225.695 324.866 225.9 324.725 226.071C324.435 226.406 324.063 226.661 323.645 226.81C322.243 227.387 320.76 227.664 319.433 226.983" fill="#FF725E"/>
<path d="M316.601 231.948C316.627 231.828 316.665 231.712 316.716 231.601C316.803 231.359 316.918 231.024 317.062 230.672C317.415 229.634 317.933 228.659 318.597 227.787C319.282 226.917 320.187 226.246 321.217 225.842C321.53 225.724 321.855 225.645 322.187 225.605C322.302 225.605 322.394 225.605 322.458 225.605H322.55C322.107 225.672 321.671 225.786 321.252 225.946C320.248 226.363 319.367 227.03 318.695 227.885C318.043 228.753 317.52 229.712 317.143 230.73C316.987 231.117 316.855 231.428 316.762 231.642C316.714 231.747 316.66 231.849 316.601 231.948Z" fill="#263238"/>
<path d="M319.333 216.906C319.339 216.96 319.339 217.014 319.333 217.068C319.333 217.183 319.315 217.333 319.281 217.518C319.235 217.91 319.16 218.47 319.056 219.168C318.854 220.565 318.548 222.481 318.161 224.599C317.775 226.717 317.382 228.638 317.076 229.989C316.926 230.681 316.799 231.235 316.707 231.616C316.661 231.795 316.62 231.945 316.597 232.055C316.587 232.109 316.569 232.161 316.545 232.21C316.545 232.21 316.545 232.153 316.545 232.049C316.545 231.945 316.597 231.789 316.632 231.604L316.967 229.971C317.244 228.592 317.625 226.688 318.011 224.576C318.398 222.464 318.715 220.536 318.94 219.157C319.056 218.47 319.142 217.916 319.212 217.512C319.24 217.328 319.269 217.177 319.287 217.062C319.296 217.008 319.311 216.956 319.333 216.906Z" fill="#263238"/>
<path d="M316.703 227.588C316.714 226.509 316.468 225.443 315.985 224.477C315.502 223.512 314.797 222.676 313.927 222.037C313.483 221.713 312.871 221.46 312.409 221.742C311.948 222.025 311.919 222.7 312.023 223.237C312.26 224.358 312.826 225.384 313.648 226.182C314.47 226.981 315.512 227.516 316.639 227.721" fill="#FF725E"/>
<path d="M313.871 223.714C313.97 223.77 314.064 223.834 314.153 223.904C314.265 223.98 314.371 224.063 314.471 224.152C314.608 224.265 314.739 224.384 314.863 224.51C315.002 224.654 315.158 224.805 315.308 224.983C315.469 225.167 315.619 225.36 315.758 225.561C316.081 226.04 316.348 226.555 316.554 227.096C316.748 227.629 316.884 228.183 316.958 228.746C316.985 228.993 316.999 229.242 316.998 229.49C317.011 229.706 317.011 229.921 316.998 230.137C316.987 230.313 316.963 230.489 316.929 230.662C316.91 230.796 316.883 230.929 316.848 231.06C316.825 231.17 316.792 231.278 316.75 231.383C316.721 231.383 316.854 230.91 316.906 230.131C316.918 229.918 316.918 229.704 316.906 229.49C316.9 229.247 316.881 229.004 316.848 228.763C316.775 228.209 316.639 227.666 316.444 227.142C316.241 226.621 315.981 226.124 315.671 225.659C315.538 225.458 315.394 225.265 315.238 225.082C315.094 224.903 314.944 224.747 314.811 224.603C314.257 224.014 313.853 223.737 313.871 223.714Z" fill="#263238"/>
<path d="M50.1519 242.624L50.3942 242.595C49.8922 235.093 46.1238 227.049 43.3885 220.014C40.5781 212.772 37.9408 205.339 31.541 200.941C38.4598 214.505 44.6718 228.418 50.1519 242.624Z" fill="#455A64"/>
<path d="M54.6458 204.495C54.6458 204.495 54.6458 204.53 54.6458 204.593L54.5592 204.87L54.2014 205.944C54.1264 206.174 54.0398 206.434 53.9417 206.711L53.6647 207.64C53.4685 208.304 53.2204 209.06 53.0126 209.908C52.903 210.329 52.7818 210.774 52.6606 211.235C52.5394 211.697 52.4413 212.182 52.3259 212.684C52.0835 213.682 51.8873 214.761 51.668 215.898C51.2756 218.207 50.9351 220.694 50.7332 223.354C50.5312 226.014 50.5197 228.548 50.5716 230.856C50.6235 232.01 50.6524 233.107 50.7447 234.128C50.7851 234.642 50.8082 235.138 50.8601 235.611C50.9121 236.085 50.9582 236.546 50.9986 236.979C51.0794 237.85 51.2064 238.629 51.2929 239.322L51.4257 240.28C51.4776 240.574 51.5238 240.857 51.5642 241.082C51.6392 241.555 51.6969 241.93 51.7431 242.196L51.7835 242.484C51.7861 242.517 51.7861 242.55 51.7835 242.582C51.7835 242.582 51.2987 240.47 50.8774 236.991C50.8313 236.558 50.7793 236.102 50.7274 235.623C50.6755 235.144 50.6466 234.653 50.6004 234.14C50.5023 233.113 50.4677 232.016 50.4158 230.856C50.3523 228.548 50.3812 225.991 50.5658 223.325C50.7505 220.659 51.1429 218.132 51.518 215.858C51.7373 214.704 51.9393 213.636 52.1874 212.638C52.3086 212.136 52.4125 211.651 52.5337 211.189C52.6548 210.728 52.776 210.283 52.8915 209.862C53.1107 209.014 53.3647 208.263 53.5666 207.594L53.8609 206.671L54.1322 205.903C54.2938 205.453 54.4265 205.095 54.513 204.847C54.5592 204.732 54.5938 204.639 54.6169 204.57L54.6458 204.495Z" fill="#455A64"/>
<path d="M53.5157 200.34L50.942 209.424C50.683 210.337 51.2139 211.288 52.1277 211.547L52.5108 211.655C53.4246 211.914 54.3753 211.384 54.6342 210.47L57.208 201.386C57.4669 200.473 56.936 199.522 56.0222 199.263L55.6391 199.154C54.7253 198.895 53.7747 199.426 53.5157 200.34Z" fill="#F5F5F5"/>
<path d="M52.5142 211.656C52.5142 211.656 52.6181 211.685 52.8201 211.696C53.1135 211.72 53.408 211.666 53.6742 211.54C53.8831 211.446 54.0701 211.309 54.2231 211.138C54.3761 210.967 54.4918 210.766 54.5629 210.548C54.7129 210.029 54.8745 209.423 55.0649 208.759C55.4342 207.426 55.8786 205.845 56.3691 204.09C56.6115 203.213 56.8712 202.29 57.1424 201.338C57.2035 201.104 57.2124 200.86 57.1685 200.623C57.1246 200.385 57.029 200.161 56.8885 199.964C56.7462 199.762 56.5584 199.596 56.3403 199.48C56.1092 199.367 55.8649 199.283 55.6131 199.231C55.2582 199.136 54.8813 199.162 54.5433 199.307C54.2052 199.451 53.9255 199.705 53.7492 200.028C53.6446 200.249 53.5652 200.481 53.5126 200.72C53.2413 201.672 52.9759 202.596 52.7277 203.473C52.2257 205.204 51.7698 206.797 51.3889 208.13C51.2908 208.459 51.2042 208.776 51.1177 209.076C51.0188 209.347 50.9604 209.631 50.9446 209.919C50.9485 210.148 50.998 210.374 51.0901 210.584C51.1823 210.794 51.3152 210.984 51.4812 211.142C51.6983 211.34 51.9595 211.482 52.243 211.558L52.4623 211.627L52.5373 211.656H52.4565L52.2315 211.598C51.9388 211.534 51.667 211.397 51.4409 211.2C51.264 211.038 51.1218 210.842 51.0226 210.624C50.9234 210.406 50.8694 210.17 50.8638 209.93C50.8786 209.634 50.9349 209.34 51.0311 209.059C51.1119 208.759 51.1985 208.442 51.2908 208.113C51.6659 206.78 52.1103 205.227 52.6008 203.444C52.8432 202.567 53.1028 201.644 53.3741 200.691C53.428 200.44 53.5113 200.196 53.6222 199.964C53.7522 199.737 53.9293 199.54 54.1416 199.387C54.3621 199.226 54.6164 199.116 54.8853 199.067C55.1541 199.018 55.4307 199.031 55.6939 199.104C55.9546 199.166 56.208 199.255 56.4499 199.37C56.6796 199.501 56.8768 199.683 57.027 199.901C57.181 200.116 57.2857 200.363 57.3336 200.623C57.3815 200.883 57.3714 201.151 57.304 201.407C57.0328 202.359 56.7673 203.282 56.5192 204.16L55.1803 208.817C54.9899 209.48 54.8225 210.075 54.6552 210.606C54.5266 210.977 54.2754 211.294 53.9429 211.504C53.6105 211.713 53.2165 211.804 52.8258 211.76C52.7175 211.74 52.6126 211.705 52.5142 211.656Z" fill="#263238"/>
<path d="M51.7689 242.594C51.5323 236.794 51.5265 230.412 54.8159 225.622C56.6798 222.915 59.4844 220.959 62.4853 219.615C65.527 218.359 68.6776 217.385 71.8974 216.706C68.3369 221.692 60.275 221.75 56.8933 226.84C55.8777 228.352 55.4045 230.146 54.9486 231.906C53.9964 235.542 53.1654 238.993 52.2132 242.634" fill="#455A64"/>
<path d="M26.3486 222.221H26.4294H26.6603C26.8622 222.249 27.1623 222.273 27.5432 222.348C28.6222 222.53 29.6854 222.796 30.7229 223.144C32.2664 223.659 33.7503 224.338 35.1491 225.17C35.9685 225.666 36.7585 226.209 37.5151 226.797C38.3317 227.437 39.103 228.133 39.8235 228.88C40.5389 229.624 41.1949 230.423 41.7855 231.269C42.0856 231.667 42.3626 232.089 42.605 232.487C42.8474 232.885 43.1013 233.301 43.3148 233.705C44.1003 235.128 44.7421 236.626 45.2307 238.177C45.5666 239.219 45.8194 240.286 45.9867 241.368C46.0559 241.749 46.0732 242.049 46.0963 242.251V242.482C46.0963 242.534 46.0963 242.563 46.0963 242.563V242.488C46.0963 242.424 46.0963 242.349 46.0617 242.257C46.0213 242.055 45.9982 241.755 45.9174 241.38C45.7277 240.306 45.4596 239.247 45.1153 238.212C44.6167 236.673 43.9693 235.187 43.1821 233.774C42.9686 233.37 42.7146 232.977 42.4723 232.568C42.2299 232.158 41.9529 231.754 41.6586 231.356C41.0664 230.519 40.4125 229.729 39.7023 228.99C38.9969 228.25 38.241 227.559 37.4401 226.924C36.6884 226.338 35.9042 225.794 35.0914 225.296C32.7687 223.894 30.2146 222.917 27.549 222.411C27.1681 222.325 26.8738 222.296 26.6718 222.255L26.441 222.215L26.3486 222.221Z" fill="#455A64"/>
<path d="M20.6282 218.503L20.4557 218.862C20.0441 219.718 20.4043 220.746 21.2603 221.157L29.7688 225.249C30.6248 225.66 31.6523 225.3 32.0639 224.444L32.2364 224.085C32.648 223.229 32.2878 222.202 31.4318 221.79L22.9233 217.699C22.0673 217.287 21.0398 217.647 20.6282 218.503Z" fill="#F5F5F5"/>
<path d="M32.2414 224.082C32.2414 224.082 32.2876 223.984 32.3338 223.788C32.4223 223.425 32.3881 223.043 32.2368 222.702C32.0854 222.361 31.8253 222.079 31.497 221.901C31.0123 221.659 30.441 221.399 29.8235 221.099L25.4723 219.016L22.887 217.781C22.6684 217.678 22.43 217.625 22.1887 217.625C21.9473 217.625 21.7089 217.678 21.4904 217.781C21.2665 217.89 21.0694 218.048 20.9133 218.242C20.7663 218.451 20.6425 218.676 20.544 218.912C20.4357 219.136 20.3794 219.381 20.3794 219.63C20.3794 219.879 20.4357 220.125 20.544 220.349C20.6512 220.571 20.8047 220.768 20.9941 220.926C21.1944 221.069 21.4115 221.187 21.6405 221.278L24.2085 222.478L28.5712 224.596L29.4541 225.023C29.7044 225.168 29.9747 225.275 30.2563 225.34C30.4833 225.375 30.7151 225.365 30.938 225.309C31.1609 225.254 31.3706 225.155 31.5547 225.017C31.785 224.838 31.9691 224.607 32.0914 224.342L32.201 224.134C32.2126 224.11 32.2261 224.087 32.2414 224.065C32.2452 224.09 32.2452 224.115 32.2414 224.14L32.1491 224.354C32.0342 224.632 31.8518 224.878 31.6182 225.069C31.4293 225.218 31.2121 225.326 30.9799 225.387C30.7477 225.449 30.5054 225.462 30.2678 225.427C29.9768 225.365 29.6967 225.26 29.4368 225.115L28.5481 224.694L24.1739 222.611C23.3544 222.213 22.4888 221.803 21.5943 221.376C21.357 221.278 21.1323 221.152 20.9249 221.001C20.7153 220.836 20.544 220.627 20.4228 220.389C20.303 220.144 20.2407 219.874 20.2407 219.601C20.2407 219.328 20.303 219.059 20.4228 218.814C20.5233 218.566 20.6531 218.332 20.8095 218.115C21.0583 217.799 21.4071 217.575 21.799 217.482C22.1909 217.389 22.6029 217.431 22.9678 217.602L25.5415 218.842L29.9043 220.96C30.5217 221.26 31.0584 221.537 31.5778 221.78C31.7855 221.901 31.9656 222.064 32.1067 222.259C32.2477 222.454 32.3467 222.676 32.3973 222.911C32.4794 223.201 32.4794 223.509 32.3973 223.8C32.3612 223.902 32.3086 223.997 32.2414 224.082Z" fill="#263238"/>
<path d="M362.604 89.699C363.168 89.5514 363.754 89.5007 364.335 89.5489C364.917 89.502 365.502 89.5527 366.066 89.699C365.502 89.8452 364.917 89.8959 364.335 89.849C363.754 89.8972 363.168 89.8465 362.604 89.699Z" fill="#263238"/>
<path d="M348.766 89.6952C351.07 89.4948 353.387 89.4948 355.691 89.6952C353.387 89.8956 351.07 89.8956 348.766 89.6952Z" fill="#263238"/>
<path d="M334.931 89.6955C337.235 89.4947 339.552 89.4947 341.856 89.6955C339.552 89.8962 337.235 89.8962 334.931 89.6955Z" fill="#263238"/>
<path d="M321.094 89.6952C323.398 89.4948 325.715 89.4948 328.019 89.6952C325.715 89.8956 323.398 89.8956 321.094 89.6952Z" fill="#263238"/>
<path d="M307.266 89.6955C309.57 89.4947 311.887 89.4947 314.191 89.6955C311.887 89.8962 309.57 89.8962 307.266 89.6955Z" fill="#263238"/>
<path d="M293.435 89.4033C294.59 89.3705 295.746 89.4014 296.898 89.4956C298.055 89.4886 299.212 89.5599 300.36 89.7091C299.212 89.8601 298.052 89.8892 296.898 89.7957C295.732 89.8045 294.569 89.6728 293.435 89.4033Z" fill="#263238"/>
<path d="M281.199 83.7944C281.274 83.7309 282.232 84.9485 283.772 86.0623C285.313 87.1761 286.75 87.7531 286.71 87.8455C286.371 87.7962 286.043 87.6889 285.74 87.5281C284.983 87.1986 284.263 86.7884 283.594 86.3047C282.618 85.6575 281.799 84.7997 281.199 83.7944Z" fill="#263238"/>
<path d="M277.422 70.7129C277.497 70.7129 277.595 72.2537 277.832 74.1407C278.068 76.0278 278.409 77.5397 278.305 77.5628C277.881 76.4801 277.621 75.3404 277.532 74.1811C277.333 73.0358 277.296 71.8684 277.422 70.7129Z" fill="#263238"/>
<path d="M272.382 58.127C273.241 58.912 273.972 59.8273 274.546 60.8392C275.201 61.8037 275.691 62.8705 275.995 63.9959C275.914 64.0305 275.297 62.6109 274.293 60.995C273.288 59.3792 272.313 58.1847 272.382 58.127Z" fill="#263238"/>
<path d="M261.029 50.5156C262.171 50.7284 263.273 51.1178 264.296 51.6698C265.361 52.1367 266.35 52.7633 267.227 53.528C267.181 53.603 265.877 52.772 264.169 51.941C262.46 51.11 261 50.5964 261.029 50.5156Z" fill="#263238"/>
<path d="M247.337 49.988C248.434 49.6006 249.584 49.3845 250.747 49.3474C251.566 49.2969 252.387 49.2969 253.206 49.3474C253.545 49.3349 253.885 49.3679 254.216 49.4455C253.888 49.5394 253.547 49.5784 253.206 49.561C252.577 49.561 251.717 49.6014 250.771 49.6764C248.878 49.786 247.354 50.0746 247.337 49.988Z" fill="#263238"/>
<path d="M235.314 56.4487C236.025 55.5246 236.88 54.7217 237.847 54.0711C238.753 53.3376 239.77 52.7532 240.86 52.3398C240.9 52.4206 239.55 53.1766 238.026 54.3077C236.503 55.4388 235.377 56.5121 235.314 56.4487Z" fill="#263238"/>
<path d="M229.274 68.638C229.363 66.3036 230.053 64.0316 231.277 62.042C231.358 62.0824 230.7 63.4732 230.123 65.2967C229.546 67.1203 229.367 68.6496 229.274 68.638Z" fill="#263238"/>
<path d="M228.956 82.4474C228.825 81.2982 228.792 80.1398 228.858 78.9849C228.823 77.8271 228.891 76.6684 229.06 75.5225C229.191 76.6717 229.224 77.8301 229.158 78.9849C229.193 80.1428 229.125 81.3015 228.956 82.4474Z" fill="#263238"/>
<path d="M228.762 96.2941C228.627 95.1452 228.592 93.9866 228.658 92.8316C228.627 91.6738 228.694 90.5154 228.86 89.3691C228.996 90.5181 229.03 91.6766 228.964 92.8316C228.995 93.9894 228.928 95.1478 228.762 96.2941Z" fill="#263238"/>
<path d="M228.56 110.12C228.428 108.971 228.396 107.813 228.462 106.658C228.427 105.5 228.495 104.341 228.664 103.195C228.796 104.345 228.828 105.503 228.762 106.658C228.797 107.816 228.73 108.974 228.56 110.12Z" fill="#263238"/>
<path d="M224.743 123.167C224.668 123.115 225.54 121.834 226.371 120.126C227.202 118.417 227.658 116.946 227.744 116.969C227.564 118.12 227.189 119.233 226.636 120.258C226.171 121.326 225.531 122.309 224.743 123.167Z" fill="#263238"/>
<path d="M213.898 131.41C213.87 131.329 215.306 130.752 216.968 129.835C218.63 128.917 219.888 128.017 219.94 128.103C219.11 128.918 218.155 129.596 217.113 130.112C216.116 130.71 215.031 131.148 213.898 131.41Z" fill="#263238"/>
<path d="M200.254 133.009C201.403 132.872 202.561 132.823 203.717 132.865H205.061H206.158C206.498 132.837 206.84 132.858 207.174 132.929C206.847 133.03 206.506 133.08 206.164 133.079L205.061 133.16C204.652 133.16 204.196 133.16 203.717 133.16C202.561 133.219 201.401 133.169 200.254 133.009Z" fill="#263238"/>
<path d="M187.184 129.037C187.236 128.962 188.546 129.781 190.271 130.572C191.996 131.363 193.462 131.853 193.439 131.94C192.29 131.75 191.178 131.38 190.144 130.843C189.07 130.397 188.071 129.788 187.184 129.037Z" fill="#263238"/>
<path d="M178.561 118.506C178.647 118.477 179.224 119.914 180.188 121.548C181.152 123.181 182.11 124.393 182.04 124.433C181.19 123.637 180.477 122.707 179.928 121.68C179.3 120.705 178.838 119.633 178.561 118.506Z" fill="#263238"/>
<path d="M177.243 104.829C177.391 105.977 177.442 107.135 177.393 108.292C177.441 109.448 177.391 110.606 177.243 111.754C177.091 110.607 177.041 109.448 177.093 108.292C177.041 107.135 177.091 105.977 177.243 104.829Z" fill="#263238"/>
<path d="M177.243 90.9912C177.391 92.139 177.442 93.2974 177.393 94.4537C177.442 95.61 177.391 96.7684 177.243 97.9162C177.091 96.7687 177.041 95.61 177.093 94.4537C177.041 93.2974 177.091 92.1387 177.243 90.9912Z" fill="#263238"/>
<path d="M177.243 77.1729C177.391 78.3207 177.441 79.479 177.393 80.6353C177.442 81.7917 177.391 82.9501 177.243 84.0978C177.091 82.9503 177.041 81.7917 177.093 80.6353C177.041 79.479 177.091 78.3204 177.243 77.1729Z" fill="#263238"/>
<path d="M177.243 63.3281C177.391 64.4759 177.442 65.6343 177.393 66.7906C177.441 67.9469 177.391 69.1053 177.243 70.2531C177.091 69.1056 177.041 67.9469 177.093 66.7906C177.041 65.6343 177.091 64.4756 177.243 63.3281Z" fill="#263238"/>
<path d="M177.243 49.5C177.335 49.8307 177.379 50.1726 177.376 50.5157C177.405 51.1389 177.422 52.0045 177.422 52.9625C177.471 54.1188 177.421 55.2772 177.272 56.425C177.12 55.2775 177.07 54.1188 177.122 52.9625C177.122 52.0045 177.122 51.1389 177.162 50.5157C177.141 50.175 177.168 49.8329 177.243 49.5Z" fill="#263238"/>
<path d="M171.992 36.96C172.867 37.7291 173.612 38.6354 174.196 39.6434C174.858 40.6025 175.356 41.6655 175.668 42.7885C175.581 42.8231 174.958 41.4035 173.936 39.805C172.915 38.2065 171.922 37.0177 171.992 36.96Z" fill="#263238"/>
<path d="M160.374 29.8018C162.67 30.217 164.841 31.1505 166.722 32.5313C166.676 32.6064 165.337 31.8273 163.594 31.0829C161.852 30.3384 160.351 29.8883 160.374 29.8018Z" fill="#263238"/>
<path d="M146.659 29.3619C147.764 28.9961 148.918 28.8015 150.081 28.7848C151.045 28.7329 151.911 28.7848 152.54 28.7848C152.88 28.7715 153.22 28.8085 153.55 28.8944C153.22 28.9797 152.88 29.0147 152.54 28.9983C151.911 29.0329 151.045 28.9983 150.099 29.0791C148.183 29.2003 146.659 29.4484 146.659 29.3619Z" fill="#263238"/>
<path d="M134.458 35.5253C136.008 33.7858 137.943 32.4322 140.108 31.5723C140.149 31.6531 138.781 32.3744 137.223 33.4651C135.665 34.5558 134.545 35.5887 134.458 35.5253Z" fill="#263238"/>
<path d="M128.051 47.5044C128.082 46.339 128.313 45.1876 128.732 44.0996C129.058 42.9814 129.573 41.9274 130.255 40.9834C130.336 41.0238 129.62 42.3972 129.015 44.1977C128.409 45.9982 128.137 47.516 128.051 47.5044Z" fill="#263238"/>
<path d="M127.818 61.3185C127.666 60.1711 127.616 59.0124 127.668 57.856C127.616 56.6997 127.666 55.541 127.818 54.3936C127.967 55.5413 128.017 56.6997 127.968 57.856C128.017 59.0124 127.967 60.1708 127.818 61.3185Z" fill="#263238"/>
<path d="M127.818 75.1662C127.666 74.0187 127.616 72.86 127.668 71.7037C127.617 70.5474 127.667 69.3887 127.818 68.2412C127.967 69.389 128.017 70.5474 127.968 71.7037C128.017 72.86 127.967 74.0184 127.818 75.1662Z" fill="#263238"/>
<path d="M127.469 88.9718C127.383 88.9718 127.642 87.4253 127.665 85.5094C127.616 84.3529 127.668 83.1943 127.821 82.0469C127.97 83.1947 128.018 84.3532 127.966 85.5094C128.001 86.6835 127.833 87.8549 127.469 88.9718Z" fill="#263238"/>
<path d="M120.688 100.748C120.63 100.679 121.767 99.6289 122.996 98.1574C124.226 96.6858 125.005 95.3701 125.085 95.4162C124.077 97.5257 122.567 99.3563 120.688 100.748Z" fill="#263238"/>
<path d="M108.326 106.572C108.326 106.485 109.832 106.208 111.65 105.648C113.467 105.088 114.881 104.494 114.922 104.552C113.937 105.174 112.863 105.641 111.736 105.937C110.639 106.325 109.489 106.539 108.326 106.572Z" fill="#263238"/>
<path d="M94.5083 107.049C95.655 106.887 96.8132 106.822 97.9708 106.853C99.1257 106.784 100.285 106.818 101.433 106.957C100.287 107.119 99.1284 107.184 97.9708 107.153C96.8158 107.222 95.657 107.188 94.5083 107.049Z" fill="#263238"/>
<path d="M80.6797 107.227C81.826 107.062 82.9845 106.996 84.1422 107.031C85.297 106.965 86.4554 106.998 87.6047 107.129C86.4587 107.298 85.3 107.366 84.1422 107.331C82.9871 107.394 81.8289 107.359 80.6797 107.227Z" fill="#263238"/>
<path d="M66.8462 107.415C67.9922 107.246 69.1508 107.178 70.3087 107.213C71.4637 107.147 72.6222 107.182 73.7712 107.317C72.6248 107.482 71.4663 107.548 70.3087 107.513C69.1538 107.579 67.9955 107.546 66.8462 107.415Z" fill="#263238"/>
<path d="M53.0146 107.621C54.161 107.456 55.3195 107.39 56.4771 107.425C57.632 107.359 58.7904 107.391 59.9396 107.523C58.7937 107.693 57.635 107.761 56.4771 107.725C55.3221 107.791 54.1636 107.756 53.0146 107.621Z" fill="#263238"/>
<path d="M42.5913 107.747C43.1551 107.595 43.7399 107.537 44.3226 107.574C44.9027 107.519 45.4879 107.562 46.0538 107.701C45.4906 107.856 44.9053 107.914 44.3226 107.874C43.7425 107.936 43.1562 107.893 42.5913 107.747Z" fill="#263238"/>
<path d="M157.688 20.3046C157.689 19.6714 157.544 19.0465 157.264 18.4785C156.985 17.9105 156.578 17.4147 156.075 17.0297C155.572 16.6447 154.988 16.3809 154.366 16.2588C153.745 16.1368 153.104 16.1597 152.493 16.3259C151.882 16.4921 151.318 16.7971 150.844 17.2171C150.37 17.6371 150 18.1607 149.761 18.7473C149.523 19.3339 149.423 19.9676 149.47 20.599C149.516 21.2304 149.708 21.8426 150.03 22.3879C150.191 22.6533 150.388 22.8438 150.607 23.1265L153.013 26.3005C153.083 26.3914 153.172 26.4651 153.275 26.5158C153.377 26.5665 153.49 26.5929 153.605 26.5929C153.719 26.5929 153.832 26.5665 153.935 26.5158C154.037 26.4651 154.127 26.3914 154.196 26.3005L156.545 23.19C156.75 22.9363 156.943 22.6724 157.122 22.3994C157.495 21.7644 157.69 21.0409 157.688 20.3046ZM153.59 22.0993C153.232 22.0993 152.882 21.993 152.584 21.7939C152.286 21.5948 152.053 21.3118 151.916 20.9807C151.779 20.6496 151.743 20.2853 151.813 19.9338C151.883 19.5823 152.056 19.2594 152.309 19.006C152.563 18.7526 152.885 18.58 153.237 18.5101C153.588 18.4402 153.953 18.476 154.284 18.6132C154.615 18.7503 154.898 18.9826 155.097 19.2806C155.296 19.5786 155.402 19.9289 155.402 20.2873C155.402 20.7679 155.212 21.2288 154.872 21.5686C154.532 21.9084 154.071 22.0993 153.59 22.0993Z" fill="#FF725E"/>
<path d="M313.677 81.2146C313.678 80.5821 313.532 79.958 313.253 79.3907C312.973 78.8234 312.566 78.3282 312.064 77.9436C311.562 77.5591 310.978 77.2954 310.357 77.1732C309.737 77.051 309.096 77.0735 308.486 77.239C307.875 77.4045 307.311 77.7085 306.837 78.1274C306.363 78.5463 305.992 79.0689 305.753 79.6544C305.514 80.2399 305.413 80.8727 305.458 81.5036C305.503 82.1345 305.693 82.7466 306.013 83.2921C306.169 83.5576 306.365 83.748 306.59 84.025L308.979 87.1874C309.049 87.274 309.136 87.3439 309.236 87.392C309.336 87.44 309.446 87.465 309.557 87.465C309.667 87.465 309.777 87.44 309.877 87.392C309.977 87.3439 310.064 87.274 310.134 87.1874L312.482 84.077C312.688 83.8232 312.88 83.5594 313.059 83.2864C313.446 82.6633 313.66 81.9479 313.677 81.2146ZM309.562 83.0036C309.204 83.0047 308.853 82.8994 308.554 82.701C308.255 82.5026 308.022 82.22 307.884 81.889C307.746 81.558 307.709 81.1935 307.779 80.8416C307.848 80.4897 308.02 80.1663 308.273 79.9123C308.526 79.6583 308.849 79.4852 309.201 79.4148C309.553 79.3444 309.917 79.3799 310.249 79.5169C310.58 79.6539 310.863 79.8861 311.063 80.1842C311.262 80.4824 311.369 80.8329 311.369 81.1916C311.369 81.4292 311.323 81.6647 311.233 81.8846C311.142 82.1044 311.009 82.3042 310.842 82.4725C310.674 82.6409 310.474 82.7744 310.255 82.8655C310.035 82.9567 309.8 83.0036 309.562 83.0036Z" fill="#FF725E"/>
<path d="M255.86 40.4734C255.862 39.84 255.718 39.2147 255.439 38.6461C255.16 38.0775 254.753 37.5811 254.251 37.1954C253.748 36.8097 253.164 36.5453 252.542 36.4226C251.921 36.3 251.279 36.3224 250.668 36.4883C250.057 36.6541 249.492 36.9588 249.018 37.3787C248.544 37.7986 248.173 38.3223 247.934 38.909C247.695 39.4958 247.595 40.1297 247.642 40.7613C247.688 41.393 247.88 42.0055 248.202 42.5509C248.358 42.8164 248.554 43.0068 248.779 43.2896L251.168 46.452C251.238 46.5429 251.327 46.6166 251.43 46.6673C251.533 46.718 251.645 46.7444 251.76 46.7444C251.874 46.7444 251.987 46.718 252.09 46.6673C252.192 46.6166 252.282 46.5429 252.351 46.452L254.7 43.3415C254.906 43.0878 255.098 42.8239 255.277 42.5509C255.653 41.9228 255.855 41.2055 255.86 40.4734ZM251.751 42.2624C251.393 42.2635 251.042 42.1582 250.743 41.9598C250.444 41.7614 250.211 41.4788 250.073 41.1478C249.935 40.8168 249.898 40.4523 249.968 40.1004C250.037 39.7485 250.209 39.4251 250.462 39.1711C250.715 38.9171 251.038 38.744 251.39 38.6736C251.741 38.6032 252.106 38.6387 252.438 38.7757C252.769 38.9127 253.052 39.1449 253.252 39.443C253.451 39.7412 253.557 40.0917 253.557 40.4504C253.557 40.9299 253.367 41.39 253.029 41.7296C252.69 42.0693 252.231 42.2609 251.751 42.2624Z" fill="#455A64"/>
<path d="M86.2843 95.2485C86.2893 94.4645 86.1129 93.6899 85.7689 92.9853C85.4249 92.2807 84.9226 91.6652 84.3012 91.187C83.6799 90.7088 82.9563 90.3807 82.1872 90.2285C81.418 90.0763 80.6241 90.1041 79.8674 90.3097C79.1107 90.5152 78.4119 90.893 77.8255 91.4135C77.2391 91.934 76.781 92.583 76.487 93.3099C76.1931 94.0368 76.0712 94.8218 76.131 95.6036C76.1908 96.3854 76.4306 97.1428 76.8317 97.8165C77.0449 98.1301 77.2741 98.4325 77.5184 98.7225L80.4673 102.635C80.5521 102.75 80.6626 102.843 80.7898 102.907C80.9171 102.971 81.0577 103.005 81.2002 103.005C81.3427 103.005 81.4833 102.971 81.6105 102.907C81.7378 102.843 81.8483 102.75 81.9331 102.635L84.8185 98.7918C85.0833 98.4792 85.33 98.1517 85.5571 97.8108C86.0239 97.0369 86.275 96.1522 86.2843 95.2485ZM81.1944 97.4645C80.7516 97.4645 80.3187 97.3332 79.9505 97.0872C79.5822 96.8411 79.2952 96.4914 79.1258 96.0823C78.9563 95.6732 78.912 95.223 78.9984 94.7886C79.0848 94.3543 79.298 93.9553 79.6111 93.6422C79.9243 93.329 80.3233 93.1158 80.7576 93.0294C81.1919 92.943 81.6421 92.9873 82.0513 93.1568C82.4604 93.3263 82.8101 93.6133 83.0561 93.9815C83.3022 94.3497 83.4335 94.7826 83.4335 95.2254C83.4335 95.8193 83.1976 96.3888 82.7777 96.8087C82.3578 97.2286 81.7883 97.4645 81.1944 97.4645Z" fill="#455A64"/>
<path d="M178.403 79.4277C175.244 79.2576 172.095 79.914 169.267 81.3321C166.249 82.7401 163.398 84.8234 161.898 87.7954C160.398 90.7673 160.565 94.7203 162.931 97.0748C158.384 98.2809 154.961 102.326 153.53 106.804C152.099 111.283 152.405 116.153 153.311 120.77C153.744 122.951 154.511 125.386 156.525 126.321C157.818 126.898 159.411 126.783 160.623 127.527C161.835 128.272 162.389 129.634 163.156 130.794C163.889 131.903 164.841 132.852 165.952 133.583C167.063 134.314 168.312 134.811 169.621 135.044C170.931 135.277 172.274 135.241 173.569 134.939C174.864 134.637 176.085 134.075 177.156 133.287L186.482 83.7269C184.652 81.1647 181.536 79.6932 178.403 79.4277Z" fill="#455A64"/>
<path d="M184.669 84.7568C184.476 85.031 184.262 85.2895 184.028 85.5301C183.596 86.0149 182.967 86.6843 182.17 87.5499C180.126 89.7833 177.834 91.7756 175.338 93.4881C172.817 95.205 169.933 96.3151 166.912 96.7313C165.999 96.845 165.077 96.8643 164.159 96.789C163.836 96.789 163.582 96.7197 163.415 96.6966C163.328 96.6903 163.242 96.6708 163.161 96.6389C163.161 96.6389 163.525 96.6389 164.165 96.6735C165.074 96.7037 165.983 96.6535 166.883 96.5235C169.853 96.0501 172.682 94.9291 175.17 93.2399C177.644 91.5415 179.939 89.5964 182.02 87.4345L183.942 85.4782C184.164 85.2185 184.408 84.9773 184.669 84.7568Z" fill="#263238"/>
<path d="M166.487 99.6025C166.452 99.6025 166.302 99.3717 166.175 98.9331C166.027 98.3486 165.997 97.7403 166.088 97.1442C166.183 96.5488 166.399 95.9792 166.723 95.4706C166.977 95.084 167.196 94.8936 167.225 94.8936C166.842 95.6069 166.56 96.3702 166.388 97.1615C166.304 97.9757 166.337 98.7977 166.487 99.6025Z" fill="#263238"/>
<path d="M169.627 101.441C169.68 101.526 169.723 101.617 169.754 101.713C169.829 101.892 169.944 102.157 170.066 102.515C170.424 103.507 170.718 104.521 170.949 105.55C171.756 108.966 171.756 112.522 170.949 115.938C170.094 119.356 168.22 122.433 165.576 124.761C164.776 125.456 163.899 126.057 162.962 126.55C162.639 126.735 162.385 126.833 162.189 126.92C162.098 126.963 162.003 126.998 161.906 127.023C162.23 126.813 162.565 126.62 162.91 126.446C163.813 125.92 164.66 125.303 165.437 124.605C167.995 122.264 169.811 119.225 170.66 115.863C171.458 112.495 171.491 108.991 170.758 105.608C170.493 104.304 170.181 103.3 169.979 102.561C169.838 102.196 169.72 101.822 169.627 101.441Z" fill="#263238"/>
<path d="M171.234 109.265C170.994 109.238 170.758 109.186 170.53 109.109C170.08 108.988 169.428 108.826 168.62 108.636C164.415 107.649 160.093 107.26 155.78 107.482C154.954 107.522 154.285 107.568 153.823 107.609C153.584 107.636 153.342 107.636 153.102 107.609C153.332 107.534 153.571 107.485 153.812 107.464C154.268 107.389 154.937 107.314 155.768 107.245C160.104 106.899 164.466 107.29 168.672 108.399C169.48 108.613 170.12 108.809 170.559 108.976C170.795 109.043 171.022 109.14 171.234 109.265Z" fill="#263238"/>
<g opacity="0.3">
<path d="M163.562 96.6581C166.701 98.6779 170.937 98.4471 174.261 96.7447C177.585 95.0423 180.032 91.8857 181.319 88.3828C176.973 93.4034 170.522 97.0448 163.562 96.6581Z" fill="black"/>
</g>
<g opacity="0.3">
<path d="M161.882 127.008C163.187 126.916 164.455 126.538 165.596 125.899C166.737 125.261 167.723 124.378 168.484 123.315C169.849 121.153 170.676 118.695 170.896 116.147C170.059 118.326 168.999 120.413 167.734 122.374C167.003 123.299 166.168 124.138 165.247 124.873C164.214 125.719 163.082 126.436 161.876 127.008" fill="black"/>
</g>
<path d="M165.122 107.771C165.333 108.248 165.472 108.754 165.532 109.272C165.63 109.745 165.74 110.293 165.907 110.905C166.009 111.252 166.009 111.62 165.907 111.967C165.851 112.17 165.729 112.349 165.562 112.478C165.394 112.606 165.189 112.676 164.978 112.677C164.772 112.648 164.578 112.561 164.42 112.424C164.262 112.288 164.148 112.109 164.089 111.909C163.991 111.564 163.991 111.198 164.089 110.853C164.257 110.224 164.436 109.699 164.58 109.231C164.709 108.729 164.885 108.241 165.105 107.771C165.048 108.289 164.939 108.799 164.782 109.295C164.655 109.785 164.511 110.328 164.361 110.911C164.28 111.207 164.28 111.52 164.361 111.817C164.401 111.962 164.482 112.093 164.593 112.195C164.704 112.297 164.841 112.366 164.99 112.394C165.136 112.39 165.277 112.338 165.392 112.246C165.507 112.155 165.588 112.028 165.624 111.886C165.702 111.591 165.702 111.281 165.624 110.986C165.487 110.44 165.381 109.887 165.307 109.33C165.215 108.36 165.122 107.783 165.122 107.771Z" fill="#263238"/>
<path d="M178.785 89.2091C178.148 88.89 177.531 88.5315 176.939 88.1357C175.483 87.2296 173.975 86.4125 172.42 85.6889C170.87 84.9692 169.236 84.4458 167.555 84.1308C166.263 83.8942 165.443 83.8884 165.443 83.8365C165.633 83.7991 165.827 83.7875 166.02 83.8019C166.544 83.8043 167.066 83.8428 167.584 83.9173C169.301 84.1762 170.973 84.6795 172.547 85.4119C174.116 86.1376 175.623 86.9887 177.054 87.9568C177.602 88.3204 178.041 88.6263 178.341 88.8456C178.504 88.9478 178.653 89.0699 178.785 89.2091Z" fill="#263238"/>
<path d="M177.922 88.8312C177.957 88.8312 177.986 89.0273 177.824 89.2754C177.715 89.4388 177.559 89.5663 177.378 89.6422C177.196 89.7181 176.996 89.739 176.803 89.7022L176.613 89.6676L176.699 89.4888C176.866 89.1544 177.159 88.8994 177.513 88.7793C177.778 88.6927 177.951 88.7273 177.957 88.7793C177.963 88.8312 177.807 88.8716 177.599 88.9927C177.33 89.1408 177.111 89.3657 176.97 89.6388L176.872 89.4253C177.017 89.4491 177.165 89.4374 177.303 89.3911C177.442 89.3449 177.567 89.2656 177.668 89.16C177.824 88.9812 177.876 88.8254 177.922 88.8312Z" fill="#263238"/>
<path d="M226.664 87.7266C226.664 87.7266 224.355 84.6912 224.355 83.462L225.313 76.3177C225.313 76.3177 225.729 75.5964 226.375 76.791C226.952 77.8874 226.629 79.584 226.629 79.584L227.033 81.2633L227.905 79.9937L228.886 75.2213C228.886 75.2213 229.509 71.7588 230.04 72.1339C230.571 72.509 230.732 73.4958 230.461 74.9847C230.19 76.4736 229.843 78.3606 229.843 78.3606C229.843 78.3606 229.774 78.9377 230.328 77.9624C230.882 76.9872 231.482 72.8091 231.707 72.2493C231.933 71.6896 232.002 70.2007 232.862 70.2815C233.721 70.3623 233.219 72.2609 233.219 72.2609L232.4 78.4125C232.4 78.4125 233.196 75.9369 233.346 75.5271C233.496 75.1174 233.733 73.7555 234.022 73.0168C234.31 72.2782 234.737 71.8973 235.112 71.9435C235.292 71.9538 235.461 72.0325 235.584 72.1634C235.708 72.2944 235.776 72.4676 235.776 72.6475L234.518 77.9105C234.518 77.9105 233.82 80.3054 233.866 80.4612C233.912 80.617 234.795 79.4628 234.795 79.4628L235.476 77.7316C235.476 77.7316 236.053 75.3136 236.688 75.2444C237.322 75.1751 237.357 75.6656 237.357 75.6656L236.289 80.0861L234.333 85.1298L232.481 88.9212C232.481 88.9212 229.895 88.5172 229.797 88.65C229.699 88.7827 226.664 87.7266 226.664 87.7266Z" fill="#FFBE9D"/>
<path d="M231.251 85.5884C231.045 85.2338 230.867 84.8633 230.72 84.4804C230.361 83.5827 229.677 82.8533 228.804 82.4375C228.377 82.2508 227.899 82.2142 227.448 82.3336L227.298 82.374L227.263 82.2125C227.096 81.4796 226.865 80.8044 226.761 80.3427C226.667 80.0985 226.625 79.8368 226.64 79.5752C226.76 79.8014 226.857 80.0392 226.929 80.285C227.169 80.903 227.377 81.5328 227.552 82.1721L227.362 82.0509C227.876 81.8998 228.427 81.9324 228.92 82.1432C229.453 82.3659 229.917 82.7264 230.264 83.1877C230.534 83.5581 230.755 83.9615 230.922 84.388C231.1 84.7662 231.211 85.1723 231.251 85.5884Z" fill="#EB996E"/>
<path d="M206.672 84.2598L219.454 103.367L225.225 86.7124L233.085 88.6456C233.085 88.6456 229.876 111.036 228.653 113.258C227.429 115.48 223.592 118.688 218.842 118.042C214.093 117.396 204.635 104.66 204.635 104.66L206.672 84.2598Z" fill="#FF725E"/>
<path d="M221.034 111.037C221.321 108.243 220.715 105.431 219.303 103.004C219.604 103.292 219.85 103.632 220.03 104.008C220.532 104.883 220.894 105.831 221.103 106.818C221.321 107.803 221.387 108.815 221.299 109.819C221.283 110.238 221.193 110.65 221.034 111.037Z" fill="#263238"/>
<g opacity="0.3">
<path d="M207.638 108.733C208.055 108.512 208.414 108.194 208.685 107.807C208.956 107.42 209.131 106.974 209.196 106.506C209.32 105.57 209.29 104.621 209.109 103.695C208.596 99.9269 207.874 96.0027 207.378 92.2344L207.58 108.341" fill="black"/>
</g>
<g opacity="0.3">
<path d="M221.171 110.114C221.424 110.067 221.662 109.959 221.864 109.798C222.065 109.636 222.224 109.428 222.325 109.191C222.525 108.71 222.595 108.184 222.527 107.667C222.436 106.694 222.099 105.76 221.548 104.952C220.997 104.145 220.249 103.49 219.376 103.051C220.635 105.181 221.252 107.63 221.153 110.103" fill="black"/>
</g>
<path d="M221.371 208.753L228.677 225.384L249.567 216.589C248.604 214.65 235.273 215.637 235.273 215.637L230.656 204.344L221.371 208.753Z" fill="#FF725E"/>
<g opacity="0.6">
<path d="M229.261 217.02C229.087 217.166 228.972 217.372 228.939 217.598C228.906 217.823 228.957 218.053 229.083 218.243C229.223 218.423 229.427 218.542 229.652 218.576C229.877 218.61 230.107 218.557 230.294 218.428C230.479 218.273 230.599 218.055 230.632 217.816C230.665 217.577 230.608 217.335 230.473 217.135C230.309 216.963 230.085 216.861 229.847 216.851C229.61 216.84 229.377 216.921 229.198 217.078" fill="white"/>
</g>
<g opacity="0.6">
<path d="M228.673 225.398L228.016 223.667L248.288 215.876C248.288 215.876 249.391 215.876 249.564 216.586L228.673 225.398Z" fill="white"/>
</g>
<path d="M235.663 215.691C235.703 215.794 235.213 216.06 234.849 216.597C234.486 217.133 234.399 217.676 234.272 217.676C234.145 217.676 234.064 217.024 234.52 216.377C234.976 215.731 235.646 215.592 235.663 215.691Z" fill="#263238"/>
<path d="M238.796 215.481C238.865 215.568 238.496 215.926 238.329 216.503C238.161 217.08 238.259 217.582 238.155 217.616C238.052 217.651 237.74 217.109 237.959 216.393C238.179 215.677 238.756 215.383 238.796 215.481Z" fill="#263238"/>
<path d="M241.057 217.502C240.976 217.559 240.618 217.109 240.647 216.446C240.676 215.782 241.057 215.355 241.132 215.418C241.207 215.482 241.045 215.909 241.028 216.457C241.011 217.005 241.155 217.45 241.057 217.502Z" fill="#263238"/>
<path d="M234.322 212.97C234.322 213.079 233.791 213.137 233.231 213.42C232.671 213.702 232.296 214.072 232.204 213.997C232.112 213.922 232.394 213.385 233.058 213.062C233.722 212.739 234.333 212.871 234.322 212.97Z" fill="#263238"/>
<path d="M148.16 225.06L147.266 216.178L154.675 206.847L145.592 201.007L145.35 201.365L140.733 208.336L134.737 213.068L144.259 228.712L153.533 228.089C153.533 228.089 152.702 225.925 148.16 225.06Z" fill="#FF725E"/>
<g opacity="0.6">
<path d="M134.722 213.081L144.244 228.726L153.518 228.103L152.381 226.781L144.81 226.873L135.998 212.077L134.722 213.081Z" fill="white"/>
</g>
<path d="M147.816 220.995C147.758 221.093 147.199 220.827 146.483 220.897C145.767 220.966 145.26 221.295 145.185 221.208C145.11 221.122 145.577 220.556 146.454 220.487C147.331 220.418 147.908 220.92 147.816 220.995Z" fill="#263238"/>
<path d="M147.525 218.793C147.433 218.868 146.983 218.349 146.239 218.257C145.494 218.164 144.917 218.539 144.854 218.447C144.79 218.355 144.917 218.245 145.165 218.084C145.502 217.879 145.899 217.795 146.291 217.847C146.682 217.898 147.045 218.081 147.318 218.366C147.514 218.586 147.566 218.765 147.525 218.793Z" fill="#263238"/>
<path d="M147.401 215.955C147.303 216.019 146.951 215.499 146.293 215.321C145.635 215.142 145.064 215.39 145.012 215.292C144.96 215.194 145.093 215.107 145.341 214.997C145.676 214.855 146.05 214.83 146.401 214.928C146.753 215.025 147.06 215.239 147.274 215.534C147.43 215.759 147.447 215.932 147.401 215.955Z" fill="#263238"/>
<path d="M149.738 213.607C149.629 213.653 149.334 213.139 148.734 212.81C148.134 212.482 147.58 212.458 147.54 212.343C147.499 212.228 148.209 212.031 148.936 212.453C149.663 212.874 149.848 213.584 149.738 213.607Z" fill="#263238"/>
<path d="M150.811 211.611C150.764 211.645 150.435 211.293 149.939 210.693C149.656 210.347 149.362 209.995 149.079 209.631C148.883 209.419 148.721 209.178 148.6 208.916C148.56 208.825 148.54 208.727 148.54 208.627C148.54 208.528 148.56 208.43 148.6 208.339C148.647 208.237 148.723 208.151 148.819 208.091C148.914 208.032 149.025 208.002 149.137 208.004C149.469 208.045 149.781 208.182 150.037 208.396C150.655 208.864 151.077 209.545 151.22 210.307C151.344 210.734 151.299 211.193 151.093 211.588C151.063 211.179 151.011 210.773 150.937 210.37C150.826 209.95 150.63 209.557 150.36 209.216C150.203 209.022 150.02 208.849 149.818 208.702C149.625 208.548 149.397 208.443 149.154 208.396C149.119 208.394 149.084 208.402 149.053 208.419C149.022 208.437 148.997 208.463 148.981 208.495C148.952 208.579 148.952 208.67 148.981 208.754C149.089 208.978 149.225 209.187 149.385 209.378C149.651 209.758 149.916 210.128 150.176 210.491C150.449 210.826 150.663 211.205 150.811 211.611Z" fill="#263238"/>
<path d="M151.162 211.87C151.116 211.87 151.121 211.38 151.583 210.791C151.899 210.395 152.336 210.114 152.827 209.991C153.318 209.868 153.836 209.91 154.301 210.11C154.352 210.147 154.393 210.194 154.422 210.249C154.451 210.304 154.467 210.365 154.469 210.428C154.467 210.536 154.435 210.642 154.376 210.733C154.287 210.851 154.182 210.956 154.065 211.045C153.534 211.473 152.905 211.762 152.235 211.888C151.859 212.005 151.457 212.005 151.081 211.888C151.081 211.818 151.52 211.824 152.172 211.634C152.77 211.462 153.327 211.167 153.805 210.768C153.891 210.703 153.969 210.628 154.036 210.543C154.07 210.456 154.036 210.48 154.036 210.456C153.949 210.413 153.855 210.386 153.759 210.376C153.644 210.357 153.528 210.348 153.412 210.347C153.19 210.341 152.967 210.373 152.755 210.439C152.389 210.546 152.057 210.744 151.791 211.016C151.335 211.455 151.225 211.893 151.162 211.87Z" fill="#263238"/>
<g opacity="0.6">
<path d="M142.11 212.304C142.124 212.522 142.074 212.74 141.964 212.929C141.855 213.119 141.691 213.271 141.495 213.368C141.298 213.464 141.077 213.499 140.86 213.47C140.644 213.44 140.441 213.346 140.277 213.201C140.114 213.055 139.997 212.865 139.943 212.653C139.888 212.441 139.898 212.218 139.97 212.011C140.043 211.805 140.176 211.625 140.351 211.494C140.527 211.363 140.737 211.288 140.956 211.277C141.244 211.262 141.527 211.362 141.743 211.554C141.959 211.746 142.09 212.016 142.11 212.304Z" fill="white"/>
</g>
<path d="M191.125 54.4124C191.522 52.5059 192.207 50.671 193.156 48.9705C194.123 47.2593 195.69 45.9664 197.553 45.3407C199.49 44.8338 201.53 44.8839 203.439 45.4849C204.79 45.946 206.022 46.7008 207.046 47.6951C208.777 49.1898 209.66 51.5212 210.387 53.6852" fill="#FF725E"/>
<path d="M211.618 53.8294C211.281 51.7314 210.154 49.842 208.467 48.5492C206.753 47.3484 204.73 46.6636 202.639 46.5755C199.401 46.3274 195.616 47.2103 193.406 49.5764C191.195 51.9424 189.891 55.1625 190.168 58.0479C190.289 59.3463 191.547 62.8607 192.546 63.7091L211.093 63.2301C212.201 61.4642 211.953 55.9012 211.618 53.8294Z" fill="#FF725E"/>
<path d="M211.29 57.7046C211.09 55.1362 209.929 52.7376 208.039 50.9868C206.15 49.236 203.669 48.2616 201.093 48.2578H200.562C194.838 48.581 191.906 53.6189 192.397 59.332L193.401 85.7277H206.518L206.402 77.1349C206.402 77.1349 211.908 76.2924 211.983 70.787C212.017 68.1325 211.648 62.656 211.29 57.7046Z" fill="#FFBE9D"/>
<path d="M206.444 77.1383C203.89 77.1335 201.39 76.3965 199.242 75.0146C199.242 75.0146 200.927 78.9734 206.415 78.4771L206.444 77.1383Z" fill="#EB996E"/>
<path d="M209.119 62.0441C209.12 62.2489 209.04 62.4458 208.898 62.5932C208.756 62.7407 208.562 62.8273 208.358 62.8347C208.258 62.8426 208.157 62.8303 208.062 62.7986C207.967 62.767 207.879 62.7166 207.804 62.6504C207.729 62.5842 207.667 62.5037 207.624 62.4134C207.58 62.3231 207.555 62.2251 207.55 62.1249C207.55 61.9202 207.629 61.7233 207.771 61.5758C207.913 61.4284 208.107 61.3418 208.312 61.3343C208.412 61.3265 208.512 61.3388 208.607 61.3704C208.702 61.4021 208.79 61.4525 208.865 61.5186C208.941 61.5848 209.002 61.6654 209.046 61.7557C209.089 61.8459 209.114 61.944 209.119 62.0441Z" fill="#263238"/>
<path d="M210.071 60.4013C209.973 60.5052 209.379 60.0609 208.536 60.0609C207.694 60.0609 207.07 60.4821 206.978 60.3782C206.886 60.2744 207.03 60.1532 207.301 59.957C207.667 59.7036 208.102 59.5686 208.548 59.5703C208.987 59.571 209.415 59.7104 209.771 59.9685C210.031 60.1705 210.135 60.3552 210.071 60.4013Z" fill="#263238"/>
<path d="M200.992 62.4401C200.993 62.6443 200.915 62.8412 200.774 62.9888C200.633 63.1364 200.44 63.2232 200.236 63.2307C200.136 63.2377 200.036 63.2249 199.941 63.193C199.846 63.161 199.759 63.1105 199.684 63.0445C199.608 62.9785 199.547 62.8982 199.503 62.8083C199.459 62.7184 199.434 62.6207 199.428 62.5209C199.425 62.3157 199.502 62.1173 199.643 61.9685C199.785 61.8196 199.979 61.732 200.184 61.7245C200.284 61.7175 200.385 61.7305 200.48 61.7628C200.575 61.7951 200.663 61.8461 200.738 61.9127C200.813 61.9793 200.874 62.0603 200.918 62.1509C200.962 62.2414 200.987 62.3397 200.992 62.4401Z" fill="#263238"/>
<path d="M201.757 60.8157C201.664 60.9196 201.064 60.4753 200.222 60.481C199.379 60.4868 198.756 60.9023 198.664 60.7984C198.571 60.6945 198.721 60.5676 198.992 60.3714C199.358 60.1165 199.794 59.9833 200.239 59.9905C200.678 59.988 201.107 60.1254 201.462 60.3829C201.716 60.5849 201.809 60.7696 201.757 60.8157Z" fill="#263238"/>
<path d="M204.821 66.8181C205.267 66.6793 205.728 66.5959 206.194 66.57C206.408 66.57 206.61 66.5065 206.65 66.3622C206.669 66.139 206.618 65.9154 206.506 65.7217L205.871 64.077C204.988 61.734 204.354 59.8066 204.446 59.772C204.538 59.7373 205.335 61.6071 206.212 63.95C206.425 64.5271 206.627 65.1042 206.824 65.6062C206.958 65.8675 206.997 66.1676 206.933 66.4545C206.902 66.5307 206.853 66.5985 206.791 66.6526C206.729 66.7066 206.655 66.7455 206.575 66.7662C206.457 66.8009 206.335 66.8183 206.212 66.8181C205.75 66.8769 205.283 66.8769 204.821 66.8181Z" fill="#263238"/>
<path d="M202.333 67.3898C202.471 67.3898 202.471 68.3015 203.256 68.9536C204.041 69.6057 205.016 69.5307 205.022 69.6346C205.028 69.7385 204.809 69.8135 204.393 69.825C203.855 69.8293 203.333 69.6456 202.916 69.3057C202.517 68.9789 202.262 68.5085 202.206 67.9957C202.171 67.6148 202.269 67.384 202.333 67.3898Z" fill="#263238"/>
<path d="M202.196 58.9191C202.116 59.15 201.267 59.0519 200.281 59.1846C199.294 59.3173 198.492 59.5886 198.353 59.3866C198.295 59.2885 198.434 59.0692 198.751 58.8441C199.18 58.5673 199.667 58.3917 200.174 58.3307C200.681 58.2697 201.195 58.3249 201.677 58.4921C202.064 58.6306 202.231 58.8095 202.196 58.9191Z" fill="#263238"/>
<path d="M210.279 57.953C210.118 58.1607 209.385 58.0338 208.548 58.1088C207.711 58.1838 206.99 58.3973 206.817 58.2184C206.736 58.1261 206.817 57.9241 207.129 57.7106C207.543 57.4404 208.02 57.2832 208.514 57.2547C209.004 57.206 209.498 57.2897 209.945 57.4971C210.227 57.6644 210.349 57.8491 210.279 57.953Z" fill="#263238"/>
<path d="M193.192 63.4205C193.099 63.3801 189.418 62.2952 189.527 66.0578C189.637 69.8203 193.394 68.9432 193.4 68.822C193.405 68.7008 193.192 63.4205 193.192 63.4205Z" fill="#FFBE9D"/>
<path d="M192.537 67.4277C192.537 67.4277 192.468 67.4738 192.359 67.5316C192.203 67.5951 192.029 67.5951 191.874 67.5316C191.626 67.3851 191.422 67.1754 191.282 66.9239C191.142 66.6724 191.071 66.3882 191.077 66.1004C191.059 65.7773 191.112 65.4541 191.233 65.154C191.265 65.0358 191.325 64.9272 191.409 64.8377C191.492 64.7481 191.596 64.6804 191.712 64.6404C191.787 64.6183 191.867 64.6229 191.938 64.6534C192.01 64.684 192.069 64.7385 192.105 64.8077C192.157 64.9116 192.133 64.9866 192.157 64.9924C192.18 64.9982 192.232 64.9289 192.197 64.7731C192.174 64.6815 192.121 64.6002 192.047 64.5423C191.94 64.4657 191.807 64.4345 191.678 64.4557C191.524 64.4913 191.383 64.5658 191.266 64.6719C191.15 64.778 191.063 64.9122 191.014 65.0616C190.861 65.3897 190.794 65.7509 190.818 66.1119C190.808 66.4479 190.898 66.7792 191.077 67.0637C191.256 67.3483 191.515 67.5734 191.822 67.7105C191.921 67.7352 192.024 67.7377 192.123 67.7177C192.223 67.6977 192.317 67.6558 192.399 67.595C192.532 67.52 192.549 67.4335 192.537 67.4277Z" fill="#EB996E"/>
<path d="M195.658 52.244L197.517 50.6397L203.426 51.5458L207.581 50.4782L208.672 51.6727C208.204 52.3017 209.197 49.6183 208.25 48.9027C206.213 47.3562 204.494 47.4139 201.902 47.3677C199.311 47.3215 194.141 50.4378 192.288 52.2036C190.805 53.6175 190.817 54.8351 190.817 54.8351C190.58 56.8722 191.717 59.1805 192.167 61.183C192.404 62.2102 192.854 65.3264 192.854 65.3264C193.719 65.3264 194.008 64.6397 193.91 63.7856L193.748 60.4328C194.615 59.7498 195.235 58.8025 195.514 57.7348C195.793 56.6672 195.716 55.5376 195.295 54.5177C195.099 54.2176 194.62 52.8211 195.658 52.244Z" fill="#263238"/>
<path d="M194.895 53.1242C195.095 52.5966 195.457 52.1455 195.928 51.8347C196.399 51.524 196.957 51.3695 197.521 51.393C198.651 51.4667 199.715 51.9535 200.51 52.7607C200.712 52.9783 200.939 53.1719 201.185 53.3378C201.309 53.4142 201.449 53.4584 201.595 53.4665C201.74 53.4745 201.885 53.4462 202.016 53.3839C202.097 53.3435 202.178 53.2801 202.264 53.3031C202.324 53.3276 202.373 53.3726 202.403 53.4301C202.617 53.7762 202.917 54.0606 203.274 54.2553C203.454 54.3477 203.658 54.3813 203.858 54.3513C204.058 54.3212 204.243 54.2291 204.388 54.088C204.594 54.2775 204.852 54.4028 205.129 54.4484C205.405 54.4939 205.689 54.4579 205.946 54.3446C206.202 54.2314 206.42 54.0458 206.573 53.8106C206.726 53.5754 206.807 53.3008 206.806 53.0204C207.06 53.0729 207.323 53.0519 207.565 52.9599C207.808 52.8679 208.018 52.7087 208.173 52.501C208.447 52.1912 208.648 51.8245 208.763 51.4274C208.878 51.0303 208.903 50.6127 208.837 50.2048C208.77 49.7968 208.614 49.4086 208.38 49.0682C208.145 48.7279 207.838 48.4437 207.481 48.2364C206.914 47.9482 206.297 47.77 205.663 47.7112C204.676 47.5729 203.682 47.4978 202.685 47.4862C202.247 47.462 201.807 47.5148 201.387 47.642C200.81 47.8497 200.337 48.3172 199.737 48.3922C199.343 48.41 198.95 48.3472 198.582 48.2075C198.05 48.024 197.488 47.9418 196.926 47.9651C195.824 48.0632 194.912 48.8538 194.185 49.6964C193.636 50.2523 193.239 50.9398 193.031 51.6931C192.934 52.0713 192.952 52.4697 193.083 52.8375C193.213 53.2054 193.45 53.5262 193.764 53.759C193.89 53.846 194.036 53.9019 194.188 53.9219C194.341 53.942 194.496 53.9257 194.641 53.8744C194.711 53.8454 194.775 53.8028 194.829 53.749C194.882 53.6952 194.925 53.6314 194.954 53.5612C194.983 53.4909 194.997 53.4157 194.997 53.3397C194.997 53.2637 194.982 53.1886 194.953 53.1185" fill="#263238"/>
<path d="M192.29 61.7559C191.886 58.8705 192.37 55.408 194.465 52.9439C196.56 50.4797 200.265 48.9736 202.717 49.441C204.628 49.8046 208.783 49.9546 210.3 53.9538L210.087 50.6529C210.087 50.6529 208.24 46.9018 202.787 47.0173C197.333 47.1327 194.956 47.7675 192.318 50.976C191.439 51.9538 190.836 53.1482 190.571 54.4362C190.307 55.7243 190.39 57.0596 190.812 58.305C191.193 59.4999 191.688 60.6556 192.29 61.7559Z" fill="#FF725E"/>
<path d="M207.308 47.8225C207.238 47.8068 207.17 47.7836 207.106 47.7532C206.979 47.7071 206.794 47.6263 206.529 47.5455C205.834 47.2948 205.12 47.1018 204.393 46.9684C203.318 46.7889 202.227 46.7251 201.139 46.778C199.807 46.8402 198.491 47.1028 197.238 47.557C195.985 48.0326 194.816 48.7047 193.775 49.548C193.324 49.9157 192.909 50.3254 192.534 50.7714C192.35 50.9733 192.2 51.1869 192.044 51.3888C191.888 51.5908 191.755 51.7928 191.64 51.9948C191.255 52.6223 190.93 53.2851 190.67 53.9742C190.572 54.2108 190.515 54.407 190.468 54.5512C190.45 54.6197 190.423 54.6856 190.388 54.7475L190.44 54.5455C190.486 54.4127 190.532 54.2165 190.624 53.9684C190.865 53.2683 191.179 52.5952 191.559 51.9602C191.675 51.7582 191.819 51.5562 191.957 51.3427C192.096 51.1292 192.263 50.9156 192.448 50.7079C192.827 50.2576 193.246 49.8423 193.7 49.4672C194.738 48.6116 195.907 47.9295 197.163 47.4474C198.429 46.9873 199.758 46.7264 201.104 46.6741C202.201 46.6207 203.301 46.6943 204.382 46.8934C205.109 47.0234 205.823 47.2165 206.517 47.4705C206.765 47.5628 206.944 47.6551 207.094 47.7071L207.308 47.8225Z" fill="#263238"/>
<path d="M192.652 56.9235C192.593 56.9076 192.536 56.8822 192.485 56.8485C192.341 56.7594 192.204 56.6591 192.075 56.5484C191.649 56.1791 191.324 55.7084 191.128 55.1798C190.932 54.6513 190.873 54.082 190.956 53.5245C190.982 53.3577 191.022 53.1936 191.077 53.034C191.117 52.9185 191.146 52.8608 191.152 52.8666C191.158 52.8724 191.088 53.1205 191.048 53.536C190.997 54.0772 191.066 54.6231 191.25 55.1345C191.442 55.6437 191.745 56.1032 192.139 56.4791C192.439 56.7677 192.664 56.9062 192.652 56.9235Z" fill="#263238"/>
<path d="M194.248 53.6206C194.068 53.542 193.906 53.4259 193.775 53.2801C193.432 52.9451 193.173 52.5338 193.019 52.0798C192.859 51.6262 192.821 51.1387 192.909 50.6659C192.93 50.4622 192.995 50.2654 193.099 50.0889C193.099 50.0889 193.048 50.3082 192.996 50.6659C192.942 51.1231 192.992 51.5864 193.14 52.0221C193.292 52.4501 193.53 52.8427 193.838 53.1763C194.075 53.4763 194.259 53.6033 194.248 53.6206Z" fill="#263238"/>
<path d="M196.828 51.2044C196.68 51.1364 196.545 51.0426 196.43 50.9274C196.133 50.664 195.887 50.3493 195.703 49.9983C195.521 49.6391 195.417 49.246 195.397 48.8441C195.376 48.6815 195.389 48.5163 195.437 48.3594C195.466 48.8998 195.595 49.4301 195.818 49.9233C196.094 50.3949 196.434 50.826 196.828 51.2044Z" fill="#263238"/>
<path d="M199.316 46.9531C199.417 47.0577 199.498 47.1812 199.552 47.3167C199.713 47.6247 199.839 47.9499 199.927 48.2862C200.013 48.6243 200.064 48.9705 200.077 49.3192C200.091 49.4643 200.079 49.6107 200.043 49.752C200.002 49.752 200.002 49.0941 199.8 48.3208C199.598 47.5475 199.281 46.9704 199.316 46.9531Z" fill="#263238"/>
<path d="M204.103 46.8516C204.193 46.9657 204.258 47.0974 204.293 47.2382C204.402 47.5712 204.447 47.9216 204.426 48.2712C204.408 48.6205 204.324 48.9633 204.178 49.2811C204.128 49.4186 204.047 49.5429 203.941 49.6446C204.131 49.2062 204.252 48.7409 204.299 48.2654C204.305 47.787 204.239 47.3104 204.103 46.8516Z" fill="#263238"/>
<path d="M207.174 47.7207C207.283 47.8341 207.369 47.9673 207.428 48.1131C207.587 48.4615 207.675 48.8382 207.687 49.2211C207.699 49.6024 207.63 49.9819 207.485 50.3349C207.437 50.4858 207.359 50.6253 207.255 50.7446C207.444 50.2585 207.546 49.7427 207.555 49.2211C207.518 48.7023 207.389 48.1941 207.174 47.7207Z" fill="#263238"/>
<path d="M210.138 50.3115C210.188 50.428 210.21 50.5545 210.202 50.6809C210.223 51.298 210.018 51.9017 209.625 52.3775C209.469 52.5564 209.348 52.6372 209.342 52.6256C209.591 52.2906 209.799 51.9263 209.959 51.5407C210.07 51.1402 210.131 50.7272 210.138 50.3115Z" fill="#263238"/>
<path d="M211.636 53.5352C211.635 53.8563 211.53 54.1683 211.335 54.4239C211.179 54.7028 210.933 54.9204 210.637 55.0414C210.844 54.8228 211.037 54.5915 211.214 54.3489C211.509 53.9623 211.595 53.5294 211.636 53.5352Z" fill="#263238"/>
<path d="M211.837 57.1734C211.866 57.1734 211.837 57.3984 211.636 57.5715C211.434 57.7445 211.22 57.7618 211.22 57.7272C211.22 57.6926 211.388 57.6234 211.549 57.4734C211.711 57.3234 211.797 57.1619 211.837 57.1734Z" fill="#263238"/>
<path d="M192.245 60.1717C191.816 60.112 191.407 59.9537 191.049 59.7095C190.692 59.4652 190.396 59.1415 190.185 58.7637C190.74 59.4014 191.449 59.8862 192.245 60.1717Z" fill="#263238"/>
<path d="M192.568 61.9775C192.568 62.0063 192.384 62.1967 192.049 62.214C191.714 62.2313 191.472 62.0698 191.507 62.0409C191.541 62.0121 191.749 62.1044 192.043 62.0813C192.337 62.0582 192.551 61.9486 192.568 61.9775Z" fill="#263238"/>
<g opacity="0.3">
<path d="M206.862 47.7008C205.683 46.9269 204.36 46.3979 202.972 46.1451C201.584 45.8923 200.16 45.9209 198.783 46.2292C197.394 46.5839 196.09 47.2108 194.946 48.0737C193.802 48.9366 192.84 50.0181 192.118 51.2556C192.118 51.2556 195.517 46.9563 200.387 46.8063C205.258 46.6562 206.862 47.7008 206.862 47.7008Z" fill="black"/>
</g>
<path d="M203.1 62.179C203.078 61.9519 203.041 61.7264 202.991 61.5038C202.829 60.8997 202.469 60.3673 201.969 59.9919C201.63 59.7348 201.234 59.5609 200.815 59.4841C200.332 59.3961 199.834 59.4379 199.372 59.6052C198.864 59.7924 198.422 60.1257 198.103 60.5632C197.758 61.0326 197.573 61.5996 197.573 62.1819C197.573 62.7642 197.758 63.3312 198.103 63.8006C198.422 64.2381 198.864 64.5714 199.372 64.7586C199.804 64.9155 200.268 64.9623 200.723 64.8948C201.177 64.8273 201.608 64.6476 201.975 64.3719C202.474 63.9956 202.834 63.4635 202.997 62.86C203.048 62.6356 203.085 62.4081 203.106 62.179C203.123 62.4118 203.101 62.6456 203.043 62.8715C202.898 63.4975 202.541 64.0542 202.033 64.4469C201.679 64.7158 201.269 64.8995 200.833 64.9836C200.331 65.0823 199.812 65.0424 199.332 64.8682C199.071 64.7776 198.826 64.6472 198.605 64.4816C198.375 64.3213 198.17 64.1267 197.999 63.9045C197.636 63.4144 197.44 62.8207 197.44 62.2108C197.44 61.6008 197.636 61.0071 197.999 60.517C198.168 60.2845 198.372 60.08 198.605 59.9111C198.826 59.7455 199.071 59.6151 199.332 59.5244C199.781 59.3601 200.264 59.3126 200.737 59.3863C201.209 59.4599 201.655 59.6524 202.033 59.9457C202.541 60.3385 202.898 60.8951 203.043 61.5211C203.096 61.7361 203.115 61.9581 203.1 62.179Z" fill="#455A64"/>
<path d="M211.474 61.8524C211.474 61.8524 211.474 61.6042 211.359 61.1772C211.197 60.5731 210.837 60.0407 210.337 59.6653C209.998 59.4071 209.603 59.2331 209.183 59.1574C208.7 59.0695 208.202 59.1113 207.74 59.2786C207.493 59.3691 207.259 59.4955 207.048 59.6537C206.705 59.9094 206.427 60.2416 206.235 60.6238C206.044 61.006 205.944 61.4277 205.944 61.8553C205.944 62.2829 206.044 62.7045 206.235 63.0867C206.427 63.469 206.705 63.8011 207.048 64.0568C207.259 64.215 207.493 64.3414 207.74 64.4319C208.172 64.5888 208.636 64.6357 209.091 64.5682C209.545 64.5006 209.976 64.3209 210.343 64.0453C210.842 63.6689 211.202 63.1369 211.365 62.5334C211.474 62.1063 211.457 61.8524 211.48 61.8524C211.492 62.0851 211.471 62.3183 211.416 62.5449C211.267 63.1702 210.909 63.7259 210.401 64.1203C210.047 64.3892 209.637 64.5729 209.2 64.657C208.699 64.7556 208.18 64.7157 207.7 64.5416C207.44 64.4497 207.195 64.3194 206.973 64.1549C206.67 63.9335 206.413 63.6541 206.219 63.3331C206.024 63.0121 205.895 62.6557 205.838 62.2844C205.782 61.9132 205.8 61.5345 205.89 61.1701C205.981 60.8058 206.143 60.463 206.367 60.1616C206.703 59.7054 207.167 59.3598 207.7 59.169C208.149 59.0046 208.632 58.9571 209.105 59.0308C209.577 59.1045 210.023 59.297 210.401 59.5902C210.909 59.9846 211.267 60.5403 211.416 61.1657C211.469 61.3905 211.488 61.6219 211.474 61.8524Z" fill="#455A64"/>
<path d="M205.969 60.7848C205.969 60.7848 205.808 60.6751 205.531 60.5424C205.168 60.3596 204.764 60.2756 204.359 60.2989C203.953 60.3222 203.561 60.452 203.222 60.6751C202.957 60.8425 202.824 60.9868 202.812 60.9694C202.9 60.8187 203.022 60.6919 203.17 60.6001C203.505 60.3488 203.906 60.2004 204.324 60.1731C204.748 60.1504 205.169 60.2506 205.536 60.4616C205.704 60.5336 205.852 60.6443 205.969 60.7848Z" fill="#455A64"/>
<path d="M197.688 61.6647C197.688 61.6993 196.575 62.0802 195.172 62.5187C193.77 62.9573 192.627 63.2747 192.622 63.2459C192.616 63.217 193.735 62.8304 195.132 62.3918C196.528 61.9532 197.677 61.63 197.688 61.6647Z" fill="#455A64"/>
<path d="M200.198 64.4997C200.032 64.5125 199.865 64.4909 199.707 64.4362C199.323 64.3265 198.969 64.129 198.674 63.8592C198.378 63.584 198.149 63.2444 198.005 62.8666C197.938 62.714 197.904 62.5486 197.907 62.3818C197.977 62.5283 198.038 62.6786 198.092 62.832C198.425 63.5351 199.022 64.0784 199.754 64.3439C199.904 64.3879 200.053 64.4399 200.198 64.4997Z" fill="white"/>
<path d="M207.058 63.5869C207.058 63.5869 206.879 63.5523 206.683 63.3388C206.445 63.0571 206.287 62.716 206.227 62.352C206.153 61.9922 206.153 61.621 206.227 61.2613C206.249 61.1112 206.311 60.9697 206.406 60.8516C206.406 60.8516 206.36 61.0131 206.314 61.2844C206.26 61.6304 206.26 61.9828 206.314 62.3289C206.373 62.6723 206.509 62.9978 206.712 63.2811C206.82 63.3917 206.935 63.4939 207.058 63.5869Z" fill="white"/>
<path d="M203.009 67.5846C203.009 67.5557 203.09 67.4115 203.251 67.2558C203.413 67.1 203.551 66.9904 203.58 67.0193C203.609 67.0481 203.499 67.1923 203.338 67.3481C203.176 67.5038 203.038 67.6077 203.009 67.5846Z" fill="#263238"/>
<path d="M203.413 67.8416C203.413 67.8416 203.493 67.6397 203.649 67.4435C203.805 67.2474 203.955 67.0974 203.978 67.1205C204.001 67.1436 203.903 67.3224 203.747 67.5185C203.591 67.7147 203.441 67.8647 203.413 67.8416Z" fill="#263238"/>
<path d="M203.822 68.1515C203.788 68.1515 203.857 67.9496 203.967 67.7362C204.076 67.5227 204.197 67.367 204.232 67.3785C204.267 67.3901 204.197 67.5862 204.082 67.7996C203.967 68.0131 203.851 68.1688 203.822 68.1515Z" fill="#263238"/>
<path d="M204.449 68.1531C204.414 68.1531 204.397 68.0204 204.408 67.8647C204.42 67.7089 204.46 67.582 204.495 67.582C204.529 67.582 204.547 67.7147 204.535 67.8705C204.524 68.0262 204.489 68.1531 204.449 68.1531Z" fill="#263238"/>
<path d="M205.055 68.2624C205.015 68.2624 204.986 68.1471 204.986 68.0086C204.986 67.8702 205.015 67.749 205.055 67.749C205.095 67.749 205.119 67.8644 205.119 68.0086C205.119 68.1528 205.09 68.2624 205.055 68.2624Z" fill="#263238"/>
<path d="M205.627 68.3051C205.592 68.3051 205.529 68.1724 205.483 67.9878C205.437 67.8032 205.437 67.6417 205.483 67.6359C205.529 67.6301 205.581 67.7744 205.621 67.9589C205.662 68.1435 205.662 68.2993 205.627 68.3051Z" fill="#263238"/>
<path d="M192.62 68.9651C192.646 69.192 192.586 69.4206 192.452 69.6056C192.387 69.7152 192.298 69.8092 192.192 69.881C192.087 69.9527 191.967 70.0006 191.84 70.0211C191.684 70.0417 191.525 70.0193 191.381 69.9562C191.237 69.8932 191.112 69.7919 191.021 69.6633C190.931 69.5377 190.868 69.3953 190.834 69.2446C190.8 69.094 190.797 68.9381 190.825 68.7862C190.884 68.5383 191.034 68.3218 191.246 68.1802C191.336 68.1104 191.439 68.0603 191.55 68.0335C191.66 68.0066 191.775 68.0035 191.887 68.0244C191.68 68.0592 191.483 68.1379 191.31 68.2552C191.124 68.3978 190.997 68.6029 190.952 68.8323C190.912 69.1061 190.978 69.3847 191.136 69.6114C191.216 69.7212 191.322 69.8079 191.446 69.8627C191.57 69.9175 191.706 69.9383 191.84 69.923C191.95 69.9076 192.056 69.8687 192.149 69.809C192.243 69.7492 192.323 69.67 192.383 69.5768C192.5 69.3898 192.58 69.1822 192.62 68.9651Z" fill="#263238"/>
<path d="M184.847 153.799C185.545 153.799 214.376 183.807 214.376 185.89C214.376 187.974 218.658 209.112 220.724 212.367C222.79 215.621 224.03 214.86 224.03 214.86L233.616 210.393C233.616 210.393 228.306 177.5 227.141 173.8C225.975 170.101 203.988 141.011 203.988 141.011L183.213 144.964L184.847 153.799Z" fill="#263238"/>
<path d="M174.201 138.805L168.21 175.796C168.21 175.796 149.473 194.556 148.307 196.645C148.307 196.645 146.218 195.947 145.52 197.8C144.963 199.542 144.529 201.322 144.221 203.126L153.524 210.94C153.524 210.94 178.102 190.563 180.427 187.539C182.753 184.515 192.494 164.577 194.358 159.464C196.222 154.351 198.398 143.012 198.398 143.012L174.201 138.805Z" fill="#263238"/>
<path d="M219.2 179.185C219.119 179.588 218.979 179.977 218.784 180.339C218.372 181.241 217.878 182.102 217.307 182.913C216.743 183.732 216.093 184.489 215.368 185.169C215.082 185.47 214.744 185.717 214.37 185.896C214.633 185.586 214.917 185.293 215.218 185.019C215.886 184.295 216.502 183.524 217.059 182.711C218.386 180.864 219.113 179.133 219.2 179.185Z" fill="#455A64"/>
<path d="M171.569 178.345C170.833 178.295 170.136 177.993 169.595 177.491C168.999 177.069 168.56 176.459 168.349 175.76C168.796 176.294 169.276 176.801 169.786 177.277C170.357 177.67 170.953 178.026 171.569 178.345Z" fill="#455A64"/>
<path d="M152.23 201.465C151.291 200.987 150.479 200.29 149.864 199.434C149.248 198.577 148.847 197.586 148.693 196.543C149.083 197.488 149.558 198.396 150.113 199.255C150.746 200.058 151.455 200.799 152.23 201.465Z" fill="#455A64"/>
<path d="M181.932 144.277C181.913 144.421 181.872 144.561 181.811 144.693C181.675 145.061 181.513 145.42 181.326 145.766C180.083 148.08 178.114 149.921 175.723 151.006C175.366 151.171 174.997 151.31 174.62 151.421C174.487 151.477 174.344 151.509 174.199 151.514C174.199 151.462 174.776 151.26 175.63 150.815C176.764 150.232 177.813 149.496 178.747 148.628C179.676 147.753 180.481 146.755 181.141 145.662C181.644 144.82 181.863 144.254 181.932 144.277Z" fill="#455A64"/>
<path d="M196.624 153.712C196.54 154.035 196.432 154.351 196.301 154.658C196.047 155.305 195.724 156.159 195.314 157.197C194.46 159.327 193.26 162.27 191.823 165.473C190.386 168.676 188.984 171.532 187.956 173.587L186.721 176.01C186.581 176.313 186.417 176.604 186.231 176.882C186.337 176.565 186.466 176.256 186.618 175.958L187.772 173.494C188.753 171.411 190.12 168.549 191.552 165.352C192.983 162.155 194.218 159.229 195.118 157.111C195.562 156.095 195.926 155.253 196.197 154.612C196.316 154.302 196.459 154.001 196.624 153.712Z" fill="#455A64"/>
<path d="M191.566 78.7181C191.566 78.7181 185.218 81.2746 183.747 85.7354C182.996 87.9918 178.622 104.491 178.622 104.491C178.622 104.491 172.851 136.172 173.648 139.19L206.674 144.263C207.492 143.272 207.904 142.008 207.828 140.725L207.292 131.232L207.678 90.5425C207.683 90.2392 207.662 89.9361 207.615 89.6365L206.461 82.1344L206.83 78.897L192.028 74.9844L191.566 78.7181Z" fill="#FF725E"/>
<path d="M190.679 76.1696C190.719 75.9169 190.812 75.6755 190.951 75.4607C191.09 75.246 191.273 75.0629 191.487 74.9231C191.701 74.7834 191.942 74.6901 192.195 74.6493C192.447 74.6086 192.706 74.6213 192.953 74.6865L206.486 78.2587C206.893 78.3667 207.25 78.6115 207.498 78.9519C207.746 79.2924 207.87 79.7078 207.848 80.1284L207.813 80.7055C207.796 80.9822 207.717 81.2516 207.581 81.4932C207.445 81.7349 207.256 81.9425 207.029 82.1004C206.801 82.2582 206.54 82.3622 206.266 82.4045C205.992 82.4468 205.712 82.4262 205.447 82.3444L191.949 78.201C191.528 78.0727 191.167 77.7964 190.934 77.423C190.701 77.0496 190.61 76.6044 190.679 76.1696Z" fill="#FF725E"/>
<path d="M206.676 82.1827C206.438 82.1621 206.202 82.1176 205.972 82.05L204.096 81.5768C202.51 81.1613 200.328 80.5727 197.927 79.9032L194.707 78.9915C194.303 78.9283 193.904 78.8358 193.513 78.7145C193.327 78.6555 193.147 78.5781 192.976 78.4836C192.884 78.4365 192.8 78.374 192.728 78.299C192.666 78.2217 192.612 78.1386 192.566 78.0508C192.428 77.7334 192.384 77.3828 192.439 77.0409C192.478 76.7571 192.553 76.4796 192.665 76.2157C192.815 75.845 193.025 75.5018 193.288 75.2C193.478 74.9981 193.605 74.9173 193.611 74.9288C193.274 75.3321 193.007 75.7884 192.82 76.2792C192.598 76.8099 192.581 77.4047 192.774 77.9469C192.901 78.2355 193.236 78.3451 193.594 78.4663C193.971 78.5785 194.357 78.6615 194.748 78.7145L197.974 79.6032C200.374 80.2726 202.55 80.8958 204.12 81.3344L205.972 81.9115C206.215 81.9791 206.451 82.0699 206.676 82.1827Z" fill="#263238"/>
<path d="M206.804 84.502C206.836 84.5991 206.855 84.7 206.862 84.802C206.891 85.0329 206.925 85.3156 206.966 85.6619C207.047 86.4121 207.15 87.497 207.248 88.8416C207.462 91.5308 207.676 95.2472 207.797 99.356C207.918 103.465 207.906 107.193 207.797 109.888C207.756 111.232 207.699 112.323 207.647 113.073C207.618 113.425 207.589 113.708 207.572 113.939C207.572 114.041 207.556 114.142 207.525 114.239C207.513 114.139 207.513 114.038 207.525 113.939C207.525 113.702 207.525 113.419 207.525 113.067C207.525 112.317 207.572 111.227 207.583 109.882C207.624 107.193 207.583 103.471 207.479 99.3618C207.375 95.253 207.179 91.5423 207.023 88.8589C206.943 87.5432 206.879 86.4698 206.827 85.6734C206.827 85.3272 206.798 85.0386 206.787 84.8078C206.781 84.7055 206.787 84.6029 206.804 84.502Z" fill="#263238"/>
<path d="M197.206 76.0049C196.983 76.5476 196.804 77.1072 196.67 77.6784C196.628 78.2547 196.628 78.8333 196.67 79.4097C196.5 79.1457 196.386 78.8499 196.334 78.5403C196.283 78.2308 196.295 77.9139 196.37 77.6092C196.396 77.2996 196.483 76.9984 196.627 76.723C196.771 76.4476 196.968 76.2035 197.206 76.0049Z" fill="#263238"/>
<path d="M201.05 76.9004C201.079 76.9004 201.218 77.062 201.333 77.3967C201.473 77.8428 201.499 78.317 201.409 78.7758C201.318 79.2346 201.113 79.6632 200.814 80.0224C200.583 80.2878 200.387 80.3975 200.364 80.3686C200.699 79.8615 200.952 79.3044 201.114 78.7182C201.184 78.1125 201.163 77.4997 201.05 76.9004Z" fill="#263238"/>
<path d="M204.792 77.9307C204.821 77.9307 204.977 78.0692 205.115 78.3923C205.295 78.8222 205.351 79.2939 205.277 79.7539C205.203 80.2139 205.001 80.6439 204.694 80.995C204.458 81.2604 204.261 81.3585 204.238 81.3297C204.632 80.8679 204.894 80.3081 204.995 79.7097C205.097 79.1113 205.035 78.4966 204.815 77.9307H204.792Z" fill="#263238"/>
<path d="M202.845 87.0877C201.598 83.406 198.574 80.1916 194.765 79.4356C190.957 78.6797 187.379 79.4876 184.661 82.6557L181.198 90.0135C182.733 89.1594 185.192 84.1677 188.054 82.4711C190.916 80.7745 194.102 80.7398 196.456 83.1001C198.188 84.8313 199.486 87.3474 199.446 89.8173C199.365 94.6532 197.351 99.1891 195.885 103.806C194.004 109.727 192.515 116.04 188.169 120.489C184.678 124.061 180.004 126.191 175.474 128.239C174.4 129.122 171.919 132.331 173.2 132.856C174.481 133.381 179.138 131.702 180.46 131.292C183.755 130.288 187.177 129.209 189.693 126.843C192.001 124.644 193.282 121.58 194.483 118.614C196.791 112.889 198.303 106.922 200.617 101.192C202.579 96.3152 204.53 92.0737 202.845 87.0877Z" fill="#455A64"/>
<path d="M197.578 148.721L194.946 144.277L186.14 147.347C186.14 147.347 186.717 155.173 187.871 155.398C188.218 155.458 188.574 155.441 188.914 155.35C189.254 155.258 189.57 155.093 189.839 154.867C189.839 154.867 190.497 156.91 191.813 156.996L192.546 157.031C192.782 157.215 194.121 158.185 195.229 157.827C195.229 157.827 196.245 160.032 197.064 159.801C197.884 159.57 198.415 156.915 198.415 156.915L197.578 148.721Z" fill="#FFBE9D"/>
<path d="M189.627 81.426C188.124 81.9518 186.783 82.8572 185.733 84.0544C184.684 85.2516 183.961 86.6999 183.637 88.2586C181.906 96.5512 177.774 118.267 177.941 121.325C178.154 125.215 185.57 148.263 185.57 148.263L195.957 145.136L191.243 119.167C191.243 119.167 198.6 94.8719 199.178 91.1786C199.812 87.1448 196.292 79.1176 189.627 81.426Z" fill="#FF725E"/>
<path d="M189.626 81.4439C189.889 81.3394 190.159 81.2527 190.433 81.1842C191.234 80.9656 192.073 80.9223 192.892 81.0573C194.213 81.3028 195.418 81.9712 196.325 82.9616C198.245 85.103 199.318 87.8707 199.344 90.7465C199.332 91.316 199.26 91.8827 199.13 92.4373C199.015 93.0144 198.87 93.5915 198.732 94.1685C198.155 96.4769 197.439 98.9756 196.677 101.619C195.148 106.905 193.371 112.82 191.397 119.208V119.145L196.123 145.113V145.246L195.996 145.286L191.126 146.746L185.586 148.414L185.442 148.455L185.401 148.316C183.86 143.59 182.406 138.973 181.067 134.506C180.404 132.273 179.757 130.08 179.175 127.916C178.886 126.837 178.598 125.769 178.349 124.702C178.217 124.171 178.107 123.634 178.003 123.103C177.906 122.572 177.846 122.034 177.824 121.493C177.853 120.434 177.947 119.378 178.107 118.331C178.251 117.304 178.396 116.294 178.557 115.295C178.869 113.305 179.209 111.383 179.538 109.525C180.202 105.808 180.86 102.363 181.466 99.2295L183.133 90.7811C183.331 89.6133 183.593 88.4574 183.918 87.3186C184.24 86.379 184.699 85.4922 185.28 84.6871C186.084 83.5728 187.127 82.6521 188.333 81.9922C188.747 81.7554 189.184 81.562 189.637 81.4151C189.637 81.4151 189.527 81.4728 189.308 81.5651C188.983 81.7001 188.667 81.8563 188.362 82.0325C187.179 82.7051 186.159 83.629 185.372 84.7391C184.806 85.5397 184.359 86.4183 184.045 87.3475C183.735 88.4765 183.483 89.6206 183.289 90.7753C182.81 93.2625 182.268 96.096 181.662 99.2295C181.056 102.363 180.427 105.82 179.775 109.53C179.452 111.389 179.123 113.31 178.811 115.301C178.649 116.294 178.505 117.304 178.367 118.331C178.215 119.363 178.125 120.404 178.095 121.447C178.132 121.975 178.205 122.499 178.315 123.017C178.413 123.548 178.528 124.073 178.661 124.604C178.903 125.666 179.198 126.733 179.486 127.807C180.063 129.965 180.721 132.158 181.385 134.385C182.729 138.846 184.184 143.463 185.724 148.189L185.54 148.091L191.08 146.429L195.95 144.963L195.846 145.136C194.173 135.903 192.586 127.114 191.143 119.168V119.133V119.098C193.123 112.71 194.917 106.807 196.464 101.526C197.231 98.8891 197.947 96.4076 198.541 94.0935C198.866 92.9987 199.077 91.8732 199.17 90.7349C199.15 87.9 198.109 85.1673 196.239 83.0367C195.353 82.0576 194.175 81.3898 192.88 81.1323C192.071 80.9892 191.242 81.0187 190.445 81.2189C190.24 81.2613 190.038 81.3152 189.839 81.3805C189.769 81.4055 189.698 81.4267 189.626 81.4439Z" fill="#263238"/>
<path d="M191.366 119.009C189.715 117.821 187.745 117.155 185.711 117.099C186.738 116.929 187.791 117.014 188.777 117.347C189.763 117.681 190.653 118.251 191.366 119.009Z" fill="#263238"/>
<g opacity="0.3">
<path d="M183.056 140.992C178.214 133.814 175.669 123.778 178.439 116.64C177.683 120.916 178.404 124.823 179.68 128.972C180.955 133.121 182.479 137.259 182.727 141.593" fill="black"/>
</g>
<path d="M168.15 243.255L153.816 228.13L142.066 228.794L133.745 232.083L128.464 243.255" fill="#F5F5F5"/>
<path d="M142.075 228.794L154.245 243.255H168.159L153.824 228.13L142.075 228.794Z" fill="#E0E0E0"/>
<path d="M128.464 243.264C128.484 243.19 128.511 243.119 128.545 243.051L128.805 242.445C129.059 241.896 129.382 241.135 129.844 240.171L133.629 232.04V231.994H133.681L141.991 228.681H142.037L147.681 228.358L153.792 228.018H153.862L153.908 228.07L164.122 238.919L167.088 242.116C167.417 242.473 167.665 242.762 167.873 242.981C167.972 243.075 168.059 243.179 168.133 243.293C168.029 243.206 167.931 243.114 167.839 243.016L167.013 242.185L163.984 239.046C161.398 236.345 157.809 232.582 153.694 228.271L153.81 228.318L147.698 228.664L142.055 228.976H142.101L133.773 232.242L133.837 232.178C132.238 235.52 130.905 238.301 129.959 240.257L128.857 242.502L128.562 243.079C128.536 243.144 128.503 243.206 128.464 243.264Z" fill="#263238"/>
<path d="M63.7227 243.24L69.1934 233.741L79.1711 230.96L88.5025 238.895V243.24" fill="#EBEBEB"/>
<path d="M69.1938 233.741L88.503 238.895L79.1716 230.96L69.1938 233.741Z" fill="#E0E0E0"/>
<path d="M88.5047 243.265C88.4829 243.167 88.4732 243.066 88.4758 242.965C88.4758 242.746 88.4758 242.463 88.4758 242.117C88.4758 241.332 88.4758 240.259 88.4354 238.92L88.4643 238.989L79.0983 231.094L79.2368 231.123L76.94 231.723L69.2302 233.859L69.311 233.795L65.2945 240.645C64.8097 241.453 64.4231 242.099 64.1403 242.573L63.8287 243.08C63.7926 243.139 63.7521 243.195 63.7075 243.248C63.7264 243.181 63.7536 243.117 63.7883 243.057L64.0653 242.532L65.156 240.564L69.0571 233.686V233.634H69.1148L76.8361 231.452L79.1098 230.823H79.1848L79.2425 230.875L88.5451 238.85L88.5797 238.879V238.925C88.5797 240.264 88.5451 241.338 88.5335 242.122C88.5335 242.469 88.5335 242.751 88.5335 242.971C88.5357 243.07 88.526 243.168 88.5047 243.265Z" fill="#263238"/>
<path d="M261.826 226.167L247.976 218.278L223.658 227.137L204.014 243.243L273.506 242.885L261.826 226.167Z" fill="#F5F5F5"/>
<path d="M204.014 243.237L228.932 228.775L261.826 226.161L247.422 217.638L223.658 227.131L204.014 243.237Z" fill="#E0E0E0"/>
<path d="M239.811 243.054L252.259 234.525L263.61 233.717L254.111 235.829L249.194 243.008L239.811 243.054Z" fill="#E0E0E0"/>
<path d="M204.014 243.262C204.014 243.262 204.014 243.228 204.101 243.176L204.366 242.939L205.416 242.05L209.421 238.721L223.571 227.052L240.884 220.012L247.278 217.426L247.347 217.397L247.411 217.438L261.838 226.094L270.275 238.259L272.612 241.664L273.189 242.57C273.26 242.67 273.325 242.774 273.385 242.881C273.385 242.881 273.304 242.789 273.16 242.587L272.519 241.71C271.942 240.919 271.152 239.782 270.125 238.345L261.601 226.227L261.641 226.261L247.214 217.634H247.341L240.953 220.225L223.606 227.237H223.641L209.421 238.824L205.382 242.097L204.372 242.956L204.089 243.176L204.014 243.262Z" fill="#263238"/>
<path d="M263.996 233.69C263.7 233.759 263.399 233.799 263.096 233.812L260.62 234.031L252.264 234.677H252.339L250.971 235.612C247.913 237.707 245.137 239.594 243.117 240.944L240.722 242.508L240.059 242.929C239.909 243.022 239.822 243.068 239.816 243.056C239.879 242.989 239.949 242.929 240.024 242.878L240.653 242.41L243.002 240.748C244.993 239.352 247.751 237.436 250.81 235.341L252.177 234.406H252.212H252.264L260.62 233.864L263.107 233.731C263.402 233.697 263.699 233.683 263.996 233.69Z" fill="#263238"/>
<path d="M327.303 234.95L318.981 231.655L305.108 234.177L298.385 243.214L331.308 243.243L327.303 234.95Z" fill="#F5F5F5"/>
<path d="M305.111 234.171C305.515 234.096 327.306 234.945 327.306 234.945L318.984 231.655L305.111 234.171Z" fill="#E0E0E0"/>
<path d="M298.389 243.224C298.415 243.16 298.45 243.099 298.493 243.045L298.839 242.549L300.178 240.685L305.003 234.106L305.031 234.066H305.083L315.407 232.173L318.956 231.526H318.997H319.037L327.347 234.839H327.393V234.879L330.279 240.939L331.052 242.624L331.248 243.068C331.274 243.119 331.293 243.174 331.306 243.23C331.268 243.186 331.237 243.138 331.214 243.085L330.988 242.652C330.781 242.249 330.498 241.689 330.152 240.996C329.425 239.53 328.42 237.47 327.191 234.989L327.255 235.047L318.927 231.78H319.008L315.459 232.427L305.135 234.279L305.216 234.233C303.196 236.905 301.511 239.144 300.299 240.742L298.903 242.56L298.528 243.033C298.439 243.164 298.393 243.228 298.389 243.224Z" fill="#263238"/>
<path d="M389.091 243.246C389.091 243.327 302.529 243.396 195.722 243.396C88.9163 243.396 2.33105 243.309 2.33105 243.246C2.33105 243.182 88.8932 243.096 195.722 243.096C302.552 243.096 389.091 243.142 389.091 243.246Z" fill="#263238"/>
</svg>
