<svg width="400" height="236" viewBox="0 0 400 236" fill="none" xmlns="http://www.w3.org/2000/svg">
<path d="M197.668 235.09C253.548 235.09 298.848 232.757 298.848 229.879C298.848 227.001 253.548 224.668 197.668 224.668C141.788 224.668 96.4878 227.001 96.4878 229.879C96.4878 232.757 141.788 235.09 197.668 235.09Z" fill="#263238"/>
<path d="M138.085 137.486H263.064C263.799 137.486 264.505 137.779 265.025 138.299C265.545 138.819 265.837 139.524 265.837 140.26V220.493H135.305V140.26C135.305 139.895 135.377 139.534 135.517 139.197C135.657 138.86 135.862 138.554 136.12 138.296C136.378 138.039 136.685 137.835 137.022 137.696C137.359 137.557 137.72 137.485 138.085 137.486Z" fill="#A6A6A6" stroke="#263238" stroke-linecap="round" stroke-linejoin="round"/>
<path d="M144.789 143.783H256.359C256.723 143.783 257.084 143.855 257.42 143.994C257.757 144.134 258.063 144.338 258.32 144.596C258.578 144.853 258.782 145.159 258.921 145.495C259.061 145.832 259.133 146.193 259.133 146.557V221.611H142.009V146.563C142.008 146.198 142.08 145.836 142.219 145.498C142.359 145.161 142.563 144.854 142.822 144.596C143.08 144.337 143.387 144.132 143.724 143.993C144.062 143.854 144.424 143.782 144.789 143.783Z" fill="#263238" stroke="#263238" stroke-linecap="round" stroke-linejoin="round"/>
<path d="M264.719 227.198H130.618C124.444 227.198 119.439 223.461 119.439 218.852H275.897C275.897 223.461 270.893 227.198 264.719 227.198Z" fill="#A6A6A6" stroke="#263238" stroke-linecap="round" stroke-linejoin="round"/>
<path d="M200.015 61.0527C191.404 69.2441 169.377 77.5196 143.69 95.0725C143.69 95.0725 145.294 154.384 200.015 186.807V61.0527Z" fill="#E76F51" stroke="#263238" stroke-linecap="round" stroke-linejoin="round"/>
<path d="M200.015 61.0527C208.62 69.2441 230.654 77.5196 256.34 95.0725C256.34 95.0725 254.736 154.384 200.015 186.807V61.0527Z" fill="#263238" stroke="#263238" stroke-linecap="round" stroke-linejoin="round"/>
<path d="M200.015 66.1016C189.626 73.4654 171.62 80.4866 147.822 96.7465C147.822 96.7465 149.309 151.701 200.015 181.757C250.722 151.714 252.209 96.7465 252.209 96.7465C228.404 80.4931 210.482 73.4654 200.015 66.1016Z" fill="#263238" stroke="#263238" stroke-linecap="round" stroke-linejoin="round"/>
<path d="M243.312 90.9082C207.004 101.899 179.307 133.805 166.713 150.634C175.376 163.343 186.75 173.972 200.015 181.757C250.722 151.713 252.208 96.7463 252.208 96.7463C249.144 94.6602 246.179 92.7141 243.312 90.9082Z" fill="#E76F51" stroke="#263238" stroke-linecap="round" stroke-linejoin="round"/>
<path d="M219.785 121.515H180.859C180.001 121.515 179.179 121.174 178.573 120.568C177.967 119.962 177.626 119.139 177.626 118.282V99.9596C177.726 94.01 180.16 88.338 184.403 84.1661C188.646 79.9941 194.359 77.6562 200.309 77.6562C206.26 77.6562 211.972 79.9941 216.215 84.1661C220.458 88.338 222.892 94.01 222.992 99.9596V118.282C222.992 119.135 222.655 119.953 222.055 120.559C221.454 121.164 220.638 121.508 219.785 121.515ZM184.117 115.049H216.553V99.9596C216.468 95.7144 214.722 91.6717 211.69 88.6994C208.658 85.7272 204.581 84.0623 200.335 84.0623C196.089 84.0623 192.012 85.7272 188.98 88.6994C185.948 91.6717 184.202 95.7144 184.117 99.9596V115.049Z" fill="white" stroke="#263238" stroke-linecap="round" stroke-linejoin="round"/>
<path d="M224.777 112.684H175.253V154.533H224.777V112.684Z" fill="white" stroke="#263238" stroke-linecap="round" stroke-linejoin="round"/>
<path d="M205.161 130.062C205.161 129.109 204.909 128.173 204.429 127.349C203.95 126.525 203.26 125.844 202.432 125.373C201.603 124.902 200.664 124.66 199.711 124.67C198.758 124.681 197.825 124.943 197.006 125.432C196.188 125.92 195.514 126.617 195.052 127.451C194.59 128.284 194.358 129.226 194.379 130.179C194.399 131.131 194.672 132.062 195.169 132.875C195.667 133.688 196.37 134.355 197.209 134.807L196.304 144.311H203.235L202.33 134.807C203.187 134.346 203.903 133.662 204.401 132.826C204.9 131.99 205.163 131.035 205.161 130.062Z" fill="#263238" stroke="#263238" stroke-linecap="round" stroke-linejoin="round"/>
<path d="M297.588 121.931L297.51 120.961" stroke="#263238" stroke-linecap="round" stroke-linejoin="round"/>
<path d="M297.322 119.028C294.762 94.7951 283.46 72.3254 265.531 55.8231C247.602 39.3209 224.274 29.9169 199.912 29.3709C175.551 28.8249 151.825 37.1741 133.174 52.8565C114.523 68.5389 102.226 90.4797 98.5826 114.573C98.3067 116.41 98.0912 118.252 97.936 120.101" stroke="#263238" stroke-linecap="round" stroke-linejoin="round" stroke-dasharray="3.01 3.01"/>
<path d="M97.8198 121.057L97.7422 122.02" stroke="#263238" stroke-linecap="round" stroke-linejoin="round"/>
<path d="M120.079 105.082L125.808 81.7754H108.429L120.079 105.082Z" fill="#263238" stroke="#263238" stroke-linecap="round" stroke-linejoin="round"/>
<path d="M120.079 105.081L121.353 82.6602H110.291L120.079 105.081Z" fill="#2A9D8F" stroke="#263238" stroke-linecap="round" stroke-linejoin="round"/>
<path d="M120.08 105.081L118.896 80.9141H107.834L120.08 105.081Z" fill="#2A9D8F" stroke="#263238" stroke-linecap="round" stroke-linejoin="round"/>
<path d="M99.4297 79.7964L96.5786 76.5703H81.5664L88.607 105.082H120.08L115.088 79.7964H99.4297Z" fill="#263238" stroke="#263238" stroke-linecap="round" stroke-linejoin="round"/>
<path d="M153.485 35.6719H115.993C114.683 35.6719 113.621 36.7342 113.621 38.0446V58.3C113.621 59.6104 114.683 60.6727 115.993 60.6727H153.485C154.795 60.6727 155.858 59.6104 155.858 58.3V38.0446C155.858 36.7342 154.795 35.6719 153.485 35.6719Z" fill="#263238" stroke="#263238" stroke-linecap="round" stroke-linejoin="round"/>
<path d="M155.858 40.4102H113.621V49.4614H155.858V40.4102Z" fill="#2A9D8F" stroke="#263238" stroke-linecap="round" stroke-linejoin="round"/>
<path d="M146.942 56.6771C146.942 56.328 146.839 55.9868 146.645 55.6965C146.451 55.4063 146.175 55.18 145.853 55.0465C145.53 54.9129 145.175 54.8779 144.833 54.946C144.49 55.0141 144.176 55.1822 143.929 55.4291C143.682 55.6759 143.514 55.9904 143.446 56.3328C143.378 56.6752 143.413 57.03 143.546 57.3525C143.68 57.6751 143.906 57.9507 144.197 58.1447C144.487 58.3386 144.828 58.4421 145.177 58.4421C145.645 58.4421 146.094 58.2562 146.425 57.9252C146.756 57.5942 146.942 57.1452 146.942 56.6771Z" fill="white" stroke="#263238" stroke-linecap="round" stroke-linejoin="round"/>
<path d="M151.849 56.6771C151.849 56.328 151.746 55.9868 151.552 55.6965C151.358 55.4063 151.082 55.18 150.76 55.0465C150.437 54.9129 150.082 54.8779 149.74 54.946C149.398 55.0141 149.083 55.1822 148.836 55.4291C148.589 55.6759 148.421 55.9904 148.353 56.3328C148.285 56.6752 148.32 57.03 148.454 57.3525C148.587 57.6751 148.814 57.9507 149.104 58.1447C149.394 58.3386 149.735 58.4421 150.084 58.4421C150.552 58.4421 151.001 58.2562 151.332 57.9252C151.663 57.5942 151.849 57.1452 151.849 56.6771Z" fill="white" stroke="#263238" stroke-linecap="round" stroke-linejoin="round"/>
<path d="M223.574 18.9199H178.344V48.246H223.574V18.9199Z" fill="#2A9D8F" stroke="#263238" stroke-linecap="round" stroke-linejoin="round"/>
<path d="M221.525 20.7812H180.548V46.1442H221.525V20.7812Z" fill="#263238" stroke="#263238" stroke-linecap="round" stroke-linejoin="round"/>
<path d="M192.535 38.4708C192.535 35.7037 190.285 30.9453 187.518 30.9453C184.75 30.9453 182.494 35.7037 182.494 38.4708C182.494 41.2379 184.744 41.9232 187.518 41.9232C190.291 41.9232 192.535 41.2185 192.535 38.4708Z" fill="white" stroke="#263238" stroke-linecap="round" stroke-linejoin="round"/>
<path d="M187.518 31.8638C189.425 31.8638 190.97 30.3181 190.97 28.4114C190.97 26.5047 189.425 24.959 187.518 24.959C185.611 24.959 184.065 26.5047 184.065 28.4114C184.065 30.3181 185.611 31.8638 187.518 31.8638Z" fill="white" stroke="#263238" stroke-linecap="round" stroke-linejoin="round"/>
<path d="M197.552 25.6113H205.911" stroke="white" stroke-width="2" stroke-linecap="round" stroke-linejoin="round"/>
<path d="M197.552 29.2324H205.911" stroke="white" stroke-width="2" stroke-linecap="round" stroke-linejoin="round"/>
<path d="M197.552 35.6465H217.057" stroke="white" stroke-width="2" stroke-linecap="round" stroke-linejoin="round"/>
<path d="M197.552 40.3848H217.057" stroke="white" stroke-width="2" stroke-linecap="round" stroke-linejoin="round"/>
<path d="M285.472 35.6719H251.834C249.752 35.6719 248.064 37.3594 248.064 39.4411V56.9488C248.064 59.0305 249.752 60.718 251.834 60.718H285.472C287.554 60.718 289.241 59.0305 289.241 56.9488V39.4411C289.241 37.3594 287.554 35.6719 285.472 35.6719Z" fill="#263238" stroke="#263238" stroke-width="2" stroke-linecap="round" stroke-linejoin="round"/>
<path d="M270.298 47.5678L289.241 37.9864V37.5468C289.241 37.0495 289.044 36.5726 288.692 36.221C288.34 35.8694 287.864 35.6719 287.366 35.6719H249.946C249.448 35.6719 248.97 35.8692 248.618 36.2206C248.265 36.5721 248.066 37.0489 248.064 37.5468V38.0705L266.665 47.6131C267.232 47.8898 267.856 48.0298 268.487 48.0219C269.118 48.0141 269.738 47.8585 270.298 47.5678Z" fill="#2A9D8F" stroke="#263238" stroke-width="2" stroke-linecap="round" stroke-linejoin="round"/>
<path d="M310.001 79.3359H273.621C272.175 79.3359 271.003 80.5082 271.003 81.9543V97.7229C271.003 99.169 272.175 100.341 273.621 100.341H310.001C311.447 100.341 312.619 99.169 312.619 97.7229V81.9543C312.619 80.5082 311.447 79.3359 310.001 79.3359Z" fill="#263238"/>
<path d="M271.009 94.8477V106.129L277.3 98.8884" fill="#263238"/>
<path d="M285.517 90.2244C285.518 89.7968 285.393 89.3784 285.156 89.0223C284.919 88.6662 284.582 88.3884 284.187 88.2242C283.792 88.06 283.357 88.0167 282.938 88.0998C282.518 88.1829 282.133 88.3887 281.831 88.6911C281.528 88.9934 281.323 89.3788 281.239 89.7983C281.156 90.2178 281.2 90.6525 281.364 91.0473C281.528 91.4421 281.806 91.7793 282.162 92.0161C282.518 92.2529 282.936 92.3786 283.364 92.3773C283.935 92.3756 284.481 92.1483 284.885 91.7449C285.288 91.3415 285.515 90.7949 285.517 90.2244Z" fill="#2A9D8F"/>
<path d="M294.756 90.2244C294.757 89.7968 294.631 89.3784 294.395 89.0223C294.158 88.6662 293.821 88.3884 293.426 88.2242C293.031 88.06 292.596 88.0167 292.177 88.0998C291.757 88.1829 291.372 88.3887 291.069 88.6911C290.767 88.9934 290.561 89.3788 290.478 89.7983C290.395 90.2178 290.438 90.6525 290.603 91.0473C290.767 91.4421 291.045 91.7793 291.401 92.0161C291.757 92.2529 292.175 92.3786 292.603 92.3773C293.173 92.3756 293.72 92.1483 294.123 91.7449C294.527 91.3415 294.754 90.7949 294.756 90.2244Z" fill="#2A9D8F"/>
<path d="M304.001 90.2244C304.002 89.7971 303.877 89.3789 303.64 89.023C303.404 88.667 303.067 88.3893 302.672 88.2248C302.278 88.0604 301.844 88.0167 301.424 88.0993C301.005 88.1819 300.62 88.387 300.317 88.6888C300.014 88.9905 299.808 89.3752 299.724 89.7943C299.64 90.2134 299.683 90.6479 299.846 91.0428C300.009 91.4378 300.286 91.7754 300.641 92.013C300.996 92.2505 301.414 92.3773 301.841 92.3773C302.413 92.3756 302.96 92.1485 303.364 91.7453C303.769 91.3421 303.997 90.7955 304.001 90.2244Z" fill="#2A9D8F"/>
</svg>
