<svg width="285" height="126" viewBox="0 0 285 126" fill="none" xmlns="http://www.w3.org/2000/svg">
<path d="M237.463 24.7684C236.903 23.0756 235.779 21.6262 234.279 20.6625C233.989 20.4884 230.218 18.3162 229.38 17.8328C229.095 17.6672 228.795 17.527 228.484 17.4138C226.68 16.7692 224.512 17.1753 221.981 18.632C218.049 20.9414 214.758 24.199 212.409 28.1074C209.874 32.1936 207.985 36.6463 206.807 41.3084C205.652 45.6743 205.048 50.1675 205.009 54.6834C205.009 59.3244 205.578 62.9018 206.717 65.4157C207.336 67.0085 208.432 68.3707 209.856 69.3154C210.294 69.5732 213.949 71.6681 214.736 72.1322C215.166 72.39 215.633 72.5813 216.121 72.6995C218.004 73.1636 220.062 72.751 222.296 71.4619C224.025 70.4029 225.58 69.0831 226.905 67.5493C228.542 65.7291 229.913 63.6871 230.979 61.4838L229.329 58.2866L225.191 56.8943C225.968 55.6667 226.634 54.3725 227.182 53.0269C227.257 53.4778 227.425 53.9081 227.676 54.29C227.927 54.672 228.255 54.997 228.639 55.2442C229.002 55.4199 229.405 55.4947 229.807 55.4606C230.208 55.4266 230.593 55.2851 230.921 55.0508C232.468 54.1613 233.845 52.6079 235.053 50.3905C236.339 47.9531 237.285 45.3504 237.863 42.6556C238.522 39.7471 238.857 36.7747 238.862 33.7926C238.959 30.7238 238.485 27.6638 237.463 24.7684ZM222.226 42.9456L222.045 45.3757C221.981 46.6471 221.477 47.8568 220.621 48.7984C220.686 47.821 220.843 46.852 221.091 45.9042C221.359 44.8813 221.74 43.8912 222.226 42.9521V42.9456ZM218.042 62.644C217.126 63.1986 216.113 63.5769 215.058 63.7591C214.987 63.6109 214.91 63.4755 214.845 63.3208C214.15 61.5825 213.758 59.7382 213.685 57.8677C213.827 57.9579 217.965 60.3493 218.674 60.7554C218.779 60.8181 218.889 60.872 219.003 60.9165C219.349 61.0525 219.721 61.1118 220.092 61.0906C219.467 61.6829 218.78 62.2059 218.042 62.6505V62.644ZM227.395 28.2169L223.457 30.4923L223.115 32.4261L221.413 31.4398C222.804 29.8755 224.436 28.5437 226.248 27.495C227.094 26.9797 228.02 26.6073 228.987 26.3928C229.058 26.5539 229.129 26.7151 229.193 26.8827C229.537 27.7926 229.781 28.737 229.922 29.6995L227.395 28.2169Z" fill="#E76F51"/>
<path d="M231.185 45.5217C231.185 45.7473 231.153 46.0502 231.153 46.4305C231.153 47.6488 231.43 48.1 231.978 47.7841C232.662 47.2365 233.169 46.4986 233.434 45.6635C233.986 44.2911 234.386 42.8623 234.627 41.4028C234.941 39.6067 235.095 37.786 235.085 35.9625C235.147 33.8326 234.819 31.7093 234.118 29.6972C233.469 28.0256 232.487 26.9513 231.172 26.4743C229.857 25.9973 228.215 26.3368 226.247 27.4927C223.01 29.3853 220.368 32.1477 218.622 35.4662C216.802 38.7556 215.479 42.2962 214.696 45.9729C214.023 48.9901 213.654 52.0672 213.594 55.1581C213.594 58.7463 214.011 61.4686 214.845 63.325C215.678 65.1814 216.796 66.2557 218.197 66.5479C219.593 66.8358 221.166 66.477 222.915 65.4714C224.156 64.714 225.268 63.763 226.209 62.6546C227.38 61.3079 228.424 59.8557 229.328 58.3166L230.979 61.4944C229.913 63.6977 228.541 65.7397 226.905 67.5599C225.579 69.0938 224.025 70.4135 222.296 71.4725C220.066 72.7617 218.007 73.1742 216.121 72.7101C214.235 72.246 212.73 70.757 211.609 68.2431C210.474 65.7293 209.907 62.1519 209.907 57.5109C209.935 52.9853 210.531 48.481 211.68 44.1036C212.86 39.4424 214.749 34.9902 217.281 30.9026C219.645 26.9993 222.949 23.7505 226.892 21.453C229.386 19.9963 231.559 19.6095 233.338 20.2541C235.117 20.8987 236.516 22.4199 237.444 24.7662C238.465 27.6615 238.94 30.7216 238.842 33.7903C238.844 36.7938 238.511 39.7881 237.85 42.7177C237.272 45.4126 236.326 48.0152 235.039 50.4527C233.832 52.6701 232.455 54.2235 230.908 55.113C230.58 55.3472 230.195 55.4888 229.793 55.5228C229.392 55.5569 228.988 55.4821 228.626 55.3064C228.242 55.0592 227.913 54.7341 227.662 54.3522C227.411 53.9703 227.243 53.54 227.169 53.089C226.535 54.6508 225.742 56.1433 224.803 57.5431C224.08 58.7306 223.1 59.7414 221.935 60.5017C221.513 60.8002 221.026 60.9959 220.515 61.0731C220.003 61.1503 219.481 61.107 218.989 60.9465C218.126 60.6113 217.449 59.7862 216.946 58.4713C216.39 56.771 216.137 54.9864 216.198 53.1986C216.193 50.6021 216.509 48.0148 217.139 45.4959C217.696 43.1925 218.593 40.9851 219.802 38.9469C220.726 37.2828 222.057 35.8793 223.669 34.8667C224.823 34.2222 225.699 34.0095 226.286 34.2931C226.982 34.6997 227.528 35.3187 227.846 36.0592L228.316 33.3326L232.261 31.0573L231.185 45.5217ZM225.493 51.6323C226.093 50.5432 226.571 49.3909 226.918 48.1967C227.392 46.2843 227.54 44.3056 227.356 42.3439C227.34 41.9422 227.242 41.548 227.068 41.1855C226.894 40.8231 226.647 40.5 226.344 40.2361C225.822 39.8751 225.171 39.9203 224.41 40.3715C223.595 40.8958 222.929 41.6218 222.477 42.4792C221.862 43.5545 221.396 44.708 221.091 45.9084C220.768 47.1308 220.601 48.3891 220.594 49.6534C220.594 51.252 220.872 52.438 221.432 53.1922C221.542 53.3677 221.687 53.518 221.859 53.6335C222.03 53.749 222.225 53.8269 222.428 53.8622C222.632 53.8975 222.841 53.8893 223.042 53.8383C223.242 53.7873 223.43 53.6945 223.592 53.566C224.385 53.1004 225.041 52.4333 225.493 51.6323Z" fill="#E76F51"/>
<path opacity="0.4" d="M223.457 30.5019L228.33 33.3188L232.275 31.0434L227.395 28.2266L223.457 30.5019Z" fill="black"/>
<path opacity="0.5" d="M223.115 32.4466L226.486 34.3804C227.082 34.8045 227.556 35.3781 227.859 36.0434L228.33 33.3168L223.457 30.5L223.115 32.4466Z" fill="black"/>
<path opacity="0.5" d="M216.959 58.4468C216.401 56.747 216.145 54.9623 216.205 53.1742C216.2 50.5666 216.519 47.9685 217.152 45.4392C217.399 44.4493 217.703 43.4744 218.061 42.5192L215.986 41.3203C215.45 42.8294 215.019 44.3736 214.697 45.942C214.019 48.9586 213.647 52.0359 213.588 55.1272C213.588 56.0877 213.62 56.9836 213.678 57.8216L218.654 60.7093C217.852 60.1656 217.256 59.3691 216.959 58.4468Z" fill="black"/>
<path opacity="0.4" d="M221.414 31.4609C220.336 32.6888 219.4 34.0337 218.623 35.4702C217.593 37.3584 216.711 39.3239 215.986 41.3488L218.062 42.5477C218.529 41.2975 219.112 40.0934 219.802 38.951C220.723 37.2838 222.054 35.8793 223.67 34.8708C224.83 34.2262 225.7 34.0135 226.287 34.2971L221.414 31.4609Z" fill="black"/>
<path opacity="0.6" d="M227.356 42.345C227.525 44.3068 227.377 46.283 226.918 48.1978C226.574 49.396 226.094 50.5508 225.487 51.6398C225.035 52.4389 224.382 53.1056 223.592 53.5736C223.429 53.7008 223.241 53.7923 223.041 53.8423C222.84 53.8922 222.631 53.8995 222.428 53.8637C222.224 53.8278 222.03 53.7496 221.859 53.6342C221.688 53.5187 221.542 53.3685 221.433 53.1933C220.872 52.4391 220.595 51.2595 220.595 49.6481C220.595 49.3709 220.595 49.0808 220.595 48.7972C221.239 48.1526 221.807 47.1922 222.019 45.381L222.2 42.9509C222.271 42.8026 222.354 42.6479 222.438 42.5061C222.889 41.6475 223.555 40.9211 224.372 40.3983C225.152 39.9471 225.803 39.902 226.306 40.2694C226.613 40.5257 226.864 40.8419 227.045 41.1988C227.226 41.5557 227.332 41.9457 227.356 42.345Z" fill="black"/>
<path opacity="0.4" d="M234.021 20.522C233.812 20.415 233.597 20.3203 233.377 20.2384C231.578 19.5938 229.412 19.9999 226.879 21.4567C222.944 23.7663 219.65 27.0264 217.301 30.9384C215.593 33.6905 214.178 36.6134 213.079 39.6596L208.199 36.8428C209.307 33.798 210.727 30.8755 212.434 28.1216C214.783 24.2114 218.074 20.9517 222.006 18.6398C224.537 17.1831 226.705 16.777 228.51 17.4216C228.818 17.5366 229.118 17.6745 229.406 17.8341C230.115 18.266 233.086 19.9806 234.021 20.522Z" fill="white"/>
<path opacity="0.5" d="M229.329 58.2843C228.426 59.826 227.381 61.2804 226.209 62.6288C225.272 63.7371 224.162 64.6862 222.921 65.4391C221.177 66.449 219.602 66.8099 218.197 66.522C216.908 66.2577 215.863 65.336 215.058 63.7439C216.113 63.5616 217.125 63.1834 218.042 62.6288C218.779 62.1839 219.467 61.6609 220.092 61.0689C220.752 61.0211 221.389 60.8107 221.948 60.4565C223.116 59.6971 224.096 58.6834 224.817 57.4915L225.203 56.8984L229.329 58.2843Z" fill="black"/>
<path opacity="0.15" d="M214.555 72.0314L209.85 69.3242C208.428 68.3785 207.334 67.0164 206.717 65.4245C205.578 62.9106 205.009 59.3353 205.009 54.6986C205.049 50.1811 205.651 45.686 206.801 41.3171C207.194 39.7959 207.645 38.3005 208.174 36.8438L213.06 39.6606C212.531 41.1173 212.073 42.6127 211.68 44.134C210.527 48.5001 209.925 52.9934 209.888 57.509C209.888 62.1414 210.456 65.7188 211.59 68.2413C212.192 69.7644 213.222 71.0807 214.555 72.0314Z" fill="black"/>
<path opacity="0.6" d="M235.065 35.9657C235.072 37.789 234.919 39.6094 234.608 41.406C234.375 42.8659 233.98 44.2951 233.428 45.6667C233.167 46.5022 232.662 47.2406 231.978 47.7873C231.423 48.1032 231.153 47.652 231.153 46.4337C231.147 46.1325 231.158 45.8313 231.185 45.5313L231.275 44.3001L232.274 31.0411L229.947 29.7004C229.807 28.7379 229.563 27.7935 229.219 26.8836C229.154 26.716 229.084 26.5548 229.013 26.3937C229.724 26.2438 230.462 26.2838 231.153 26.5097C232.468 26.9738 233.45 28.0481 234.098 29.7326C234.792 31.7354 235.12 33.8468 235.065 35.9657Z" fill="black"/>
<path d="M21.9092 77.2095L50.3803 68.3594L28.4775 83.5328L21.9092 77.2095Z" fill="#E76F51"/>
<path d="M50.3804 68.3571L19.7177 73.4106L13.1494 67.0938L50.3804 68.3571Z" fill="#E76F51"/>
<path d="M19.7178 73.4129V80.9996L21.9093 77.2095L50.3805 68.3594L19.7178 73.4129Z" fill="#E76F51"/>
<path opacity="0.25" d="M19.7178 73.4129V80.9996L21.9093 77.2095L50.3805 68.3594L19.7178 73.4129Z" fill="black"/>
<path d="M19.7178 81.0011L24.1009 79.3187L21.9093 77.2109L19.7178 81.0011Z" fill="#E76F51"/>
<path opacity="0.25" d="M21.9092 77.2109L24.1008 79.3187L23.3982 79.583L21.9092 77.2109Z" fill="black"/>
<path d="M14.722 80.0929C14.6157 80.0923 14.5126 80.0568 14.4286 79.9917C14.3446 79.9267 14.2844 79.8357 14.2573 79.733C14.2301 79.6303 14.2376 79.5215 14.2784 79.4234C14.3193 79.3254 14.3914 79.2435 14.4835 79.1905C15.0636 78.8618 15.6502 78.5459 16.2238 78.2752C16.2812 78.2471 16.3437 78.2308 16.4075 78.2273C16.4713 78.2238 16.5351 78.2331 16.5953 78.2548C16.6554 78.2764 16.7106 78.3099 16.7575 78.3533C16.8044 78.3967 16.8421 78.449 16.8684 78.5073C16.9238 78.6227 16.9312 78.7554 16.8889 78.8762C16.8466 78.997 16.7581 79.0962 16.6428 79.1518C16.082 79.4161 15.5213 79.7126 14.9605 80.0285C14.8884 80.0714 14.8059 80.0937 14.722 80.0929Z" fill="#2A9D8F"/>
<path d="M9.23684 122.891C9.12885 122.893 9.02364 122.856 8.94033 122.787C7.86937 121.966 6.87873 121.044 5.98171 120.035C5.8985 119.938 5.85664 119.812 5.86507 119.684C5.8735 119.557 5.93156 119.437 6.02683 119.352C6.0742 119.309 6.12947 119.277 6.18947 119.256C6.24947 119.235 6.31301 119.226 6.37648 119.229C6.43994 119.233 6.50207 119.249 6.55932 119.277C6.61656 119.304 6.6678 119.343 6.71008 119.391C7.56441 120.356 8.50749 121.238 9.5269 122.027C9.60547 122.088 9.66303 122.173 9.69167 122.269C9.7203 122.364 9.71861 122.466 9.68681 122.561C9.65502 122.656 9.5947 122.738 9.51413 122.797C9.43355 122.856 9.33669 122.889 9.23684 122.891ZM4.35737 117.592C4.27666 117.593 4.19708 117.573 4.12606 117.535C4.05504 117.497 3.9949 117.441 3.95128 117.373C3.22018 116.24 2.59035 115.045 2.0691 113.802C2.04075 113.743 2.02495 113.679 2.02271 113.614C2.02047 113.549 2.03184 113.484 2.05609 113.423C2.08034 113.362 2.11695 113.307 2.16358 113.262C2.21021 113.216 2.26584 113.18 2.32694 113.157C2.38605 113.131 2.44987 113.117 2.51461 113.115C2.57934 113.114 2.64368 113.126 2.7038 113.15C2.76392 113.174 2.8186 113.21 2.86459 113.255C2.91058 113.301 2.94694 113.355 2.97152 113.415C3.47347 114.606 4.07733 115.751 4.77634 116.838C4.83975 116.944 4.85972 117.07 4.83208 117.19C4.80444 117.31 4.73133 117.415 4.62809 117.483C4.55391 117.55 4.45783 117.589 4.35737 117.592ZM1.43741 110.985C1.33085 110.986 1.22725 110.95 1.14314 110.885C1.05902 110.819 0.999237 110.728 0.973317 110.624C0.619407 109.315 0.363021 107.981 0.206266 106.634C0.191764 106.507 0.228433 106.379 0.30821 106.279C0.387987 106.178 0.504341 106.114 0.631689 106.099C0.694401 106.091 0.758098 106.096 0.819074 106.112C0.88005 106.129 0.937088 106.158 0.986872 106.197C1.03666 106.236 1.07819 106.284 1.10906 106.339C1.13993 106.395 1.15952 106.455 1.16669 106.518C1.32761 107.812 1.58399 109.091 1.93374 110.347C1.96546 110.471 1.94749 110.602 1.88365 110.713C1.81982 110.824 1.71519 110.905 1.59211 110.94C1.54209 110.956 1.48972 110.962 1.43741 110.959V110.985ZM0.496328 103.328H1.3519e-07C-0.000126103 101.985 0.0881574 100.643 0.264278 99.3118C0.272975 99.2487 0.294073 99.1879 0.32636 99.1329C0.358646 99.078 0.401484 99.0299 0.452406 98.9916C0.503328 98.9532 0.561328 98.9254 0.623072 98.9095C0.684815 98.8937 0.749082 98.8902 0.812172 98.8993C0.875048 98.9072 0.935717 98.9276 0.990635 98.9592C1.04555 98.9908 1.09362 99.0331 1.13203 99.0835C1.17043 99.1339 1.19841 99.1914 1.21432 99.2528C1.23023 99.3141 1.23376 99.378 1.2247 99.4407C1.05144 100.723 0.965298 102.015 0.966871 103.308L0.496328 103.328ZM1.41163 96.6304C1.36889 96.6366 1.32546 96.6366 1.28272 96.6304C1.22168 96.6147 1.16441 96.587 1.1143 96.5488C1.06419 96.5106 1.02226 96.4627 0.990998 96.408C0.959737 96.3533 0.939781 96.2929 0.932315 96.2303C0.924849 96.1678 0.930024 96.1043 0.947533 96.0438C1.29749 94.7436 1.75234 93.4739 2.3076 92.2472C2.36059 92.1301 2.45794 92.0389 2.57822 91.9935C2.69849 91.9482 2.83185 91.9525 2.94896 92.0055C3.06606 92.0585 3.15731 92.1558 3.20264 92.2761C3.24798 92.3964 3.24367 92.5298 3.19067 92.6469C2.66497 93.8269 2.23389 95.0468 1.90151 96.2952C1.86424 96.3928 1.79637 96.4756 1.70806 96.5314C1.61975 96.5872 1.51575 96.6129 1.41163 96.6046V96.6304ZM4.29935 90.0041C4.20979 90.0034 4.12239 89.9766 4.04797 89.9267C3.94257 89.8613 3.86679 89.7575 3.83671 89.6371C3.80662 89.5168 3.8246 89.3895 3.88682 89.2822C4.59882 88.1521 5.39157 87.075 6.25888 86.0592C6.34435 85.9618 6.46504 85.9023 6.59438 85.8938C6.72373 85.8854 6.85114 85.9286 6.94858 86.0141C7.04602 86.0996 7.10552 86.2203 7.11398 86.3496C7.12244 86.479 7.07918 86.6064 6.9937 86.7038C6.15719 87.6929 5.39453 88.7421 4.71188 89.8429C4.65844 89.8961 4.5933 89.936 4.52167 89.9595C4.45004 89.983 4.37391 89.9895 4.29935 89.9783V90.0041ZM8.89521 84.4156C8.79804 84.4156 8.70311 84.3863 8.62282 84.3316C8.54253 84.2768 8.4806 84.1992 8.44511 84.1087C8.40962 84.0182 8.40221 83.9192 8.42387 83.8244C8.44552 83.7297 8.49521 83.6437 8.56648 83.5776C9.54342 82.6524 10.579 81.7911 11.6669 80.9993C11.7714 80.9318 11.8979 80.9071 12.02 80.9305C12.1422 80.9538 12.2507 81.0234 12.3229 81.1246C12.3951 81.2259 12.4255 81.3511 12.4078 81.4742C12.3901 81.5974 12.3256 81.7089 12.2277 81.7857C11.1752 82.5466 10.172 83.3733 9.22395 84.2609C9.13526 84.3449 9.01737 84.3911 8.89521 84.3898V84.4156Z" fill="#2A9D8F"/>
<path d="M13.7365 125.579C13.668 125.579 13.6001 125.566 13.5367 125.54C12.9308 125.269 12.3377 124.967 11.7705 124.651C11.6614 124.587 11.5816 124.483 11.5483 124.361C11.515 124.239 11.5308 124.109 11.5924 123.998C11.6539 123.888 11.7563 123.806 11.8776 123.77C11.9988 123.734 12.1293 123.747 12.2411 123.806C12.789 124.109 13.3562 124.399 13.9299 124.657C13.9886 124.683 14.0417 124.72 14.0859 124.767C14.1301 124.813 14.1647 124.868 14.1875 124.928C14.2103 124.988 14.2209 125.052 14.2187 125.116C14.2165 125.18 14.2016 125.243 14.1748 125.302C14.1363 125.385 14.0744 125.456 13.9966 125.505C13.9188 125.554 13.8285 125.58 13.7365 125.579Z" fill="#2A9D8F"/>
<path d="M251.645 55.7169L274.45 41.1172L284.492 44.3401L251.645 55.7169Z" fill="#E76F51"/>
<path d="M251.645 55.7169L271.356 39.2801L266.973 34.2266L251.645 55.7169Z" fill="#E76F51"/>
<path d="M271.356 39.2812V43.0972L251.645 55.7181L271.356 39.2812Z" fill="#E76F51"/>
<path opacity="0.25" d="M271.356 39.2812V43.0972L251.645 55.7181L271.356 39.2812Z" fill="black"/>
<path d="M274.637 38.952C274.54 38.952 274.445 38.9227 274.364 38.868C274.284 38.8133 274.222 38.7356 274.187 38.6451C274.151 38.5547 274.144 38.4556 274.165 38.3609C274.187 38.2661 274.237 38.1801 274.308 38.1141C274.982 37.488 275.605 36.809 276.171 36.0836C276.251 35.9891 276.364 35.929 276.488 35.9157C276.611 35.9025 276.735 35.9371 276.833 36.0124C276.932 36.0877 276.997 36.1979 277.017 36.3204C277.036 36.4428 277.008 36.568 276.938 36.6702C276.34 37.4406 275.681 38.1607 274.965 38.8231C274.876 38.9054 274.759 38.9514 274.637 38.952ZM278.266 34.137C278.19 34.1353 278.115 34.1178 278.047 34.0854C277.934 34.0275 277.848 33.9274 277.808 33.8067C277.768 33.6861 277.778 33.5547 277.834 33.4408C278.392 32.3232 278.818 31.1443 279.104 29.9279C279.136 29.8035 279.215 29.6964 279.324 29.6291C279.434 29.5618 279.565 29.5395 279.69 29.5669C279.752 29.582 279.81 29.6092 279.862 29.6469C279.913 29.6846 279.956 29.732 279.989 29.7865C280.022 29.841 280.044 29.9015 280.054 29.9645C280.063 30.0275 280.06 30.0917 280.045 30.1535C279.74 31.4458 279.285 32.6982 278.691 33.8856C278.651 33.9643 278.59 34.0305 278.515 34.0771C278.44 34.1237 278.354 34.1489 278.266 34.1499V34.137ZM280.025 27.3496C279.961 27.3471 279.898 27.3319 279.84 27.3049C279.782 27.2778 279.73 27.2395 279.687 27.1921C279.644 27.1447 279.61 27.0892 279.589 27.0288C279.567 26.9684 279.558 26.9044 279.561 26.8403C279.561 26.5825 279.561 26.3247 279.561 26.0604C279.561 25.0667 279.477 24.0749 279.31 23.0953C279.299 23.0327 279.3 22.9684 279.314 22.9063C279.328 22.8442 279.354 22.7854 279.39 22.7333C279.427 22.6812 279.473 22.6368 279.527 22.6027C279.581 22.5686 279.64 22.5454 279.703 22.5345C279.83 22.514 279.961 22.5444 280.066 22.6192C280.171 22.694 280.242 22.8072 280.264 22.9342C280.438 23.9672 280.527 25.0128 280.528 26.0604C280.528 26.3376 280.528 26.6147 280.528 26.8855C280.522 27.0131 280.465 27.1331 280.371 27.2198C280.277 27.3065 280.153 27.3531 280.025 27.3496ZM278.988 20.3752C278.887 20.3756 278.789 20.3448 278.707 20.287C278.625 20.2293 278.563 20.1475 278.53 20.0529C278.116 18.8627 277.593 17.7127 276.97 16.6173C276.933 16.5621 276.908 16.4998 276.896 16.4344C276.884 16.369 276.886 16.3018 276.901 16.237C276.916 16.1723 276.944 16.1114 276.984 16.0581C277.024 16.0048 277.074 15.9604 277.132 15.9275C277.19 15.8946 277.254 15.8739 277.32 15.8669C277.386 15.8598 277.453 15.8665 277.517 15.8865C277.58 15.9065 277.639 15.9393 277.689 15.983C277.739 16.0267 277.78 16.0802 277.808 16.1403C278.461 17.2875 279.009 18.4913 279.445 19.7371C279.471 19.799 279.483 19.8656 279.481 19.9325C279.48 19.9995 279.464 20.0653 279.435 20.1259C279.407 20.1865 279.366 20.2405 279.316 20.2846C279.265 20.3286 279.206 20.3616 279.142 20.3816C279.09 20.3846 279.038 20.3781 278.988 20.3623V20.3752ZM275.604 14.1872C275.528 14.1877 275.454 14.1705 275.387 14.1369C275.32 14.1033 275.262 14.0543 275.217 13.9938C274.436 12.9897 273.581 12.0459 272.658 11.1706C272.567 11.0799 272.516 10.9571 272.516 10.829C272.516 10.7008 272.567 10.578 272.658 10.4873C272.749 10.3968 272.871 10.3459 272.999 10.3459C273.128 10.3459 273.25 10.3968 273.341 10.4873C274.296 11.3911 275.18 12.3673 275.984 13.4073C276.052 13.5067 276.08 13.6278 276.064 13.747C276.047 13.8662 275.986 13.9749 275.894 14.0519C275.814 14.1257 275.712 14.1691 275.604 14.1743V14.1872ZM270.55 9.23684C270.446 9.23638 270.344 9.2025 270.26 9.14015C269.247 8.37698 268.188 7.67734 267.089 7.04527C266.982 6.98076 266.905 6.87829 266.871 6.75861C266.838 6.63892 266.851 6.51098 266.908 6.40069C266.973 6.29435 267.076 6.21693 267.196 6.18452C267.316 6.15211 267.444 6.1672 267.553 6.22665C268.686 6.87721 269.778 7.59842 270.821 8.386C270.914 8.46202 270.976 8.57028 270.994 8.68954C271.012 8.8088 270.985 8.93043 270.917 9.03058C270.875 9.08841 270.82 9.13585 270.756 9.16934C270.692 9.20282 270.622 9.22149 270.55 9.22395V9.23684ZM219.893 7.36756C219.786 7.36839 219.682 7.33384 219.597 7.2693C219.511 7.20475 219.45 7.11384 219.422 7.01077C219.394 6.9077 219.401 6.79827 219.442 6.69956C219.483 6.60085 219.555 6.51842 219.648 6.46514C220.769 5.82056 221.936 5.20821 223.109 4.65387C223.225 4.59917 223.358 4.59288 223.479 4.6364C223.6 4.67992 223.699 4.76967 223.754 4.88592C223.808 5.00217 223.815 5.13539 223.771 5.25627C223.727 5.37715 223.638 5.4758 223.521 5.5305C222.368 6.07195 221.227 6.67141 220.131 7.3031C220.059 7.34604 219.976 7.36834 219.893 7.36756ZM264.478 5.60141C264.407 5.60265 264.336 5.5872 264.272 5.55628C263.125 5.00195 261.945 4.48628 260.759 4.03508C260.7 4.01222 260.645 3.97792 260.599 3.93413C260.553 3.89034 260.517 3.83792 260.491 3.77986C260.465 3.7218 260.451 3.65924 260.449 3.59575C260.448 3.53226 260.459 3.46909 260.482 3.40983C260.505 3.35058 260.539 3.29641 260.583 3.25041C260.626 3.20441 260.679 3.16749 260.737 3.14176C260.795 3.11602 260.858 3.10197 260.921 3.10041C260.985 3.09885 261.048 3.10981 261.107 3.13266C262.312 3.59676 263.524 4.11887 264.691 4.67966C264.791 4.72638 264.873 4.80623 264.921 4.90584C264.97 5.00544 264.983 5.11874 264.958 5.22676C264.933 5.33477 264.872 5.43094 264.785 5.49915C264.697 5.56736 264.589 5.60346 264.478 5.60141ZM226.274 4.31224C226.178 4.31238 226.084 4.28353 226.005 4.22948C225.925 4.17543 225.864 4.09869 225.829 4.00929C225.803 3.94938 225.789 3.8848 225.789 3.81945C225.788 3.75411 225.801 3.68936 225.827 3.62911C225.852 3.56887 225.889 3.51437 225.936 3.46893C225.983 3.42348 226.039 3.38803 226.1 3.36471C227.305 2.89417 228.549 2.46874 229.793 2.07555C229.856 2.05013 229.923 2.03803 229.99 2.04001C230.057 2.04199 230.123 2.05802 230.184 2.08706C230.245 2.1161 230.299 2.15752 230.343 2.20866C230.387 2.2598 230.419 2.31953 230.439 2.38402C230.458 2.44852 230.464 2.51636 230.455 2.58318C230.447 2.65001 230.425 2.71436 230.39 2.77209C230.356 2.82983 230.309 2.87969 230.254 2.91847C230.199 2.95726 230.136 2.98411 230.07 2.9973C228.852 3.36471 227.634 3.78369 226.454 4.24779C226.39 4.27695 226.319 4.29021 226.248 4.28646L226.274 4.31224ZM257.858 3.02308H257.716C256.505 2.65567 255.261 2.32694 254.017 2.06266C253.954 2.04912 253.895 2.02345 253.843 1.98713C253.791 1.95081 253.746 1.90454 253.712 1.85097C253.677 1.7974 253.654 1.73758 253.643 1.67491C253.631 1.61225 253.632 1.54797 253.646 1.48576C253.66 1.42354 253.685 1.3646 253.722 1.31231C253.758 1.26001 253.804 1.21538 253.858 1.18096C253.911 1.14654 253.971 1.12302 254.034 1.11172C254.096 1.10042 254.161 1.10158 254.223 1.11512C255.512 1.39229 256.763 1.72103 258 2.10133C258.108 2.13775 258.199 2.21078 258.258 2.30765C258.317 2.40451 258.34 2.51905 258.323 2.63121C258.306 2.74337 258.25 2.84601 258.165 2.92118C258.08 2.99636 257.972 3.03927 257.858 3.04242V3.02308ZM233.042 2.21091C232.924 2.20908 232.811 2.16421 232.724 2.08476C232.637 2.0053 232.581 1.89674 232.569 1.7795C232.556 1.66226 232.587 1.54442 232.655 1.44818C232.723 1.35194 232.824 1.28392 232.939 1.25693C234.196 0.966871 235.485 0.721932 236.774 0.535003C236.839 0.520639 236.906 0.519767 236.971 0.532441C237.036 0.545115 237.098 0.571064 237.153 0.608671C237.207 0.646279 237.254 0.694739 237.289 0.751035C237.324 0.807332 237.347 0.870258 237.357 0.935896C237.367 1.00153 237.363 1.06848 237.346 1.13256C237.328 1.19664 237.298 1.25649 237.257 1.30837C237.215 1.36025 237.164 1.40307 237.105 1.43414C237.046 1.46521 236.982 1.48388 236.916 1.48898C235.627 1.67591 234.389 1.9144 233.152 2.19802C233.116 2.20899 233.079 2.21336 233.042 2.21091ZM250.974 1.46964H250.903C249.646 1.28916 248.37 1.1538 247.1 1.07C246.972 1.06231 246.852 1.004 246.767 0.9079C246.682 0.811798 246.638 0.685778 246.646 0.557563C246.654 0.429348 246.712 0.30944 246.808 0.224218C246.904 0.138996 247.03 0.0954399 247.158 0.103133C248.447 0.193374 249.737 0.328736 251.026 0.515664C251.145 0.535233 251.252 0.598702 251.327 0.693576C251.402 0.788451 251.438 0.90786 251.43 1.0283C251.421 1.14875 251.367 1.2615 251.279 1.34437C251.191 1.42725 251.076 1.47423 250.955 1.47609L250.974 1.46964ZM240.016 1.12802C239.888 1.13314 239.763 1.08713 239.669 1.0001C239.575 0.91306 239.519 0.792132 239.514 0.663917C239.508 0.535702 239.554 0.410702 239.641 0.316414C239.728 0.222125 239.849 0.166274 239.978 0.161145C241.267 0.0580123 242.588 0 243.884 0C244.012 0 244.135 0.0509329 244.226 0.141595C244.316 0.232256 244.367 0.35522 244.367 0.483435C244.367 0.611651 244.316 0.734615 244.226 0.825276C244.135 0.915938 244.012 0.966871 243.884 0.966871C242.595 0.966871 241.305 1.01844 240.061 1.12802H240.016Z" fill="#2A9D8F"/>
</svg>
