<svg width="621" height="121" viewBox="0 0 621 121" fill="none" xmlns="http://www.w3.org/2000/svg">
<path d="M39.7391 118.822H16.3765V60.5823H0.461426V41.6205H16.3759V28.1278C16.3759 12.139 23.4148 0.671875 46.7142 0.671875C51.6421 0.671875 59.3786 1.66513 59.3786 1.66513V19.2722H51.2527C42.9731 19.2722 39.7404 21.7907 39.7404 28.7534V41.6205H59.0686L57.3474 60.5823H39.7397L39.7391 118.822ZM93.3453 40.1052C93.0049 40.1052 92.6546 40.1176 92.308 40.1263C70.6448 40.1263 60.7333 56.4214 60.7333 79.5528C60.7333 108.692 73.5898 120.354 92.4772 120.354C103.283 120.354 110.383 115.806 114.698 107.318V118.83H136.92V41.6286H114.698V53.5011C111.175 45.8626 103.877 40.1957 93.3453 40.1052ZM98.9954 58.3478C108.094 58.3478 113.555 64.6942 113.555 75.4892L113.576 86.5149C113.576 93.7907 109.066 102.303 98.9954 102.303C83.5137 102.303 83.9273 85.5861 83.9273 80.0184C83.9273 61.2897 92.1759 58.3478 98.9954 58.3478ZM145.894 80.2335C145.894 70.8521 145.445 40.1554 185.438 40.1554C201.492 40.1554 208.195 45.26 208.195 45.26L202.808 61.9711C202.808 61.9711 196.113 58.2845 187.389 58.2845C176.216 58.2845 169.086 64.7618 169.086 76.1582L169.099 84.3299C169.099 95.2806 175.978 102.591 187.412 102.591C195.359 102.591 202.684 98.8692 202.684 98.8692L208.058 115.231C208.058 115.231 201.929 120.368 185.55 120.368C147.47 120.368 145.894 92.8272 145.894 80.2335H145.894ZM338.486 40.1263C360.15 40.1263 370.218 56.4214 370.218 79.5528C370.218 108.692 357.361 120.354 338.473 120.354C327.667 120.354 319.679 115.807 315.364 107.318V118.83L293.422 118.822V3.01924L316.718 0.987461V52.4552C320.081 43.4508 331.13 40.1263 338.486 40.1263ZM331.955 58.3478C322.857 58.3478 316.718 64.6942 316.718 75.4892L316.697 86.5149C316.683 93.7907 320.948 102.303 331.955 102.303C347.437 102.303 347.023 85.5861 347.023 80.0184C347.023 61.2897 338.775 58.3478 331.955 58.3478ZM248.616 40.1901C224.045 40.1901 211.074 53.5867 211.074 77.3939V81.817C211.074 112.717 229.29 120.672 251.008 120.672C272.117 120.672 281.672 114.768 281.672 114.768L277.313 99.044C277.313 99.044 266.073 103.826 253.801 103.826C241.078 103.826 235.607 100.584 234.204 88.3569H283.535V75.7428C283.535 49.9181 268.976 40.1895 248.616 40.1895L248.616 40.1901ZM249.209 55.9347C257.714 55.9347 263.225 61.1502 262.923 73.246H234.247C234.744 60.5153 240.688 55.9347 249.209 55.9347ZM416.67 40.0841C391.437 40.0841 378.153 54.3034 378.153 79.7853C378.153 114.748 401.052 120.376 416.712 120.376C439.637 120.376 454.89 108.033 454.89 80.1027C454.89 51.0323 437.74 40.0841 416.67 40.0841ZM416.352 58.411C427.447 58.411 431.844 66.7148 431.844 76.1669V84.2934C431.844 95.7437 425.692 102.367 416.31 102.367C407.536 102.367 401.369 96.1715 401.369 84.2934V76.1669C401.369 63.4988 408.707 58.411 416.352 58.411ZM501.3 40.0841C476.067 40.0841 462.784 54.3034 462.784 79.7853C462.784 114.748 485.682 120.376 501.342 120.376C524.267 120.376 539.52 108.033 539.52 80.1027C539.52 51.0323 522.37 40.0841 501.3 40.0841ZM500.983 58.411C512.078 58.411 516.474 66.7148 516.474 76.1669V84.2934C516.474 95.7437 510.322 102.367 500.94 102.367C492.166 102.367 485.999 96.1715 485.999 84.2934V76.1669C485.999 63.4988 493.337 58.411 500.983 58.411ZM548.323 118.822V3.01924L571.687 0.988081V78.6066L594.867 41.6211H619.541L595.361 79.9272L620.472 118.822H595.728L571.687 81.055V118.822H548.323Z" fill="#1877F2"/>
</svg>
