<svg width="120" height="120" viewBox="0 0 120 120" fill="none" xmlns="http://www.w3.org/2000/svg">
<path d="M109.028 50.2075H105V50H60V70H88.2575C84.135 81.6425 73.0575 90 60 90C43.4325 90 30 76.5675 30 60C30 43.4325 43.4325 30 60 30C67.6475 30 74.605 32.885 79.9025 37.5975L94.045 23.455C85.115 15.1325 73.17 10 60 10C32.3875 10 10 32.3875 10 60C10 87.6125 32.3875 110 60 110C87.6125 110 110 87.6125 110 60C110 56.6475 109.655 53.375 109.028 50.2075Z" fill="#FFC107"/>
<path d="M15.7651 36.7275L32.1926 48.775C36.6376 37.77 47.4026 30 60.0001 30C67.6476 30 74.6051 32.885 79.9026 37.5975L94.0451 23.455C85.1151 15.1325 73.1701 10 60.0001 10C40.7951 10 24.1401 20.8425 15.7651 36.7275Z" fill="#FF3D00"/>
<path d="M59.9998 110C72.9148 110 84.6498 105.057 93.5223 97.0198L78.0473 83.9248C72.8587 87.8707 66.5184 90.0049 59.9998 89.9998C46.9948 89.9998 35.9523 81.7073 31.7923 70.1348L15.4873 82.6973C23.7623 98.8898 40.5673 110 59.9998 110Z" fill="#4CAF50"/>
<path d="M109.028 50.2075H105V50H60V70H88.2575C86.2855 75.541 82.7334 80.3829 78.04 83.9275L78.0475 83.9225L93.5225 97.0175C92.4275 98.0125 110 85 110 60C110 56.6475 109.655 53.375 109.028 50.2075Z" fill="#1976D2"/>
</svg>
