<svg width="366" height="120" viewBox="0 0 366 120" fill="none" xmlns="http://www.w3.org/2000/svg">
<g clip-path="url(#clip0_130_2)">
<path d="M354.323 73.3371L364.468 80.1007C361.175 84.9507 353.3 93.2721 339.683 93.2721C322.775 93.2721 310.183 80.1899 310.183 63.5478C310.183 45.8385 322.908 33.8242 338.26 33.8242C353.7 33.8242 361.264 46.1049 363.712 52.7349L365.047 56.1171L325.267 72.5806C328.293 78.5435 333.01 81.5692 339.683 81.5692C346.358 81.5692 350.985 78.2764 354.323 73.3371ZM323.131 62.6142L349.695 51.5785C348.227 47.8856 343.867 45.2606 338.66 45.2606C332.03 45.2606 322.82 51.1342 323.131 62.6142Z" fill="#FF302F"/>
<path d="M291.005 3.5222H303.819V90.5579H291.005V3.52148V3.5222Z" fill="#20B15A"/>
<path d="M270.803 36.1372H283.173V88.9993C283.173 110.936 270.225 119.969 254.918 119.969C240.501 119.969 231.825 110.269 228.576 102.393L239.923 97.6757C241.969 102.526 246.908 108.266 254.918 108.266C264.751 108.266 270.803 102.17 270.803 90.7793V86.5079H270.358C267.421 90.0672 261.815 93.2707 254.695 93.2707C239.833 93.2707 226.217 80.3222 226.217 63.6364C226.217 46.8607 239.833 33.7793 254.695 33.7793C261.77 33.7793 267.421 36.9386 270.358 40.4093H270.803V36.1379V36.1372ZM271.693 63.6364C271.693 53.135 264.707 45.4814 255.808 45.4814C246.819 45.4814 239.255 53.135 239.255 63.6364C239.255 74.0036 246.819 81.5236 255.808 81.5236C264.708 81.5686 271.693 74.0036 271.693 63.6364H271.693Z" fill="#3686F7"/>
<path d="M155.869 63.4143C155.869 80.5458 142.52 93.1379 126.145 93.1379C109.771 93.1379 96.4219 80.5015 96.4219 63.4143C96.4219 46.1943 109.771 33.6465 126.145 33.6465C142.52 33.6465 155.869 46.1943 155.869 63.4143ZM142.876 63.4143C142.876 52.7358 135.133 45.3929 126.145 45.3929C117.158 45.3929 109.415 52.7358 109.415 63.4143C109.415 74.0043 117.158 81.4358 126.145 81.4358C135.134 81.4358 142.876 74.0043 142.876 63.4143Z" fill="#FF302F"/>
<path d="M220.789 63.5478C220.789 80.6792 207.44 93.2714 191.065 93.2714C174.69 93.2714 161.342 80.6785 161.342 63.5478C161.342 46.3278 174.69 33.8242 191.065 33.8242C207.44 33.8242 220.789 46.2835 220.789 63.5478ZM207.751 63.5478C207.751 52.8692 200.009 45.5264 191.02 45.5264C182.033 45.5264 174.29 52.8692 174.29 63.5478C174.29 74.1378 182.033 81.5692 191.02 81.5692C200.053 81.5692 207.751 74.0935 207.751 63.5478Z" fill="#FFBA40"/>
<path d="M47.5641 80.2336C28.9198 80.2336 14.3255 65.1936 14.3255 46.5493C14.3255 27.9057 28.9198 12.8657 47.5641 12.8657C57.6205 12.8657 64.962 16.8257 70.3905 21.8986L79.3348 12.955C71.7705 5.70217 61.6698 0.183594 47.5641 0.183594C22.0234 0.184308 0.53125 21.0093 0.53125 46.5493C0.53125 72.0907 22.0234 92.915 47.5641 92.915C61.3584 92.915 71.7705 88.3764 79.9134 79.9222C88.2784 71.5564 90.8591 59.8093 90.8591 50.2872C90.8591 47.3057 90.5034 44.2357 90.1027 41.9664H47.5641V54.3364H77.8662C76.9762 62.0793 74.5291 67.3743 70.9248 70.9779C66.5641 75.3836 59.6677 80.2336 47.5641 80.2336Z" fill="#3686F7"/>
</g>
<defs>
<clipPath id="clip0_130_2">
<rect width="365.714" height="120" fill="white"/>
</clipPath>
</defs>
</svg>
