<svg width="385" height="353" viewBox="0 0 385 353" fill="none" xmlns="http://www.w3.org/2000/svg">
<path d="M201.52 17.0005C201.35 16.4838 201.18 15.9671 200.995 15.4504C194.124 -3.65984 162.153 -4.97584 162.153 18.5103C162.153 23.0315 151.302 18.5103 147.225 24.3878C143.147 30.2654 147.677 33.8824 142.251 35.6909C136.826 37.4994 136.374 32.9782 129.592 33.4303C122.81 33.8824 123.706 40.2202 121.446 42.0287C119.185 43.8372 119.185 42.9329 114.179 43.385C109.174 43.8372 108.302 47.4218 108.302 47.4218H227.282C227.282 47.4218 231.804 33.8501 223.665 28.8526C215.527 23.855 215.495 30.7176 209.189 28.0048C203.958 25.7604 202.981 21.5056 201.52 17.0005Z" stroke="#B2B2B2" stroke-linecap="round" stroke-linejoin="round"/>
<path d="M205.629 42.5045C205.629 42.5045 208.091 34.8911 202.044 29.288C195.997 23.6849 189.724 26.8255 187.932 29.288C186.139 31.7504 186.139 36.4573 183.233 36.9095C180.326 37.3616 180.988 31.9765 174.715 33.3248C168.442 34.6731 170.912 40.9382 167.998 42.2784C165.083 43.6186 165.083 38.6776 161.055 40.2923C157.026 41.907 157.244 44.7732 157.244 44.7732" stroke="#B2B2B2" stroke-linecap="round" stroke-linejoin="round"/>
<path d="M173.456 27.2864C171.806 26.112 169.872 25.4005 167.855 25.2259C165.838 25.0512 163.81 25.4198 161.983 26.2934C155.524 29.2806 158.495 35.5215 155.524 37.0151C152.553 38.5088 151.035 36.7649 147.297 38.5087C143.559 40.2526 143.777 42.7151 143.777 42.7151" stroke="#B2B2B2" stroke-linecap="round" stroke-linejoin="round"/>
<path d="M61.047 178.99C60.9582 178.708 60.8613 178.433 60.7644 178.183C57.0505 167.857 39.773 167.146 39.773 179.838C39.773 182.26 33.9035 179.838 31.6994 183.011C29.4953 186.184 31.9416 188.146 29.0109 189.123C26.0802 190.099 25.8299 187.653 22.1645 187.903C18.4991 188.154 18.9835 191.569 17.7644 192.546C16.5453 193.523 16.5453 193.03 13.8568 193.28C11.1683 193.531 10.6758 195.476 10.6758 195.476H75.0143C75.0143 195.476 77.4364 188.146 73.0524 185.457C68.6685 182.769 68.6604 186.434 65.2372 184.965C62.371 183.721 61.8382 181.42 61.047 178.99Z" stroke="#B2B2B2" stroke-linecap="round" stroke-linejoin="round"/>
<path d="M63.2672 192.772C63.6248 191.516 63.6341 190.188 63.2942 188.928C62.9542 187.667 62.2779 186.524 61.3376 185.618C58.1082 182.591 54.6769 184.286 53.7081 185.618C52.7393 186.951 52.7393 189.494 51.1649 189.736C49.5905 189.978 49.9539 187.072 46.563 187.798C43.172 188.525 44.5123 191.916 42.9379 192.643C41.3635 193.369 41.3232 190.705 39.1837 191.553C37.0442 192.4 37.1249 193.975 37.1249 193.975" stroke="#B2B2B2" stroke-linecap="round" stroke-linejoin="round"/>
<path d="M45.8846 184.544C44.9932 183.91 43.9483 183.525 42.858 183.429C41.7678 183.334 40.6719 183.533 39.6841 184.004C36.1801 185.618 37.8029 188.993 36.1801 189.8C34.5573 190.608 33.7581 189.671 31.7316 190.608C29.7051 191.544 29.8504 192.885 29.8504 192.885" stroke="#B2B2B2" stroke-linecap="round" stroke-linejoin="round"/>
<path d="M298.29 115.546C297.967 114.545 297.628 113.536 297.265 112.527C283.854 75.243 221.486 72.6756 221.486 118.493C221.486 127.318 200.309 118.493 192.364 129.958C184.42 141.422 193.252 148.527 182.676 152.023C172.099 155.519 171.203 146.727 157.971 147.607C144.738 148.487 146.498 160.847 142.082 164.376C137.666 167.904 137.674 166.144 127.969 167.024C118.265 167.904 116.497 174.968 116.497 174.968H348.556C348.556 174.968 357.381 148.479 341.5 138.79C325.619 129.102 325.611 142.327 313.242 137.03C303.053 132.646 301.148 124.347 298.29 115.546Z" stroke="#B2B2B2" stroke-linecap="round" stroke-linejoin="round"/>
<path d="M211.91 169.681C211.91 169.681 211.474 164.03 219.346 160.946C227.218 157.862 227.21 167.501 232.893 164.877C238.577 162.254 233.765 150.014 246.005 147.39C258.245 144.766 256.928 155.262 262.612 154.39C268.296 153.518 268.264 144.33 271.792 139.526C275.32 134.723 287.519 128.603 299.323 139.526C311.127 150.45 306.315 165.313 306.315 165.313" stroke="#B2B2B2" stroke-linecap="round" stroke-linejoin="round"/>
<path d="M243.543 135.618C240.324 133.324 236.549 131.933 232.61 131.591C228.672 131.249 224.713 131.967 221.147 133.672C208.487 139.51 214.333 151.677 208.487 154.599C202.642 157.522 199.736 154.115 192.437 157.514C185.138 160.913 185.623 165.789 185.623 165.789" stroke="#B2B2B2" stroke-linecap="round" stroke-linejoin="round"/>
<path d="M367.739 349.795L359.059 254.082H139.425L138.4 349.795H367.739Z" fill="#E76F51" stroke="#263238" stroke-linecap="round" stroke-linejoin="round"/>
<path d="M361.805 284.334H139.103L139.345 261.381H359.722L361.805 284.334Z" fill="#E76F51" stroke="#263238" stroke-linecap="round" stroke-linejoin="round"/>
<path d="M361.126 276.833H139.175L139.425 254.082H359.059L361.126 276.833Z" fill="#263238" stroke="#263238" stroke-linecap="round" stroke-linejoin="round"/>
<path d="M142.308 349.793L144.552 84.6641H108.431L99.7031 349.793H142.308Z" fill="#E76F51" stroke="#263238" stroke-linecap="round" stroke-linejoin="round"/>
<path d="M144.019 147.429H106.364L108.051 96.2422H144.455L144.019 147.429Z" fill="#E76F51" stroke="#263238" stroke-linecap="round" stroke-linejoin="round"/>
<path d="M144.051 144.312H106.469L108.051 96.2422H144.455L144.051 144.312Z" fill="#E76F51" stroke="#263238" stroke-linecap="round" stroke-linejoin="round"/>
<path d="M147.289 134.899H103.619L104.975 96.2422H147.531L147.289 134.899Z" fill="#E76F51" stroke="#263238" stroke-linecap="round" stroke-linejoin="round"/>
<path d="M141.662 134.899H109.246L110.457 96.2422H142.049L141.662 134.899Z" fill="#E76F51" stroke="#263238" stroke-linecap="round" stroke-linejoin="round"/>
<path d="M139.942 101.861H112.532L111.741 128.593H139.635L139.942 101.861Z" fill="white" stroke="#263238" stroke-linecap="round" stroke-linejoin="round"/>
<path d="M138.585 115.321C138.583 113.696 138.256 112.089 137.625 110.592C136.993 109.095 136.07 107.739 134.909 106.604C133.747 105.468 132.371 104.575 130.861 103.977C129.35 103.379 127.736 103.088 126.112 103.122C119.144 103.122 113.331 108.563 113.137 115.321C113.11 116.963 113.414 118.593 114.032 120.114C114.649 121.635 115.567 123.016 116.731 124.174C117.895 125.332 119.281 126.243 120.805 126.853C122.33 127.462 123.962 127.758 125.603 127.722C132.684 127.722 138.497 122.143 138.585 115.321Z" fill="white" stroke="#263238" stroke-linecap="round" stroke-linejoin="round"/>
<path d="M133.951 115.32C133.952 114.29 133.748 113.27 133.35 112.32C132.951 111.37 132.367 110.509 131.632 109.788C130.896 109.067 130.024 108.5 129.067 108.12C128.109 107.741 127.085 107.556 126.055 107.578C123.942 107.54 121.898 108.328 120.357 109.774C118.816 111.22 117.9 113.21 117.804 115.32C117.79 116.357 117.984 117.386 118.376 118.346C118.769 119.306 119.35 120.177 120.086 120.907C120.823 121.638 121.698 122.212 122.661 122.596C123.625 122.98 124.655 123.167 125.692 123.144C127.819 123.183 129.877 122.385 131.422 120.922C132.967 119.459 133.875 117.447 133.951 115.32Z" stroke="#0B0B0B" stroke-width="0.5" stroke-linejoin="round"/>
<path d="M126.112 103.121L126.015 107.578" stroke="#0B0B0B" stroke-width="0.5" stroke-linejoin="round"/>
<path d="M125.7 123.145L125.603 127.722" stroke="#0B0B0B" stroke-width="0.5" stroke-linejoin="round"/>
<path d="M138.586 115.32H133.911" stroke="#0B0B0B" stroke-width="0.5" stroke-linejoin="round"/>
<path d="M117.812 115.32H113.138" stroke="#0B0B0B" stroke-width="0.5" stroke-linejoin="round"/>
<path d="M133.217 105.244L130.52 108.934" stroke="#0B0B0B" stroke-width="0.5" stroke-linejoin="round"/>
<path d="M121.154 121.764L118.401 125.534" stroke="#0B0B0B" stroke-width="0.5" stroke-linejoin="round"/>
<path d="M137.084 109.41L132.966 111.574" stroke="#0B0B0B" stroke-width="0.5" stroke-linejoin="round"/>
<path d="M118.716 119.082L114.55 121.278" stroke="#0B0B0B" stroke-width="0.5" stroke-linejoin="round"/>
<path d="M137.544 120.068L133.241 118.324" stroke="#0B0B0B" stroke-width="0.5" stroke-linejoin="round"/>
<path d="M118.507 112.333L114.252 110.598" stroke="#0B0B0B" stroke-width="0.5" stroke-linejoin="round"/>
<path d="M133.217 125.307L130.504 121.625" stroke="#0B0B0B" stroke-width="0.5" stroke-linejoin="round"/>
<path d="M121.251 109.072L118.595 105.463" stroke="#0B0B0B" stroke-width="0.5" stroke-linejoin="round"/>
<path d="M128.074 116.821L116.448 108.934" stroke="#0B0B0B" stroke-width="0.5" stroke-linejoin="round"/>
<path d="M125.022 117.266L128.171 111.574" stroke="#0B0B0B" stroke-width="0.5" stroke-linejoin="round"/>
<path d="M147.644 79.3125H105.565L105.379 84.6653H147.612L147.644 79.3125Z" fill="#E76F51" stroke="#263238" stroke-linecap="round" stroke-linejoin="round"/>
<path d="M137.229 61.1309H117.118C116.141 64.7559 111.919 74.2747 109.044 79.3126H144.568V79.1511C141.864 74.1294 138.053 64.7155 137.229 61.1309Z" fill="#C4C4C4" stroke="#263238" stroke-linecap="round" stroke-linejoin="round"/>
<path d="M137.665 58.2402H116.73L116.649 61.1306H137.625L137.665 58.2402Z" fill="white" stroke="#263238" stroke-linecap="round" stroke-linejoin="round"/>
<path d="M137.899 40.8984H117.215L117.142 43.595H137.859L137.899 40.8984Z" fill="#E76F51" stroke="#263238" stroke-linecap="round" stroke-linejoin="round"/>
<path d="M136.874 43.5938H117.861L117.457 58.2393H136.672L136.874 43.5938Z" fill="#E76F51" stroke="#263238" stroke-linecap="round" stroke-linejoin="round"/>
<path d="M128.461 9.15234H127.977C125.819 20.0355 122.45 30.6429 117.933 40.7766H136.914C132.92 30.5855 130.084 19.9774 128.461 9.15234Z" fill="#C4C4C4" stroke="#263238" stroke-linecap="round" stroke-linejoin="round"/>
<path d="M122.713 69.8089H120.218L120.331 65.3604L121.599 64.4238L122.818 65.3604L122.713 69.8089Z" fill="white" stroke="#263238" stroke-linecap="round" stroke-linejoin="round"/>
<path d="M128.211 69.8089H125.708L125.805 65.3604L127.072 64.4238L128.3 65.3604L128.211 69.8089Z" fill="white" stroke="#263238" stroke-linecap="round" stroke-linejoin="round"/>
<path d="M133.701 69.8089H131.207L131.287 65.3604L132.547 64.4238L133.774 65.3604L133.701 69.8089Z" fill="white" stroke="#263238" stroke-linecap="round" stroke-linejoin="round"/>
<path d="M123.658 57.0936H121.639L121.825 49.351L122.866 47.7363L123.835 49.351L123.658 57.0936Z" fill="#263238" stroke="#263238" stroke-linecap="round" stroke-linejoin="round"/>
<path d="M128.098 57.0936H126.08L126.241 49.351L127.283 47.7363L128.251 49.351L128.098 57.0936Z" fill="#263238" stroke="#263238" stroke-linecap="round" stroke-linejoin="round"/>
<path d="M132.538 57.0936H130.52L130.657 49.351L131.691 47.7363L132.668 49.351L132.538 57.0936Z" fill="#263238" stroke="#263238" stroke-linecap="round" stroke-linejoin="round"/>
<path d="M119.822 77.2697H117.312L117.433 72.7727L118.708 71.8281L119.935 72.7727L119.822 77.2697Z" fill="white" stroke="#263238" stroke-linecap="round" stroke-linejoin="round"/>
<path d="M125.345 77.2697H122.834L122.939 72.7727L124.215 71.8281L125.442 72.7727L125.345 77.2697Z" fill="white" stroke="#263238" stroke-linecap="round" stroke-linejoin="round"/>
<path d="M130.875 77.2697H128.364L128.453 72.7727L129.721 71.8281L130.948 72.7727L130.875 77.2697Z" fill="white" stroke="#263238" stroke-linecap="round" stroke-linejoin="round"/>
<path d="M136.301 77.2697H133.79L133.863 72.7727L135.13 71.8281L136.366 72.7727L136.301 77.2697Z" fill="white" stroke="#263238" stroke-linecap="round" stroke-linejoin="round"/>
<path d="M114.171 94.6035H111.442L111.708 85.9082H114.421L114.171 94.6035Z" fill="#263238" stroke="#263238" stroke-linecap="round" stroke-linejoin="round"/>
<path d="M119.564 94.6035H116.835L117.07 85.9082H119.782L119.564 94.6035Z" fill="#263238" stroke="#263238" stroke-linecap="round" stroke-linejoin="round"/>
<path d="M124.957 94.6035H122.229L122.43 85.9082H125.143L124.957 94.6035Z" fill="#263238" stroke="#263238" stroke-linecap="round" stroke-linejoin="round"/>
<path d="M130.35 94.6035H127.622L127.791 85.9082H130.504L130.35 94.6035Z" fill="#263238" stroke="#263238" stroke-linecap="round" stroke-linejoin="round"/>
<path d="M135.744 94.6035H133.015L133.152 85.9082H135.865L135.744 94.6035Z" fill="#263238" stroke="#263238" stroke-linecap="round" stroke-linejoin="round"/>
<path d="M141.129 94.6035H138.4L138.513 85.9082H141.226L141.129 94.6035Z" fill="#263238" stroke="#263238" stroke-linecap="round" stroke-linejoin="round"/>
<path d="M112.742 144.175H109.924L110.207 134.898H113.008L112.742 144.175Z" fill="#263238" stroke="#263238" stroke-linecap="round" stroke-linejoin="round"/>
<path d="M118.313 144.175H115.495L115.745 134.898H118.547L118.313 144.175Z" fill="#263238" stroke="#263238" stroke-linecap="round" stroke-linejoin="round"/>
<path d="M123.884 144.175H121.066L121.284 134.898H124.085L123.884 144.175Z" fill="#263238" stroke="#263238" stroke-linecap="round" stroke-linejoin="round"/>
<path d="M129.454 144.175H126.637L126.822 134.898H129.624L129.454 144.175Z" fill="#263238" stroke="#263238" stroke-linecap="round" stroke-linejoin="round"/>
<path d="M135.033 144.175H132.208L132.361 134.898H135.162L135.033 144.175Z" fill="#263238" stroke="#263238" stroke-linecap="round" stroke-linejoin="round"/>
<path d="M140.604 144.175H137.778L137.899 134.898H140.701L140.604 144.175Z" fill="#263238" stroke="#263238" stroke-linecap="round" stroke-linejoin="round"/>
<path d="M111.821 176.05H108.947L109.763 149.432H112.588L111.821 176.05Z" fill="#E76F51" stroke="#263238" stroke-linecap="round" stroke-linejoin="round"/>
<path d="M117.514 176.05H114.631L115.35 149.432H118.184L117.514 176.05Z" fill="#E76F51" stroke="#263238" stroke-linecap="round" stroke-linejoin="round"/>
<path d="M123.197 176.05H120.323L120.945 149.432H123.771L123.197 176.05Z" fill="#E76F51" stroke="#263238" stroke-linecap="round" stroke-linejoin="round"/>
<path d="M128.881 176.05H126.007L126.532 149.432H129.365L128.881 176.05Z" fill="#E76F51" stroke="#263238" stroke-linecap="round" stroke-linejoin="round"/>
<path d="M134.573 176.05H131.691L132.127 149.432H134.953L134.573 176.05Z" fill="#E76F51" stroke="#263238" stroke-linecap="round" stroke-linejoin="round"/>
<path d="M140.257 176.05H137.383L137.714 149.432H140.548L140.257 176.05Z" fill="#E76F51" stroke="#263238" stroke-linecap="round" stroke-linejoin="round"/>
<path d="M111.579 184.526H108.689L108.899 177.607H111.781L111.579 184.526Z" fill="#E76F51" stroke="#263238" stroke-linecap="round" stroke-linejoin="round"/>
<path d="M117.296 184.526H114.405L114.591 177.607H117.473L117.296 184.526Z" fill="#E76F51" stroke="#263238" stroke-linecap="round" stroke-linejoin="round"/>
<path d="M123.011 184.526H120.121L120.283 177.607H123.165L123.011 184.526Z" fill="#E76F51" stroke="#263238" stroke-linecap="round" stroke-linejoin="round"/>
<path d="M128.736 184.526H125.837L125.975 177.607H128.857L128.736 184.526Z" fill="#E76F51" stroke="#263238" stroke-linecap="round" stroke-linejoin="round"/>
<path d="M134.452 184.526H131.554L131.667 177.607H134.549L134.452 184.526Z" fill="#E76F51" stroke="#263238" stroke-linecap="round" stroke-linejoin="round"/>
<path d="M140.168 184.526H137.278L137.359 177.607H140.241L140.168 184.526Z" fill="#E76F51" stroke="#263238" stroke-linecap="round" stroke-linejoin="round"/>
<path d="M110.441 224.007H107.478L107.696 216.732H110.651L110.441 224.007Z" fill="#E76F51" stroke="#263238" stroke-linecap="round" stroke-linejoin="round"/>
<path d="M116.302 224.007H113.339L113.533 216.732H116.488L116.302 224.007Z" fill="#E76F51" stroke="#263238" stroke-linecap="round" stroke-linejoin="round"/>
<path d="M122.164 224.007H119.193L119.37 216.732H122.317L122.164 224.007Z" fill="#E76F51" stroke="#263238" stroke-linecap="round" stroke-linejoin="round"/>
<path d="M128.025 224.007H125.054L125.2 216.732H128.154L128.025 224.007Z" fill="#E76F51" stroke="#263238" stroke-linecap="round" stroke-linejoin="round"/>
<path d="M133.887 224.007H130.916L131.037 216.732H133.992L133.887 224.007Z" fill="#E76F51" stroke="#263238" stroke-linecap="round" stroke-linejoin="round"/>
<path d="M139.748 224.007H136.777L136.874 216.732H139.821L139.748 224.007Z" fill="#E76F51" stroke="#263238" stroke-linecap="round" stroke-linejoin="round"/>
<path d="M110.7 215.094H107.745L108.641 186.102H111.531L110.7 215.094Z" fill="#E76F51" stroke="#263238" stroke-linecap="round" stroke-linejoin="round"/>
<path d="M116.529 215.094H113.574L114.365 186.102H117.255L116.529 215.094Z" fill="#E76F51" stroke="#263238" stroke-linecap="round" stroke-linejoin="round"/>
<path d="M122.358 215.094H119.403L120.081 186.102H122.979L122.358 215.094Z" fill="#E76F51" stroke="#263238" stroke-linecap="round" stroke-linejoin="round"/>
<path d="M128.187 215.094H125.232L125.805 186.102H128.704L128.187 215.094Z" fill="#E76F51" stroke="#263238" stroke-linecap="round" stroke-linejoin="round"/>
<path d="M134.008 215.094H131.061L131.529 186.102H134.428L134.008 215.094Z" fill="#E76F51" stroke="#263238" stroke-linecap="round" stroke-linejoin="round"/>
<path d="M139.837 215.094H136.89L137.253 186.102H140.152L139.837 215.094Z" fill="#E76F51" stroke="#263238" stroke-linecap="round" stroke-linejoin="round"/>
<path d="M109.513 256.132H106.493L107.422 225.662H110.393L109.513 256.132Z" fill="#E76F51" stroke="#263238" stroke-linecap="round" stroke-linejoin="round"/>
<path d="M115.495 256.132H112.467L113.291 225.662H116.262L115.495 256.132Z" fill="#E76F51" stroke="#263238" stroke-linecap="round" stroke-linejoin="round"/>
<path d="M121.469 256.132H118.442L119.16 225.662H122.123L121.469 256.132Z" fill="#E76F51" stroke="#263238" stroke-linecap="round" stroke-linejoin="round"/>
<path d="M127.444 256.132H124.424L125.022 225.662H127.993L127.444 256.132Z" fill="#E76F51" stroke="#263238" stroke-linecap="round" stroke-linejoin="round"/>
<path d="M133.427 256.132H130.399L130.891 225.662H133.862L133.427 256.132Z" fill="#E76F51" stroke="#263238" stroke-linecap="round" stroke-linejoin="round"/>
<path d="M139.401 256.132H136.374L136.761 225.662H139.724L139.401 256.132Z" fill="#E76F51" stroke="#263238" stroke-linecap="round" stroke-linejoin="round"/>
<path d="M107.987 309.12H104.862L105.113 301.062H108.221L107.987 309.12Z" fill="#E76F51" stroke="#263238" stroke-linecap="round" stroke-linejoin="round"/>
<path d="M114.155 309.12H111.039L111.248 301.062H114.357L114.155 309.12Z" fill="#E76F51" stroke="#263238" stroke-linecap="round" stroke-linejoin="round"/>
<path d="M120.323 309.12H117.207L117.392 301.062H120.501L120.323 309.12Z" fill="#E76F51" stroke="#263238" stroke-linecap="round" stroke-linejoin="round"/>
<path d="M126.491 309.12H123.375L123.528 301.062H126.637L126.491 309.12Z" fill="#E76F51" stroke="#263238" stroke-linecap="round" stroke-linejoin="round"/>
<path d="M132.667 309.12H129.543L129.672 301.062H132.78L132.667 309.12Z" fill="#E76F51" stroke="#263238" stroke-linecap="round" stroke-linejoin="round"/>
<path d="M138.836 309.12H135.711L135.808 301.062H138.917L138.836 309.12Z" fill="#E76F51" stroke="#263238" stroke-linecap="round" stroke-linejoin="round"/>
<path d="M106.961 344.747H103.772L104.813 310.951H107.938L106.961 344.747Z" fill="#E76F51" stroke="#263238" stroke-linecap="round" stroke-linejoin="round"/>
<path d="M113.259 344.747H110.07L110.982 310.951H114.115L113.259 344.747Z" fill="#E76F51" stroke="#263238" stroke-linecap="round" stroke-linejoin="round"/>
<path d="M119.556 344.747H116.367L117.158 310.951H120.283L119.556 344.747Z" fill="#E76F51" stroke="#263238" stroke-linecap="round" stroke-linejoin="round"/>
<path d="M125.854 344.747H122.665L123.335 310.951H126.459L125.854 344.747Z" fill="#E76F51" stroke="#263238" stroke-linecap="round" stroke-linejoin="round"/>
<path d="M132.151 344.747H128.962L129.511 310.951H132.635L132.151 344.747Z" fill="#E76F51" stroke="#263238" stroke-linecap="round" stroke-linejoin="round"/>
<path d="M138.448 344.747H135.259L135.687 310.951H138.812L138.448 344.747Z" fill="#E76F51" stroke="#263238" stroke-linecap="round" stroke-linejoin="round"/>
<path d="M109.125 269.687H106.073L106.437 257.875H109.464L109.125 269.687Z" fill="#E76F51" stroke="#263238" stroke-linecap="round" stroke-linejoin="round"/>
<path d="M115.148 269.687H112.104L112.419 257.875H115.446L115.148 269.687Z" fill="#E76F51" stroke="#263238" stroke-linecap="round" stroke-linejoin="round"/>
<path d="M121.179 269.687H118.127L118.401 257.875H121.429L121.179 269.687Z" fill="#E76F51" stroke="#263238" stroke-linecap="round" stroke-linejoin="round"/>
<path d="M127.202 269.687H124.15L124.384 257.875H127.412L127.202 269.687Z" fill="#E76F51" stroke="#263238" stroke-linecap="round" stroke-linejoin="round"/>
<path d="M133.225 269.687H130.181L130.367 257.875H133.394L133.225 269.687Z" fill="#E76F51" stroke="#263238" stroke-linecap="round" stroke-linejoin="round"/>
<path d="M139.256 269.687H136.204L136.349 257.875H139.385L139.256 269.687Z" fill="#E76F51" stroke="#263238" stroke-linecap="round" stroke-linejoin="round"/>
<path d="M108.269 299.342H105.161L106.025 271.439H109.076L108.269 299.342Z" fill="#E76F51" stroke="#263238" stroke-linecap="round" stroke-linejoin="round"/>
<path d="M114.405 299.342H111.297L112.056 271.439H115.108L114.405 299.342Z" fill="#E76F51" stroke="#263238" stroke-linecap="round" stroke-linejoin="round"/>
<path d="M120.533 299.342H117.433L118.087 271.439H121.138L120.533 299.342Z" fill="#E76F51" stroke="#263238" stroke-linecap="round" stroke-linejoin="round"/>
<path d="M126.669 299.342H123.569L124.118 271.439H127.17L126.669 299.342Z" fill="#E76F51" stroke="#263238" stroke-linecap="round" stroke-linejoin="round"/>
<path d="M132.805 299.342H129.697L130.149 271.439H133.201L132.805 299.342Z" fill="#E76F51" stroke="#263238" stroke-linecap="round" stroke-linejoin="round"/>
<path d="M138.941 299.342H135.833L136.18 271.439H139.24L138.941 299.342Z" fill="#E76F51" stroke="#263238" stroke-linecap="round" stroke-linejoin="round"/>
<path d="M128.687 2.20117H128.106L127.953 9.93568H128.526L128.687 2.20117Z" fill="#625D40"/>
<path d="M131.481 6.31944L131.489 5.80273H125.159L125.151 6.31944H131.481Z" fill="#625D40"/>
<path d="M128.534 21.5932H127.267L127.315 19.4052L127.953 18.9531L128.575 19.4052L128.534 21.5932Z" fill="white" stroke="#263238" stroke-linecap="round" stroke-linejoin="round"/>
<path d="M128.211 37.4739H126.936L126.976 35.2456L127.63 34.7773L128.252 35.2456L128.211 37.4739Z" fill="white" stroke="#263238" stroke-linecap="round" stroke-linejoin="round"/>
<path d="M124.069 37.4739H122.793L122.842 35.2456L123.496 34.7773L124.118 35.2456L124.069 37.4739Z" fill="white" stroke="#263238" stroke-linecap="round" stroke-linejoin="round"/>
<path d="M132.328 37.4739H131.053L131.093 35.2456L131.739 34.7773L132.369 35.2456L132.328 37.4739Z" fill="white" stroke="#263238" stroke-linecap="round" stroke-linejoin="round"/>
<path d="M126.233 30.4028H124.958L125.014 28.1907L125.652 27.7305L126.282 28.1907L126.233 30.4028Z" fill="white" stroke="#263238" stroke-linecap="round" stroke-linejoin="round"/>
<path d="M130.472 30.4028H129.204L129.244 28.1907L129.89 27.7305L130.512 28.1907L130.472 30.4028Z" fill="white" stroke="#263238" stroke-linecap="round" stroke-linejoin="round"/>
<path d="M168.305 349.794L167.74 262.252H162.976L163.291 349.794H168.305Z" fill="#E76F51" stroke="#263238" stroke-linecap="round" stroke-linejoin="round"/>
<path d="M166.528 256.705H164.187L164.203 258.837H166.545L166.528 256.705Z" fill="#E76F51" stroke="#263238" stroke-linecap="round" stroke-linejoin="round"/>
<path d="M166.456 249.197H164.13L164.809 251.313H165.721L166.456 249.197Z" fill="#E76F51" stroke="#263238" stroke-linecap="round" stroke-linejoin="round"/>
<path d="M167.029 258.408H163.71L163.719 260.548H167.037L167.029 258.408Z" fill="#E76F51" stroke="#263238" stroke-linecap="round" stroke-linejoin="round"/>
<path d="M167.764 259.861H162.992V261.662H167.78L167.764 259.861Z" fill="#E76F51" stroke="#263238" stroke-linecap="round" stroke-linejoin="round"/>
<path d="M168.345 261.574H162.427L162.435 263.205H168.353L168.345 261.574Z" fill="#E76F51" stroke="#263238" stroke-linecap="round" stroke-linejoin="round"/>
<path d="M165.535 245.201H165.01L165.067 256.682H165.6L165.535 245.201Z" fill="#E76F51" stroke="#263238" stroke-linecap="round" stroke-linejoin="round"/>
<path d="M196.191 349.794L194.229 262.252H189.465L191.177 349.794H196.191Z" fill="#E76F51" stroke="#263238" stroke-linecap="round" stroke-linejoin="round"/>
<path d="M192.929 256.705H190.588L190.628 258.837H192.978L192.929 256.705Z" fill="#E76F51" stroke="#263238" stroke-linecap="round" stroke-linejoin="round"/>
<path d="M192.735 249.197H190.402L191.12 251.313H192.033L192.735 249.197Z" fill="#E76F51" stroke="#263238" stroke-linecap="round" stroke-linejoin="round"/>
<path d="M193.454 258.408H190.136L190.184 260.548H193.502L193.454 258.408Z" fill="#E76F51" stroke="#263238" stroke-linecap="round" stroke-linejoin="round"/>
<path d="M194.213 259.861H189.441L189.474 261.662H194.253L194.213 259.861Z" fill="#E76F51" stroke="#263238" stroke-linecap="round" stroke-linejoin="round"/>
<path d="M194.818 261.574H188.9L188.933 263.205H194.859L194.818 261.574Z" fill="#E76F51" stroke="#263238" stroke-linecap="round" stroke-linejoin="round"/>
<path d="M191.75 245.201H191.226L191.46 256.682H191.993L191.75 245.201Z" fill="#E76F51" stroke="#263238" stroke-linecap="round" stroke-linejoin="round"/>
<path d="M224.077 349.794L220.71 262.252H215.947L219.063 349.794H224.077Z" fill="#E76F51" stroke="#263238" stroke-linecap="round" stroke-linejoin="round"/>
<path d="M219.33 256.705H216.988L217.061 258.837H219.41L219.33 256.705Z" fill="#E76F51" stroke="#263238" stroke-linecap="round" stroke-linejoin="round"/>
<path d="M219.015 249.197H216.682L217.424 251.313H218.345L219.015 249.197Z" fill="#E76F51" stroke="#263238" stroke-linecap="round" stroke-linejoin="round"/>
<path d="M219.879 258.408H216.561L216.641 260.548H219.96L219.879 258.408Z" fill="#E76F51" stroke="#263238" stroke-linecap="round" stroke-linejoin="round"/>
<path d="M220.662 259.861H215.89L215.947 261.662H220.734L220.662 259.861Z" fill="#E76F51" stroke="#263238" stroke-linecap="round" stroke-linejoin="round"/>
<path d="M221.292 261.574H215.382L215.438 263.205H221.356L221.292 261.574Z" fill="#E76F51" stroke="#263238" stroke-linecap="round" stroke-linejoin="round"/>
<path d="M217.965 245.201H217.432L217.86 256.682H218.393L217.965 245.201Z" fill="#E76F51" stroke="#263238" stroke-linecap="round" stroke-linejoin="round"/>
<path d="M251.963 349.794L247.2 262.252H242.437L246.95 349.794H251.963Z" fill="#E76F51" stroke="#263238" stroke-linecap="round" stroke-linejoin="round"/>
<path d="M245.722 256.705H243.381L243.494 258.837H245.843L245.722 256.705Z" fill="#E76F51" stroke="#263238" stroke-linecap="round" stroke-linejoin="round"/>
<path d="M245.294 249.197H242.961L243.736 251.313H244.656L245.294 249.197Z" fill="#E76F51" stroke="#263238" stroke-linecap="round" stroke-linejoin="round"/>
<path d="M246.304 258.408H242.985L243.098 260.548H246.417L246.304 258.408Z" fill="#E76F51" stroke="#263238" stroke-linecap="round" stroke-linejoin="round"/>
<path d="M247.111 259.861H242.332L242.428 261.662H247.208L247.111 259.861Z" fill="#E76F51" stroke="#263238" stroke-linecap="round" stroke-linejoin="round"/>
<path d="M247.773 261.574H241.855L241.936 263.205H247.862L247.773 261.574Z" fill="#E76F51" stroke="#263238" stroke-linecap="round" stroke-linejoin="round"/>
<path d="M244.18 245.201H243.647L244.261 256.682H244.794L244.18 245.201Z" fill="#E76F51" stroke="#263238" stroke-linecap="round" stroke-linejoin="round"/>
<path d="M279.849 349.794L273.681 262.252H268.926L274.836 349.794H279.849Z" fill="#E76F51" stroke="#263238" stroke-linecap="round" stroke-linejoin="round"/>
<path d="M272.123 256.705H269.782L269.927 258.837H272.268L272.123 256.705Z" fill="#E76F51" stroke="#263238" stroke-linecap="round" stroke-linejoin="round"/>
<path d="M271.574 249.197H269.241L270.048 251.313H270.968L271.574 249.197Z" fill="#E76F51" stroke="#263238" stroke-linecap="round" stroke-linejoin="round"/>
<path d="M272.728 258.408H269.41L269.555 260.548H272.874L272.728 258.408Z" fill="#E76F51" stroke="#263238" stroke-linecap="round" stroke-linejoin="round"/>
<path d="M273.56 259.861H268.78L268.901 261.662H273.681L273.56 259.861Z" fill="#E76F51" stroke="#263238" stroke-linecap="round" stroke-linejoin="round"/>
<path d="M274.246 261.574H268.328L268.441 263.205H274.359L274.246 261.574Z" fill="#E76F51" stroke="#263238" stroke-linecap="round" stroke-linejoin="round"/>
<path d="M270.395 245.201H269.862L270.654 256.682H271.186L270.395 245.201Z" fill="#E76F51" stroke="#263238" stroke-linecap="round" stroke-linejoin="round"/>
<path d="M307.736 349.794L300.171 262.252H295.407L302.722 349.794H307.736Z" fill="#E76F51" stroke="#263238" stroke-linecap="round" stroke-linejoin="round"/>
<path d="M298.523 256.705H296.182L296.36 258.837H298.701L298.523 256.705Z" fill="#E76F51" stroke="#263238" stroke-linecap="round" stroke-linejoin="round"/>
<path d="M297.845 249.197H295.52L296.36 251.313H297.28L297.845 249.197Z" fill="#E76F51" stroke="#263238" stroke-linecap="round" stroke-linejoin="round"/>
<path d="M299.153 258.408H295.835L296.021 260.548H299.339L299.153 258.408Z" fill="#E76F51" stroke="#263238" stroke-linecap="round" stroke-linejoin="round"/>
<path d="M300.009 259.861H295.229L295.383 261.662H300.162L300.009 259.861Z" fill="#E76F51" stroke="#263238" stroke-linecap="round" stroke-linejoin="round"/>
<path d="M300.719 261.574H294.81L294.939 263.205H300.865L300.719 261.574Z" fill="#E76F51" stroke="#263238" stroke-linecap="round" stroke-linejoin="round"/>
<path d="M296.61 245.201H296.077L297.054 256.682H297.587L296.61 245.201Z" fill="#E76F51" stroke="#263238" stroke-linecap="round" stroke-linejoin="round"/>
<path d="M155.637 269.615H147.604L147.563 276.857H155.629L155.637 269.615Z" fill="#E76F51" stroke="#263238" stroke-linecap="round" stroke-linejoin="round"/>
<path d="M151.649 261.809L150.542 269.414H152.698L151.649 261.809Z" fill="#E76F51" stroke="#263238" stroke-linecap="round" stroke-linejoin="round"/>
<path d="M182.102 269.615H174.077L174.15 276.857H182.215L182.102 269.615Z" fill="#E76F51" stroke="#263238" stroke-linecap="round" stroke-linejoin="round"/>
<path d="M177.993 261.809L177.008 269.414H179.163L177.993 261.809Z" fill="#E76F51" stroke="#263238" stroke-linecap="round" stroke-linejoin="round"/>
<path d="M208.576 269.615H200.542L200.736 276.857H208.794L208.576 269.615Z" fill="#E76F51" stroke="#263238" stroke-linecap="round" stroke-linejoin="round"/>
<path d="M204.337 261.809L203.473 269.414H205.629L204.337 261.809Z" fill="#E76F51" stroke="#263238" stroke-linecap="round" stroke-linejoin="round"/>
<path d="M235.041 269.615H227.016L227.314 276.857H235.38L235.041 269.615Z" fill="#E76F51" stroke="#263238" stroke-linecap="round" stroke-linejoin="round"/>
<path d="M230.681 261.809L229.938 269.414H232.094L230.681 261.809Z" fill="#E76F51" stroke="#263238" stroke-linecap="round" stroke-linejoin="round"/>
<path d="M261.506 269.615H253.481L253.901 276.857H261.966L261.506 269.615Z" fill="#E76F51" stroke="#263238" stroke-linecap="round" stroke-linejoin="round"/>
<path d="M257.025 261.809L256.404 269.414H258.559L257.025 261.809Z" fill="#E76F51" stroke="#263238" stroke-linecap="round" stroke-linejoin="round"/>
<path d="M287.98 269.615H279.946L280.487 276.857H288.545L287.98 269.615Z" fill="#E76F51" stroke="#263238" stroke-linecap="round" stroke-linejoin="round"/>
<path d="M283.37 261.809L282.869 269.414H285.025L283.37 261.809Z" fill="#E76F51" stroke="#263238" stroke-linecap="round" stroke-linejoin="round"/>
<path d="M157.187 302.426H146.207L146.312 286.004H157.187V302.426Z" fill="#E76F51" stroke="#263238" stroke-linecap="round" stroke-linejoin="round"/>
<path d="M184.315 302.426H173.335L173.181 286.004H184.056L184.315 302.426Z" fill="#E76F51" stroke="#263238" stroke-linecap="round" stroke-linejoin="round"/>
<path d="M211.442 302.426H200.462L200.042 286.004H210.917L211.442 302.426Z" fill="#E76F51" stroke="#263238" stroke-linecap="round" stroke-linejoin="round"/>
<path d="M238.577 302.426H227.597L226.911 286.004H237.786L238.577 302.426Z" fill="#E76F51" stroke="#263238" stroke-linecap="round" stroke-linejoin="round"/>
<path d="M265.704 302.426H254.724L253.78 286.004H264.655L265.704 302.426Z" fill="#E76F51" stroke="#263238" stroke-linecap="round" stroke-linejoin="round"/>
<path d="M292.832 302.426H281.852L280.641 286.004H291.516L292.832 302.426Z" fill="#E76F51" stroke="#263238" stroke-linecap="round" stroke-linejoin="round"/>
<path d="M157.187 323.91H146.07L146.175 307.076H157.187V323.91Z" fill="#E76F51" stroke="#263238" stroke-linecap="round" stroke-linejoin="round"/>
<path d="M184.662 323.91H173.544L173.383 307.076H184.387L184.662 323.91Z" fill="#E76F51" stroke="#263238" stroke-linecap="round" stroke-linejoin="round"/>
<path d="M212.136 323.91H201.011L200.583 307.076H211.595L212.136 323.91Z" fill="#E76F51" stroke="#263238" stroke-linecap="round" stroke-linejoin="round"/>
<path d="M239.603 323.91H228.485L227.791 307.076H238.795L239.603 323.91Z" fill="#E76F51" stroke="#263238" stroke-linecap="round" stroke-linejoin="round"/>
<path d="M267.077 323.91H255.96L254.991 307.076H266.003L267.077 323.91Z" fill="#E76F51" stroke="#263238" stroke-linecap="round" stroke-linejoin="round"/>
<path d="M294.552 323.91H283.434L282.191 307.076H293.203L294.552 323.91Z" fill="#E76F51" stroke="#263238" stroke-linecap="round" stroke-linejoin="round"/>
<path d="M157.187 345.951H145.924L146.037 328.682H157.187V345.951Z" fill="#E76F51" stroke="#263238" stroke-linecap="round" stroke-linejoin="round"/>
<path d="M185.017 345.951H173.754L173.584 328.682H184.734L185.017 345.951Z" fill="#E76F51" stroke="#263238" stroke-linecap="round" stroke-linejoin="round"/>
<path d="M212.839 345.951H201.576L201.132 328.682H212.29L212.839 345.951Z" fill="#E76F51" stroke="#263238" stroke-linecap="round" stroke-linejoin="round"/>
<path d="M240.668 345.951H229.406L228.687 328.682H239.837L240.668 345.951Z" fill="#E76F51" stroke="#263238" stroke-linecap="round" stroke-linejoin="round"/>
<path d="M268.49 345.951H257.227L256.234 328.682H267.384L268.49 345.951Z" fill="#E76F51" stroke="#263238" stroke-linecap="round" stroke-linejoin="round"/>
<path d="M296.311 345.951H285.049L283.781 328.682H294.931L296.311 345.951Z" fill="#E76F51" stroke="#263238" stroke-linecap="round" stroke-linejoin="round"/>
<path d="M334.952 349.794L327.387 262.252H322.624L329.938 349.794H334.952Z" fill="#E76F51" stroke="#263238" stroke-linecap="round" stroke-linejoin="round"/>
<path d="M325.74 256.705H323.39L323.576 258.837H325.917L325.74 256.705Z" fill="#E76F51" stroke="#263238" stroke-linecap="round" stroke-linejoin="round"/>
<path d="M325.062 249.197H322.729L323.576 251.313H324.497L325.062 249.197Z" fill="#E76F51" stroke="#263238" stroke-linecap="round" stroke-linejoin="round"/>
<path d="M326.37 258.408H323.051L323.229 260.548H326.555L326.37 258.408Z" fill="#E76F51" stroke="#263238" stroke-linecap="round" stroke-linejoin="round"/>
<path d="M327.217 259.861H322.446L322.599 261.662H327.379L327.217 259.861Z" fill="#E76F51" stroke="#263238" stroke-linecap="round" stroke-linejoin="round"/>
<path d="M327.936 261.574H322.018L322.155 263.205H328.081L327.936 261.574Z" fill="#E76F51" stroke="#263238" stroke-linecap="round" stroke-linejoin="round"/>
<path d="M323.826 245.201H323.293L324.27 256.682H324.795L323.826 245.201Z" fill="#E76F51" stroke="#263238" stroke-linecap="round" stroke-linejoin="round"/>
<path d="M320.048 302.426H309.068L307.857 286.004H318.732L320.048 302.426Z" fill="#E76F51" stroke="#263238" stroke-linecap="round" stroke-linejoin="round"/>
<path d="M321.767 323.91H310.642L309.407 307.076H320.419L321.767 323.91Z" fill="#E76F51" stroke="#263238" stroke-linecap="round" stroke-linejoin="round"/>
<path d="M323.528 345.951H312.265L310.998 328.682H322.147L323.528 345.951Z" fill="#E76F51" stroke="#263238" stroke-linecap="round" stroke-linejoin="round"/>
<path d="M362.16 349.794L354.603 262.252H349.839L357.146 349.794H362.16Z" fill="#E76F51" stroke="#263238" stroke-linecap="round" stroke-linejoin="round"/>
<path d="M352.948 256.705H350.606L350.784 258.837H353.133L352.948 256.705Z" fill="#E76F51" stroke="#263238" stroke-linecap="round" stroke-linejoin="round"/>
<path d="M352.278 249.197H349.944L350.792 251.313H351.704L352.278 249.197Z" fill="#E76F51" stroke="#263238" stroke-linecap="round" stroke-linejoin="round"/>
<path d="M353.585 258.408H350.267L350.445 260.548H353.763L353.585 258.408Z" fill="#E76F51" stroke="#263238" stroke-linecap="round" stroke-linejoin="round"/>
<path d="M354.433 259.861H349.662L349.807 261.662H354.595L354.433 259.861Z" fill="#E76F51" stroke="#263238" stroke-linecap="round" stroke-linejoin="round"/>
<path d="M355.152 261.574H349.234L349.371 263.205H355.289L355.152 261.574Z" fill="#E76F51" stroke="#263238" stroke-linecap="round" stroke-linejoin="round"/>
<path d="M351.035 245.201H350.51L351.479 256.682H352.011L351.035 245.201Z" fill="#E76F51" stroke="#263238" stroke-linecap="round" stroke-linejoin="round"/>
<path d="M347.264 302.426H336.284L335.073 286.004H345.948L347.264 302.426Z" fill="#E76F51" stroke="#263238" stroke-linecap="round" stroke-linejoin="round"/>
<path d="M348.976 323.91H337.858L336.623 307.076H347.635L348.976 323.91Z" fill="#E76F51" stroke="#263238" stroke-linecap="round" stroke-linejoin="round"/>
<path d="M350.744 345.951H339.481L338.213 328.682H349.363L350.744 345.951Z" fill="#E76F51" stroke="#263238" stroke-linecap="round" stroke-linejoin="round"/>
<path d="M111.902 303.703L106.88 305.641L116.512 292.424C116.717 291.563 116.902 290.683 117.069 289.784L118.167 278.287C118.167 278.287 112.758 282.865 112.08 283.026C111.402 283.188 116.666 267.493 117.957 263.601C117.82 260.687 117.642 257.603 117.416 254.405L110.788 257.352L116.141 250.086L115.333 234.674L111.918 235.893L114.801 228.626C114.082 223.266 113.25 217.961 112.314 212.923L109.601 205.261L107.647 211.72L108.406 196.106C105.354 185.731 101.616 178.699 97.2082 178.425C91.8877 178.086 86.3088 187.645 81.2547 201.152L80.5846 210.033L79.7773 205.302C77.1291 212.923 74.6586 221.522 72.511 230.16L73.3749 233.543L71.8571 232.776C70.5411 238.161 69.3381 243.53 68.2885 248.657L71.8167 254.946L67.5458 252.371C66.5608 257.368 65.7373 262.059 65.1237 266.282C66.3024 272.426 67.7637 280.419 67.3681 280.265C66.0563 279.23 64.8329 278.088 63.7108 276.85C63.6624 277.415 63.6139 277.972 63.5816 278.465C63.2358 283.785 63.5914 289.127 64.6393 294.354L69.5965 303.331L66.7223 301.781C70.9044 313.238 78.7761 321.101 88.2222 321.691C97.7895 322.288 106.67 315.28 112.241 304.211L111.902 303.703Z" fill="#2A9D8F"/>
<path d="M85.1546 274.355L89.0945 280.475L87.2214 298.333L82.4257 294.628L86.8339 302.031L82.6598 349.794H88.0288L91.1613 288.637L106.081 281.589L97.6444 284.124L99.6144 279.264L95.3031 284.826L91.2824 286.037L92.0171 269.721L107.527 251.579L99.3722 258.781L101.003 253.517L96.8532 261.001L92.227 265.086L93.3735 239.59L89.4982 276.64L76.8145 261.405L83.6448 272.005L76.6611 270.786L85.1546 274.355Z" fill="#263238"/>
<path d="M108.35 240.607C108.471 242.158 107.974 243.694 106.969 244.881C105.964 246.068 104.53 246.809 102.981 246.945C102.869 245.396 103.368 243.865 104.372 242.68C105.375 241.495 106.804 240.751 108.35 240.607Z" fill="white"/>
<path d="M115.842 252.629C115.959 254.179 115.461 255.712 114.456 256.898C113.452 258.084 112.021 258.827 110.473 258.967C110.361 257.418 110.86 255.887 111.864 254.702C112.868 253.517 114.296 252.773 115.842 252.629Z" fill="white"/>
<path d="M114.437 275.106C114.023 276.604 113.037 277.88 111.692 278.659C110.347 279.438 108.749 279.658 107.244 279.272C107.658 277.774 108.644 276.498 109.989 275.719C111.334 274.94 112.931 274.72 114.437 275.106Z" fill="white"/>
<path d="M69.3623 272.289C69.5849 273.828 70.4038 275.218 71.6424 276.159C72.8809 277.1 74.4398 277.517 75.9827 277.319C75.7562 275.781 74.9363 274.393 73.6987 273.453C72.4611 272.513 70.9044 272.095 69.3623 272.289Z" fill="white"/>
<path d="M105.541 265.191C105.655 266.742 105.157 268.275 104.153 269.461C103.149 270.648 101.719 271.393 100.172 271.537C100.053 269.986 100.55 268.451 101.554 267.263C102.559 266.075 103.991 265.331 105.541 265.191Z" fill="white"/>
<path d="M105.734 227.852C105.847 229.4 105.347 230.932 104.344 232.116C103.34 233.301 101.912 234.046 100.365 234.189C100.249 232.64 100.747 231.106 101.751 229.92C102.756 228.734 104.186 227.991 105.734 227.852Z" fill="white"/>
<path d="M100.244 237.111C100.358 238.661 99.8602 240.195 98.8562 241.381C97.8523 242.568 96.4227 243.313 94.875 243.457C94.7605 241.907 95.2588 240.374 96.2628 239.187C97.2667 238 98.6962 237.255 100.244 237.111Z" fill="white"/>
<path d="M112.29 230.871C112.406 232.421 111.909 233.954 110.904 235.14C109.899 236.326 108.469 237.069 106.921 237.209C106.809 235.66 107.308 234.129 108.312 232.944C109.315 231.759 110.744 231.015 112.29 230.871Z" fill="white"/>
<path d="M74.5619 228.514C74.2568 230.037 74.5611 231.619 75.4095 232.92C76.2578 234.221 77.5825 235.138 79.0992 235.473C79.4042 233.95 79.0999 232.368 78.2516 231.067C77.4032 229.766 76.0785 228.849 74.5619 228.514Z" fill="white"/>
<path d="M107.526 216.217C107.641 217.767 107.142 219.3 106.138 220.487C105.134 221.673 103.705 222.419 102.157 222.563C102.043 221.012 102.541 219.479 103.545 218.293C104.549 217.106 105.978 216.361 107.526 216.217Z" fill="white"/>
<path d="M105.896 203.646C106.398 205.117 106.302 206.726 105.629 208.126C104.955 209.527 103.757 210.606 102.295 211.131C101.797 209.66 101.895 208.053 102.568 206.654C103.241 205.254 104.436 204.175 105.896 203.646Z" fill="white"/>
<path d="M88.8763 199.344C90.2347 200.099 91.2416 201.357 91.6797 202.848C92.1178 204.339 91.9518 205.943 91.2177 207.312C89.8594 206.558 88.8524 205.299 88.4143 203.808C87.9763 202.317 88.1422 200.713 88.8763 199.344Z" fill="white"/>
<path d="M96.0054 214.684C96.9574 215.914 97.3868 217.469 97.201 219.013C97.0152 220.557 96.2289 221.966 95.0124 222.935C94.0646 221.703 93.6376 220.149 93.8233 218.606C94.009 217.063 94.7925 215.655 96.0054 214.684Z" fill="white"/>
<path d="M96.942 192.537C97.8878 193.769 98.3135 195.323 98.1278 196.865C97.9422 198.407 97.1601 199.816 95.9489 200.788C94.997 199.558 94.5675 198.003 94.7534 196.459C94.9392 194.915 95.7254 193.506 96.942 192.537Z" fill="white"/>
<path d="M75.9668 238.582C75.6616 240.106 75.9657 241.689 76.8139 242.992C77.6621 244.294 78.9868 245.212 80.5042 245.55C80.8137 244.025 80.5114 242.44 79.6625 241.136C78.8136 239.833 77.4862 238.915 75.9668 238.582Z" fill="white"/>
<path d="M70.4446 251.902C70.1352 253.426 70.4377 255.01 71.2868 256.312C72.1358 257.614 73.4631 258.53 74.9819 258.862C75.287 257.339 74.9826 255.757 74.1343 254.456C73.2859 253.154 71.9612 252.238 70.4446 251.902Z" fill="white"/>
<path d="M82.555 257.619C82.2466 259.147 82.5535 260.735 83.4091 262.038C84.2647 263.341 85.5999 264.254 87.1247 264.579C87.4297 263.056 87.1254 261.474 86.2771 260.172C85.4287 258.871 84.104 257.955 82.5873 257.619H82.555Z" fill="white"/>
<path d="M87.1246 238.969C86.3933 240.34 86.2297 241.943 86.6692 243.434C87.1086 244.924 88.1159 246.182 89.4741 246.937C90.2075 245.567 90.3723 243.963 89.9326 242.472C89.493 240.98 88.4844 239.722 87.1246 238.969Z" fill="white"/>
<path d="M75.1997 288.604C76.7421 288.779 78.2918 288.344 79.5181 287.393C80.7444 286.441 81.5502 285.048 81.7635 283.51C80.2196 283.327 78.6655 283.758 77.4372 284.712C76.209 285.665 75.4052 287.063 75.1997 288.604Z" fill="white"/>
<path d="M99.4932 287.346C99.7621 288.88 100.623 290.247 101.889 291.153C103.156 292.059 104.728 292.431 106.267 292.19C106.002 290.654 105.142 289.284 103.874 288.377C102.606 287.471 101.032 287.1 99.4932 287.346Z" fill="white"/>
<path d="M81.9006 226.357C81.5913 227.881 81.8938 229.465 82.7428 230.767C83.5918 232.069 84.9192 232.985 86.438 233.317C86.743 231.794 86.4387 230.212 85.5903 228.911C84.742 227.609 83.4173 226.693 81.9006 226.357Z" fill="white"/>
<path d="M82.5469 215.297C82.2416 216.821 82.5457 218.404 83.3939 219.706C84.2421 221.009 85.5669 221.927 87.0842 222.264C87.3916 220.74 87.0884 219.156 86.2399 217.853C85.3913 216.55 84.0652 215.632 82.5469 215.297Z" fill="white"/>
<path d="M50.7932 294.677L47.7495 295.847L53.5867 287.838C53.7159 287.314 53.8289 286.773 53.9258 286.224L54.5959 279.248C53.4186 280.275 52.184 281.235 50.8982 282.122C50.543 282.211 53.6836 272.7 54.4667 270.335C54.386 268.567 54.273 266.702 54.1357 264.764L50.0989 266.548L53.3284 262.156L52.8359 252.807L50.7609 253.55L52.5048 249.125C52.0689 245.896 51.5683 242.667 51.0032 239.599L49.3884 234.956L48.1774 238.904L48.6376 229.434C46.7887 223.145 44.5201 218.874 41.8477 218.712C38.6182 218.51 35.2354 224.307 32.1594 232.494L31.7476 237.879L31.2471 235.005C29.6323 239.631 28.1387 244.846 26.8227 250.086L27.3475 252.137L26.4271 251.669C25.6198 254.938 24.8931 258.192 24.2553 261.3L26.4029 265.119L23.8113 263.553C23.2138 266.589 22.7133 269.447 22.3257 271.99C23.0443 275.72 23.9404 280.564 23.6821 280.475C22.9125 279.839 22.1944 279.142 21.5345 278.392C21.5345 278.739 21.478 279.078 21.4618 279.393C21.2615 282.597 21.4814 285.814 22.1158 288.961L25.1273 294.41L23.343 293.506C25.8862 300.449 30.6577 305.221 36.3899 305.576C42.1222 305.931 47.58 301.693 50.9224 294.975L50.7932 294.677Z" fill="#2A9D8F"/>
<path d="M47.2409 281.267L42.1222 282.801L43.3171 279.854L40.7013 283.229L38.263 283.964L38.7071 274.065L48.1209 263.061L43.1718 267.429L44.1568 264.24L41.6378 268.777L38.8363 271.256L39.5306 255.795L37.1812 278.264L29.487 269.019L33.6288 275.454L29.3901 274.711L34.5492 276.883L36.9309 280.589L35.8006 291.424L32.8941 289.171L35.5664 293.668L30.6738 349.529L34.8963 349.796L38.1904 285.538L47.2409 281.267Z" fill="#263238"/>
<path d="M48.6135 256.408C48.6855 257.344 48.3875 258.271 47.7837 258.989C47.1798 259.708 46.3183 260.161 45.384 260.251C45.3141 259.316 45.6128 258.39 46.2163 257.672C46.8197 256.954 47.68 256.5 48.6135 256.408Z" fill="white"/>
<path d="M53.1589 263.715C53.2309 264.651 52.9329 265.577 52.3291 266.296C51.7253 267.015 50.8637 267.468 49.9294 267.558C49.8595 266.622 50.1582 265.697 50.7617 264.979C51.3651 264.261 52.2254 263.807 53.1589 263.715Z" fill="white"/>
<path d="M52.3031 277.334C52.0532 278.243 51.4561 279.017 50.6405 279.49C49.825 279.963 48.8563 280.096 47.9434 279.861C48.1932 278.952 48.7903 278.178 49.6059 277.705C50.4215 277.232 51.3902 277.099 52.3031 277.334Z" fill="white"/>
<path d="M24.9575 275.622C25.1477 276.536 25.6328 277.361 26.3381 277.972C27.1142 278.489 28.0394 278.736 28.9701 278.674C28.7795 277.759 28.2912 276.933 27.5814 276.325C26.808 275.808 25.8857 275.561 24.9575 275.622Z" fill="white"/>
<path d="M46.9097 271.32C46.9817 272.256 46.6838 273.183 46.08 273.901C45.4761 274.62 44.6145 275.073 43.6803 275.163C43.6146 274.229 43.9147 273.306 44.5174 272.588C45.12 271.871 45.9779 271.416 46.9097 271.32Z" fill="white"/>
<path d="M47.031 248.674C47.0967 249.608 46.7966 250.532 46.1939 251.249C45.5913 251.966 44.7334 252.421 43.8016 252.517C43.7296 251.581 44.0275 250.654 44.6314 249.936C45.2352 249.217 46.0968 248.764 47.031 248.674Z" fill="white"/>
<path d="M43.6966 254.285C43.7687 255.222 43.471 256.15 42.8673 256.869C42.2637 257.589 41.4021 258.044 40.4671 258.136C40.395 257.2 40.6927 256.272 41.2964 255.552C41.9 254.832 42.7617 254.377 43.6966 254.285Z" fill="white"/>
<path d="M51.0032 250.498C51.0753 251.435 50.7776 252.362 50.174 253.082C49.5703 253.802 48.7087 254.257 47.7738 254.349C47.7017 253.412 47.9994 252.485 48.603 251.765C49.2067 251.045 50.0683 250.59 51.0032 250.498Z" fill="white"/>
<path d="M28.1225 249.076C27.9334 250 28.1166 250.961 28.6321 251.75C29.1477 252.539 29.9539 253.093 30.8756 253.291C31.0604 252.367 30.8754 251.409 30.3606 250.621C29.8457 249.832 29.0421 249.278 28.1225 249.076Z" fill="white"/>
<path d="M48.113 241.617C48.185 242.553 47.887 243.48 47.2832 244.198C46.6794 244.917 45.8178 245.37 44.8835 245.46C44.8136 244.525 45.1123 243.599 45.7158 242.881C46.3192 242.163 47.1795 241.709 48.113 241.617Z" fill="white"/>
<path d="M47.1277 233.986C47.4332 234.879 47.375 235.857 46.9656 236.708C46.5562 237.558 45.8284 238.213 44.9397 238.532C44.6385 237.638 44.6987 236.663 45.1076 235.813C45.5165 234.964 46.2415 234.308 47.1277 233.986Z" fill="white"/>
<path d="M36.8018 231.371C37.6296 231.828 38.2435 232.593 38.5096 233.501C38.7758 234.408 38.6727 235.384 38.2228 236.215C37.3996 235.754 36.7899 234.988 36.5243 234.083C36.2587 233.178 36.3583 232.204 36.8018 231.371Z" fill="white"/>
<path d="M41.1051 240.68C41.6293 241.453 41.882 242.379 41.8237 243.312C41.6589 244.228 41.1929 245.064 40.4996 245.685C39.976 244.914 39.7233 243.991 39.781 243.061C39.9499 242.144 40.4151 241.307 41.1051 240.68Z" fill="white"/>
<path d="M41.6944 227.254C42.2689 228.001 42.5272 228.944 42.414 229.88C42.3008 230.816 41.825 231.671 41.0889 232.26C40.5145 231.512 40.2561 230.569 40.3693 229.633C40.4826 228.697 40.9583 227.843 41.6944 227.254Z" fill="white"/>
<path d="M28.9946 255.18C28.8073 256.103 28.99 257.063 29.5034 257.852C30.0169 258.642 30.8199 259.199 31.7397 259.402C31.927 258.479 31.7443 257.519 31.2309 256.729C30.7174 255.94 29.9144 255.383 28.9946 255.18Z" fill="white"/>
<path d="M25.6197 263.262C25.4349 264.185 25.6199 265.144 26.1347 265.932C26.6496 266.72 27.4532 267.274 28.3728 267.476C28.5619 266.553 28.3788 265.592 27.8632 264.803C27.3477 264.013 26.5414 263.46 25.6197 263.262Z" fill="white"/>
<path d="M32.9669 266.727C32.7798 267.651 32.9637 268.612 33.4787 269.402C33.9938 270.192 34.7988 270.747 35.72 270.949C35.8457 270.026 35.6641 269.087 35.2033 268.277C34.6506 267.526 33.8638 266.981 32.9669 266.727Z" fill="white"/>
<path d="M35.7358 255.414C35.351 256.264 35.2546 257.217 35.4613 258.127C35.7803 259.003 36.379 259.749 37.1649 260.25C37.6119 259.417 37.7127 258.442 37.4452 257.535C37.1776 256.628 36.5635 255.863 35.7358 255.406V255.414Z" fill="white"/>
<path d="M28.5103 285.522C29.446 285.628 30.386 285.364 31.1296 284.786C31.8733 284.208 32.3617 283.363 32.4905 282.43C31.5537 282.318 30.6103 282.579 29.8652 283.158C29.12 283.737 28.6332 284.586 28.5103 285.522Z" fill="white"/>
<path d="M43.2446 284.762C43.4086 285.691 43.9315 286.519 44.7005 287.066C45.4694 287.613 46.4225 287.835 47.3541 287.685C47.1862 286.758 46.6624 285.933 45.8945 285.387C45.1266 284.841 44.1756 284.616 43.2446 284.762Z" fill="white"/>
<path d="M32.5713 247.785C32.4408 248.708 32.6197 249.647 33.08 250.458C33.6394 251.205 34.4275 251.749 35.3244 252.008C35.5116 251.083 35.3277 250.123 34.8127 249.333C34.2976 248.543 33.4926 247.987 32.5713 247.785Z" fill="white"/>
<path d="M32.9668 241.061C32.7795 241.984 32.9622 242.944 33.4756 243.733C33.989 244.523 34.7921 245.08 35.7118 245.283C35.8992 244.36 35.7165 243.4 35.203 242.61C34.6896 241.821 33.8866 241.264 32.9668 241.061Z" fill="white"/>
<path d="M266.528 276.575L270.613 278.15L262.774 267.388C262.604 266.677 262.451 265.959 262.313 265.24L261.425 255.859C261.425 255.859 265.825 259.589 266.382 259.726C266.94 259.863 262.652 247.066 261.595 243.894C261.708 241.52 261.853 239.009 262.039 236.409L267.432 238.831L263.072 232.93L263.742 220.375L266.528 221.368L264.178 215.426C264.768 211.058 265.446 206.739 266.205 202.629L268.409 196.397L270.024 201.628L269.402 188.912C271.889 180.459 274.932 174.727 278.525 174.509C282.861 174.234 287.406 182.026 291.524 193.022L292.073 200.288L292.743 196.429C294.898 202.645 296.917 209.645 298.693 216.685L297.983 219.439L299.218 218.817C300.292 223.201 301.269 227.569 302.132 231.735L299.25 236.861L302.738 234.762C303.545 238.799 304.199 242.674 304.724 246.065C303.763 251.071 302.568 257.586 302.899 257.457C303.936 256.608 304.903 255.677 305.79 254.672C305.79 255.132 305.862 255.584 305.887 256.012C306.164 260.337 305.877 264.679 305.031 268.93L300.994 276.236L303.343 274.977C299.928 284.31 293.518 290.72 285.824 291.197C278.13 291.673 270.791 285.981 266.253 276.963L266.528 276.575Z" fill="#2A9D8F"/>
<path d="M282.732 248.892L283.329 262.181L280.051 261.196L276.539 256.667L278.146 260.623L271.267 258.556L283.426 264.304L287.81 349.796H293.478L286.946 275.212L290.539 269.181L286.631 272.2L285.113 257.652L288.319 252.67L295.238 249.756L289.554 250.749L295.108 242.11L284.782 254.527L281.617 224.34L282.562 245.113L278.792 241.787L275.409 235.691L276.733 239.97L270.088 234.109L282.732 248.892Z" fill="#263238"/>
<path d="M269.419 225.18C269.399 226.433 269.797 227.657 270.549 228.659C271.413 229.559 272.547 230.151 273.778 230.347C273.868 229.085 273.461 227.837 272.643 226.872C271.825 225.906 270.662 225.299 269.402 225.18H269.419Z" fill="white"/>
<path d="M263.323 234.98C263.233 236.241 263.639 237.488 264.455 238.453C265.271 239.418 266.432 240.026 267.691 240.148C267.781 238.887 267.374 237.641 266.558 236.675C265.742 235.71 264.581 235.102 263.323 234.98Z" fill="white"/>
<path d="M264.461 253.275C264.801 254.494 265.605 255.531 266.701 256.165C267.796 256.798 269.096 256.978 270.322 256.666C269.982 255.447 269.178 254.41 268.083 253.776C266.987 253.142 265.687 252.963 264.461 253.275Z" fill="white"/>
<path d="M301.188 251.015C301.001 252.265 300.334 253.393 299.328 254.157C298.322 254.922 297.057 255.263 295.803 255.108C295.989 253.859 296.656 252.731 297.663 251.966C298.669 251.201 299.934 250.86 301.188 251.015Z" fill="white"/>
<path d="M271.711 245.201C271.621 246.463 272.028 247.711 272.846 248.676C273.664 249.642 274.827 250.249 276.087 250.368C276.177 249.106 275.769 247.859 274.952 246.893C274.134 245.928 272.971 245.32 271.711 245.201Z" fill="white"/>
<path d="M271.55 214.779C271.46 216.041 271.867 217.289 272.685 218.254C273.503 219.22 274.666 219.827 275.926 219.946C276.016 218.684 275.608 217.437 274.791 216.471C273.973 215.506 272.81 214.898 271.55 214.779Z" fill="white"/>
<path d="M276.047 222.32C275.957 223.582 276.364 224.83 277.182 225.795C278 226.761 279.163 227.368 280.423 227.487C280.441 226.237 280.043 225.016 279.293 224.016C278.427 223.109 277.286 222.513 276.047 222.32Z" fill="white"/>
<path d="M266.213 217.234C266.123 218.495 266.529 219.741 267.345 220.707C268.161 221.672 269.323 222.28 270.581 222.401C270.671 221.141 270.265 219.894 269.448 218.929C268.632 217.964 267.471 217.355 266.213 217.234Z" fill="white"/>
<path d="M296.949 215.32C297.19 216.558 296.938 217.841 296.248 218.897C295.557 219.952 294.482 220.697 293.252 220.972C293.011 219.734 293.263 218.451 293.953 217.395C294.644 216.34 295.719 215.596 296.949 215.32Z" fill="white"/>
<path d="M270.088 205.301C269.998 206.563 270.406 207.81 271.224 208.776C272.041 209.741 273.205 210.349 274.464 210.468C274.554 209.206 274.147 207.958 273.329 206.993C272.511 206.027 271.348 205.42 270.088 205.301Z" fill="white"/>
<path d="M271.42 195.057C271.015 196.255 271.095 197.565 271.642 198.706C272.19 199.846 273.162 200.727 274.351 201.16C274.757 199.962 274.677 198.652 274.129 197.511C273.582 196.371 272.609 195.49 271.42 195.057Z" fill="white"/>
<path d="M285.283 191.537C284.179 192.157 283.362 193.184 283.006 194.398C282.65 195.613 282.783 196.919 283.378 198.036C284.481 197.417 285.299 196.39 285.655 195.175C286.011 193.96 285.877 192.655 285.283 191.537Z" fill="white"/>
<path d="M279.494 204.051C278.726 205.054 278.38 206.319 278.531 207.574C278.682 208.829 279.317 209.975 280.301 210.768C281.07 209.764 281.415 208.5 281.265 207.245C281.114 205.99 280.478 204.844 279.494 204.051Z" fill="white"/>
<path d="M278.719 186.014C277.951 187.017 277.605 188.282 277.756 189.537C277.907 190.792 278.542 191.938 279.526 192.731C280.295 191.727 280.641 190.463 280.49 189.208C280.339 187.953 279.703 186.807 278.719 186.014Z" fill="white"/>
<path d="M295.803 223.564C296.043 224.802 295.792 226.086 295.101 227.141C294.411 228.196 293.336 228.941 292.105 229.216C291.864 227.978 292.116 226.695 292.807 225.64C293.497 224.584 294.572 223.84 295.803 223.564Z" fill="white"/>
<path d="M300.308 234.375C300.548 235.613 300.297 236.896 299.606 237.951C298.916 239.007 297.841 239.751 296.61 240.027C296.369 238.789 296.621 237.505 297.312 236.45C298.002 235.395 299.077 234.65 300.308 234.375Z" fill="white"/>
<path d="M290.442 239.033C290.683 240.271 290.431 241.554 289.74 242.61C289.05 243.665 287.975 244.409 286.744 244.685C286.504 243.447 286.755 242.164 287.446 241.108C288.136 240.053 289.211 239.309 290.442 239.033Z" fill="white"/>
<path d="M286.712 223.838C287.293 224.952 287.419 226.249 287.061 227.454C286.704 228.66 285.893 229.679 284.798 230.297C284.276 229.16 284.145 227.882 284.427 226.664C284.861 225.498 285.663 224.506 286.712 223.838Z" fill="white"/>
<path d="M296.432 264.272C295.175 264.417 293.911 264.064 292.91 263.288C291.91 262.513 291.253 261.376 291.08 260.122C292.335 260.052 293.578 260.398 294.616 261.107C295.555 261.932 296.193 263.045 296.432 264.272Z" fill="white"/>
<path d="M276.636 263.255C276.411 264.501 275.707 265.609 274.675 266.342C273.643 267.076 272.364 267.376 271.114 267.178C271.339 265.932 272.043 264.824 273.075 264.091C274.107 263.357 275.385 263.057 276.636 263.255Z" fill="white"/>
<path d="M290.966 213.561C291.207 214.797 290.957 216.079 290.268 217.135C289.579 218.19 288.506 218.935 287.277 219.212C287.036 217.975 287.287 216.693 287.975 215.638C288.664 214.583 289.737 213.838 290.966 213.561Z" fill="white"/>
<path d="M290.442 204.551C290.683 205.789 290.431 207.072 289.74 208.127C289.05 209.183 287.975 209.927 286.744 210.202C286.504 208.964 286.755 207.681 287.446 206.626C288.136 205.571 289.211 204.826 290.442 204.551Z" fill="white"/>
<path d="M247.418 219.107H209.003V349.795H247.418V219.107Z" fill="white" stroke="#264653" stroke-linecap="round" stroke-linejoin="round"/>
<path d="M223.447 349.795H192.299C192.259 348.455 192.21 345.379 192.299 340.365C192.453 333.398 195.238 296.711 195.238 296.711L194.931 283.091C194.931 283.091 192.767 286.805 185.025 294.394C177.282 301.983 155.766 317 155.766 317L155.298 276.745C155.298 276.745 171.711 261.728 171.711 261.268C172.366 256.544 174.113 252.039 176.814 248.108C180.996 242.222 189.36 238.355 189.36 238.355L207.009 231.541L207.469 232.784C207.469 232.784 213.04 243.926 214.59 249.965C216.141 256.004 218.425 263.085 218.425 263.085C218.425 263.085 217.376 278.917 217.222 297.494C217.109 314.408 222.486 344.555 223.447 349.795Z" fill="#264653" stroke="#264653" stroke-linecap="round" stroke-linejoin="round"/>
<path d="M180.092 268.34L178.082 266.055" stroke="#264653" stroke-linecap="round" stroke-linejoin="round"/>
<path d="M193.874 284.019L182.353 270.924" stroke="#264653" stroke-linecap="round" stroke-linejoin="round"/>
<path d="M191.702 280.298L181.335 263.117" stroke="#264653" stroke-linecap="round" stroke-linejoin="round"/>
<path d="M200.962 232.445C200.962 232.445 188.263 236.627 186.721 241.584C185.179 246.541 186.874 261.703 188.263 269.761C189.651 277.818 192.445 283.534 193.841 284.003C195.238 284.471 196.78 281.678 197.402 278.27C198.024 274.863 201.439 244.676 202.198 239.881C202.957 235.085 202.077 232.001 200.962 232.445Z" fill="#B0B0B0" stroke="#264653" stroke-linecap="round" stroke-linejoin="round"/>
<path d="M197.434 234.011C196.243 244.705 195.623 255.456 195.577 266.216C195.577 283.09 195.262 296.71 195.262 296.71C195.262 296.71 192.324 277.205 191.855 264.82C191.387 252.435 192.17 236.336 192.17 236.336C192.17 236.336 196.191 233.857 197.434 234.011Z" fill="#264653" stroke="#264653" stroke-linecap="round" stroke-linejoin="round"/>
<path d="M284.12 250.933C284.12 250.933 294.228 271.924 298.588 278.27C302.948 284.616 302.35 286.788 300.566 286.392C299.598 286.199 298.662 285.867 297.789 285.407C297.789 285.407 307.703 302.442 308.494 308.82C309.286 315.199 310.868 321.892 300.171 327.438C289.473 332.985 280.358 320.907 278.767 319.122C277.177 317.338 275.207 261.461 275.603 255.519C275.998 249.576 281.319 248.349 284.12 250.933Z" fill="#B0B0B0" stroke="#264653" stroke-linecap="round" stroke-linejoin="round"/>
<path d="M297.757 285.408C297.116 284.978 296.632 284.352 296.376 283.624C295.981 282.437 288.843 274.113 286.865 269.753C284.887 265.393 282.699 262.818 281.908 265.192C281.117 267.565 278.542 269.156 278.34 263.415C278.138 257.675 282.901 250.134 284.088 250.934C285.582 252.001 286.859 253.344 287.85 254.89C288.843 256.504 298.556 274.113 301.132 278.868C303.707 283.624 304.103 286.595 302.916 287.588C301.729 288.581 299.347 286.199 297.757 285.408Z" fill="#B0B0B0" stroke="#264653" stroke-linecap="round" stroke-linejoin="round"/>
<path d="M297.757 297.889C297.757 297.889 300.93 313.543 301.923 317.306C302.916 321.068 305.685 321.464 306.678 320.874" stroke="#264653" stroke-linecap="round" stroke-linejoin="round"/>
<path d="M302.318 291.746C302.318 291.746 295.383 290.131 295.98 293.135C296.578 296.138 297.167 300.07 298.75 300.659C300.332 301.249 305.685 298.883 305.685 298.883C305.685 298.883 304.304 293.135 302.318 291.746Z" fill="#B0B0B0" stroke="#264653" stroke-linecap="round" stroke-linejoin="round"/>
<path d="M284.968 264.126V278.772C284.968 281.282 284.758 286.086 284.758 286.086L294.511 349.795H243.042C242.436 346.509 239.005 327.891 235.606 309.096C231.836 288.387 235.606 280.031 235.606 280.031C235.606 280.031 239.368 254.3 239.998 250.538C240.628 246.776 241.039 231.501 241.039 231.501C241.039 231.501 243.55 215.604 243.76 214.142C243.97 212.681 247.732 214.562 247.732 214.562C247.732 214.562 259.237 214.772 261.958 213.932C264.679 213.093 271.162 207.869 276.604 209.088C282.045 210.307 288.528 214.32 288.528 214.32L301.704 207.627C301.704 207.627 297.732 212.229 297.942 229.377C298.152 246.526 300.655 247.139 305.047 248.415C306.973 249.009 308.929 249.497 310.908 249.876C310.908 249.876 289.521 252.153 286.381 252.993C283.24 253.832 284.968 253.671 284.968 264.126Z" fill="#264653" stroke="#264653" stroke-linecap="round" stroke-linejoin="round"/>
<path d="M285.808 216.645C285.808 216.645 280.366 216.645 275.554 226.89" stroke="#264653" stroke-linecap="round" stroke-linejoin="round"/>
<path d="M272.478 234.398C272.438 235.085 272.422 235.795 272.422 236.514" stroke="#264653" stroke-linecap="round" stroke-linejoin="round"/>
<path d="M275.344 222.078C273.918 225.375 273.009 228.871 272.647 232.445" stroke="#264653" stroke-linecap="round" stroke-linejoin="round"/>
<path d="M280.487 286.239C278.157 281.72 276.234 277.002 274.739 272.143" stroke="#264653" stroke-linecap="round" stroke-linejoin="round"/>
<path d="M239.829 291.803C239.829 291.803 250.163 290.842 254.022 289.276C257.881 287.709 262.903 284.278 264.881 283.721C266.859 283.164 268.11 285.973 268.232 286.894C268.353 287.814 271.332 293.062 270.452 294.733C269.572 296.404 261.845 308.458 259.294 309.217C256.743 309.976 241.492 307.821 240.491 307.32C239.489 306.819 238.731 304.422 238.577 303.186C238.424 301.951 238.101 292.997 238.101 292.997C238.101 292.997 237.52 292.093 239.829 291.803Z" fill="#B0B0B0" stroke="#264653" stroke-linecap="round" stroke-linejoin="round"/>
<path d="M263.84 212.261C262.836 221.989 262.628 231.782 263.218 241.544C264.259 256.391 266.56 262.253 265.309 264.764C264.058 267.274 259.448 267.274 256.937 264.764C254.426 262.253 248.992 259.322 247.733 243.425C246.473 227.528 250.034 214.562 250.873 214.142C251.713 213.722 260.917 210.574 263.84 212.261Z" fill="#B0B0B0" stroke="#264653" stroke-linecap="round" stroke-linejoin="round"/>
<path d="M259.553 211.566C259.553 211.566 256.598 242.463 260.788 256.899C264.978 271.334 294.802 302.192 295.222 303.451C295.642 304.711 292.291 304.493 290.83 303.241C289.368 301.99 271.453 288.434 261.652 273.579C251.85 258.723 252.302 246.258 252.133 234.212C251.987 227.276 252.725 220.35 254.329 213.6C254.329 213.6 254.62 210.694 259.553 211.566Z" fill="#264653" stroke="#264653" stroke-linecap="round" stroke-linejoin="round"/>
<path d="M380.567 192.643L321.138 198.819C321.138 198.819 309.027 198.625 305.685 207.7C302.342 216.775 301.131 227.521 302.116 235.247C303.101 242.973 304.296 244.362 308.462 246.34C312.628 248.318 326.49 247.147 326.49 247.147L377.459 239.308" fill="white"/>
<path d="M380.567 192.643L321.138 198.819C321.138 198.819 309.027 198.625 305.685 207.7C302.342 216.775 301.131 227.521 302.116 235.247C303.101 242.973 304.296 244.362 308.462 246.34C312.628 248.318 326.49 247.147 326.49 247.147L377.459 239.308" stroke="#264653" stroke-linecap="round" stroke-linejoin="round"/>
<path d="M321.138 198.819C321.138 198.819 310.44 198.819 305.886 211.107C301.333 223.395 303.505 234.521 304.893 240.229C306.282 245.937 319.555 247.366 322.131 247.366C323.586 247.372 325.041 247.305 326.49 247.164C325.538 248.91 324.261 250.458 322.728 251.725C320.548 253.34 307.865 252.533 301.922 251.128C295.98 249.723 289.812 240.632 289.239 232.898C288.665 225.163 293.8 211.099 299.145 206.15C304.49 201.201 316.414 197.632 321.138 198.819Z" fill="#8C8C8C" stroke="#264653" stroke-linecap="round" stroke-linejoin="round"/>
<path d="M257.49 305.796C258.471 305.497 259.024 304.46 258.726 303.479C258.427 302.498 257.39 301.944 256.409 302.243C255.428 302.541 254.874 303.579 255.173 304.56C255.471 305.541 256.509 306.094 257.49 305.796Z" fill="white" stroke="#264653" stroke-linecap="round" stroke-linejoin="round"/>
<path d="M256.856 243.102C256.856 243.102 250.276 239.008 248.378 237.692C246.481 236.376 244.285 235.65 243.841 235.94C243.301 236.658 242.861 237.446 242.533 238.282C242.533 238.282 241.362 233.599 241.944 231.556C242.525 229.514 244.576 230.975 246.788 232.138C249.022 233.501 251 235.244 252.633 237.289C253.933 238.903 256.856 243.102 256.856 243.102Z" fill="#264653" stroke="#264653" stroke-linecap="round" stroke-linejoin="round"/>
<path d="M234.347 203.258C234.347 203.258 237.907 201.999 240.208 203.468C242.509 204.938 251.293 212.672 251.293 212.672C251.293 212.672 250.873 225.638 252.964 232.121C255.055 238.604 258.317 242.682 256.856 243.101C255.395 243.521 248.782 234.632 246.691 233.793C244.6 232.953 242.719 231.911 242.719 232.985C242.719 234.059 244.39 256.827 243.526 261.009C242.662 265.191 234.766 281.693 234.766 281.693C234.766 281.693 239.159 235.674 239.788 227.1C240.418 218.525 234.347 203.258 234.347 203.258Z" fill="#8C8C8C" stroke="#264653" stroke-linecap="round" stroke-linejoin="round"/>
<path d="M236.567 198.002C236.567 198.002 239.885 214.957 239.885 220.132C239.885 225.307 235.775 237.006 227.928 237.894C215.963 239.226 212.968 229.917 210.812 226.26C208.656 222.602 205.968 213.802 205.968 213.802C205.968 213.802 213.444 217.29 217.432 215.296C221.421 213.301 236.567 198.002 236.567 198.002Z" fill="white" stroke="#264653" stroke-linecap="round" stroke-linejoin="round"/>
<path d="M222.357 220.585L210.812 226.237C208.889 222.211 207.27 218.047 205.968 213.779L222.357 220.585Z" fill="#264653" stroke="#264653" stroke-linecap="round" stroke-linejoin="round"/>
<path d="M218.449 263.076C218.449 263.076 208.971 246.792 207.146 246.461C205.322 246.13 200.688 249.109 200.688 247.955C200.688 246.8 204.321 238.686 204.821 238.024C205.322 237.362 206.145 237.693 207.469 239.849C208.793 242.004 218.449 263.076 218.449 263.076Z" fill="#264653" stroke="#264653" stroke-linecap="round" stroke-linejoin="round"/>
<path d="M218.449 263.076C218.449 263.076 211.546 250.739 209.036 247.179C207.582 245.148 206.323 242.985 205.273 240.72C205.273 240.72 201.091 249.504 199.21 249.504C197.329 249.504 197.329 250.553 198.79 245.322C200.251 240.09 200.914 228.932 203.005 221.819C205.096 214.707 206.799 211.09 208.261 211.711C209.722 212.333 208.624 215.409 211.337 229.635C214.049 243.86 217.069 250.828 217.908 254.598C218.423 257.393 218.604 260.238 218.449 263.076Z" fill="#8C8C8C" stroke="#264653" stroke-linecap="round" stroke-linejoin="round"/>
<path d="M210.57 225.502C210.57 225.502 209.092 221.941 207.744 220.73C206.396 219.519 204.353 218.026 204.353 218.026L205.968 213.787L208.979 219.108C208.979 219.108 210.973 222.402 210.57 225.502Z" fill="#264653" stroke="#264653" stroke-linecap="round" stroke-linejoin="round"/>
<path d="M186.429 181.25C186.429 181.25 183.2 179.917 182.869 183.777C182.538 187.636 185.097 190.009 186.728 191.196C188.099 192.04 189.603 192.643 191.177 192.98L189.562 184.221L186.429 181.25Z" fill="white" stroke="#264653" stroke-linecap="round" stroke-linejoin="round"/>
<path d="M186.882 160.469C186.882 160.469 189.998 187.919 191.185 195.186C192.372 202.452 209.149 219.406 210.634 220.569C212.12 221.732 218.054 221.61 222.357 220.569C226.66 219.528 233.66 206.174 235.719 203.501C237.778 200.829 238.948 199.198 239.134 195.63C239.32 192.061 240.022 186.434 240.022 186.434C240.022 186.434 243.437 185.538 246.255 180.782C249.073 176.027 248.629 168.317 244.471 167.13C240.313 165.943 239.724 169.205 238.819 172.781C237.915 176.358 237.205 164.175 236.89 162.544C236.575 160.913 236.736 156.755 223.383 154.083C210.029 151.411 202.746 152.597 200.526 153.195C198.306 153.792 188.044 158.095 186.882 160.469Z" fill="white" stroke="#264653" stroke-linecap="round" stroke-linejoin="round"/>
<path d="M236.906 151.563C236.906 151.563 244.77 156.464 243.728 160.622C242.687 164.78 238.238 170.714 238.835 172.789C239.433 174.864 239.28 178.44 238.391 177.69C237.503 176.939 233.636 162.253 233.636 162.253C233.636 162.253 228.889 159.282 217.013 157.651C205.136 156.02 202.763 157.062 202.763 157.062C202.763 157.062 217.166 160.291 214.784 161.51C212.402 162.729 210.634 164.626 198.637 165.547C186.64 166.467 188.852 164.328 188.852 164.328C188.852 164.328 189.151 170.569 189.151 172.942C189.151 175.316 189.893 186.296 189.893 186.296C189.224 185.961 188.62 185.51 188.109 184.964C187.459 183.778 186.918 182.535 186.494 181.25C186.494 181.25 179.963 175.316 179.519 171.303C179.075 167.291 184.565 161.954 184.565 161.954C183.248 159.075 182.883 155.851 183.523 152.75C184.565 147.414 192.283 137.911 199.856 135.093C207.429 132.276 212.265 130.193 225.183 136.127C238.101 142.061 240.918 148.746 239.715 150.078C238.981 150.885 237.987 151.411 236.906 151.563Z" fill="#264653" stroke="#264653" stroke-linecap="round" stroke-linejoin="round"/>
<path d="M218.03 178.351C219.045 177.342 220.342 176.664 221.749 176.405C223.157 176.145 224.609 176.317 225.918 176.898" fill="white"/>
<path d="M218.03 178.351C219.045 177.342 220.342 176.664 221.749 176.405C223.157 176.145 224.609 176.317 225.918 176.898" stroke="#264653" stroke-linecap="round" stroke-linejoin="round"/>
<path d="M202.02 182.809C202.02 182.809 197.894 181.355 195.472 184.028L202.02 182.809Z" fill="white"/>
<path d="M202.02 182.809C202.02 182.809 197.894 181.355 195.472 184.028" stroke="#264653" stroke-linecap="round" stroke-linejoin="round"/>
<path d="M221.542 177.835C221.542 178.155 221.637 178.467 221.814 178.733C221.992 178.998 222.244 179.205 222.539 179.327C222.834 179.449 223.159 179.481 223.472 179.419C223.785 179.357 224.073 179.203 224.298 178.977C224.524 178.751 224.678 178.464 224.74 178.15C224.803 177.837 224.771 177.513 224.649 177.217C224.526 176.922 224.319 176.67 224.054 176.493C223.788 176.315 223.476 176.221 223.157 176.221C222.728 176.221 222.318 176.391 222.015 176.694C221.712 176.996 221.542 177.407 221.542 177.835Z" fill="#264653" stroke="#264653" stroke-linecap="round" stroke-linejoin="round"/>
<path d="M198.443 183.841C198.443 184.161 198.538 184.473 198.715 184.738C198.893 185.004 199.145 185.211 199.44 185.333C199.735 185.455 200.06 185.487 200.373 185.425C200.686 185.363 200.974 185.209 201.2 184.983C201.426 184.757 201.579 184.47 201.642 184.156C201.704 183.843 201.672 183.518 201.55 183.223C201.428 182.928 201.221 182.676 200.955 182.499C200.69 182.321 200.377 182.227 200.058 182.227C199.63 182.227 199.219 182.397 198.916 182.7C198.613 183.002 198.443 183.413 198.443 183.841Z" fill="#264653" stroke="#264653" stroke-linecap="round" stroke-linejoin="round"/>
<path d="M228.824 169.712C228.824 169.712 220.944 167.29 214.631 171.529L228.824 169.712Z" fill="white"/>
<path d="M228.824 169.712C228.824 169.712 220.944 167.29 214.631 171.529" stroke="#264653" stroke-width="3" stroke-linecap="round" stroke-linejoin="round"/>
<path d="M200.567 175.413C200.567 175.413 194.867 174.323 191.468 178.812L200.567 175.413Z" fill="white"/>
<path d="M200.567 175.413C200.567 175.413 194.867 174.323 191.468 178.812" stroke="#264653" stroke-width="3" stroke-linecap="round" stroke-linejoin="round"/>
<path d="M218.151 194.701C218.151 194.701 214.631 198.455 212.33 198.819C210.029 199.182 206.872 197.204 206.63 196.76" fill="white"/>
<path d="M218.151 194.701C218.151 194.701 214.631 198.455 212.33 198.819C210.029 199.182 206.872 197.204 206.63 196.76" stroke="#264653" stroke-linecap="round" stroke-linejoin="round"/>
<path d="M225.183 196.518C225.183 196.518 219.112 202.581 214.38 203.55C209.649 204.519 202.496 202.339 202.496 202.339C202.496 202.339 211.474 210.105 214.606 210.348C215.791 210.488 216.991 210.289 218.066 209.773C219.141 209.257 220.047 208.445 220.678 207.433C221.953 205.738 225.183 196.518 225.183 196.518Z" fill="white" stroke="#264653" stroke-linecap="round" stroke-linejoin="round"/>
<path d="M232.102 170.924C232.102 170.924 233.555 180.266 232.344 181.356C231.133 182.446 223.003 184.876 219.362 184.997C215.721 185.118 214.631 184.27 214.146 183.665C213.662 183.059 211.603 176.624 211.845 175.777C212.088 174.929 223.488 170.803 232.102 170.924Z" stroke="#264653" stroke-linecap="round" stroke-linejoin="round"/>
<path d="M185.154 182.026C185.154 182.026 187.948 191.06 189.514 191.504C191.08 191.948 199.453 190.567 202.771 189.082C206.089 187.596 206.703 186.353 206.872 185.594C207.042 184.835 206.065 178.15 205.484 177.521C204.902 176.891 192.84 178.134 185.154 182.026Z" stroke="#264653" stroke-linecap="round" stroke-linejoin="round"/>
<path d="M232.102 170.924L238.367 170.948" stroke="#264653" stroke-linecap="round" stroke-linejoin="round"/>
<path d="M211.845 175.777C211.845 175.777 207.946 175.373 205.483 177.496" stroke="#264653" stroke-linecap="round" stroke-linejoin="round"/>
<path d="M212.039 177.432C212.039 177.432 208.495 176.899 206.097 179.103" stroke="#264653" stroke-linecap="round" stroke-linejoin="round"/>
<path d="M158.729 290.987C158.729 290.987 164.922 295.314 165.39 299.189C165.858 303.065 167.4 312.809 165.228 316.217C163.057 319.624 155.79 326.099 140.305 324.419C124.82 322.74 124.513 310.492 125.135 305.995C125.757 301.498 126.838 294.386 129.47 292.682C132.102 290.978 144.948 285.101 158.729 290.987Z" fill="#8C8C8C" stroke="#264653" stroke-linecap="round" stroke-linejoin="round"/>
<path d="M160.449 203.776C160.449 203.776 164.808 197.034 164.808 192.473C164.808 187.911 165.01 185.142 167.384 185.933C169.758 186.724 172.139 192.271 171.946 196.235C171.714 199.061 171.172 201.852 170.331 204.559C170.331 204.559 169.523 203.962 166.173 203.752C164.266 203.636 162.354 203.644 160.449 203.776Z" fill="white" stroke="#264653" stroke-linecap="round" stroke-linejoin="round"/>
<path d="M164.631 201.199C164.631 201.199 183.451 204.566 184.815 205.955C185.451 206.506 185.919 207.226 186.164 208.032C186.41 208.837 186.423 209.695 186.204 210.508C185.932 211.622 185.375 212.645 184.589 213.479C185.031 215.606 184.825 217.816 184 219.825C182.611 222.796 182.805 221.803 182.805 221.803C182.805 221.803 182.611 227.745 180.633 228.343C178.655 228.94 177.654 229.328 177.654 229.328C177.654 229.328 177.654 233.687 175.676 234.285C173.698 234.882 168.741 234.083 168.741 234.083C168.741 234.083 165.374 238.443 162.597 238.645C160.674 238.733 158.748 238.6 156.856 238.249C156.856 238.249 160.021 285.205 160.812 289.96C161.603 294.716 163.985 308.788 157.841 313.374C151.697 317.96 142.59 318.129 136.85 314.561C131.109 310.992 129.519 307.23 129.317 299.899C129.115 292.568 140.41 240.033 142.622 235.472C144.835 230.91 156.888 207.731 159.068 204.566C159.699 203.638 160.523 202.857 161.483 202.276C162.442 201.695 163.516 201.328 164.631 201.199Z" fill="white" stroke="#264653" stroke-linecap="round" stroke-linejoin="round"/>
<path d="M184.621 213.479C184.621 213.479 172.931 212.091 171.155 211.695C169.378 211.299 162.435 210.314 162.435 210.314" fill="white"/>
<path d="M184.621 213.479C184.621 213.479 172.931 212.091 171.155 211.695C169.378 211.299 162.435 210.314 162.435 210.314" stroke="#264653" stroke-linecap="round" stroke-linejoin="round"/>
<path d="M182.837 221.803C182.837 221.803 172.139 220.616 168.571 220.019L161.442 218.832" fill="white"/>
<path d="M182.837 221.803C182.837 221.803 172.139 220.616 168.571 220.019L161.442 218.832" stroke="#264653" stroke-linecap="round" stroke-linejoin="round"/>
<path d="M177.686 229.327C177.686 229.327 165.406 227.713 161.24 226.752L177.686 229.327Z" fill="white"/>
<path d="M177.686 229.327C177.686 229.327 165.406 227.713 161.24 226.752" stroke="#264653" stroke-linecap="round" stroke-linejoin="round"/>
<path d="M157.978 242.245C157.978 242.245 155.233 244.134 149.953 243.593C142.913 242.875 140.442 239.436 140.442 239.436L139.248 245.975C139.248 245.975 143.543 250.27 149.558 250.529C152.568 250.593 155.542 249.855 158.172 248.389L157.978 242.245Z" fill="#264653" stroke="#264653" stroke-linecap="round" stroke-linejoin="round"/>
<path d="M195.109 294.854C195.109 294.854 206.775 294.749 208.172 294.692C209.569 294.636 210.425 294.038 210.392 295.928C210.36 297.817 212.451 306.423 211.781 307.15C211.111 307.877 202.843 312.252 201.971 312.696C201.1 313.14 198.395 311.833 198.395 311.833C198.395 311.833 194.81 309.871 194.568 309.281C194.326 308.692 195.109 294.854 195.109 294.854Z" fill="#B0B0B0" stroke="#264653" stroke-linecap="round" stroke-linejoin="round"/>
<path d="M198.056 307.529C198.111 307.892 198.273 308.23 198.52 308.501C198.768 308.773 199.09 308.964 199.447 309.052C199.803 309.14 200.178 309.121 200.523 308.996C200.868 308.871 201.169 308.646 201.387 308.351C201.604 308.055 201.73 307.702 201.747 307.335C201.763 306.968 201.671 306.604 201.481 306.29C201.292 305.976 201.013 305.725 200.681 305.569C200.348 305.413 199.977 305.359 199.614 305.413C199.373 305.45 199.141 305.534 198.932 305.66C198.723 305.786 198.541 305.952 198.397 306.148C198.252 306.345 198.147 306.568 198.089 306.805C198.03 307.041 198.019 307.288 198.056 307.529Z" fill="white" stroke="#264653" stroke-linecap="round" stroke-linejoin="round"/>
<path d="M213.379 265.127C213.409 265.426 213.525 265.709 213.712 265.943C213.899 266.177 214.15 266.351 214.435 266.446C214.72 266.54 215.025 266.549 215.315 266.473C215.605 266.397 215.867 266.239 216.069 266.017C216.27 265.796 216.403 265.52 216.452 265.224C216.5 264.929 216.462 264.625 216.341 264.351C216.221 264.076 216.023 263.843 215.773 263.678C215.522 263.514 215.229 263.425 214.93 263.424C214.715 263.432 214.505 263.483 214.311 263.573C214.116 263.664 213.942 263.792 213.797 263.951C213.653 264.109 213.542 264.295 213.47 264.497C213.398 264.699 213.368 264.913 213.379 265.127Z" fill="white" stroke="#264653" stroke-linecap="round" stroke-linejoin="round"/>
<path d="M212.911 289.436C212.939 289.737 213.054 290.023 213.242 290.259C213.43 290.496 213.682 290.673 213.969 290.769C214.255 290.864 214.563 290.875 214.856 290.798C215.148 290.722 215.412 290.563 215.615 290.339C215.818 290.116 215.952 289.838 216.001 289.54C216.049 289.242 216.01 288.936 215.888 288.66C215.765 288.384 215.565 288.149 215.312 287.984C215.059 287.82 214.763 287.732 214.461 287.732C214.247 287.741 214.037 287.791 213.842 287.882C213.648 287.972 213.473 288.101 213.329 288.259C213.185 288.418 213.074 288.603 213.002 288.806C212.93 289.008 212.899 289.222 212.911 289.436Z" fill="white" stroke="#264653" stroke-linecap="round" stroke-linejoin="round"/>
<path d="M213.533 313.584C213.562 313.883 213.678 314.166 213.865 314.4C214.053 314.634 214.304 314.808 214.588 314.903C214.873 314.997 215.179 315.006 215.469 314.93C215.758 314.854 216.02 314.696 216.222 314.474C216.424 314.253 216.557 313.977 216.605 313.681C216.653 313.386 216.615 313.082 216.495 312.808C216.374 312.533 216.177 312.3 215.926 312.135C215.675 311.971 215.383 311.882 215.083 311.881C214.869 311.889 214.658 311.94 214.464 312.03C214.269 312.121 214.095 312.249 213.951 312.408C213.806 312.566 213.695 312.752 213.623 312.954C213.552 313.156 213.521 313.37 213.533 313.584Z" fill="white" stroke="#264653" stroke-linecap="round" stroke-linejoin="round"/>
<path d="M217.868 341.762C217.898 342.06 218.013 342.344 218.201 342.578C218.388 342.812 218.639 342.986 218.924 343.08C219.208 343.175 219.514 343.184 219.804 343.108C220.094 343.032 220.356 342.874 220.557 342.652C220.759 342.43 220.892 342.155 220.941 341.859C220.989 341.563 220.951 341.26 220.83 340.985C220.71 340.711 220.512 340.477 220.261 340.313C220.011 340.148 219.718 340.06 219.418 340.059C219.204 340.067 218.994 340.118 218.799 340.208C218.605 340.299 218.43 340.427 218.286 340.585C218.142 340.744 218.031 340.93 217.959 341.132C217.887 341.334 217.856 341.548 217.868 341.762Z" fill="white" stroke="#264653" stroke-linecap="round" stroke-linejoin="round"/>
<path d="M0.922852 349.795H384.459" stroke="#263238" stroke-linecap="round" stroke-linejoin="round"/>
</svg>
