<svg width="189" height="194" viewBox="0 0 189 194" fill="none" xmlns="http://www.w3.org/2000/svg">
<path d="M94.5 193.24C146.691 193.24 189 168.812 189 138.679C189 108.545 146.691 84.1172 94.5 84.1172C42.3091 84.1172 0 108.545 0 138.679C0 168.812 42.3091 193.24 94.5 193.24Z" fill="#F5F5F5"/>
<path d="M30.814 129.97L26.9637 132.209C26.9637 132.209 28.9078 126.006 27.8305 119.77C27.5696 118.308 27.0388 116.909 26.2651 115.642C25.9621 115.011 23.6435 111.122 25.6844 109.33C27.7253 107.537 32.5225 111.101 32.3037 120.691C32.2 123.835 31.6995 126.952 30.814 129.97Z" fill="#2A9D8F"/>
<path opacity="0.3" d="M30.814 129.97L26.9637 132.209C26.9637 132.209 28.9078 126.006 27.8305 119.77C27.5696 118.308 27.0388 116.909 26.2651 115.642C25.9621 115.011 23.6435 111.122 25.6844 109.33C27.7253 107.537 32.5225 111.101 32.3037 120.691C32.2 123.835 31.6995 126.952 30.814 129.97Z" fill="#2A9D8F"/>
<path d="M29.0243 131.217H28.9611C28.9393 131.209 28.9192 131.196 28.9021 131.181C28.885 131.165 28.8711 131.146 28.8613 131.125C28.8516 131.104 28.8461 131.081 28.8451 131.058C28.8442 131.034 28.8479 131.011 28.8559 130.989C28.8559 130.947 30.3035 126.962 30.2277 120.549C30.152 114.136 26.8277 110.799 26.794 110.765C26.7611 110.732 26.7427 110.686 26.7427 110.639C26.7427 110.592 26.7611 110.547 26.794 110.513C26.8104 110.496 26.8301 110.483 26.8518 110.474C26.8734 110.465 26.8967 110.46 26.9202 110.46C26.9437 110.46 26.967 110.465 26.9887 110.474C27.0104 110.483 27.03 110.496 27.0465 110.513C27.0801 110.547 30.5097 114.023 30.5854 120.545C30.6612 127.067 29.2052 131.065 29.1926 131.111C29.1774 131.143 29.1535 131.17 29.1237 131.188C29.0939 131.207 29.0594 131.217 29.0243 131.217Z" fill="white"/>
<path d="M27.8316 131.715L21.4733 135.456C21.4733 135.456 18.5613 135.035 18.7801 132.287C18.9989 129.539 20.1856 128.9 18.7128 127.696C17.24 126.493 16.857 126.434 16.9286 125.23C17.0001 124.027 17.7702 123.547 18.1657 123.067C18.5613 122.587 19.5796 121.62 18.8474 120.197C18.1152 118.775 17.1221 117.399 18.5992 116.747C19.4786 116.355 20.9557 116.843 21.9403 117.887C22.925 118.931 23.7288 119.676 24.6587 119.915C25.5887 120.155 27.5244 120.18 27.4613 121.78C27.3982 123.379 26.9774 123.934 27.3687 124.645C28.1009 125.983 31.2233 126.707 27.8316 131.715Z" fill="#2A9D8F"/>
<path d="M25.2357 133.424C25.2124 133.423 25.1898 133.416 25.1689 133.406C25.1481 133.396 25.1295 133.381 25.1143 133.364C25.099 133.346 25.0874 133.326 25.0801 133.304C25.0727 133.281 25.0698 133.258 25.0716 133.235C25.0716 133.142 25.7575 123.826 19.2939 117.716C19.2773 117.7 19.264 117.68 19.2549 117.659C19.2459 117.638 19.2412 117.615 19.2412 117.591C19.2412 117.568 19.2459 117.545 19.2549 117.524C19.264 117.503 19.2773 117.483 19.2939 117.467C19.3277 117.434 19.373 117.416 19.4202 117.416C19.4673 117.416 19.5126 117.434 19.5464 117.467C26.1362 123.695 25.4377 133.176 25.4377 133.273C25.4304 133.319 25.4052 133.361 25.3675 133.39C25.3297 133.418 25.2824 133.43 25.2357 133.424Z" fill="white"/>
<path d="M24.1055 125.297C24.0582 125.293 24.0145 125.27 23.9838 125.234C23.9531 125.198 23.9379 125.151 23.9414 125.104C23.9903 124.323 24.2002 123.562 24.558 122.866C24.9158 122.171 25.4136 121.557 26.0202 121.064C26.0589 121.037 26.1065 121.027 26.1528 121.035C26.1992 121.043 26.2406 121.068 26.2685 121.106C26.2824 121.125 26.2925 121.146 26.2981 121.169C26.3037 121.191 26.3048 121.215 26.3013 121.238C26.2978 121.261 26.2897 121.283 26.2776 121.303C26.2654 121.323 26.2495 121.341 26.2306 121.354C25.6678 121.821 25.2062 122.397 24.8741 123.049C24.5419 123.7 24.3463 124.412 24.2991 125.142C24.2928 125.187 24.2692 125.229 24.2333 125.258C24.1973 125.287 24.1516 125.301 24.1055 125.297Z" fill="white"/>
<path d="M24.5704 126.916C24.5456 126.916 24.521 126.911 24.4984 126.901C24.4759 126.891 24.4559 126.876 24.44 126.857C24.44 126.857 22.8241 125.131 19.1883 125.628C19.165 125.632 19.1411 125.631 19.1181 125.626C19.095 125.62 19.0733 125.61 19.0544 125.596C19.0354 125.582 19.0196 125.564 19.0079 125.543C18.9962 125.523 18.9889 125.5 18.9864 125.476C18.9803 125.43 18.9928 125.382 19.0211 125.345C19.0493 125.307 19.0913 125.282 19.1378 125.274C22.9714 124.748 24.6336 126.537 24.7051 126.621C24.7218 126.637 24.735 126.656 24.7441 126.678C24.7531 126.699 24.7578 126.722 24.7578 126.745C24.7578 126.768 24.7531 126.791 24.7441 126.813C24.735 126.834 24.7218 126.853 24.7051 126.869C24.6877 126.887 24.6666 126.9 24.6432 126.908C24.6198 126.916 24.5949 126.919 24.5704 126.916Z" fill="white"/>
<path d="M172.818 147.62L109.314 110.972C108.181 110.318 106.896 109.975 105.588 109.975C104.28 109.975 102.995 110.318 101.862 110.972L79.4161 123.933C79.0475 124.146 78.7415 124.453 78.5288 124.822C78.3161 125.192 78.2041 125.61 78.2041 126.037C78.2041 126.463 78.3161 126.881 78.5288 127.251C78.7415 127.62 79.0475 127.927 79.4161 128.141L142.92 164.805C144.053 165.458 145.338 165.802 146.646 165.802C147.954 165.802 149.239 165.458 150.372 164.805L172.818 151.844C173.19 151.632 173.5 151.324 173.716 150.953C173.931 150.582 174.044 150.161 174.044 149.732C174.044 149.303 173.931 148.882 173.716 148.511C173.5 148.14 173.19 147.832 172.818 147.62Z" fill="#E0E0E0"/>
<path d="M51.4763 164.466C62.6456 164.466 71.7001 159.238 71.7001 152.789C71.7001 146.339 62.6456 141.111 51.4763 141.111C40.307 141.111 31.2524 146.339 31.2524 152.789C31.2524 159.238 40.307 164.466 51.4763 164.466Z" fill="#E0E0E0"/>
<path d="M144.962 160.907L93.7413 131.337C90.1308 129.254 87.1978 123.653 87.1978 118.835V9.17347C87.1978 4.35526 90.1434 2.14183 93.7413 4.22481L144.962 33.7905C148.572 35.8945 151.501 41.4702 151.501 46.2884V155.963C151.501 160.781 148.572 162.994 144.962 160.907Z" fill="#455A64"/>
<path d="M150.857 30.355L99.6408 0.785033C98.0964 -0.107072 96.6741 -0.212273 95.5548 0.334773C95.4169 0.403714 95.2834 0.481006 95.155 0.566216L89.4194 3.90319C90.5724 3.21307 92.0831 3.26357 93.7411 4.2188L144.961 33.7929C148.572 35.897 151.501 41.4726 151.501 46.2908V155.965C151.501 158.511 150.684 160.333 149.397 161.17L155.061 157.871C156.504 157.105 157.421 155.224 157.421 152.527V42.8402C157.4 38.0388 154.472 32.4379 150.857 30.355Z" fill="#37474F"/>
<path d="M151.501 46.2943V155.969C151.501 158.514 150.685 160.336 149.397 161.174L155.061 157.875C156.504 157.109 157.422 155.228 157.422 152.531V42.8438L151.53 46.2691L151.501 46.2943Z" fill="#263238"/>
<path d="M157.401 51.3711L151.501 54.7754V57.4349L157.401 54.0306V51.3711Z" fill="#37474F"/>
<path d="M154.818 69.0634C154.292 69.3663 153.863 69.0634 153.863 68.3396V62.6166C153.868 62.2588 153.958 61.9073 154.124 61.5901C154.29 61.273 154.527 60.9991 154.818 60.7903C155.344 60.4874 155.773 60.8114 155.773 61.5141V67.2455C155.766 67.6018 155.676 67.9516 155.51 68.2671C155.344 68.5826 155.107 68.8552 154.818 69.0634Z" fill="#37474F"/>
<path d="M153.862 68.3387V62.6158C153.868 62.2579 153.957 61.9064 154.123 61.5893C154.289 61.2721 154.527 60.9982 154.817 60.7895C154.905 60.7297 155.006 60.6932 155.111 60.6836C155.216 60.6741 155.322 60.6917 155.419 60.7348L154.708 60.3645C154.61 60.3144 154.5 60.2923 154.39 60.3005C154.28 60.3086 154.175 60.3468 154.085 60.4107C153.794 60.6195 153.557 60.8934 153.391 61.2105C153.225 61.5277 153.136 61.8792 153.13 62.237V67.96C153.114 68.1045 153.136 68.2506 153.194 68.384C153.251 68.5175 153.342 68.6338 153.458 68.7216L154.207 69.113C154.086 69.026 153.991 68.9085 153.93 68.7725C153.869 68.6364 153.846 68.4867 153.862 68.3387Z" fill="#455A64"/>
<path d="M154.818 82.9058C154.292 83.2088 153.863 82.9058 153.863 82.182V76.4633C153.869 76.1055 153.958 75.7541 154.124 75.437C154.29 75.12 154.528 74.846 154.818 74.637C155.344 74.334 155.773 74.6581 155.773 75.3608V81.0795C155.768 81.4374 155.678 81.7889 155.512 82.106C155.346 82.4231 155.109 82.697 154.818 82.9058Z" fill="#37474F"/>
<path d="M153.862 82.1827V76.464C153.868 76.1062 153.958 75.7548 154.123 75.4377C154.289 75.1206 154.527 74.8467 154.817 74.6377C154.905 74.5779 155.006 74.5414 155.111 74.5319C155.216 74.5223 155.322 74.5399 155.419 74.583L154.708 74.2127C154.609 74.1649 154.5 74.144 154.39 74.1521C154.281 74.1602 154.176 74.1971 154.085 74.2589C153.795 74.468 153.557 74.7419 153.391 75.059C153.225 75.376 153.136 75.7275 153.13 76.0852V81.804C153.114 81.9485 153.136 82.0946 153.194 82.228C153.251 82.3615 153.342 82.4778 153.458 82.5656L154.207 82.957C154.086 82.87 153.991 82.7525 153.93 82.6164C153.869 82.4804 153.846 82.3307 153.862 82.1827Z" fill="#455A64"/>
<path d="M143.178 36.875L92.8457 7.81007C92.6345 7.68815 92.395 7.62398 92.1511 7.62402C91.9073 7.62406 91.6678 7.68831 91.4566 7.81029C91.2455 7.93228 91.0702 8.1077 90.9484 8.31893C90.8266 8.53015 90.7625 8.76973 90.7627 9.01357V118.843C90.7627 122.513 93.3591 127.015 96.5361 128.846L145.648 157.204C145.881 157.339 146.145 157.41 146.413 157.41C146.682 157.41 146.946 157.339 147.178 157.205C147.411 157.07 147.604 156.877 147.738 156.644C147.872 156.411 147.942 156.147 147.942 155.878V45.127C147.942 42.1014 145.8 38.3899 143.178 36.875Z" fill="#FF881B"/>
<path d="M107.894 15.3965L108.677 18.683L125.357 28.3025L128.24 26.7666L107.894 15.3965Z" fill="#455A64"/>
<path d="M112.797 18.5647C112.797 19.1118 112.419 19.3306 111.956 19.0613C111.709 18.898 111.504 18.6788 111.358 18.4214C111.212 18.164 111.128 17.8757 111.114 17.58C111.114 17.0372 111.493 16.8142 111.956 17.0877C112.202 17.2508 112.406 17.4694 112.553 17.726C112.699 17.9825 112.783 18.2698 112.797 18.5647Z" fill="#263238"/>
<path d="M124.039 25.5123C123.947 25.5129 123.857 25.4897 123.778 25.445L115.257 20.6857C115.195 20.6514 115.141 20.6054 115.098 20.5503C115.054 20.4952 115.022 20.432 115.003 20.3644C114.984 20.2968 114.978 20.2261 114.986 20.1563C114.994 20.0865 115.016 20.0191 115.05 19.9577C115.085 19.8964 115.131 19.8424 115.186 19.7988C115.241 19.7553 115.304 19.723 115.372 19.7038C115.439 19.6847 115.51 19.6791 115.58 19.6872C115.65 19.6954 115.717 19.7173 115.778 19.7515L124.3 24.515C124.404 24.5713 124.487 24.6612 124.535 24.7703C124.582 24.8794 124.592 25.0013 124.562 25.1164C124.532 25.2315 124.464 25.3332 124.369 25.405C124.274 25.4768 124.158 25.5146 124.039 25.5123Z" fill="#263238"/>
<path d="M136.161 53.3139V168.522C136.161 170.626 135.391 172.027 134.212 172.486H134.183L129.188 175.225L129.213 170.777L129.769 51.2982L135.046 48.5967C135.751 50.0709 136.132 51.6797 136.161 53.3139Z" fill="#E0E0E0"/>
<path d="M128.928 175.675L128.962 170.794L129.517 51.1592L135.169 48.2725L135.278 48.5081C135.999 50.0111 136.389 51.6513 136.423 53.3179V168.526C136.423 170.63 135.636 172.208 134.319 172.734L128.928 175.675ZM130.022 51.4748L129.471 170.798L129.446 174.812L134.113 172.258C135.249 171.816 135.914 170.423 135.914 168.526V53.3179C135.883 51.8154 135.547 50.3348 134.925 48.9668L130.022 51.4748Z" fill="#E0E0E0"/>
<path d="M135.047 48.6182L129.77 51.3198L73.2809 18.455L69.4937 16.2626L74.7074 13.3169L74.8547 13.2286C75.6963 12.7278 76.7736 12.7615 77.9729 13.4558L131.44 44.326C132.896 45.1592 134.184 46.7583 135.047 48.6182Z" fill="#E0E0E0"/>
<path d="M129.763 51.6026L129.645 51.5353L68.999 16.2551L74.7262 13.0107C75.6688 12.4426 76.8681 12.5225 78.0926 13.2337L131.585 44.0955C133.016 44.9371 134.363 46.5235 135.28 48.4971L135.385 48.7159L129.763 51.6026ZM70.009 16.2551L129.763 51.0177L134.695 48.4929C133.828 46.7129 132.591 45.2821 131.329 44.5373L77.8654 13.6755C76.8344 13.0822 75.8539 12.9854 75.0881 13.3978L74.8566 13.5409L70.009 16.2551Z" fill="#E0E0E0"/>
<path d="M130.988 56.2252V171.353C130.988 173.167 130.412 174.471 129.486 175.081L129.187 175.245C128.383 175.624 127.378 175.54 126.283 174.909L100.438 159.987L88.3605 153.014L72.8118 144.039C70.2113 142.536 68.103 138.505 68.103 135.042V19.9224C68.103 18.1676 68.6417 16.8968 69.5085 16.2614C69.6557 16.1506 69.817 16.0601 69.9882 15.9921C70.7751 15.6554 71.7514 15.7564 72.8118 16.3666L126.283 47.2368C127.668 48.0321 128.909 49.5512 129.768 51.3186C130.535 52.8427 130.952 54.5191 130.988 56.2252Z" fill="#FAFAFA"/>
<path d="M72.8154 143.359C83.8194 149.923 112.442 167.004 126.611 175.538C127.033 175.79 127.514 175.926 128.006 175.931C128.498 175.937 128.982 175.812 129.409 175.57C129.837 175.327 130.193 174.976 130.44 174.551C130.688 174.126 130.819 173.643 130.819 173.152V54.7712C130.819 53.4246 130.466 52.1014 129.797 50.933C129.127 49.7645 128.164 48.7913 127.002 48.1099L72.5587 16.2003C72.1354 15.9475 71.6525 15.8116 71.1595 15.8068C70.6665 15.8019 70.181 15.9282 69.7529 16.1727C69.3247 16.4172 68.9692 16.7711 68.7228 17.1981C68.4764 17.6252 68.348 18.1101 68.3506 18.6031V135.524C68.3526 137.104 68.765 138.658 69.5477 140.031C70.3303 141.405 71.4563 142.551 72.8154 143.359Z" fill="#FAFAFA"/>
<path d="M72.6209 143.729C81.4522 148.998 90.289 154.272 99.1315 159.552C104.291 162.638 109.448 165.723 114.605 168.809L121.518 172.954L124.594 174.806C125.533 175.37 126.53 176.186 127.641 176.333C128.095 176.388 128.555 176.347 128.991 176.212C129.427 176.077 129.831 175.852 130.174 175.55C130.517 175.249 130.793 174.878 130.983 174.463C131.173 174.047 131.273 173.596 131.277 173.139C131.277 172.933 131.277 172.719 131.277 172.521V63.4568C131.277 60.6122 131.277 57.7717 131.277 54.9313C131.285 53.4605 130.905 52.0136 130.175 50.7368C129.445 49.4599 128.391 48.3985 127.119 47.6598C125.878 46.9234 124.628 46.1996 123.382 45.4674L105.549 35.0189L84.3613 22.6388C80.5404 20.4001 76.7448 18.1194 72.9028 15.9059C72.403 15.5981 71.8293 15.4313 71.2424 15.4232C70.6555 15.415 70.0773 15.5658 69.5692 15.8596C69.061 16.1533 68.6418 16.5791 68.356 17.0918C68.0702 17.6044 67.9284 18.1849 67.9458 18.7716C67.9458 19.7058 67.9458 20.6442 67.9458 21.5784V125.917C67.9458 129.02 67.9458 132.118 67.9458 135.212C67.917 136.916 68.3332 138.598 69.1531 140.091C69.9729 141.585 71.1682 142.839 72.6209 143.729C73.0838 144.011 73.5046 143.283 73.0417 143.001C70.1844 141.247 68.8 138.284 68.8 135.006V27.7011C68.8 24.7554 68.8 21.8098 68.8 18.8642C68.7777 18.4807 68.8417 18.0972 68.9874 17.7418C69.133 17.3864 69.3566 17.0682 69.6416 16.8107C70.5842 16.0111 71.7162 16.1752 72.6966 16.7475L76.9047 19.2177L94.9235 29.7925L115.606 41.9116C119.301 44.0788 123.004 46.2249 126.686 48.4046C127.842 49.0835 128.797 50.0588 129.451 51.2298C130.105 52.4008 130.434 53.7251 130.406 55.066V172.323C130.406 172.576 130.406 172.832 130.406 173.085C130.408 173.519 130.293 173.946 130.072 174.32C129.85 174.694 129.532 175.001 129.15 175.207C128.768 175.414 128.337 175.514 127.903 175.495C127.469 175.476 127.048 175.34 126.686 175.1C122.339 172.538 118.034 169.899 113.708 167.307C103.71 161.312 93.6934 155.325 83.6586 149.347L73.0417 142.989C72.9435 142.933 72.8271 142.919 72.7182 142.949C72.6093 142.979 72.5168 143.051 72.461 143.149C72.4052 143.247 72.3907 143.363 72.4207 143.472C72.4506 143.581 72.5227 143.674 72.6209 143.729Z" fill="#EBEBEB"/>
<path d="M75.6772 33.4072C75.6772 34.3035 75.046 34.6696 74.2717 34.2194C73.8635 33.9522 73.5236 33.5929 73.2795 33.1705C73.0354 32.748 72.8939 32.2742 72.8662 31.7871C72.8662 30.8908 73.4974 30.5247 74.2717 30.975C74.6806 31.2414 75.021 31.6005 75.2652 32.0231C75.5094 32.4457 75.6505 32.9199 75.6772 33.4072Z" fill="#FF881B"/>
<path d="M74.2699 34.2166C73.1253 33.5517 72.1953 34.2545 72.1953 35.7862V36.2575L76.3444 38.6561V38.2016C76.3444 36.653 75.4145 34.8773 74.2699 34.2166Z" fill="#FF881B"/>
<path d="M127.011 48.1099L72.5587 16.2003C72.1354 15.9475 71.6525 15.8116 71.1595 15.8068C70.6665 15.8019 70.181 15.9282 69.7529 16.1727C69.3247 16.4172 68.9692 16.7711 68.7228 17.1981C68.4764 17.6252 68.348 18.1101 68.3506 18.6031V23.7369L130.794 59.7872V54.7712C130.797 53.4278 130.449 52.1068 129.786 50.9387C129.123 49.7705 128.166 48.7955 127.011 48.1099Z" fill="#EBEBEB"/>
<path d="M112.01 98.1608C118.865 94.203 118.866 81.3698 112.011 69.497C105.156 57.6242 94.042 51.2079 87.1868 55.1657C80.3316 59.1236 80.3313 71.9568 87.186 83.8296C94.0408 95.7024 105.155 102.119 112.01 98.1608Z" fill="#2A9D8F"/>
<path d="M91.8153 67.4702C91.8153 67.4702 90.6707 68.0467 91.5965 70.7314C92.5222 73.4161 90.4308 74.7585 89.8838 73.7023C89.8838 73.7023 89.9217 75.3855 91.9878 75.3855C92.5282 75.4258 93.0659 75.2776 93.5094 74.9661C93.9528 74.6546 94.2746 74.1991 94.4201 73.677C94.4201 73.677 95.1649 74.4892 95.1649 76.7784C95.1649 79.0675 92.9767 87.673 100.635 87.673C108.294 87.673 108.138 81.1547 108.138 81.1547C108.138 81.1547 110.099 81.1926 110.099 78.2596C110.099 78.2596 107.12 80.1111 107.12 75.9746C107.12 71.8381 107.802 66.6075 104.646 66.6075C104.646 66.6075 105.731 64.3604 103.573 62.9255C101.414 61.4905 94.9208 63.4515 94.9208 63.4515C94.9208 63.4515 92.9725 62.2816 91.5754 63.6619C89.8712 65.3535 91.8153 67.4702 91.8153 67.4702Z" fill="#263238"/>
<path d="M95.5322 79.5172L95.2671 84.1124L94.7453 93.1597L94.6864 93.2902C93.1799 91.9082 91.7907 90.4035 90.533 88.7918C90.0168 88.1269 89.5161 87.4466 89.0308 86.7509C89.4516 85.0677 89.8345 83.5612 90.1417 82.5428C90.9244 79.9759 93.7101 79.5719 94.9431 79.5214C95.3049 79.5046 95.5322 79.5172 95.5322 79.5172Z" fill="#F9DBD2"/>
<path d="M106.869 99.3112C106.332 99.2874 105.798 99.2255 105.27 99.1261C103.267 98.7225 101.349 97.9796 99.5971 96.9295C97.8316 95.898 96.1836 94.6775 94.6821 93.2895C93.1756 91.9076 91.7864 90.4029 90.5288 88.7911C90.4637 88.3235 90.4637 87.8491 90.5288 87.3815C90.8654 84.9324 93.6259 81.6122 94.8883 80.1983C95.2755 79.7775 95.5195 79.5166 95.5195 79.5166L97.6236 79.4619L102.349 79.7228L104.521 80.3162C104.647 80.3538 104.758 80.4292 104.84 80.5323C104.923 80.6354 104.971 80.7612 104.979 80.8927L105.362 86.4431L105.522 88.728L105.27 89.6117L104.293 93.0623C104.187 93.4482 104.17 93.8532 104.243 94.2468C104.316 94.6404 104.477 95.0124 104.714 95.3346C104.882 95.5661 105.076 95.8396 105.27 96.151C105.913 97.1446 106.449 98.204 106.869 99.3112Z" fill="#264653"/>
<path d="M102.352 79.7204L96.3302 83.6213C96.2792 83.6597 96.2168 83.6797 96.153 83.678C96.0892 83.6764 96.0279 83.6531 95.979 83.6121C95.9302 83.571 95.8967 83.5146 95.884 83.4521C95.8714 83.3896 95.8803 83.3246 95.9094 83.2678L97.6178 79.4806V73.2021H102.343L102.352 79.7204Z" fill="#F9DBD2"/>
<path d="M97.6265 78.9167C98.5922 78.5596 99.4751 78.0094 100.221 77.2996C100.967 76.5898 101.56 75.7354 101.965 74.7886V73.2021H97.6265V78.9167Z" fill="#F28F8F"/>
<path d="M96.5298 65.4514C96.5298 65.4514 92.2081 65.7081 92.7426 73.0932C92.9866 76.5101 93.7903 78.2775 96.4204 78.1428C99.3997 77.9956 103.629 75.9504 103.351 70.1055C103.073 64.2605 96.5298 65.4514 96.5298 65.4514Z" fill="#F9DBD2"/>
<path d="M102.356 73.1967C102.356 73.1967 101.169 73.5081 101.169 71.8122C101.169 71.8122 95.9093 71.4546 94.7437 66.2324C94.7437 66.2324 95.2654 64.667 98.5519 64.667C101.838 64.667 104.603 67.5747 103.761 71.5682L102.356 73.1967Z" fill="#263238"/>
<path d="M95.9058 71.6055V74.1429L94.4204 73.6884L95.9058 71.6055Z" fill="#F28F8F"/>
<path d="M98.1465 71.8731C98.1465 71.9754 98.1161 72.0755 98.0593 72.1606C98.0024 72.2457 97.9216 72.3121 97.827 72.3512C97.7324 72.3904 97.6283 72.4007 97.5279 72.3807C97.4275 72.3607 97.3353 72.3114 97.2629 72.239C97.1905 72.1667 97.1412 72.0744 97.1213 71.974C97.1013 71.8736 97.1116 71.7696 97.1507 71.675C97.1899 71.5804 97.2562 71.4996 97.3414 71.4427C97.4265 71.3858 97.5265 71.3555 97.6289 71.3555C97.6969 71.3555 97.7642 71.3689 97.827 71.3949C97.8898 71.4209 97.9468 71.459 97.9949 71.5071C98.043 71.5551 98.0811 71.6122 98.1071 71.675C98.1331 71.7378 98.1465 71.8051 98.1465 71.8731Z" fill="#263238"/>
<path d="M94.7412 71.5205C94.7412 71.6229 94.7109 71.723 94.654 71.8081C94.5971 71.8932 94.5163 71.9595 94.4217 71.9987C94.3271 72.0379 94.2231 72.0481 94.1227 72.0282C94.0223 72.0082 93.93 71.9589 93.8577 71.8865C93.7853 71.8141 93.736 71.7219 93.716 71.6215C93.696 71.5211 93.7063 71.417 93.7455 71.3224C93.7846 71.2279 93.851 71.147 93.9361 71.0902C94.0212 71.0333 94.1213 71.0029 94.2236 71.0029C94.3609 71.0029 94.4926 71.0575 94.5896 71.1545C94.6867 71.2516 94.7412 71.3832 94.7412 71.5205Z" fill="#263238"/>
<path d="M93.597 70.4397L94.6069 69.838C94.6069 69.838 94.2198 69.4172 93.8326 69.6781C93.7208 69.7662 93.6384 69.8862 93.5963 70.0223C93.5543 70.1583 93.5545 70.3039 93.597 70.4397Z" fill="#263238"/>
<path d="M96.0396 74.9929C96.6348 75.038 97.2279 74.8808 97.7228 74.5469C97.7228 74.5469 97.8364 75.4264 97.1 75.5947C96.8808 75.6337 96.6549 75.5949 96.4613 75.485C96.2677 75.3751 96.1185 75.2011 96.0396 74.9929Z" fill="#F28F8F"/>
<path d="M101.934 73.3875C101.915 72.9542 101.996 72.5222 102.17 72.125C102.255 71.8776 102.411 71.661 102.62 71.5029C102.828 71.3448 103.079 71.2523 103.34 71.2372C104.665 71.1993 104.846 72.4785 104.825 72.9204C104.779 74.1155 103.811 75.4031 102.014 75.4452L101.934 73.3875Z" fill="#F9DBD2"/>
<path d="M110.88 98.7098C109.602 99.1961 108.234 99.4014 106.87 99.3116C106.333 99.2877 105.799 99.2259 105.271 99.1264V96.1808V89.6415C104.825 88.8369 104.457 87.9914 104.173 87.1167C102.797 82.8287 104.522 80.3838 104.522 80.3838C105.781 80.6928 106.979 81.2121 108.065 81.9197C108.855 82.4428 109.48 83.1798 109.866 84.0448C111.086 86.7926 111.162 90.8071 110.88 98.7098Z" fill="#F9DBD2"/>
<path opacity="0.2" d="M102.077 90.5049C101.459 91.258 100.622 91.8012 99.6824 92.0596C98.7428 92.3181 97.7462 92.2792 96.8296 91.9482C96.8296 91.9482 100.103 94.3342 102.077 90.5049Z" fill="black"/>
<path d="M124.836 61.3903C124.836 61.7606 124.579 61.9121 124.255 61.7269C124.086 61.6161 123.945 61.4669 123.844 61.2914C123.743 61.1159 123.685 60.9191 123.674 60.717C123.674 60.3467 123.935 60.1994 124.255 60.3846C124.425 60.4935 124.567 60.6417 124.668 60.8167C124.769 60.9917 124.827 61.1884 124.836 61.3903Z" fill="#FF881B"/>
<path d="M124.836 64.0191C124.836 64.3894 124.579 64.5409 124.255 64.3557C124.086 64.2446 123.945 64.0954 123.844 63.9199C123.744 63.7445 123.685 63.5479 123.674 63.3458C123.674 62.9755 123.935 62.824 124.255 63.0134C124.425 63.1223 124.567 63.2705 124.668 63.4455C124.769 63.6205 124.827 63.8172 124.836 64.0191Z" fill="#FF881B"/>
<path d="M124.836 66.646C124.836 67.0164 124.579 67.1678 124.255 66.9827C124.086 66.8716 123.945 66.7223 123.844 66.5469C123.744 66.3715 123.685 66.1748 123.674 65.9728C123.674 65.6025 123.935 65.451 124.255 65.6403C124.425 65.7492 124.567 65.8974 124.668 66.0725C124.769 66.2475 124.827 66.4442 124.836 66.646Z" fill="#FF881B"/>
<path d="M126.442 153.827C126.405 153.827 126.369 153.818 126.337 153.802L72.6463 122.784C72.6222 122.771 72.6011 122.752 72.5842 122.731C72.5673 122.709 72.5549 122.684 72.5479 122.657C72.5408 122.63 72.5392 122.603 72.5431 122.575C72.547 122.548 72.5563 122.522 72.5706 122.498C72.5987 122.45 72.6442 122.415 72.6976 122.4C72.7509 122.386 72.8079 122.392 72.8567 122.418L126.547 153.419C126.595 153.447 126.63 153.492 126.645 153.546C126.66 153.599 126.653 153.656 126.627 153.705C126.61 153.74 126.584 153.77 126.551 153.791C126.519 153.812 126.481 153.825 126.442 153.827Z" fill="#FF881B"/>
<path d="M126.442 148.392C126.404 148.392 126.368 148.382 126.336 148.363L72.646 117.366C72.5979 117.337 72.5631 117.291 72.5489 117.237C72.5348 117.182 72.5424 117.125 72.5703 117.076C72.5838 117.052 72.602 117.031 72.6238 117.014C72.6456 116.997 72.6706 116.985 72.6973 116.978C72.724 116.971 72.7518 116.969 72.7791 116.973C72.8065 116.977 72.8327 116.986 72.8564 117L126.547 148.001C126.595 148.028 126.631 148.074 126.646 148.127C126.661 148.181 126.654 148.238 126.627 148.287C126.607 148.319 126.58 148.345 126.548 148.364C126.515 148.382 126.479 148.392 126.442 148.392Z" fill="#FF881B"/>
<path d="M126.442 142.945C126.405 142.943 126.369 142.933 126.337 142.915L72.6462 111.915C72.6041 111.884 72.5748 111.839 72.5641 111.788C72.5534 111.737 72.5619 111.684 72.5881 111.639C72.6143 111.594 72.6562 111.56 72.7058 111.544C72.7554 111.528 72.8092 111.531 72.8566 111.553L126.547 142.562C126.595 142.591 126.63 142.637 126.645 142.691C126.66 142.745 126.653 142.803 126.627 142.852C126.606 142.882 126.578 142.906 126.546 142.922C126.514 142.938 126.478 142.946 126.442 142.945Z" fill="#FF881B"/>
<path d="M88.4932 46.2835V39.738L90.7322 41.0248C91.1626 41.2721 91.5293 41.5777 91.8323 41.9415C92.1353 42.3031 92.3662 42.6968 92.525 43.1226C92.6858 43.5474 92.7661 43.9771 92.7661 44.4117C92.7661 44.8464 92.6848 45.1832 92.5223 45.4222C92.3597 45.6611 92.1242 45.7846 91.8157 45.7927C91.509 45.8018 91.1377 45.6811 90.7017 45.4306L89.2747 44.6104V43.5014L90.5078 44.2101C90.7387 44.3428 90.9289 44.4063 91.0786 44.4007C91.2301 44.394 91.3427 44.3299 91.4166 44.2083C91.4924 44.0856 91.5302 43.9167 91.5302 43.7015C91.5302 43.4841 91.4924 43.2727 91.4166 43.0673C91.3427 42.8607 91.2301 42.6692 91.0786 42.4927C90.9271 42.314 90.735 42.1578 90.5022 42.024L89.6931 41.559V46.973L88.4932 46.2835ZM93.5233 49.1743V44.2652L94.6677 44.9229V45.7795L94.712 45.8049C94.7896 45.5448 94.9199 45.3896 95.1028 45.3391C95.2856 45.2866 95.4962 45.3288 95.7345 45.4657C95.7937 45.4997 95.8574 45.5406 95.9257 45.5884C95.9941 45.6362 96.0541 45.6824 96.1059 45.7271V46.9352C96.0504 46.8841 95.9738 46.823 95.8759 46.7519C95.778 46.6807 95.6884 46.6217 95.6071 46.575C95.4334 46.4752 95.2783 46.4297 95.1416 46.4385C95.0067 46.4462 94.8995 46.504 94.8201 46.6117C94.7425 46.7205 94.7037 46.8751 94.7037 47.0754V49.8527L93.5233 49.1743ZM98.6392 52.2104C98.2088 51.963 97.8366 51.6436 97.5225 51.2522C97.2103 50.8597 96.9693 50.425 96.7993 49.948C96.6293 49.469 96.5444 48.978 96.5444 48.4752C96.5444 47.9681 96.6293 47.5737 96.7993 47.2922C96.9693 47.0084 97.2103 46.8508 97.5225 46.8193C97.8366 46.7867 98.2088 46.8941 98.6392 47.1415C99.0697 47.3889 99.441 47.7088 99.7532 48.1013C100.067 48.4927 100.309 48.928 100.479 49.407C100.649 49.884 100.734 50.376 100.734 50.8831C100.734 51.3859 100.649 51.7792 100.479 52.0629C100.309 52.3445 100.067 52.5016 99.7532 52.5342C99.441 52.5657 99.0697 52.4578 98.6392 52.2104ZM98.6448 51.1589C98.8406 51.2714 99.0041 51.3015 99.1352 51.249C99.2664 51.1944 99.3652 51.0744 99.4317 50.8889C99.5001 50.7044 99.5343 50.4694 99.5343 50.1839C99.5343 49.8984 99.5001 49.6242 99.4317 49.3612C99.3652 49.0992 99.2664 48.8656 99.1352 48.6602C99.0041 48.4549 98.8406 48.2959 98.6448 48.1834C98.4471 48.0698 98.2809 48.0392 98.146 48.0917C98.013 48.1452 97.9123 48.2642 97.844 48.4486C97.7775 48.6341 97.7442 48.8697 97.7442 49.1552C97.7442 49.4407 97.7775 49.7144 97.844 49.9763C97.9123 50.2393 98.013 50.4741 98.146 50.6805C98.2809 50.8858 98.4471 51.0453 98.6448 51.1589ZM103.791 50.1659V51.1886L101.164 49.6789V48.6562L103.791 50.1659ZM101.765 53.9109V48.647C101.765 48.2912 101.825 48.0306 101.945 47.8652C102.067 47.7009 102.233 47.6207 102.444 47.6246C102.654 47.6284 102.894 47.7073 103.162 47.8612C103.343 47.9653 103.508 48.0763 103.658 48.1942C103.809 48.3133 103.922 48.4068 103.996 48.4748L103.785 49.3765C103.739 49.3329 103.682 49.284 103.613 49.2298C103.547 49.1767 103.478 49.13 103.408 49.0896C103.234 48.9898 103.113 48.9672 103.045 49.0216C102.977 49.074 102.943 49.1832 102.943 49.3494V54.5877L101.765 53.9109ZM104.512 55.4895V50.5804L105.692 51.2588V56.1679L104.512 55.4895ZM105.105 50.2884C104.929 50.1875 104.779 50.0339 104.653 49.8274C104.529 49.6199 104.467 49.4214 104.467 49.2317C104.467 49.0442 104.529 48.9189 104.653 48.8558C104.779 48.7917 104.929 48.81 105.105 48.9109C105.28 49.0117 105.43 49.1659 105.554 49.3734C105.679 49.5798 105.742 49.7768 105.742 49.9643C105.742 50.1539 105.679 50.2808 105.554 50.345C105.43 50.4081 105.28 50.3892 105.105 50.2884ZM107.818 50.8443V57.3897L106.638 56.7113V50.1659L107.818 50.8443ZM110.703 59.1438C110.266 58.8922 109.889 58.5734 109.573 58.1873C109.259 57.8001 109.017 57.3691 108.847 56.8943C108.677 56.4174 108.592 55.92 108.592 55.4023C108.592 54.8973 108.677 54.503 108.847 54.2193C109.017 53.9355 109.256 53.7758 109.565 53.74C109.875 53.7053 110.239 53.8079 110.656 54.0479C110.937 54.2093 111.199 54.4117 111.441 54.6552C111.684 54.8976 111.897 55.1742 112.078 55.4849C112.261 55.7967 112.403 56.1384 112.505 56.51C112.606 56.8794 112.657 57.273 112.657 57.6906V58.0645L109.063 55.999V55.1553L111.546 56.5822C111.546 56.3861 111.509 56.1913 111.435 55.9975C111.361 55.8038 111.259 55.6266 111.127 55.466C110.998 55.3043 110.848 55.1741 110.676 55.0754C110.497 54.9724 110.338 54.929 110.199 54.9453C110.062 54.9605 109.955 55.0257 109.878 55.1409C109.8 55.2539 109.76 55.4069 109.759 55.5997V56.4019C109.759 56.6448 109.797 56.877 109.875 57.0984C109.954 57.3209 110.066 57.5215 110.21 57.7002C110.354 57.8789 110.525 58.0251 110.723 58.1387C110.854 58.214 110.974 58.2617 111.083 58.2818C111.192 58.3018 111.285 58.2915 111.363 58.2509C111.441 58.2102 111.5 58.1398 111.54 58.0396L112.632 58.7501C112.577 59.0208 112.463 59.2197 112.291 59.3468C112.121 59.4729 111.901 59.5213 111.632 59.492C111.364 59.4616 111.054 59.3456 110.703 59.1438Z" fill="#455A64"/>
<path d="M88.1191 96.7807L86.5446 99.3479V101.452L85.9134 101.089V98.9851L84.332 94.6042L85.0325 95.0068L86.2255 98.5165L87.4186 96.3781L88.1191 96.7807ZM90.4426 103.764C90.0865 103.559 89.7628 103.28 89.4715 102.926C89.1848 102.575 88.9583 102.18 88.7918 101.743C88.63 101.304 88.549 100.857 88.549 100.404C88.549 99.9558 88.6323 99.609 88.7987 99.3633C88.9698 99.115 89.201 98.9839 89.4923 98.97C89.7837 98.9507 90.1097 99.0447 90.4703 99.252C90.831 99.4593 91.157 99.74 91.4483 100.094C91.7396 100.443 91.9685 100.836 92.135 101.273C92.3061 101.712 92.3916 102.159 92.3916 102.612C92.3916 103.066 92.3038 103.415 92.1281 103.661C91.957 103.904 91.7235 104.034 91.4275 104.05C91.1316 104.067 90.8033 103.971 90.4426 103.764ZM90.4426 103.124C90.6692 103.254 90.8819 103.315 91.0807 103.307C91.2795 103.298 91.4391 103.206 91.5593 103.03C91.6842 102.856 91.7466 102.593 91.7466 102.241C91.7466 101.889 91.6865 101.556 91.5662 101.242C91.446 100.927 91.2888 100.656 91.0946 100.427C90.9004 100.193 90.69 100.01 90.4634 99.88C90.2322 99.7472 90.0195 99.6862 89.8253 99.6973C89.6357 99.7057 89.4831 99.7993 89.3675 99.9782C89.2519 100.157 89.1941 100.423 89.1941 100.775C89.1941 101.132 89.2496 101.465 89.3606 101.774C89.4762 102.086 89.6288 102.358 89.8183 102.589C90.0079 102.816 90.216 102.994 90.4426 103.124ZM96.5925 102.842V107.226L95.9613 106.864V106.216C95.8411 106.371 95.6723 106.45 95.455 106.453C95.2423 106.453 95.0064 106.379 94.7475 106.23C94.4515 106.06 94.1856 105.838 93.9498 105.564C93.714 105.284 93.5267 104.963 93.388 104.601C93.2539 104.241 93.1868 103.859 93.1868 103.453V100.885L93.8111 101.244V103.716C93.8111 104.148 93.9059 104.536 94.0955 104.879C94.2851 105.218 94.544 105.481 94.8723 105.67C95.2099 105.864 95.4758 105.897 95.67 105.768C95.8642 105.64 95.9613 105.346 95.9613 104.888V102.48L96.5925 102.842ZM98.2894 104.53C98.4004 104.343 98.5576 104.239 98.761 104.217C98.9691 104.198 99.2211 104.273 99.5171 104.443V105.195L99.3506 105.1C98.6431 104.693 98.2894 104.932 98.2894 105.818V108.202L97.6582 107.839V103.455L98.2894 103.818V104.53ZM102.098 105.926C102.56 106.192 102.935 106.57 103.221 107.06C103.508 107.545 103.651 108.091 103.651 108.699V111.283L103.027 110.925V108.445C103.027 108.007 102.932 107.619 102.743 107.281C102.553 106.937 102.294 106.671 101.966 106.483C101.633 106.291 101.367 106.258 101.168 106.384C100.974 106.513 100.877 106.806 100.877 107.265V109.689L100.246 109.326V104.942L100.877 105.305V105.929C101.002 105.777 101.171 105.7 101.383 105.7C101.601 105.702 101.839 105.778 102.098 105.926ZM104.447 109.532C104.447 109.084 104.525 108.738 104.682 108.492C104.84 108.241 105.055 108.1 105.327 108.071C105.605 108.043 105.912 108.127 106.25 108.321C106.583 108.512 106.872 108.761 107.117 109.067C107.362 109.373 107.545 109.686 107.665 110.006V109.206L108.303 109.573V113.957L107.665 113.59V112.774C107.54 112.958 107.353 113.064 107.103 113.091C106.858 113.116 106.571 113.033 106.243 112.845C105.905 112.651 105.6 112.379 105.327 112.031C105.055 111.682 104.84 111.289 104.682 110.852C104.525 110.415 104.447 109.975 104.447 109.532ZM107.665 111.39C107.665 111.059 107.607 110.738 107.491 110.426C107.376 110.115 107.219 109.838 107.02 109.595C106.826 109.35 106.611 109.16 106.375 109.025C106.139 108.889 105.924 108.829 105.73 108.846C105.536 108.862 105.381 108.96 105.265 109.139C105.149 109.318 105.092 109.572 105.092 109.903C105.092 110.239 105.149 110.566 105.265 110.883C105.381 111.194 105.536 111.473 105.73 111.718C105.924 111.957 106.139 112.145 106.375 112.281C106.611 112.416 106.826 112.476 107.02 112.459C107.219 112.44 107.376 112.341 107.491 112.162C107.607 111.978 107.665 111.721 107.665 111.39ZM113.941 112.733C114.237 112.903 114.5 113.126 114.731 113.403C114.962 113.675 115.145 113.99 115.279 114.35C115.413 114.71 115.48 115.092 115.48 115.498V118.082L114.856 117.723V115.243C114.856 114.806 114.761 114.418 114.572 114.079C114.387 113.738 114.135 113.476 113.816 113.293C113.487 113.104 113.226 113.077 113.032 113.21C112.838 113.339 112.741 113.632 112.741 114.091V116.507L112.116 116.148V113.668C112.116 113.231 112.022 112.843 111.832 112.505C111.647 112.164 111.395 111.902 111.076 111.718C110.748 111.53 110.486 111.502 110.292 111.636C110.098 111.764 110.001 112.058 110.001 112.516V114.932L109.37 114.57V110.186L110.001 110.548V111.18C110.126 111.023 110.292 110.943 110.5 110.939C110.713 110.939 110.946 111.012 111.201 111.158C111.52 111.341 111.802 111.586 112.047 111.892C112.292 112.199 112.475 112.546 112.595 112.935C112.701 112.687 112.877 112.548 113.122 112.518C113.367 112.488 113.64 112.56 113.941 112.733ZM119.984 118.31C119.984 118.448 119.977 118.591 119.963 118.738L116.925 116.992C116.948 117.437 117.075 117.849 117.306 118.227C117.542 118.603 117.827 118.886 118.16 119.077C118.432 119.234 118.659 119.292 118.839 119.252C119.024 119.209 119.154 119.086 119.228 118.883L119.908 119.274C119.806 119.637 119.602 119.864 119.297 119.955C118.992 120.041 118.613 119.954 118.16 119.693C117.799 119.486 117.475 119.207 117.189 118.855C116.906 118.507 116.685 118.115 116.523 117.681C116.361 117.241 116.28 116.794 116.28 116.341C116.28 115.888 116.359 115.536 116.516 115.285C116.673 115.034 116.893 114.899 117.175 114.879C117.461 114.857 117.79 114.953 118.16 115.165C118.52 115.373 118.839 115.647 119.117 115.988C119.394 116.328 119.607 116.701 119.755 117.106C119.908 117.509 119.984 117.91 119.984 118.31ZM119.332 117.783C119.332 117.506 119.279 117.238 119.172 116.979C119.066 116.716 118.92 116.48 118.735 116.272C118.555 116.062 118.354 115.893 118.132 115.765C117.813 115.582 117.54 115.543 117.313 115.647C117.091 115.754 116.964 116.006 116.932 116.404L119.332 117.783Z" fill="#455A64"/>
<path d="M96.5854 117.973C96.7392 118.089 96.8788 118.242 97.0042 118.431C97.1337 118.622 97.2348 118.824 97.3077 119.039C97.3845 119.256 97.423 119.462 97.423 119.658C97.423 119.906 97.3683 120.098 97.2591 120.236C97.1499 120.369 96.99 120.434 96.7796 120.429C96.5733 120.423 96.3285 120.338 96.0453 120.175L94.4673 119.269V114.39L95.9846 115.262C96.2719 115.427 96.5167 115.623 96.719 115.852C96.9213 116.075 97.073 116.309 97.1741 116.554C97.2753 116.799 97.3259 117.038 97.3259 117.271C97.3259 117.561 97.2571 117.762 97.1195 117.874C96.986 117.984 96.808 118.017 96.5854 117.973ZM95.0196 116.814L95.9482 117.348C96.2071 117.496 96.4074 117.542 96.549 117.483C96.6906 117.424 96.7614 117.271 96.7614 117.024C96.7614 116.777 96.6906 116.542 96.549 116.321C96.4074 116.1 96.2031 115.912 95.936 115.759L95.0196 115.232V116.814ZM95.9967 119.623C96.2719 119.781 96.4863 119.829 96.6401 119.768C96.7938 119.707 96.8707 119.544 96.8707 119.278C96.8707 119.007 96.7898 118.748 96.6279 118.501C96.4661 118.25 96.2496 118.046 95.9785 117.89L95.0196 117.339V119.061L95.9967 119.623ZM98.4746 117.113C98.3694 117.052 98.2804 116.959 98.2076 116.833C98.1348 116.707 98.0983 116.584 98.0983 116.462C98.0983 116.341 98.1348 116.259 98.2076 116.217C98.2804 116.175 98.3694 116.184 98.4746 116.245C98.5758 116.303 98.6608 116.394 98.7295 116.517C98.8024 116.643 98.8388 116.767 98.8388 116.888C98.8388 117.009 98.8024 117.091 98.7295 117.133C98.6608 117.178 98.5758 117.171 98.4746 117.113ZM98.7417 117.889V121.725L98.1894 121.408V117.572L98.7417 117.889ZM101.133 123.163C100.822 122.984 100.539 122.739 100.284 122.429C100.033 122.122 99.8347 121.777 99.689 121.395C99.5474 121.01 99.4766 120.619 99.4766 120.222C99.4766 119.83 99.5494 119.527 99.6951 119.312C99.8448 119.095 100.047 118.98 100.302 118.968C100.557 118.951 100.842 119.033 101.158 119.215C101.473 119.396 101.759 119.642 102.013 119.951C102.268 120.257 102.469 120.6 102.614 120.983C102.764 121.367 102.839 121.758 102.839 122.155C102.839 122.551 102.762 122.857 102.608 123.072C102.459 123.285 102.254 123.398 101.995 123.413C101.736 123.427 101.449 123.344 101.133 123.163ZM101.133 122.603C101.332 122.717 101.518 122.77 101.692 122.763C101.866 122.755 102.005 122.674 102.111 122.52C102.22 122.368 102.274 122.138 102.274 121.83C102.274 121.522 102.222 121.231 102.117 120.956C102.011 120.681 101.874 120.443 101.704 120.243C101.534 120.038 101.35 119.878 101.152 119.764C100.949 119.648 100.763 119.595 100.593 119.604C100.427 119.612 100.294 119.694 100.193 119.85C100.092 120.007 100.041 120.239 100.041 120.547C100.041 120.86 100.09 121.151 100.187 121.422C100.288 121.694 100.421 121.932 100.587 122.135C100.753 122.333 100.935 122.489 101.133 122.603Z" fill="#455A64"/>
<path d="M48.3813 143.34C48.3813 143.34 49.7447 143.042 49.6816 144.641C49.6143 146.324 50.8556 148.592 47.8048 149.408C46.1512 149.872 44.6226 150.7 43.3317 151.832C42.2207 152.703 39.2204 153.558 36.9607 152.548C32.8073 150.688 38.4587 148.441 38.4587 148.441L48.3813 143.34Z" fill="#263238"/>
<path d="M64.4643 143.363C64.4643 143.363 65.3059 142.698 65.7604 146.144C66.2149 149.59 69.9264 158.297 64.0477 158.297C61.0306 158.297 60.7655 153.601 60.7781 150.398C60.7907 147.196 60.6645 144.133 61.0811 143.598C61.4977 143.064 64.4643 143.363 64.4643 143.363Z" fill="#263238"/>
<path d="M51.4727 114.644C51.2239 115.909 51.0832 117.193 51.0519 118.482C51.0519 120.106 51.3338 124.499 51.0519 127.348C50.77 130.197 49.1583 141.134 49.0447 141.87C49.0013 142.445 49.0296 143.023 49.1288 143.591C49.1501 143.728 49.1336 143.867 49.0809 143.995C49.0282 144.123 48.9414 144.233 48.83 144.315C47.9337 144.984 45.674 146.68 44.9208 147.294C43.9698 148.073 41.1924 151.696 38.4614 148.443C38.4614 148.443 44.4789 144.378 44.7735 142.606C45.0681 140.835 43.8603 125.484 43.5111 123.67C43.1618 121.857 43.0903 110.92 43.0903 110.92L51.4727 114.644Z" fill="#F9DBD2"/>
<path d="M63.6794 113.118V116.485C63.6794 116.84 63.709 117.195 63.7678 117.545C64.0666 119.338 65.0302 125.486 65.1354 130.401C65.2533 136.225 65.1733 141.409 64.925 143.584C64.6768 145.76 65.9728 149.951 66.0864 150.591C66.3431 152.034 66.1243 152.956 63.9824 152.977C62.6358 152.977 61.7353 152.724 61.6217 150.641C61.5081 148.558 61.2724 144.556 61.2724 144.556C61.2724 144.556 58.3647 130.885 57.8555 128.608C57.3463 126.331 54.7416 115.403 54.5732 114.301L63.6794 113.118Z" fill="#F9DBD2"/>
<path d="M44.8446 54.0938C44.8446 54.0938 43.5822 54.7418 44.6047 57.7506C45.6273 60.7593 43.2918 62.2616 42.6816 61.0791C42.6816 61.0791 42.7237 62.9896 45.0381 62.9896C47.3526 62.9896 47.7692 61.0707 47.7692 61.0707C47.7692 61.0707 48.6108 61.9839 48.6108 64.5508C48.6108 67.1177 46.1617 76.7541 54.7377 76.7541C63.3137 76.7541 63.1538 69.4489 63.1538 69.4489C63.1538 69.4489 65.3546 69.4868 65.3546 66.2003C65.3546 66.2003 62.0134 68.2749 62.0134 63.6376C62.0134 59.0004 62.7751 53.1175 59.2361 53.1175C59.2361 53.1175 60.4522 50.5927 58.0326 48.9852C55.613 47.3778 48.3541 49.5659 48.3541 49.5659C48.3541 49.5659 46.1701 48.2573 44.6047 49.8058C42.6985 51.7163 44.8446 54.0938 44.8446 54.0938Z" fill="#263238"/>
<path d="M49.0274 67.5961C47.191 67.6414 45.4138 68.2544 43.9399 69.3508C41.4403 71.2023 37.0513 74.4005 37.0513 74.4005C37.0513 74.4005 32.1153 67.9916 31.1264 65.9844L27.9409 68.324C27.9409 68.324 32.7423 80.9229 36.2392 80.9229C38.844 80.9229 46.4689 75.1705 46.4689 75.1705L49.0274 67.5961Z" fill="#F9DBD2"/>
<path d="M31.6593 66.9044C32.0031 66.004 32.0254 65.0126 31.7224 64.0976C31.5794 63.6306 31.9749 62.284 31.7224 62.0862C31.47 61.8884 30.5274 61.9053 30.2707 63.74C29.7951 63.0681 29.4576 62.3087 29.2776 61.5055C29.0209 60.2431 28.8021 58.5893 27.4345 59.5656C26.0668 60.5419 24.3878 62.6669 25.6839 64.7625C26.9463 66.7866 27.9268 68.3183 27.9268 68.3183L31.6593 66.9044Z" fill="#F9DBD2"/>
<path d="M61.7858 89.8926C61.7858 89.8926 62.7915 92.106 63.3806 96.7938C63.9698 101.482 63.6752 113.129 63.6752 113.129C60.2183 114.615 56.497 115.388 52.7343 115.402C49.1043 115.429 45.5711 114.231 42.7065 112.002C42.7065 112.002 42.816 112.494 42.816 104.044C42.816 95.5945 44.6296 90.5785 44.6296 90.5785L61.7858 89.8926Z" fill="#263238"/>
<path d="M56.6832 67.8214L59.1154 68.4905C59.2623 68.5303 59.3931 68.615 59.4896 68.7326C59.5861 68.8503 59.6436 68.9951 59.654 69.1469L60.26 77.9291L58.884 82.8146C58.7626 83.2458 58.7405 83.6988 58.8192 84.1397C58.8979 84.5806 59.0754 84.998 59.3384 85.3605C60.3513 86.7595 61.1748 88.2862 61.7875 89.901C61.7875 89.901 58.9513 93.4904 52.4162 93.4904C47.8884 93.4904 44.6397 90.5827 44.6397 90.5827C45.2866 88.6581 45.7446 86.6752 46.0074 84.662C46.0684 83.5258 45.9361 82.3874 45.616 81.2955C45.616 81.2955 42.9397 80.0331 43.432 76.4479C43.9244 72.8626 49.0287 67.611 49.0287 67.611L51.3852 67.5479L56.6832 67.8214Z" fill="#264653"/>
<path d="M56.6834 67.826L49.9505 72.2023C49.8929 72.2379 49.8255 72.2542 49.758 72.2489C49.6905 72.2437 49.6264 72.2172 49.5749 72.1732C49.5235 72.1292 49.4873 72.0701 49.4716 72.0042C49.4559 71.9384 49.4615 71.8692 49.4876 71.8068L51.4065 67.5356V60.5166H56.7044L56.6834 67.826Z" fill="#F9DBD2"/>
<path d="M51.3857 66.9255C52.4682 66.5242 53.4576 65.907 54.2939 65.1112C55.1302 64.3154 55.7958 63.3578 56.2502 62.2966V60.5166H51.3857V66.9255Z" fill="#F28F8F"/>
<path d="M50.149 51.8315C50.149 51.8315 45.3056 52.1135 45.9031 60.3991C46.1808 64.2284 47.0772 66.2146 50.027 66.0674C53.3682 65.9032 58.1149 63.6056 57.8035 57.0537C57.4921 50.5018 50.149 51.8315 50.149 51.8315Z" fill="#F9DBD2"/>
<path d="M56.6828 60.5141C56.6828 60.5141 55.3531 60.8634 55.3531 58.9613C55.3531 58.9613 49.4618 58.5616 48.1489 52.704C48.1489 52.704 48.7296 50.9492 52.4159 50.9492C56.1021 50.9492 59.1992 54.2062 58.2356 58.6878L56.6828 60.5141Z" fill="#263238"/>
<path d="M49.4545 58.7373V61.5861L47.7881 61.0728L49.4545 58.7373Z" fill="#F28F8F"/>
<path d="M51.3834 59.6145C51.7042 59.6145 51.9642 59.3546 51.9642 59.0338C51.9642 58.7131 51.7042 58.4531 51.3834 58.4531C51.0627 58.4531 50.8027 58.7131 50.8027 59.0338C50.8027 59.3546 51.0627 59.6145 51.3834 59.6145Z" fill="#263238"/>
<path d="M48.1482 58.6286C48.1482 58.7434 48.1142 58.8557 48.0504 58.9512C47.9866 59.0467 47.8959 59.1211 47.7898 59.1651C47.6836 59.209 47.5669 59.2205 47.4542 59.1981C47.3416 59.1757 47.2381 59.1204 47.1569 59.0392C47.0757 58.958 47.0204 58.8545 46.998 58.7419C46.9756 58.6292 46.9871 58.5124 47.031 58.4063C47.075 58.3002 47.1494 58.2095 47.2449 58.1457C47.3404 58.0819 47.4527 58.0479 47.5675 58.0479C47.7215 58.0479 47.8692 58.109 47.9781 58.2179C48.0871 58.3268 48.1482 58.4745 48.1482 58.6286Z" fill="#263238"/>
<path d="M46.8636 57.4267L47.9956 56.7492C47.9956 56.7492 47.5748 56.299 47.1287 56.5683C47.0036 56.6683 46.9115 56.8037 46.8642 56.9567C46.8169 57.1098 46.8167 57.2736 46.8636 57.4267Z" fill="#263238"/>
<path d="M49.5986 62.5261C50.26 62.5743 50.9183 62.3979 51.467 62.0254C51.467 62.0254 51.5975 63.0101 50.7727 63.1994C50.5294 63.2391 50.2799 63.1938 50.0661 63.0712C49.8523 62.9486 49.6872 62.7561 49.5986 62.5261Z" fill="#F28F8F"/>
<path d="M56.2093 60.7288C56.1893 60.2466 56.2784 59.7662 56.4702 59.3233C56.5631 59.0471 56.735 58.8041 56.9647 58.6246C57.1943 58.4451 57.4716 58.3369 57.7621 58.3134C59.2475 58.2713 59.4453 59.7063 59.4453 60.2154C59.3948 61.5536 58.3091 63.0012 56.2893 63.0559L56.2093 60.7288Z" fill="#F9DBD2"/>
<path d="M59.1529 68.5078C59.1529 68.5078 56.7207 71.3777 60.2722 77.938C63.8238 84.4984 64.1142 85.0454 64.1142 85.0454C64.1142 85.0454 61.6861 92.1486 60.7478 95.8054L64.3793 97.7874C64.3793 97.7874 68.2254 89.7416 69.1386 87.9868C70.0517 86.2321 70.0812 84.8771 69.1386 82.4785C68.196 80.0799 65.3976 74.1087 64.6654 72.3792C63.9332 70.6497 61.5978 69.1727 59.1529 68.5078Z" fill="#F9DBD2"/>
<path d="M60.7448 95.7998C60.7448 95.7998 59.8022 95.7746 58.7502 97.117C58.4514 97.4999 57.1217 97.9586 57.0669 98.2531C57.0122 98.5477 57.6098 99.3346 59.2593 98.4888C58.9827 99.2671 58.5535 99.9824 57.9969 100.593C57.1174 101.523 55.8929 102.655 57.4709 103.214C59.0489 103.774 61.7589 103.93 62.731 101.666C63.6736 99.4819 64.3553 97.786 64.3553 97.786L60.7448 95.7998Z" fill="#F9DBD2"/>
<path opacity="0.2" d="M56.3454 79.9268C56.3454 79.9268 54.0983 82.8724 50.4541 81.5468C50.4583 81.5553 54.1572 84.2232 56.3454 79.9268Z" fill="black"/>
</svg>
