<svg width="24" height="75" viewBox="0 0 24 75" fill="none" xmlns="http://www.w3.org/2000/svg">
<path d="M15.3286 54.6112L16.8047 50.6793V48.5522L14.1748 45.8385V41.8937L16.7531 38.6127V31.0905C20.453 26.5784 23.0443 19.3849 23.0249 12.7973C23.0249 7.64063 21.3941 3.99231 18.9125 2.55489L16.3664 1.09169C14.6454 0.0925928 12.4989 0.150608 10.1978 1.49778C4.54479 4.79804 -0.0188386 14.5505 0.00694465 23.2717C0.00694465 28.4284 1.6764 32.0445 4.17737 33.4883L6.7557 34.9709C6.99507 35.1045 7.24265 35.2229 7.49697 35.3254V73.2912L10.0753 74.7673L12.905 73.13L16.8563 64.6667V59.8517L15.348 58.7301L15.3286 54.6112Z" fill="#2A9D8F"/>
<path d="M12.7632 2.97137C7.11022 6.27162 2.54659 16.0177 2.57237 24.7453C2.57237 31.913 5.79528 36.1479 10.056 35.6065V74.7648L12.8857 73.1275L16.8369 64.6642V59.8492L15.3286 58.7276V54.6087L16.8047 50.6768V48.5497L14.1748 45.836V41.8912L16.7531 38.6102V31.088C20.453 26.5759 23.0443 19.3824 23.0249 12.7948C23.0185 4.0736 18.4162 -0.328887 12.7632 2.97137Z" fill="#2A9D8F"/>
<path opacity="0.3" d="M12.7632 2.97137C7.11022 6.27162 2.54659 16.0177 2.57237 24.7453C2.57237 31.913 5.79528 36.1479 10.056 35.6065V74.7648L12.8857 73.1275L16.8369 64.6642V59.8492L15.3286 58.7276V54.6087L16.8047 50.6768V48.5497L14.1748 45.836V41.8912L16.7531 38.6102V31.088C20.453 26.5759 23.0443 19.3824 23.0249 12.7948C23.0185 4.0736 18.4162 -0.328887 12.7632 2.97137Z" fill="white"/>
<path d="M10.9521 74.2485L11.6547 73.8489V34.7422L10.9521 35.1354V74.2485Z" fill="#2A9D8F"/>
<path d="M9.55988 33.5154C8.94005 33.5194 8.32666 33.3897 7.7615 33.1351C5.58927 32.1489 4.20986 29.3643 3.97781 25.4904C3.55238 18.342 7.11692 9.48544 11.9319 5.74688C14.0591 4.0903 16.2055 3.61976 17.9781 4.41904C20.1503 5.40525 21.5362 8.18984 21.7618 12.0702C22.1872 19.2122 18.6227 28.0687 13.8141 31.8073C12.6243 32.832 11.128 33.4328 9.55988 33.5154ZM16.1862 4.62531C14.7477 4.70751 13.3768 5.2627 12.2865 6.20453C7.61324 9.84641 4.1454 18.4516 4.55148 25.4517C4.77064 29.1065 6.02758 31.7106 7.99999 32.6066C9.55988 33.3156 11.5001 32.8708 13.4467 31.3174C18.1264 27.682 21.5942 19.0704 21.1817 12.0702C20.9625 8.41544 19.712 5.81134 17.7396 4.92181C17.2495 4.71138 16.7194 4.61021 16.1862 4.62531Z" fill="#2A9D8F"/>
<path d="M13.4595 23.9006C13.324 23.8098 13.165 23.7605 13.0019 23.7588C12.8028 23.7663 12.6094 23.8263 12.4411 23.9328C12.2265 24.0641 12.0331 24.2271 11.8674 24.4163C11.6905 24.6127 11.5369 24.829 11.4097 25.0609C11.2833 25.3095 11.1839 25.571 11.1132 25.8408C11.0406 26.1054 11.0037 26.3786 11.0037 26.653C10.9954 26.8878 11.0326 27.122 11.1132 27.3427C11.1698 27.5115 11.2725 27.6611 11.4097 27.7745C11.5413 27.8727 11.7036 27.9207 11.8674 27.9099C12.0702 27.8958 12.2667 27.834 12.4411 27.7294C12.6529 27.6022 12.8423 27.4411 13.0019 27.2524C13.1788 27.056 13.3324 26.8397 13.4595 26.6079C13.5902 26.3574 13.6939 26.0938 13.7689 25.8215C13.8449 25.5552 13.8839 25.2797 13.8849 25.0028C13.8903 24.7698 13.8509 24.5378 13.7689 24.3196C13.7057 24.1544 13.5988 24.0096 13.4595 23.9006ZM16.2699 10.7576C16.1329 10.3725 15.8693 10.0452 15.5222 9.82942C15.1737 9.63375 14.7696 9.56109 14.3748 9.62315C13.8403 9.71379 13.3283 9.90636 12.8665 10.1904C12.4654 10.4226 12.0857 10.6901 11.732 10.9897C11.3861 11.2851 11.0629 11.6061 10.7652 11.9501C10.4683 12.2932 10.1907 12.6526 9.93365 13.0265C9.67582 13.4004 9.43732 13.7807 9.22461 14.161L9.86919 15.1085C9.96588 15.3019 10.1335 15.3341 10.3591 15.2052C10.4904 15.1118 10.6021 14.9936 10.6878 14.8571C10.8038 14.6831 10.9521 14.4768 11.1261 14.2448C11.3237 13.9892 11.5391 13.748 11.7707 13.5229C12.0478 13.2551 12.3574 13.0234 12.6925 12.8332C12.9043 12.705 13.1382 12.6175 13.3822 12.5753C13.5678 12.5375 13.7609 12.5673 13.9265 12.6596C14.092 12.7518 14.2191 12.9003 14.2846 13.0781C14.378 13.3137 14.4219 13.566 14.4135 13.8194C14.4151 14.2801 14.3389 14.7377 14.1879 15.173C14.0378 15.6023 13.8524 16.0184 13.6335 16.417C13.4079 16.8231 13.1695 17.2163 12.9181 17.5902C12.6667 17.964 12.4346 18.3443 12.2284 18.7117C12.0283 19.067 11.8621 19.4404 11.732 19.8269C11.6097 20.185 11.5657 20.5653 11.6031 20.942L11.7643 22.9208L13.3757 21.9927L13.5949 20.0138C13.6357 19.6999 13.7341 19.3961 13.8849 19.1178C14.0461 18.8084 14.2395 18.4732 14.4586 18.1252L15.1676 16.9972C15.4279 16.5844 15.6584 16.1536 15.8574 15.708C16.0747 15.2146 16.2493 14.7035 16.3795 14.1803C16.5257 13.5944 16.5972 12.9923 16.5922 12.3884C16.5932 11.8289 16.4837 11.2747 16.2699 10.7576Z" fill="#E76F51"/>
</svg>
