<svg width="555" height="498" viewBox="0 0 555 498" fill="none" xmlns="http://www.w3.org/2000/svg">
<path d="M478.101 56.856C468.773 51.7587 464.543 56.004 461.149 51.7587C457.756 47.5134 470.477 36.4963 444.991 25.4791C444.991 25.4791 443.301 1.74079 408.531 0.888797C373.761 0.0368033 383.133 24.6271 373.805 30.5617C364.477 36.4963 361.936 27.2272 352.608 33.103C343.28 38.9788 347.526 50.9067 339.902 52.596C332.278 54.2853 322.083 44.9721 312.755 50.9067C303.428 56.8413 303.427 61.9239 299.197 61.9239C294.966 61.9239 286.476 58.5306 281.393 61.9239C276.311 65.3172 270.361 69.5625 270.361 69.5625H484.829C484.829 69.5625 487.429 61.9386 478.101 56.856Z" fill="#92E3A9"/>
<path opacity="0.5" d="M478.101 56.856C468.773 51.7587 464.543 56.004 461.149 51.7587C457.756 47.5134 470.477 36.4963 444.991 25.4791C444.991 25.4791 443.301 1.74079 408.531 0.888797C373.761 0.0368033 383.133 24.6271 373.805 30.5617C364.477 36.4963 361.936 27.2272 352.608 33.103C343.28 38.9788 347.526 50.9067 339.902 52.596C332.278 54.2853 322.083 44.9721 312.755 50.9067C303.428 56.8413 303.427 61.9239 299.197 61.9239C294.966 61.9239 286.476 58.5306 281.393 61.9239C276.311 65.3172 270.361 69.5625 270.361 69.5625H484.829C484.829 69.5625 487.429 61.9386 478.101 56.856Z" fill="white"/>
<path d="M234.886 247.426C228.334 243.857 225.352 246.824 222.973 243.857C220.593 240.889 229.524 233.133 211.662 225.392C211.662 225.392 210.472 208.719 186.043 208.117C161.615 207.515 168.181 224.79 161.629 228.961C155.078 233.133 153.3 226.582 146.749 230.754C140.197 234.925 143.164 243.254 137.817 244.444C132.47 245.634 125.302 239.083 118.721 243.254C112.14 247.426 112.169 250.996 109.202 250.996C106.235 250.996 100.256 248.616 96.6867 250.996C93.1171 253.375 88.9453 256.357 88.9453 256.357H239.645C239.645 256.357 241.438 250.996 234.886 247.426Z" fill="white"/>
<path opacity="0.5" d="M234.886 247.426C228.334 243.857 225.352 246.824 222.973 243.857C220.593 240.889 229.524 233.133 211.662 225.392C211.662 225.392 210.472 208.719 186.043 208.117C161.615 207.515 168.181 224.79 161.629 228.961C155.078 233.133 153.3 226.582 146.749 230.754C140.197 234.925 143.164 243.254 137.817 244.444C132.47 245.634 125.302 239.083 118.721 243.254C112.14 247.426 112.169 250.996 109.202 250.996C106.235 250.996 100.256 248.616 96.6867 250.996C93.1171 253.375 88.9453 256.357 88.9453 256.357H239.645C239.645 256.357 241.438 250.996 234.886 247.426Z" fill="white"/>
<path d="M421.136 495.63H513.974C512.196 484.275 504.895 486.273 503.926 468.675C503.441 459.861 511.653 448.844 510.933 437.21C510.345 427.617 500.9 417.79 500.165 406.817C499.504 396.916 507.51 385.928 506.79 375.264C506.041 365.187 496.508 355.506 495.612 345.018C494.789 334.735 502.692 323.703 501.752 313.362C500.812 303.021 491.073 293.516 490 283.322C488.928 272.848 496.581 261.567 495.406 251.548C494.172 240.898 484.124 231.703 482.758 221.89C481.289 210.976 488.355 199.312 486.695 189.882C484.653 178.336 473.9 169.977 471.638 161.457C467.422 145.578 467.951 130.286 462.971 129.287C457.669 128.23 456.449 143.228 452.424 159.988C450.397 168.405 439.894 176.94 438.161 188.501C436.765 197.858 444.198 209.242 442.979 220.113C441.892 229.852 432.094 239.209 431.139 249.8C430.243 259.76 438.19 270.733 437.412 281.148C436.648 291.269 427.129 300.92 426.497 311.203C425.866 321.485 434.033 332.238 433.475 342.388C432.902 352.789 423.574 362.616 423.089 372.62C422.59 383.211 430.948 393.89 430.537 403.703C430.082 414.588 420.886 424.547 420.548 434.066C420.137 445.612 428.613 456.262 428.348 465.061C427.79 484.157 419.05 480.177 418.741 495.542L421.136 495.63Z" fill="#92E3A9"/>
<path d="M460.988 159.797V491.34" stroke="black" stroke-miterlimit="10"/>
<path d="M475.486 194.555L460.371 207.614L448.002 191.117" stroke="black" stroke-miterlimit="10"/>
<path d="M475.486 252.265L460.371 265.31L448.002 248.828" stroke="black" stroke-miterlimit="10"/>
<path d="M475.486 306.531L460.371 319.59L448.002 303.094" stroke="black" stroke-miterlimit="10"/>
<path d="M475.486 371.125L460.371 384.169L448.002 367.688" stroke="black" stroke-miterlimit="10"/>
<path d="M475.486 436.39L460.371 449.435L448.002 432.953" stroke="black" stroke-miterlimit="10"/>
<path d="M357.897 495.632H429.567C428.186 486.818 422.56 488.405 421.811 474.831C421.429 467.986 427.76 459.525 427.217 450.535C426.761 443.19 419.475 435.537 418.902 427.032C418.388 419.393 424.617 410.873 424.014 402.676C423.441 394.891 416.053 387.429 415.392 379.335C414.731 371.241 420.856 362.868 420.136 354.891C419.417 346.915 411.881 339.57 411.088 331.711C410.265 323.617 416.17 314.921 415.259 307.165C414.305 298.953 406.548 291.858 405.506 284.293C404.33 275.861 409.824 266.857 408.532 259.585C406.96 250.669 398.66 244.205 396.927 237.639C393.666 225.388 394.077 213.563 390.228 212.799C386.13 211.977 385.19 223.552 382.09 236.508C380.533 243.001 372.41 249.596 371.073 258.542C370.001 265.77 375.73 274.554 374.79 282.942C373.952 290.463 366.402 297.631 365.653 305.857C364.962 313.54 371.103 322.016 370.5 330.051C369.913 337.866 362.583 345.314 362.069 353.246C361.554 361.178 367.944 369.493 367.46 377.322C366.975 385.152 359.821 392.937 359.454 400.664C359.057 408.831 365.506 417.072 365.197 424.652C364.845 433.054 357.75 440.81 357.485 448.155C357.162 457.057 363.714 465.298 363.508 472.07C363.067 486.759 356.325 483.748 356.09 495.573L357.897 495.632Z" fill="#92E3A9"/>
<path d="M388.671 236.406V492.328" stroke="black" stroke-miterlimit="10"/>
<path d="M399.85 263.229L388.187 273.306L378.639 260.57" stroke="black" stroke-miterlimit="10"/>
<path d="M399.85 307.769L388.187 317.846L378.639 305.125" stroke="black" stroke-miterlimit="10"/>
<path d="M399.85 349.66L388.187 359.737L378.639 347.016" stroke="black" stroke-miterlimit="10"/>
<path d="M399.85 399.518L388.187 409.595L378.639 396.859" stroke="black" stroke-miterlimit="10"/>
<path d="M399.85 449.901L388.187 459.963L378.639 447.242" stroke="black" stroke-miterlimit="10"/>
<path d="M294.012 494.946V197.953H309.685V494.946" fill="#2E353A"/>
<path d="M294.012 494.946V197.953H309.685V494.946" stroke="#2E353A" stroke-linecap="round" stroke-linejoin="round"/>
<path d="M286.183 494.946V197.953H301.856V494.946" fill="#E76F51"/>
<path d="M286.183 494.946V197.953H301.856V494.946" stroke="#2E353A" stroke-linecap="round" stroke-linejoin="round"/>
<g style="mix-blend-mode:multiply" opacity="0.3">
<path d="M301.856 197.953H286.183V233.208H301.856V197.953Z" fill="#2E353A"/>
</g>
<path d="M353.063 82.0078H236.928L287.548 206.34H403.698V132.628C403.698 125.979 402.388 119.396 399.844 113.253C397.299 107.111 393.569 101.53 388.867 96.8289C384.165 92.1282 378.583 88.3999 372.439 85.8569C366.296 83.3138 359.712 82.0059 353.063 82.0078Z" fill="#E76F51" stroke="#2E353A" stroke-linecap="round" stroke-linejoin="round"/>
<g style="mix-blend-mode:multiply" opacity="0.3">
<path d="M278.69 184.566L287.504 206.336H403.699V132.624C403.699 131.507 403.699 130.391 403.581 129.289H278.72L278.69 184.566Z" fill="black"/>
</g>
<path d="M352.212 129.289H339.99" stroke="#2E353A" stroke-linecap="round" stroke-linejoin="round"/>
<path d="M403.581 129.289H366.593" stroke="#2E353A" stroke-linecap="round" stroke-linejoin="round"/>
<path d="M236.928 82.0078C250.357 82.0078 263.236 87.3426 272.732 96.8384C282.228 106.334 287.563 119.213 287.563 132.643V206.355H186.293V132.628C186.297 119.201 191.633 106.326 201.129 96.8332C210.624 87.3405 223.501 82.0078 236.928 82.0078Z" fill="#2E353A" stroke="#2E353A" stroke-linecap="round" stroke-linejoin="round"/>
<path d="M287.548 197.953H200.292V206.341H287.548V197.953Z" fill="#E76F51" stroke="#2E353A" stroke-linecap="round" stroke-linejoin="round"/>
<path d="M287.548 197.953H106.97V206.341H287.548V197.953Z" fill="#E76F51" stroke="#2E353A" stroke-linecap="round" stroke-linejoin="round"/>
<path opacity="0.3" d="M287.548 197.953H200.292V206.341H287.548V197.953Z" fill="black"/>
<path d="M360.614 52.0391H324.375V77.4961H360.614V52.0391Z" fill="#2E353A" stroke="#2E353A" stroke-linecap="round" stroke-linejoin="round"/>
<path d="M327.313 52.0391H319.483V131.363H327.313V52.0391Z" fill="white" stroke="#2E353A" stroke-linecap="round" stroke-linejoin="round"/>
<path d="M323.391 142.127C328.259 142.127 332.205 138.181 332.205 133.314C332.205 128.446 328.259 124.5 323.391 124.5C318.523 124.5 314.577 128.446 314.577 133.314C314.577 138.181 318.523 142.127 323.391 142.127Z" fill="#2E353A" stroke="#2E353A" stroke-linecap="round" stroke-linejoin="round"/>
<path d="M194.138 102.359C214.586 112.745 250.134 129.388 282.921 137.761" stroke="white" stroke-linecap="round" stroke-linejoin="round" stroke-dasharray="2 4"/>
<path d="M176.98 93.3281C176.98 93.3281 183.532 97.0299 194.138 102.421" stroke="#2E353A" stroke-linecap="round" stroke-linejoin="round" stroke-dasharray="2 4"/>
<path d="M169.621 92.7829L184.325 57.8511L77.6934 31.8359L169.621 92.7829Z" fill="white" stroke="#2E353A" stroke-width="1.2629" stroke-linecap="round" stroke-linejoin="round"/>
<path d="M176.789 62.0817L169.621 92.7829L77.6934 31.8359L176.789 62.0817Z" fill="#92E3A9" stroke="#2E353A" stroke-width="1.2629" stroke-linecap="round" stroke-linejoin="round"/>
<path d="M176.789 62.0817L160.058 76.4187L77.6934 31.8359L176.789 62.0817Z" fill="white" stroke="#2E353A" stroke-width="1.2629" stroke-linecap="round" stroke-linejoin="round"/>
<path d="M184.325 57.8511L199.22 51.799L77.6934 31.8359L184.325 57.8511Z" fill="white" stroke="#2E353A" stroke-width="1.2629" stroke-linecap="round" stroke-linejoin="round"/>
<path d="M148.908 87.3516L152.36 89.4669" stroke="#2E353A" stroke-linecap="round" stroke-linejoin="round"/>
<path d="M130.076 75.8047L141.637 82.8851" stroke="#2E353A" stroke-linecap="round" stroke-linejoin="round"/>
<path d="M117.091 159.65V121.766L225.47 139.187L117.091 159.65Z" fill="white" stroke="#2E353A" stroke-width="1.2629" stroke-linecap="round" stroke-linejoin="round"/>
<path d="M122.394 128.578L117.091 159.647L225.47 139.184L122.394 128.578Z" fill="#92E3A9" stroke="#2E353A" stroke-width="1.2629" stroke-linecap="round" stroke-linejoin="round"/>
<path d="M122.394 128.578L132.25 148.277L225.47 139.184L122.394 128.578Z" fill="white" stroke="#2E353A" stroke-width="1.2629" stroke-linecap="round" stroke-linejoin="round"/>
<path d="M117.09 121.768L105.721 110.398L225.47 139.19L117.09 121.768Z" fill="white" stroke="#2E353A" stroke-width="1.2629" stroke-linecap="round" stroke-linejoin="round"/>
<path d="M155.9 158.941L165.302 157.031" stroke="#2E353A" stroke-linecap="round" stroke-linejoin="round"/>
<path d="M122.879 165.655L146.514 160.852" stroke="#2E353A" stroke-linecap="round" stroke-linejoin="round"/>
<path d="M104.032 157.312C104.032 157.312 18.8323 172.002 2.67381 248.388C-13.4847 324.773 71.7147 329.18 86.4043 292.456C101.094 255.733 36.4598 241.043 21.7702 276.298C7.08068 311.553 51.1493 371.78 111.377 374.718C161.424 377.156 301.738 318.736 389.009 303.973C389.009 303.973 453.643 286.081 553.532 290.003" stroke="#2E353A" stroke-linecap="round" stroke-linejoin="round" stroke-dasharray="2 4"/>
<path d="M524.638 396.758H549.125" stroke="#2E353A" stroke-linecap="round" stroke-linejoin="round"/>
<path d="M524.638 432.977H549.125" stroke="#2E353A" stroke-linecap="round" stroke-linejoin="round"/>
<path d="M9.03418 432.012H521.7V397.727H9.03418" fill="white"/>
<path d="M9.03418 432.012H521.7V397.727H9.03418" stroke="#2E353A" stroke-linecap="round" stroke-linejoin="round"/>
<path d="M44.6709 495.177V322.693C44.6712 322.27 44.7573 321.851 44.9239 321.462C45.0905 321.073 45.3343 320.722 45.6404 320.43L59.0373 307.812C59.6406 307.248 60.4424 306.945 61.268 306.97C62.0935 306.995 62.8758 307.345 63.4442 307.944L75.1958 320.445C75.7289 321.027 76.0273 321.786 76.0331 322.575V495.177" fill="#2E353A"/>
<path d="M44.6709 495.177V322.693C44.6712 322.27 44.7573 321.851 44.9239 321.462C45.0905 321.073 45.3343 320.722 45.6404 320.43L59.0373 307.812C59.6406 307.248 60.4424 306.945 61.268 306.97C62.0935 306.995 62.8758 307.345 63.4442 307.944L75.1958 320.445C75.7289 321.027 76.0273 321.786 76.0331 322.575V495.177" stroke="#2E353A" stroke-linecap="round" stroke-linejoin="round"/>
<path d="M40.8662 496.644V322.691C40.8658 322.266 40.953 321.846 41.1223 321.457C41.2917 321.068 41.5395 320.718 41.8504 320.429L55.2473 307.81C55.5451 307.529 55.8955 307.31 56.2783 307.164C56.6611 307.019 57.0688 306.95 57.4781 306.962C57.8875 306.975 58.2904 307.068 58.6638 307.236C59.0372 307.404 59.3737 307.644 59.6542 307.943L71.4058 320.443C71.9451 321.021 72.2445 321.783 72.2431 322.573V496.644" fill="white"/>
<path d="M40.8662 496.644V322.691C40.8658 322.266 40.953 321.846 41.1223 321.457C41.2917 321.068 41.5395 320.718 41.8504 320.429L55.2473 307.81C55.5451 307.529 55.8955 307.31 56.2783 307.164C56.6611 307.019 57.0688 306.95 57.4781 306.962C57.8875 306.975 58.2904 307.068 58.6638 307.236C59.0372 307.404 59.3737 307.644 59.6542 307.943L71.4058 320.443C71.9451 321.021 72.2445 321.783 72.2431 322.573V496.644" stroke="#2E353A" stroke-linecap="round" stroke-linejoin="round"/>
<path d="M157.634 495.176V322.691C157.634 322.268 157.72 321.849 157.887 321.46C158.053 321.072 158.297 320.721 158.603 320.429L172.015 307.81C172.313 307.529 172.663 307.31 173.046 307.164C173.429 307.019 173.836 306.95 174.246 306.962C174.655 306.975 175.058 307.068 175.431 307.236C175.805 307.404 176.141 307.644 176.422 307.943L188.173 320.443C188.713 321.021 189.012 321.783 189.011 322.573V495.176" fill="#2E353A"/>
<path d="M157.634 495.176V322.691C157.634 322.268 157.72 321.849 157.887 321.46C158.053 321.072 158.297 320.721 158.603 320.429L172.015 307.81C172.313 307.529 172.663 307.31 173.046 307.164C173.429 307.019 173.836 306.95 174.246 306.962C174.655 306.975 175.058 307.068 175.431 307.236C175.805 307.404 176.141 307.644 176.422 307.943L188.173 320.443C188.713 321.021 189.012 321.783 189.011 322.573V495.176" stroke="#2E353A" stroke-linecap="round" stroke-linejoin="round"/>
<path d="M154.461 496.646V322.693C154.461 322.268 154.548 321.848 154.717 321.459C154.886 321.07 155.134 320.719 155.445 320.43L168.842 307.812C169.445 307.248 170.247 306.945 171.073 306.97C171.898 306.995 172.68 307.345 173.249 307.944L185.001 320.445C185.544 321.022 185.848 321.783 185.853 322.575V496.646" fill="white"/>
<path d="M154.461 496.646V322.693C154.461 322.268 154.548 321.848 154.717 321.459C154.886 321.07 155.134 320.719 155.445 320.43L168.842 307.812C169.445 307.248 170.247 306.945 171.073 306.97C171.898 306.995 172.68 307.345 173.249 307.944L185.001 320.445C185.544 321.022 185.848 321.783 185.853 322.575V496.646" stroke="#2E353A" stroke-linecap="round" stroke-linejoin="round"/>
<path d="M271.229 495.177V322.693C271.228 322.268 271.315 321.848 271.485 321.459C271.654 321.07 271.902 320.719 272.213 320.43L285.61 307.812C286.213 307.248 287.015 306.945 287.84 306.97C288.666 306.995 289.448 307.345 290.016 307.944L301.768 320.445C302.311 321.022 302.616 321.783 302.62 322.575V496.646" fill="#2E353A"/>
<path d="M271.229 495.177V322.693C271.228 322.268 271.315 321.848 271.485 321.459C271.654 321.07 271.902 320.719 272.213 320.43L285.61 307.812C286.213 307.248 287.015 306.945 287.84 306.97C288.666 306.995 289.448 307.345 290.016 307.944L301.768 320.445C302.311 321.022 302.616 321.783 302.62 322.575V496.646" stroke="#2E353A" stroke-linecap="round" stroke-linejoin="round"/>
<path d="M268.069 496.644V322.691C268.07 322.268 268.156 321.849 268.322 321.46C268.489 321.072 268.733 320.721 269.039 320.429L282.45 307.81C282.748 307.529 283.099 307.31 283.481 307.164C283.864 307.019 284.272 306.95 284.681 306.962C285.091 306.975 285.494 307.068 285.867 307.236C286.24 307.404 286.577 307.644 286.857 307.943L298.609 320.443C299.148 321.021 299.448 321.783 299.446 322.573V496.644" fill="white"/>
<path d="M268.069 496.644V322.691C268.07 322.268 268.156 321.849 268.322 321.46C268.489 321.072 268.733 320.721 269.039 320.429L282.45 307.81C282.748 307.529 283.099 307.31 283.481 307.164C283.864 307.019 284.272 306.95 284.681 306.962C285.091 306.975 285.494 307.068 285.867 307.236C286.24 307.404 286.577 307.644 286.857 307.943L298.609 320.443C299.148 321.021 299.448 321.783 299.446 322.573V496.644" stroke="#2E353A" stroke-linecap="round" stroke-linejoin="round"/>
<path d="M384.837 495.177V322.693C384.837 322.27 384.923 321.851 385.09 321.462C385.257 321.073 385.5 320.722 385.806 320.43L399.203 307.812C399.807 307.248 400.608 306.945 401.434 306.97C402.26 306.995 403.042 307.345 403.61 307.944L415.362 320.445C415.895 321.027 416.193 321.786 416.199 322.575V495.177" fill="#2E353A"/>
<path d="M384.837 495.177V322.693C384.837 322.27 384.923 321.851 385.09 321.462C385.257 321.073 385.5 320.722 385.806 320.43L399.203 307.812C399.807 307.248 400.608 306.945 401.434 306.97C402.26 306.995 403.042 307.345 403.61 307.944L415.362 320.445C415.895 321.027 416.193 321.786 416.199 322.575V495.177" stroke="#2E353A" stroke-linecap="round" stroke-linejoin="round"/>
<path d="M381.664 496.644V322.691C381.664 322.266 381.751 321.846 381.92 321.457C382.09 321.068 382.337 320.718 382.648 320.429L396.045 307.81C396.343 307.529 396.693 307.31 397.076 307.164C397.459 307.019 397.867 306.95 398.276 306.962C398.685 306.975 399.088 307.068 399.462 307.236C399.835 307.404 400.172 307.644 400.452 307.943L412.204 320.443C412.743 321.021 413.042 321.783 413.041 322.573V496.644" fill="white"/>
<path d="M381.664 496.644V322.691C381.664 322.266 381.751 321.846 381.92 321.457C382.09 321.068 382.337 320.718 382.648 320.429L396.045 307.81C396.343 307.529 396.693 307.31 397.076 307.164C397.459 307.019 397.867 306.95 398.276 306.962C398.685 306.975 399.088 307.068 399.462 307.236C399.835 307.404 400.172 307.644 400.452 307.943L412.204 320.443C412.743 321.021 413.042 321.783 413.041 322.573V496.644" stroke="#2E353A" stroke-linecap="round" stroke-linejoin="round"/>
<path d="M498.432 495.176V322.691C498.432 322.268 498.518 321.849 498.685 321.46C498.851 321.072 499.095 320.721 499.401 320.429L512.813 307.81C513.111 307.529 513.461 307.31 513.844 307.164C514.227 307.019 514.634 306.95 515.044 306.962C515.453 306.975 515.856 307.068 516.229 307.236C516.603 307.404 516.939 307.644 517.22 307.943L528.971 320.443C529.511 321.021 529.81 321.783 529.809 322.573V495.176" fill="#2E353A"/>
<path d="M498.432 495.176V322.691C498.432 322.268 498.518 321.849 498.685 321.46C498.851 321.072 499.095 320.721 499.401 320.429L512.813 307.81C513.111 307.529 513.461 307.31 513.844 307.164C514.227 307.019 514.634 306.95 515.044 306.962C515.453 306.975 515.856 307.068 516.229 307.236C516.603 307.404 516.939 307.644 517.22 307.943L528.971 320.443C529.511 321.021 529.81 321.783 529.809 322.573V495.176" stroke="#2E353A" stroke-linecap="round" stroke-linejoin="round"/>
<path d="M495.259 496.646V322.693C495.258 322.268 495.346 321.848 495.515 321.459C495.684 321.07 495.932 320.719 496.243 320.43L509.64 307.812C510.243 307.248 511.045 306.945 511.871 306.97C512.696 306.995 513.478 307.345 514.047 307.944L525.798 320.445C526.342 321.022 526.646 321.783 526.65 322.575V496.646" fill="white"/>
<path d="M495.259 496.646V322.693C495.258 322.268 495.346 321.848 495.515 321.459C495.684 321.07 495.932 320.719 496.243 320.43L509.64 307.812C510.243 307.248 511.045 306.945 511.871 306.97C512.696 306.995 513.478 307.345 514.047 307.944L525.798 320.445C526.342 321.022 526.646 321.783 526.65 322.575V496.646" stroke="#2E353A" stroke-linecap="round" stroke-linejoin="round"/>
<path d="M59.6396 307.945V320.52" stroke="#2E353A" stroke-linecap="round" stroke-linejoin="round"/>
<path d="M64.6777 314.438V344.199" stroke="#2E353A" stroke-linecap="round" stroke-linejoin="round"/>
<path d="M160.646 316.875V354.524" stroke="#2E353A" stroke-linecap="round" stroke-linejoin="round"/>
<path d="M165.507 312.008V328.401" stroke="#2E353A" stroke-linecap="round" stroke-linejoin="round"/>
<path d="M282.451 307.812V344.815" stroke="#2E353A" stroke-linecap="round" stroke-linejoin="round"/>
<path d="M289.429 310.789V365.464" stroke="#2E353A" stroke-linecap="round" stroke-linejoin="round"/>
<path d="M387.217 316.875V358.167" stroke="#2E353A" stroke-linecap="round" stroke-linejoin="round"/>
<path d="M403.008 312.008V322.335" stroke="#2E353A" stroke-linecap="round" stroke-linejoin="round"/>
<path d="M505.658 311.398V333.271" stroke="#2E353A" stroke-linecap="round" stroke-linejoin="round"/>
<path d="M519.026 313.836V377.001" stroke="#2E353A" stroke-linecap="round" stroke-linejoin="round"/>
<path d="M494.73 406.156H481.362" stroke="#2E353A" stroke-linecap="round" stroke-linejoin="round"/>
<path d="M494.73 416.484H447.958" stroke="#2E353A" stroke-linecap="round" stroke-linejoin="round"/>
<path d="M320.394 416.484H299.139" stroke="#2E353A" stroke-linecap="round" stroke-linejoin="round"/>
<path d="M208.636 416.484H187.38" stroke="#2E353A" stroke-linecap="round" stroke-linejoin="round"/>
<path d="M40.3818 411.016H19.126" stroke="#2E353A" stroke-linecap="round" stroke-linejoin="round"/>
<path d="M40.3812 420.727H31.876" stroke="#2E353A" stroke-linecap="round" stroke-linejoin="round"/>
<path d="M309.465 411.016H299.139" stroke="#2E353A" stroke-linecap="round" stroke-linejoin="round"/>
<path d="M196.488 422.547H186.161" stroke="#2E353A" stroke-linecap="round" stroke-linejoin="round"/>
<path d="M153.359 422.547H143.032" stroke="#2E353A" stroke-linecap="round" stroke-linejoin="round"/>
<path d="M536.022 416.484H526.914" stroke="#2E353A" stroke-linecap="round" stroke-linejoin="round"/>
<path d="M548.171 416.484H542.706" stroke="#2E353A" stroke-linecap="round" stroke-linejoin="round"/>
<path d="M71.7146 353.336C71.7146 353.336 68.0422 384.904 63.6353 417.206C59.2285 449.508 67.3077 482.56 69.5112 485.498" stroke="#2E353A" stroke-linecap="round" stroke-linejoin="round"/>
<path d="M57.1865 417.236C57.8916 410.934 58.4792 406.953 58.4792 406.953" stroke="#2E353A" stroke-linecap="round" stroke-linejoin="round"/>
<path d="M68.0272 481.82C68.0272 481.82 54.8066 478.882 54.8066 455.379C54.8066 445.728 55.4236 435.842 56.1581 427.469" stroke="#2E353A" stroke-linecap="round" stroke-linejoin="round"/>
<path d="M178.949 315.875C178.949 315.875 181.886 318.078 176.745 343.051C171.604 368.023 172.338 404.747 178.949 425.312" stroke="#2E353A" stroke-linecap="round" stroke-linejoin="round"/>
<path d="M186.293 362.148C186.293 362.148 178.948 384.183 184.089 415.031" stroke="#2E353A" stroke-linecap="round" stroke-linejoin="round"/>
<path d="M270.024 376.086C270.024 376.086 273.696 397.386 277.368 419.405C281.041 441.425 278.103 472.288 275.165 480.352C272.227 488.417 269.289 495.042 269.289 495.042" stroke="#2E353A" stroke-linecap="round" stroke-linejoin="round"/>
<path d="M283.861 484.244C280.586 494.292 276.517 482.555 276.517 482.555" stroke="#2E353A" stroke-linecap="round" stroke-linejoin="round"/>
<path d="M283.729 409.156C283.729 409.156 290.647 444.867 286.74 471.748" stroke="#2E353A" stroke-linecap="round" stroke-linejoin="round"/>
<path d="M268.555 420.906C268.555 420.906 275.899 436.33 269.289 451.02" stroke="#2E353A" stroke-linecap="round" stroke-linejoin="round"/>
<path d="M405.608 423.078C406.591 427.568 407.882 431.986 409.472 436.299" stroke="#2E353A" stroke-linecap="round" stroke-linejoin="round"/>
<path d="M411.675 346.727C407.014 361.521 404.057 376.799 402.861 392.264C402.422 400.089 402.861 407.938 404.168 415.665" stroke="#2E353A" stroke-linecap="round" stroke-linejoin="round"/>
<path d="M397.72 414.266C397.72 414.266 404.33 439.238 408.002 448.052C411.675 456.865 410.206 478.15 405.799 488.433" stroke="#2E353A" stroke-linecap="round" stroke-linejoin="round"/>
<path d="M496.845 357.742C496.845 357.742 511.534 384.183 497.579 427.503" stroke="#2E353A" stroke-linecap="round" stroke-linejoin="round"/>
<path d="M510.344 402.898C510.433 411.154 509.698 421.613 506.393 430.427C499.783 448.054 496.845 453.93 496.845 453.93" stroke="#2E353A" stroke-linecap="round" stroke-linejoin="round"/>
<path d="M509.331 388.586C509.331 388.586 509.816 391.744 510.11 396.606" stroke="#2E353A" stroke-linecap="round" stroke-linejoin="round"/>
</svg>
