<svg width="284" height="345" viewBox="0 0 284 345" fill="none" xmlns="http://www.w3.org/2000/svg">
<path d="M194.138 71.3594C214.586 81.7449 250.134 98.3882 282.921 106.761" stroke="#E76F51" stroke-linecap="round" stroke-linejoin="round" stroke-dasharray="2 4"/>
<path d="M176.98 62.3281C176.98 62.3281 183.532 66.0299 194.138 71.421" stroke="#E76F51" stroke-linecap="round" stroke-linejoin="round" stroke-dasharray="2 4"/>
<path d="M169.621 61.7829L184.325 26.8511L77.6934 0.835938L169.621 61.7829Z" fill="white" stroke="#2E353A" stroke-width="1.2629" stroke-linecap="round" stroke-linejoin="round"/>
<path d="M176.789 31.0817L169.621 61.7829L77.6934 0.835938L176.789 31.0817Z" fill="#2A9D8F" stroke="#2E353A" stroke-width="1.2629" stroke-linecap="round" stroke-linejoin="round"/>
<path d="M176.789 31.0817L160.058 45.4187L77.6934 0.835938L176.789 31.0817Z" fill="white" stroke="#2E353A" stroke-width="1.2629" stroke-linecap="round" stroke-linejoin="round"/>
<path d="M184.325 26.8511L199.22 20.799L77.6934 0.835938L184.325 26.8511Z" fill="white" stroke="#2E353A" stroke-width="1.2629" stroke-linecap="round" stroke-linejoin="round"/>
<path d="M148.908 56.3516L152.36 58.4669" stroke="#E76F51" stroke-linecap="round" stroke-linejoin="round"/>
<path d="M130.076 44.8047L141.637 51.8851" stroke="#E76F51" stroke-linecap="round" stroke-linejoin="round"/>
<path d="M117.091 128.65V90.7656L225.47 108.187L117.091 128.65Z" fill="white" stroke="#2E353A" stroke-width="1.2629" stroke-linecap="round" stroke-linejoin="round"/>
<path d="M122.394 97.5781L117.091 128.647L225.47 108.184L122.394 97.5781Z" fill="#2A9D8F" stroke="#2E353A" stroke-width="1.2629" stroke-linecap="round" stroke-linejoin="round"/>
<path d="M122.394 97.5781L132.25 117.277L225.47 108.184L122.394 97.5781Z" fill="white" stroke="#2E353A" stroke-width="1.2629" stroke-linecap="round" stroke-linejoin="round"/>
<path d="M117.09 90.7682L105.721 79.3984L225.47 108.19L117.09 90.7682Z" fill="white" stroke="#2E353A" stroke-width="1.2629" stroke-linecap="round" stroke-linejoin="round"/>
<path d="M155.9 127.941L165.302 126.031" stroke="#E76F51" stroke-linecap="round" stroke-linejoin="round"/>
<path d="M122.879 134.655L146.514 129.852" stroke="#E76F51" stroke-linecap="round" stroke-linejoin="round"/>
<path d="M104.032 126.312C104.032 126.312 18.8323 141.002 2.67381 217.388C-13.4847 293.773 71.7147 298.18 86.4043 261.456C101.094 224.733 36.4598 210.043 21.7702 245.298C7.08068 280.553 51.1493 340.78 111.377 343.718" stroke="#E76F51" stroke-linecap="round" stroke-linejoin="round" stroke-dasharray="2 4"/>
</svg>
