<svg width="329" height="400" viewBox="0 0 329 400" fill="none" xmlns="http://www.w3.org/2000/svg">
<path d="M189.933 206.995C224.899 172.029 224.899 115.338 189.933 80.3725C154.967 45.4068 98.2768 45.4068 63.3111 80.3725C28.3453 115.338 28.3453 172.029 63.3111 206.995C98.2768 241.96 154.967 241.96 189.933 206.995Z" fill="#E0E0E0"/>
<path d="M177.919 22.6669C176.354 24.6314 175.399 27.0121 175.172 29.5141C174.946 32.0161 175.459 34.5295 176.647 36.7431C177.767 38.754 179.472 40.5612 179.727 42.8394C180.147 46.543 176.558 49.8775 177.181 53.5683C177.576 56.1138 179.727 57.8574 180.898 60.1101C181.621 61.5751 181.913 63.2157 181.74 64.8405C181.566 66.4652 180.934 68.0071 179.918 69.2863C178.289 71.2718 175.73 72.5318 174.674 74.8863C173.885 76.6172 174.076 78.7044 173.401 80.4481C172.8 81.8132 171.856 82.9995 170.661 83.8916C169.465 84.7837 168.059 85.3512 166.58 85.5389C163.604 85.8964 160.588 85.7284 157.671 85.0425L158.32 81.8226C157.768 82.6777 157.016 83.3854 156.129 83.8843C155.242 84.3833 154.246 84.6585 153.229 84.6862C151.191 84.7268 149.16 84.4257 147.222 83.7953C146.013 78.3353 144.829 72.57 146.534 67.25C148.087 62.4646 151.752 58.7228 154.807 54.7265C158.198 50.2896 160.913 45.3744 162.863 40.1412C164.263 36.3867 165.269 32.5049 167.229 28.9413C169.189 25.3777 172.32 22.2978 176.239 21.5469" fill="#263238"/>
<path d="M236.146 97.8732L218.43 99.1459L218.252 94.5896C218.016 92.3318 218.554 90.0608 219.779 88.1496C219.975 87.8133 220.117 87.4482 220.199 87.0678C220.326 85.7187 218.341 78.9479 217.654 76.4661C216.788 73.488 218.481 71.9098 219.143 73.1316C220.339 75.3589 223.508 84.9169 224.501 85.8587C225.494 86.8006 224.921 81.7988 224.921 81.7988C223.368 71.2734 222.694 69.7462 224.565 69.3517C226.715 68.8935 229.083 84.5606 229.083 84.5606C229.083 84.5606 228.764 82.3715 230.444 81.9261C232.124 81.4806 232.901 83.6315 232.901 83.6315C232.684 82.5242 234.275 82.3588 234.275 82.3588C238.246 82.9061 236.184 98.0132 236.184 98.0132L218.468 99.2859L209.979 158.531L200.918 144.645L177.271 161.522L198.588 186.976C200.44 189.179 202.77 190.931 205.402 192.098C208.033 193.265 210.896 193.816 213.772 193.708C218.475 193.538 222.943 191.615 226.301 188.319C229.659 185.022 231.664 180.589 231.921 175.89L236.146 97.8732Z" fill="#EB996E"/>
<path d="M222.286 98.0368C222.21 97.9477 223.151 97.1204 224.411 95.5677C225.143 94.659 225.807 93.6976 226.397 92.6914C226.75 92.0971 227.073 91.4854 227.364 90.8587C227.722 90.273 227.932 89.609 227.975 88.9241C227.97 88.7652 227.92 88.611 227.829 88.4801C227.739 88.3492 227.613 88.247 227.466 88.186C227.118 88.1275 226.76 88.1856 226.448 88.3514C225.752 88.6787 225.091 89.0753 224.475 89.535C223.479 90.288 222.619 91.2046 221.93 92.2459L221.726 92.5386L221.573 92.2332C221.209 91.5769 220.735 90.9873 220.173 90.4896C220.173 90.4896 221.141 90.7187 221.968 92.0932H221.612C222.263 90.9553 223.128 89.953 224.157 89.1405C224.8 88.6415 225.495 88.2147 226.231 87.8678C226.684 87.6283 227.207 87.5562 227.708 87.6641C227.977 87.759 228.212 87.9297 228.386 88.1556C228.56 88.3814 228.665 88.6528 228.688 88.9369C228.665 89.7557 228.428 90.5542 228.001 91.2532C227.691 91.8866 227.347 92.5027 226.97 93.0986C226.341 94.1204 225.621 95.0831 224.819 95.975C224.092 96.7955 223.237 97.4919 222.286 98.0368Z" fill="#D1734A"/>
<path d="M229.299 85.3971C229.406 86.4804 229.406 87.5718 229.299 88.6552C229.299 89.7243 229.184 90.9079 229.108 92.1679C229.057 92.8372 229.057 93.5094 229.108 94.1788C229.108 94.8024 229.706 95.337 230.151 95.0824C230.597 94.8279 230.851 94.0642 231.042 93.3897C231.233 92.7152 231.386 92.0406 231.526 91.3915C231.806 90.1188 232.009 88.9225 232.2 87.9425C232.326 86.8604 232.578 85.7968 232.951 84.7734C232.95 85.8618 232.852 86.9478 232.659 88.0189C232.531 89.0116 232.378 90.1952 232.124 91.5188C232.009 92.1679 231.857 92.8552 231.666 93.5679C231.605 93.987 231.461 94.3898 231.242 94.7526C231.024 95.1154 230.735 95.4309 230.393 95.6806C230.161 95.7868 229.901 95.8206 229.649 95.7774C229.397 95.7343 229.164 95.6163 228.98 95.4388C228.655 95.1313 228.456 94.7141 228.42 94.2679C228.38 93.5543 228.406 92.8386 228.497 92.1297C228.624 90.874 228.739 89.7031 228.84 88.617C228.881 87.5307 229.035 86.4516 229.299 85.3971Z" fill="#D1734A"/>
<path d="M232.327 89.9163C232.429 89.9163 232.175 90.6545 232.251 91.7999C232.274 92.4316 232.463 93.0461 232.798 93.5817C233.015 93.7981 233.167 93.8108 233.371 93.5817C233.6 93.236 233.796 92.8695 233.956 92.4872C234.764 90.479 235.399 88.4054 235.853 86.2891C236.052 88.5254 235.61 90.7722 234.58 92.7672C234.397 93.2124 234.171 93.6386 233.906 94.0399C233.812 94.1606 233.693 94.2588 233.556 94.3271C233.419 94.3954 233.269 94.4321 233.116 94.4344C232.971 94.4289 232.829 94.3919 232.699 94.326C232.569 94.26 232.456 94.1668 232.366 94.0526C232.111 93.7136 231.949 93.3147 231.895 92.8944C231.829 92.5592 231.799 92.2179 231.806 91.8763C231.767 90.5527 232.213 89.8781 232.327 89.9163Z" fill="#D1734A"/>
<path d="M157.721 201.292L159.376 227.052C108.989 246.359 71.5587 214.325 71.5587 214.325L79.0932 191.276L80.3659 151.033L70.6932 161.762L66.1242 157.944L43.0754 138.751L38.1245 134.615L62.0897 109.326C92.393 76.7064 115.976 86.6717 115.976 86.6717L151.409 89.9935C151.409 89.9935 175.921 93.468 187.783 114.951C197.443 132.439 207.955 150.956 207.955 150.956L177.588 172.593L167.929 154.851L157.721 201.292Z" fill="#264653"/>
<path d="M37.0928 143.343C37.0928 144.857 37.0928 146.359 37.1819 147.886C37.3909 153.862 38.2011 159.802 39.6 165.615V165.781C39.7782 166.506 39.9818 167.219 40.1855 167.932C40.9745 170.732 42.0182 173.201 43.0109 175.912C43.1382 176.255 43.2654 176.586 43.4054 176.93C46.6127 176.09 55.1271 168.021 65.5252 157.495L42.4509 138.252C39.4855 141.485 38.0855 142.961 37.0928 143.343Z" fill="#EB996E"/>
<path d="M148.189 93.3396C149.461 84.5579 150.9 75.3434 150.9 75.3434C150.9 75.3434 162.469 75.0252 166.847 60.5927C171.021 46.8219 173.21 13.9986 173.21 13.9986C165.627 9.66648 156.901 7.75677 148.202 8.52568C139.503 9.29459 131.247 12.7053 124.542 18.3004L115.633 89.7633C114.602 98.0486 120.914 105.545 129.811 106.589C138.783 107.632 147.056 101.701 148.189 93.3396Z" fill="#EB996E"/>
<path d="M165.498 38.8037C165.434 39.298 165.18 39.7482 164.791 40.0593C164.402 40.3704 163.907 40.518 163.41 40.471C163.166 40.4565 162.927 40.3934 162.708 40.2851C162.488 40.1769 162.293 40.0258 162.132 39.8407C161.972 39.6557 161.851 39.4404 161.775 39.2077C161.7 38.9749 161.671 38.7294 161.692 38.4855C161.759 37.9935 162.014 37.5465 162.403 37.238C162.792 36.9296 163.285 36.7837 163.779 36.831C164.023 36.8455 164.26 36.9083 164.479 37.0157C164.698 37.1232 164.893 37.2731 165.053 37.4568C165.212 37.6404 165.334 37.8542 165.411 38.0854C165.487 38.3167 165.517 38.5609 165.498 38.8037Z" fill="#263238"/>
<path d="M168.858 37.1114C168.591 37.3278 167.305 36.0678 165.269 35.8387C163.232 35.6096 161.591 36.386 161.451 36.106C161.311 35.826 161.654 35.5587 162.367 35.1769C163.334 34.6904 164.427 34.5127 165.498 34.6678C166.56 34.8131 167.548 35.2896 168.323 36.0296C168.845 36.5387 168.985 37.035 168.858 37.1114Z" fill="#263238"/>
<path d="M144.599 36.2967C144.535 36.7901 144.282 37.2391 143.892 37.5481C143.502 37.8572 143.007 38.0018 142.512 37.9513C142.268 37.9385 142.029 37.8768 141.81 37.77C141.591 37.6631 141.395 37.5132 141.235 37.3291C141.074 37.1451 140.953 36.9306 140.877 36.6986C140.801 36.4666 140.773 36.2217 140.794 35.9786C140.858 35.4842 141.111 35.034 141.5 34.723C141.89 34.4119 142.385 34.2643 142.881 34.3113C143.125 34.3274 143.363 34.3917 143.581 34.5005C143.8 34.6093 143.995 34.7604 144.155 34.9451C144.315 35.1298 144.436 35.3444 144.512 35.5764C144.589 35.8084 144.618 36.0532 144.599 36.2967Z" fill="#263238"/>
<path d="M147.501 34.9235C147.234 35.1398 145.948 33.8798 143.912 33.6508C141.876 33.4217 140.234 34.1853 140.094 33.9053C139.954 33.6253 140.297 33.3708 141.01 32.9889C141.977 32.5033 143.07 32.3256 144.141 32.4799C145.205 32.6156 146.197 33.0935 146.966 33.8417C147.475 34.3507 147.628 34.8344 147.501 34.9235Z" fill="#263238"/>
<path d="M152.809 51.0356C153.931 50.8471 155.073 50.8001 156.207 50.8956C156.729 50.8956 157.238 50.8956 157.378 50.5392C157.487 50.0066 157.438 49.4536 157.238 48.9483C156.919 47.6756 156.589 46.2247 156.245 44.7738C154.883 38.843 153.979 33.994 154.221 33.9303C154.463 33.8667 155.761 38.6521 157.11 44.5829C157.441 46.0465 157.747 47.4338 158.039 48.7702C158.281 49.4405 158.281 50.1743 158.039 50.8447C157.939 51.0173 157.801 51.1653 157.636 51.2776C157.471 51.3899 157.282 51.4638 157.085 51.4938C156.785 51.5322 156.481 51.5322 156.181 51.4938C155.043 51.4801 153.91 51.3262 152.809 51.0356Z" fill="#263238"/>
<path d="M150.874 75.3442C143.892 74.5033 137.282 71.7358 131.783 67.3516C131.783 67.3516 135.181 78.1442 150.136 78.806L150.874 75.3442Z" fill="#D1734A"/>
<path d="M157.912 9.44267C158.866 11.7717 157.365 14.5335 155.239 15.8062C152.997 16.9683 150.542 17.6612 148.023 17.8426C145.501 18.0407 143.089 18.9596 141.074 20.4898C137.612 23.6334 138.528 28.1261 135.028 32.2115C134.214 33.3595 133.095 34.2566 131.797 34.8009C130.499 35.3453 129.074 35.5152 127.685 35.2915C124.885 34.8969 121.258 35.546 119.845 38.7787C118.432 42.0114 120.138 44.3914 121.703 47.3568C123.269 50.3222 122.849 53.364 121.958 56.6094C121.321 58.9512 119.31 60.7839 118.865 63.1766C118.152 66.9948 121.41 71.2456 119.209 74.3765C117.007 77.5074 111.42 76.1201 108.963 79.0346C108.072 80.0655 107.563 81.5801 106.252 81.9873C105.437 82.102 104.607 81.9502 103.885 81.5546L92.4308 76.7056C92.7235 75.5219 93.0289 74.3256 93.3344 73.142C92.4878 74.0103 91.4466 74.6646 90.2969 75.0506C89.1472 75.4366 87.9221 75.5432 86.723 75.3615C85.524 75.1799 84.3854 74.7154 83.4015 74.0063C82.4177 73.2972 81.6169 72.3639 81.0654 71.2838C83.4654 69.8899 85.6876 68.2104 87.6836 66.282C89.654 64.3192 90.8513 61.7122 91.0562 58.9385C91.1708 55.5785 89.3508 52.1804 90.369 48.9859C91.8326 44.4168 98.0053 43.2714 100.729 39.3514C103.274 35.686 102.422 30.3661 105.056 26.7388C108.123 22.5389 114.601 22.348 118.114 18.5044C120.494 15.959 121.041 12.1408 122.772 9.04813C125.014 5.41268 128.516 2.73043 132.61 1.51367C136.678 0.326901 140.915 -0.167863 145.147 0.0500454C148.323 -0.0994243 151.487 0.534319 154.361 1.89548C157.123 3.43546 159.21 6.59179 158.561 9.69721" fill="#263238"/>
<path d="M127.685 35.3307C126.153 34.7735 124.496 34.6545 122.9 34.9871C122.102 35.1513 121.345 35.4721 120.672 35.9309C119.999 36.3897 119.424 36.9773 118.98 37.6598C118.165 39.0867 117.92 40.7686 118.293 42.3688C118.675 43.9561 119.405 45.4386 120.431 46.7088C121.088 47.6614 121.96 48.4461 122.976 48.9997C123.492 49.2781 124.07 49.4239 124.656 49.4239C125.243 49.4239 125.82 49.2781 126.336 48.9997" fill="#EB996E"/>
<path d="M125.496 44.7739C125.674 44.863 124.846 45.7284 123.459 45.1303C122.735 44.7745 122.175 44.1551 121.894 43.3994C121.574 42.5241 121.431 41.594 121.474 40.663C121.491 39.6722 121.861 38.72 122.517 37.9776C122.795 37.6618 123.141 37.4138 123.529 37.2527C123.918 37.0917 124.338 37.0218 124.757 37.0485C126.246 37.214 126.565 38.3212 126.399 38.3212C126.234 38.3212 125.763 37.8249 124.757 37.914C124.134 38.0633 123.584 38.4297 123.207 38.9474C122.829 39.465 122.648 40.1003 122.696 40.7394C122.696 42.3939 123.065 43.9594 123.879 44.4557C124.694 44.9521 125.419 44.6721 125.496 44.7739Z" fill="#D1734A"/>
<path d="M157.963 10.3053C157.383 11.897 157.37 13.64 157.927 15.2399C158.483 16.8399 159.575 18.1988 161.017 19.087C162.672 20.0416 164.708 20.3598 166.108 21.6325C167.411 23.0468 168.169 24.8782 168.246 26.7997C168.312 28.7008 168.669 30.5807 169.303 32.3742C169.651 33.259 170.275 34.0086 171.081 34.5126C171.888 35.0166 172.835 35.2485 173.783 35.1741L176.977 25.7433C178.148 22.2816 179.332 18.578 178.492 15.0016C177.295 9.91078 172.256 6.57627 167.216 5.18901C164.907 4.3688 162.382 4.39134 160.088 5.25265C157.899 6.28354 156.41 9.07079 157.543 11.2344" fill="#263238"/>
<path d="M96.5288 78.2346C96.5288 78.2346 96.8343 78.0055 97.2797 77.4328C97.8852 76.5786 98.246 75.5752 98.3233 74.531C98.3794 72.863 98.2857 71.1933 98.0433 69.542C97.9344 68.4716 98.0382 67.3903 98.3488 66.3602C98.713 65.2065 99.3256 64.1465 100.143 63.2548C101.811 61.3584 104.14 59.8821 106.151 57.8585C107.215 56.8551 108.007 55.5985 108.454 54.2058C108.829 52.7016 108.873 51.1339 108.581 49.6113C108.34 48.0077 107.932 46.3786 107.729 44.6605C107.473 42.8761 107.648 41.0565 108.238 39.3532C108.876 37.566 109.959 35.9706 111.384 34.7171C112.809 33.4636 114.529 32.5933 116.383 32.1879C120.125 31.3606 124.019 31.8697 127.074 30.2915C128.56 29.4863 129.738 28.2105 130.421 26.6643C131.077 25.146 131.617 23.5803 132.038 21.9807C132.452 20.4123 133.081 18.9089 133.908 17.5135C134.763 16.198 135.997 15.1729 137.447 14.5735C140.041 13.6996 142.796 13.4084 145.516 13.7208C147.711 13.9359 149.927 13.8071 152.083 13.339C153.693 12.9571 155.179 12.1683 156.397 11.0481C157.087 10.26 157.53 9.28619 157.67 8.24812C157.797 7.54813 157.797 7.15359 157.835 7.16631C157.875 7.53435 157.875 7.90554 157.835 8.27358C157.728 9.36595 157.283 10.3978 156.563 11.2263C155.334 12.4246 153.811 13.2765 152.146 13.6953C149.959 14.2109 147.703 14.3742 145.465 14.179C142.817 13.9023 140.14 14.2108 137.625 15.0826C136.285 15.6472 135.149 16.606 134.367 17.8317C133.577 19.1855 132.977 20.6416 132.585 22.1589C132.162 23.7925 131.618 25.3921 130.956 26.9443C130.581 27.7563 130.093 28.5106 129.505 29.1843C128.886 29.8648 128.154 30.4331 127.341 30.8642C123.956 32.5569 120.074 32.0224 116.485 32.8369C114.752 33.2322 113.147 34.0573 111.817 35.2361C110.487 36.415 109.475 37.9096 108.874 39.5823C108.312 41.1905 108.142 42.9096 108.378 44.5968C108.569 46.2641 108.963 47.8931 109.205 49.5349C109.508 51.1437 109.451 52.7996 109.04 54.384C108.548 55.843 107.7 57.1556 106.571 58.2021C104.471 60.2766 102.141 61.7148 100.512 63.5221C99.7623 64.3098 99.1892 65.2488 98.8314 66.276C98.4737 67.3033 98.3395 68.3951 98.4379 69.4784C98.6602 71.1658 98.7156 72.8709 98.6033 74.5692C98.4945 75.6491 98.0843 76.6766 97.4197 77.5346C97.1696 77.8221 96.8673 78.0597 96.5288 78.2346Z" fill="#264653"/>
<path d="M164.746 85.6425C164.959 85.43 165.159 85.2048 165.345 84.968C165.815 84.2467 166.079 83.4104 166.108 82.5498C166.21 81.4298 165.917 80.0044 165.994 78.4008C166.217 76.5187 166.997 74.7461 168.234 73.3099C169.417 71.6681 170.995 69.9627 171.415 67.6718C171.835 65.3809 170.856 62.9246 170.372 60.2519C170.09 58.846 170.147 57.3934 170.537 56.0138C171.011 54.6381 171.675 53.3357 172.51 52.1447C173.325 50.872 174.228 49.7266 174.928 48.4284C175.691 47.1543 176.128 45.7117 176.201 44.2284C176.141 42.7458 175.65 41.3129 174.788 40.1048C173.917 38.861 173.211 37.509 172.688 36.0831C171.823 33.1176 172.497 30.2159 172.688 27.5813C172.827 26.3106 172.801 25.0273 172.612 23.7632C172.425 22.5777 171.954 21.4552 171.237 20.4923C169.801 18.8444 168.037 17.5137 166.057 16.5851C164.391 15.7902 162.805 14.8354 161.323 13.7342C160.183 12.8969 159.226 11.8359 158.51 10.6161C158.068 9.83645 157.811 8.9655 157.759 8.07065C157.736 7.76373 157.757 7.45501 157.823 7.1543C157.823 7.1543 157.823 7.47247 157.899 8.05792C157.998 8.91598 158.285 9.74168 158.739 10.4761C159.465 11.6303 160.407 12.633 161.514 13.4288C163 14.4848 164.581 15.4008 166.236 16.1651C168.302 17.0921 170.146 18.4504 171.645 20.1487C172.435 21.163 172.964 22.3563 173.185 23.6232C173.395 24.9448 173.433 26.2881 173.299 27.6195C173.121 30.3049 172.497 33.1558 173.299 35.8794C173.811 37.2342 174.496 38.5174 175.335 39.6976C176.27 41.0047 176.797 42.5589 176.85 44.1648C176.778 45.7604 176.31 47.3131 175.488 48.6829C174.75 50.032 173.846 51.2284 173.045 52.5011C172.224 53.6495 171.573 54.9095 171.11 56.2428C170.734 57.5245 170.673 58.878 170.932 60.1883C171.365 62.7337 172.395 65.2791 171.912 67.8245C171.665 68.9908 171.185 70.0949 170.499 71.07C169.863 72.0118 169.226 72.839 168.577 73.6154C167.376 74.9621 166.594 76.6293 166.325 78.4135C166.21 79.9917 166.465 81.4044 166.325 82.5626C166.264 83.4567 165.946 84.3142 165.408 85.0316C165.239 85.2845 165.012 85.4938 164.746 85.6425Z" fill="#264653"/>
<path d="M83.5352 72.2636C83.5352 72.2636 83.9551 72.2636 84.7442 72.3527C85.8976 72.3771 87.0429 72.1558 88.1042 71.7036C89.8044 71.0098 91.2706 69.8439 92.3296 68.3437C93.6793 66.3398 94.4661 64.0102 94.6078 61.5983C94.9132 58.9256 94.2387 56.0238 94.1623 52.7784C94.0738 51.0773 94.4476 49.3841 95.2441 47.8784C96.3019 46.4251 97.6774 45.2324 99.2659 44.3912C100.849 43.5674 102.138 42.2736 102.957 40.6876C103.541 38.9018 103.816 37.0296 103.771 35.1513C103.792 33.1255 104.18 31.1203 104.917 29.2332C105.317 28.2538 105.9 27.3597 106.635 26.5987C107.458 25.8703 108.475 25.3972 109.562 25.2369C111.675 24.8678 113.724 25.0841 115.697 24.8678C117.611 24.7298 119.415 23.9182 120.787 22.5769C122.105 21.2394 123.189 19.6907 123.995 17.9951C124.847 16.3406 125.509 14.6352 126.324 13.0061C127.079 11.4019 128.041 9.90422 129.187 8.55159C130.278 7.23941 131.716 6.26035 133.336 5.72617C134.871 5.28659 136.498 5.28659 138.033 5.72617C139.408 6.11566 140.749 6.61797 142.042 7.22797C144.173 8.37362 146.5 9.11169 148.902 9.40431C150.725 9.49327 152.548 9.21185 154.26 8.57704C155.722 8.02959 157.091 7.26128 158.32 6.29888C158.049 6.60226 157.746 6.87538 157.416 7.11342C156.477 7.82082 155.445 8.39475 154.349 8.81886C152.615 9.51116 150.755 9.83618 148.889 9.7734C146.435 9.51611 144.052 8.7994 141.864 7.66069C140.589 7.06571 139.265 6.58446 137.905 6.22252C136.467 5.80881 134.941 5.80881 133.502 6.22252C131.984 6.74131 130.641 7.67093 129.62 8.90795C128.521 10.2348 127.597 11.6977 126.871 13.2606C125.331 16.417 124.135 20.1842 121.233 23.0223C120.488 23.7389 119.628 24.3241 118.688 24.7532C117.737 25.1606 116.727 25.4141 115.697 25.5041C113.648 25.7205 111.586 25.5041 109.613 25.8605C108.668 26.0083 107.785 26.4234 107.068 27.0568C106.397 27.7588 105.862 28.5786 105.489 29.475C104.795 31.2929 104.425 33.2183 104.395 35.164C104.434 37.1178 104.137 39.0637 103.517 40.9167C102.644 42.6137 101.266 43.9971 99.5714 44.8748C98.0707 45.6668 96.7661 46.7844 95.7532 48.1457C95.0015 49.5608 94.6454 51.1524 94.7223 52.7529C94.7223 55.8838 95.4223 58.8747 95.0914 61.6619C94.9094 64.1426 94.0655 66.529 92.6478 68.5727C91.5364 70.0963 90.0131 71.2709 88.2569 71.9582C87.1591 72.3995 85.9756 72.5866 84.7951 72.5054C84.3665 72.4797 83.9429 72.3984 83.5352 72.2636Z" fill="#264653"/>
<path d="M177.067 23.7497C176.962 22.4697 176.603 21.2236 176.01 20.0843C175.313 18.8859 174.393 17.8318 173.3 16.9788C171.935 15.956 170.452 15.1013 168.883 14.4334C167.216 13.6571 165.574 12.9698 164.161 12.1807C162.887 11.4921 161.709 10.636 160.662 9.63529C159.957 8.95973 159.368 8.17288 158.918 7.30623C158.718 7.00559 158.596 6.66019 158.562 6.30078C159.228 7.40286 160.042 8.40906 160.98 9.29166C162.042 10.1921 163.208 10.9612 164.454 11.5825C165.841 12.3207 167.471 12.9825 169.163 13.7589C170.78 14.4707 172.302 15.3813 173.694 16.4698C174.827 17.387 175.755 18.5316 176.418 19.8297C176.874 20.705 177.135 21.6691 177.181 22.6551C177.223 23.024 177.184 23.3976 177.067 23.7497Z" fill="#264653"/>
<path d="M148.329 29.8587C148.201 30.0115 147.756 29.8587 147.056 29.6424C146.117 29.4257 145.156 29.3147 144.192 29.3115C143.225 29.3008 142.259 29.4033 141.316 29.6169C140.59 29.7824 140.145 29.9733 140.043 29.8333C139.941 29.6933 140.209 29.1969 140.985 28.7515C141.986 28.2408 143.094 27.9746 144.218 27.9746C145.341 27.9746 146.449 28.2408 147.45 28.7515C148.112 29.2351 148.392 29.7442 148.329 29.8587Z" fill="#263238"/>
<path d="M166.859 32.3627C166.796 32.719 165.472 32.8336 163.881 32.6045C162.29 32.3754 161.056 31.9427 161.056 31.5227C161.056 31.1027 162.443 31.0645 164.034 31.2936C165.625 31.5227 166.91 32.0063 166.859 32.3627Z" fill="#263238"/>
<path d="M122.314 48.5898C122.314 48.5898 122.442 48.6789 122.633 48.908C122.907 49.2426 123.138 49.6103 123.32 50.0026C123.978 51.4615 124.174 53.0872 123.88 54.6607C123.467 56.9509 122.698 59.1624 121.602 61.2152C120.994 62.3896 120.797 63.7338 121.042 65.0333C121.491 66.3977 122.106 67.7015 122.874 68.9151C123.644 70.1898 123.981 71.6794 123.834 73.1614C123.687 74.6433 123.065 76.0379 122.06 77.1368C121.203 78.1163 120.065 78.8092 118.802 79.1222C117.734 79.3438 116.647 79.4632 115.556 79.4786C114.025 79.4367 112.513 79.8247 111.191 80.5986C110.738 80.9295 110.338 81.3288 110.007 81.7822C110.007 81.7822 110.007 81.6168 110.173 81.3622C110.394 80.9854 110.688 80.6566 111.038 80.3949C112.348 79.5041 113.896 79.0295 115.48 79.0331C116.538 78.9869 117.59 78.8463 118.624 78.6131C119.784 78.3072 120.823 77.6545 121.602 76.7423C122.455 75.748 123.004 74.5281 123.18 73.2296C123.319 71.8283 123.007 70.4191 122.289 69.2078C121.503 67.9389 120.883 66.5745 120.444 65.1478C120.191 63.7325 120.415 62.2735 121.08 60.9988C121.627 59.7261 122.225 58.7206 122.594 57.6388C122.973 56.6484 123.263 55.6262 123.46 54.5843C123.776 53.0889 123.657 51.5341 123.116 50.1044C122.671 49.0989 122.264 48.628 122.314 48.5898Z" fill="#263238"/>
<path d="M181.419 82.854C181.164 82.9711 180.884 83.0235 180.604 83.0067C180.199 82.9818 179.803 82.8754 179.44 82.6939C179.077 82.5124 178.755 82.2595 178.492 81.9504C178.054 81.4747 177.733 80.9045 177.552 80.2842C177.371 79.6639 177.335 79.0103 177.448 78.374C177.845 76.7307 178.701 75.2343 179.917 74.0595C181.371 72.735 182.653 71.2343 183.735 69.5923C184.253 68.6601 184.504 67.6033 184.461 66.5378C184.386 65.4023 184.119 64.2877 183.672 63.2415C182.528 60.9779 181.508 58.6539 180.617 56.2797C180.222 54.9336 180.222 53.5022 180.617 52.1561C181.12 50.8557 181.756 49.6104 182.514 48.4398C183.238 47.3457 183.529 46.0205 183.328 44.7235C182.984 43.4898 182.306 42.3753 181.368 41.5035C180.49 40.5617 179.523 39.6835 178.708 38.6781C177.888 37.6917 177.296 36.5354 176.977 35.2927C176.481 33.0075 176.515 30.6387 177.079 28.3691C177.524 26.2564 178.135 24.3473 178.517 22.5783C179.319 19.7937 179.176 16.822 178.11 14.1275C177.666 13.1832 177.063 12.3222 176.328 11.582C176.328 11.582 176.328 11.582 176.506 11.6966C176.671 11.8134 176.824 11.9455 176.964 12.0911C177.545 12.6789 178.011 13.3694 178.339 14.1275C178.886 15.266 179.218 16.4956 179.319 17.7547C179.434 19.4148 179.305 21.0827 178.937 22.7055C178.568 24.5001 177.995 26.4219 177.575 28.5091C177.072 30.6993 177.072 32.9752 177.575 35.1654C177.86 36.3204 178.404 37.3954 179.166 38.309C179.943 39.2635 180.897 40.1163 181.814 41.0835C182.833 42.0248 183.576 43.226 183.964 44.558C184.187 46.0059 183.875 47.4852 183.086 48.7198C182.339 49.8497 181.708 51.0521 181.203 52.3089C180.836 53.5552 180.836 54.8806 181.203 56.127C182.074 58.4768 183.068 60.7794 184.181 63.0251C184.651 64.1402 184.923 65.3291 184.983 66.5378C185.022 67.7029 184.74 68.8564 184.168 69.8723C183.045 71.5393 181.715 73.0574 180.21 74.3904C179.03 75.4875 178.183 76.8945 177.766 78.4504C177.641 79.0361 177.655 79.6432 177.808 80.2224C177.96 80.8017 178.247 81.3369 178.644 81.7849C179.118 82.3887 179.807 82.7855 180.566 82.8922C181.139 82.854 181.419 82.7776 181.419 82.854Z" fill="#263238"/>
<path d="M231.36 100.011C230.532 98.9362 229.607 97.9394 228.598 97.0324C227.461 96.299 226.264 95.6604 225.022 95.1233C225.745 95.0795 226.469 95.1796 227.153 95.4177C227.837 95.6558 228.466 96.0273 229.006 96.5106C229.615 96.9037 230.138 97.4168 230.543 98.0185C230.947 98.6202 231.226 99.2979 231.36 100.011Z" fill="#D1734A"/>
<path d="M212.385 169.752C211.47 167.939 210.847 165.994 210.539 163.987C210.026 162.015 209.842 159.973 209.992 157.941C210.5 159.886 210.899 161.858 211.189 163.847C211.704 165.79 212.104 167.762 212.385 169.752Z" fill="#D1734A"/>
<path d="M131.223 155.488C133.455 154.744 135.42 153.363 136.877 151.515C138.333 149.668 139.217 147.434 139.419 145.09C140.106 138.459 135.601 132.566 129.505 131.917C123.408 131.268 117.796 136.143 117.109 142.774C116.826 145.13 117.245 147.518 118.314 149.637C119.382 151.756 121.053 153.513 123.116 154.686C113.57 155.183 108.95 161.05 106.698 166.293C110.227 171.262 115.427 174.795 121.347 176.246L128.219 176.959C134.394 176.746 140.279 174.284 144.765 170.035C143.632 164.448 140.31 157.817 131.223 155.488Z" fill="white"/>
<g opacity="0.3">
<path d="M80.4679 151.032L86.1188 145.203C86.1188 145.203 83.6752 187.33 82.0079 192.395C80.3407 197.461 71.6099 214.324 71.6099 214.324L79.1443 191.275L80.4679 151.032Z" fill="black"/>
</g>
<path d="M92.9781 138.065C93.1053 138.192 88.1418 143.576 81.88 150.092C75.6183 156.608 70.4256 161.801 70.2856 161.674C70.1456 161.546 75.1346 156.163 81.3964 149.634C87.6581 143.105 92.8508 137.938 92.9781 138.065Z" fill="#263238"/>
<path d="M171.976 134.766C171.999 135.191 171.978 135.617 171.912 136.038C171.836 136.878 171.696 138.1 171.492 139.615C171.085 142.618 170.397 146.767 169.456 151.298C168.514 155.829 167.483 159.914 166.656 162.842C166.236 164.305 165.879 165.476 165.612 166.291C165.512 166.736 165.349 167.164 165.128 167.563C165.161 167.133 165.238 166.706 165.358 166.291C165.599 165.323 165.867 164.165 166.197 162.804C166.91 159.851 167.865 155.778 168.807 151.247C169.748 146.716 170.499 142.606 171.034 139.615C171.276 138.24 171.479 137.069 171.657 136.077C171.701 135.627 171.808 135.185 171.976 134.766Z" fill="#263238"/>
<path d="M146.356 54.4702C146.643 54.2259 146.978 54.0442 147.34 53.9367C147.701 53.8293 148.081 53.7983 148.455 53.8459C148.829 53.8935 149.189 54.0185 149.512 54.2131C149.834 54.4076 150.113 54.6674 150.33 54.9758C150.547 55.2842 150.697 55.6344 150.771 56.0041C150.845 56.3738 150.841 56.7548 150.759 57.1228C150.677 57.4908 150.52 57.8378 150.296 58.1415C150.073 58.4451 149.789 58.6989 149.462 58.8865C149.128 59.0648 148.762 59.1722 148.385 59.2018C148.008 59.2314 147.629 59.1827 147.272 59.0586C146.915 58.9345 146.588 58.7378 146.31 58.4808C146.033 58.2239 145.812 57.9123 145.661 57.5657C145.51 57.2191 145.433 56.845 145.434 56.467C145.435 56.089 145.514 55.7153 145.667 55.3694C145.819 55.0236 146.042 54.7131 146.321 54.4576C146.599 54.2021 146.928 54.007 147.285 53.8847" fill="#FF725E"/>
<path d="M146.623 51.6329C146.954 51.6329 146.623 53.8728 148.328 55.6928C150.034 57.5128 152.401 57.6146 152.375 57.9201C152.35 58.2255 151.79 58.2764 150.785 58.1619C149.486 58.0059 148.286 57.3922 147.399 56.431C146.552 55.5103 146.096 54.2964 146.126 53.0456C146.152 52.1038 146.47 51.5947 146.623 51.6329Z" fill="#263238"/>
<path d="M118.382 18.6682C119.839 16.8666 120.776 14.7016 121.093 12.4065C121.101 10.7646 120.512 9.17572 119.434 7.93673C118.357 6.69773 116.865 5.89333 115.238 5.67382C113.595 5.55834 111.962 6.01482 110.616 6.96588C109.271 7.91693 108.296 9.30402 107.857 10.8919C107.511 12.5037 107.696 14.1842 108.384 15.6822C109.072 17.1802 110.226 18.4152 111.675 19.2028C113.154 19.9297 114.819 20.1864 116.449 19.9384C118.078 19.6904 119.592 18.9496 120.787 17.8155" fill="#263238"/>
<path d="M121.296 12.0664C121.469 13.7276 121.016 15.3936 120.023 16.7373C119.207 18.1968 117.871 19.2961 116.282 19.8172C117.457 18.7788 118.523 17.6232 119.464 16.3682C120.22 15.0008 120.834 13.5593 121.296 12.0664Z" fill="#264653"/>
<path d="M117.376 19.2172C117.426 16.8308 117.144 14.4491 116.536 12.1409C115.725 9.87265 114.598 7.73028 113.188 5.77734C113.188 5.77734 113.901 6.2228 114.741 7.26642C115.833 8.63656 116.657 10.1993 117.172 11.8736C117.698 13.5427 117.914 15.294 117.808 17.0409C117.826 17.7893 117.678 18.5324 117.376 19.2172Z" fill="#264653"/>
<path d="M87.3477 353.735V344.575C88.64 344.595 89.9317 344.506 91.209 344.308C92.1003 344.188 92.9438 343.834 93.6531 343.281C94.2821 342.696 94.725 341.939 94.9265 341.104C95.2099 339.893 95.341 338.651 95.3168 337.407V288.113H108.338V337.9C108.418 340.888 107.987 343.868 107.065 346.711C106.303 348.962 104.708 350.836 102.608 351.948C99.8121 353.258 96.7363 353.858 93.6531 353.694L87.3477 353.735Z" fill="#264653"/>
<path d="M135.799 352.957C131.927 353.152 128.076 352.278 124.667 350.431C121.949 348.753 119.879 346.205 118.793 343.201C117.521 339.588 116.916 335.775 117.006 331.946V308.12C116.915 304.311 117.521 300.518 118.793 296.927C119.865 293.947 121.942 291.434 124.667 289.82C128.173 288.203 131.989 287.365 135.851 287.365C139.712 287.365 143.528 288.203 147.034 289.82C149.767 291.431 151.863 293.933 152.97 296.906C154.226 300.494 154.825 304.279 154.736 308.079V331.966C154.823 335.793 154.224 339.605 152.97 343.221C151.874 346.238 149.779 348.789 147.034 350.451C143.587 352.294 139.702 353.16 135.799 352.957ZM135.799 343.55C137.132 343.67 138.458 343.264 139.496 342.42C140.327 341.58 140.88 340.505 141.078 339.34C141.352 337.988 141.49 336.611 141.488 335.232V304.957C141.496 303.578 141.358 302.201 141.078 300.85C140.879 299.697 140.326 298.634 139.496 297.81C138.461 296.959 137.134 296.546 135.799 296.66C134.51 296.562 133.234 296.975 132.246 297.81C131.423 298.64 130.872 299.7 130.664 300.85C130.391 302.201 130.26 303.578 130.274 304.957V335.191C130.273 336.568 130.39 337.942 130.623 339.299C130.807 340.46 131.345 341.536 132.164 342.379C133.177 343.228 134.481 343.648 135.799 343.55Z" fill="#264653"/>
<path d="M163.567 352.074V288.156H176.507V352.074H163.567Z" fill="#264653"/>
<path d="M186.305 352.074V288.156H195.383L209.575 321.45V288.156H220.317V352.074H211.629L197.437 316.726V352.074H186.305Z" fill="#264653"/>
<path d="M267.741 352.957C263.838 353.166 259.951 352.3 256.507 350.451C253.825 348.817 251.82 346.273 250.858 343.283C249.693 339.599 249.144 335.747 249.236 331.884V288.156H262.093V333.691C262.092 335.253 262.216 336.812 262.463 338.354C262.625 339.708 263.166 340.99 264.024 342.051C264.508 342.548 265.095 342.934 265.745 343.179C266.395 343.423 267.09 343.522 267.783 343.468C268.485 343.529 269.191 343.433 269.852 343.188C270.512 342.943 271.11 342.555 271.603 342.051C272.47 340.998 273.007 339.711 273.143 338.354C273.356 336.808 273.466 335.251 273.472 333.691V288.156H286.329V331.966C286.421 335.829 285.872 339.681 284.707 343.365C283.738 346.318 281.751 348.83 279.1 350.451C275.619 352.322 271.686 353.189 267.741 352.957Z" fill="#264653"/>
<path d="M311.962 352.956C308.538 353.073 305.14 352.324 302.082 350.779C299.433 349.306 297.341 347.004 296.126 344.227C294.651 340.684 293.863 336.892 293.805 333.054L304.999 331.164C305.061 333.384 305.343 335.593 305.841 337.757C306.129 339.243 306.842 340.613 307.895 341.701C308.354 342.131 308.893 342.467 309.481 342.689C310.07 342.911 310.696 343.015 311.325 342.995C311.985 343.075 312.654 342.972 313.259 342.697C313.865 342.421 314.382 341.984 314.755 341.434C315.366 340.321 315.677 339.068 315.659 337.798C315.746 335.399 315.07 333.033 313.728 331.041C312.247 329.023 310.538 327.183 308.634 325.557L302 319.806C299.706 317.877 297.749 315.579 296.208 313.008C294.633 310.167 293.859 306.951 293.969 303.704C293.822 301.472 294.157 299.235 294.951 297.144C295.744 295.053 296.979 293.157 298.57 291.586C302.103 288.618 306.636 287.112 311.243 287.375C313.958 287.27 316.659 287.805 319.13 288.936C321.073 289.896 322.725 291.356 323.915 293.167C325.044 294.933 325.844 296.888 326.277 298.939C326.72 300.967 326.995 303.027 327.099 305.1L315.967 306.764C315.864 304.71 315.7 303.108 315.474 301.629C315.32 300.363 314.822 299.163 314.036 298.158C313.635 297.721 313.141 297.381 312.589 297.164C312.037 296.947 311.443 296.859 310.853 296.905C310.189 296.857 309.524 296.988 308.928 297.284C308.332 297.58 307.826 298.031 307.464 298.59C306.728 299.704 306.342 301.013 306.354 302.348C306.273 304.319 306.812 306.266 307.895 307.914C309.12 309.577 310.533 311.093 312.105 312.433L318.575 318.122C321.243 320.421 323.567 323.091 325.476 326.05C327.496 329.358 328.503 333.185 328.372 337.059C328.417 339.93 327.709 342.763 326.318 345.275C324.972 347.665 322.988 349.635 320.588 350.964C317.931 352.356 314.96 353.042 311.962 352.956Z" fill="#264653"/>
<path d="M136.99 399.557V363.922H140.338V399.557H136.99Z" fill="#264653"/>
<path d="M151.059 399.557V366.51H144.322V363.922H160.918V366.51H154.407V399.557H151.059Z" fill="#264653"/>
<path d="M164.8 373.986L163.999 372.815C164.36 372.694 164.691 372.498 164.971 372.24C165.251 371.981 165.472 371.666 165.621 371.316C165.937 370.335 166.076 369.306 166.032 368.276H164.266V363.922H167.963V367.619C168.017 369.078 167.794 370.535 167.305 371.912C167.077 372.428 166.732 372.885 166.297 373.245C165.862 373.605 165.35 373.859 164.8 373.986Z" fill="#264653"/>
<path d="M180.102 399.99C178.413 400.055 176.74 399.642 175.275 398.799C174.006 397.975 173.006 396.797 172.4 395.41C171.719 393.792 171.316 392.069 171.208 390.317L174.166 389.433C174.289 390.785 174.551 392.12 174.947 393.418C175.267 394.51 175.894 395.486 176.754 396.232C177.721 396.977 178.924 397.349 180.143 397.279C181.488 397.361 182.813 396.92 183.84 396.047C184.319 395.52 184.684 394.899 184.91 394.224C185.136 393.548 185.219 392.833 185.154 392.124C185.194 390.67 184.793 389.238 184.004 388.016C183.077 386.687 182.002 385.468 180.8 384.381L174.515 378.363C173.498 377.397 172.663 376.256 172.051 374.994C171.508 373.795 171.235 372.491 171.25 371.174C171.184 370.125 171.348 369.073 171.731 368.094C172.114 367.115 172.707 366.231 173.468 365.505C175.08 364.104 177.166 363.37 179.301 363.452C180.455 363.438 181.604 363.598 182.71 363.924C183.693 364.225 184.589 364.761 185.319 365.485C186.078 366.282 186.653 367.235 187.003 368.278C187.453 369.607 187.736 370.987 187.845 372.386L184.99 373.125C184.904 371.819 184.656 370.529 184.251 369.285C183.964 368.306 183.365 367.448 182.546 366.84C181.494 366.24 180.292 365.95 179.082 366.005C177.871 366.059 176.701 366.456 175.707 367.149C175.18 367.626 174.781 368.228 174.544 368.898C174.308 369.568 174.241 370.287 174.351 370.989C174.337 371.903 174.527 372.808 174.906 373.639C175.4 374.597 176.06 375.459 176.857 376.186L183.162 382.121C184.55 383.439 185.771 384.922 186.798 386.537C187.829 388.163 188.365 390.055 188.338 391.98C188.397 393.544 188.043 395.095 187.311 396.478C186.643 397.648 185.642 398.591 184.436 399.189C183.071 399.783 181.589 400.057 180.102 399.99Z" fill="#264653"/>
<path d="M201.75 399.557V363.922H214.546V366.428H205.159V379.84H213.026V382.304H205.159V399.557H201.75Z" fill="#264653"/>
<path d="M218.735 399.559V363.924H226.787C228.601 363.832 230.41 364.199 232.045 364.992C233.29 365.69 234.261 366.791 234.797 368.114C235.38 369.669 235.658 371.321 235.618 372.982C235.625 374.24 235.48 375.496 235.187 376.72C234.928 377.823 234.415 378.85 233.688 379.718C232.901 380.584 231.844 381.156 230.689 381.341L236.152 399.559H232.887L227.752 382.039H222.165V399.559H218.735ZM222.083 379.575H226.602C227.804 379.642 229.002 379.387 230.073 378.835C230.903 378.334 231.528 377.556 231.839 376.638C232.225 375.459 232.406 374.222 232.373 372.982C232.49 371.261 232.09 369.544 231.223 368.052C230.652 367.438 229.941 366.97 229.151 366.688C228.361 366.405 227.515 366.317 226.684 366.43H222.083V379.575Z" fill="#264653"/>
<path d="M241.205 399.557V363.922H254.104V366.51H244.594V379.901H252.399V382.345H244.594V397.051H254.186V399.557H241.205Z" fill="#264653"/>
<path d="M258.726 399.557V363.922H271.624V366.51H262.115V379.901H269.858V382.345H262.115V397.051H271.706V399.557H258.726Z" fill="#264653"/>
<path d="M275.834 399.557V395.737H279.264V399.557H275.834ZM276.984 391.896L275.875 363.922H279.305L278.134 391.896H276.984Z" fill="#264653"/>
<path d="M266.9 181.684H143.42V263.757H266.9V181.684Z" fill="#E76F51"/>
<path d="M266.9 264.784H143.42C143.147 264.784 142.886 264.676 142.693 264.483C142.501 264.291 142.393 264.029 142.393 263.757V181.601C142.393 181.329 142.501 181.068 142.693 180.875C142.886 180.682 143.147 180.574 143.42 180.574H266.9C267.172 180.574 267.433 180.682 267.626 180.875C267.819 181.068 267.927 181.329 267.927 181.601V263.757C267.927 264.029 267.819 264.291 267.626 264.483C267.433 264.676 267.172 264.784 266.9 264.784ZM144.446 262.73H265.873V182.628H144.446V262.73Z" fill="#264653"/>
<path d="M266.9 181.684L205.16 222.72L143.42 181.684H266.9Z" fill="#264653"/>
<path d="M205.16 223.748C204.958 223.744 204.759 223.687 204.585 223.584L142.845 182.506C142.665 182.381 142.528 182.203 142.455 181.997C142.381 181.79 142.374 181.566 142.434 181.356C142.5 181.146 142.631 180.963 142.809 180.834C142.986 180.704 143.2 180.635 143.42 180.637H266.9C267.118 180.639 267.329 180.711 267.503 180.841C267.677 180.972 267.805 181.154 267.869 181.362C267.933 181.569 267.93 181.792 267.859 181.998C267.788 182.203 267.654 182.381 267.475 182.506L205.735 223.584C205.561 223.687 205.363 223.744 205.16 223.748ZM146.809 182.67L205.16 221.489L263.491 182.711L146.809 182.67Z" fill="#264653"/>
<path d="M159.789 193.022V139.99H250.407V192.591L205.16 222.721L159.789 193.022Z" fill="#F3F8F9"/>
<path d="M205.16 223.748C204.958 223.744 204.759 223.687 204.585 223.583L159.235 193.884C159.093 193.789 158.976 193.661 158.894 193.51C158.811 193.36 158.767 193.193 158.763 193.021V139.99C158.763 139.717 158.871 139.456 159.063 139.264C159.256 139.071 159.517 138.963 159.79 138.963H250.346C250.618 138.963 250.88 139.071 251.072 139.264C251.265 139.456 251.373 139.717 251.373 139.99V192.59C251.375 192.76 251.335 192.928 251.256 193.078C251.177 193.229 251.062 193.358 250.921 193.453L205.735 223.583C205.561 223.687 205.363 223.744 205.16 223.748ZM160.817 192.467L205.16 221.489L249.381 192.056V140.955H160.817V192.467Z" fill="#264653"/>
<path d="M231.613 159.443H176.918C176.646 159.443 176.385 159.334 176.192 159.142C175.999 158.949 175.891 158.688 175.891 158.416C175.891 158.143 175.999 157.882 176.192 157.689C176.385 157.497 176.646 157.389 176.918 157.389H231.613C231.886 157.389 232.147 157.497 232.34 157.689C232.532 157.882 232.64 158.143 232.64 158.416C232.64 158.688 232.532 158.949 232.34 159.142C232.147 159.334 231.886 159.443 231.613 159.443Z" fill="#264653"/>
<path d="M231.613 173.159H176.918C176.646 173.159 176.385 173.051 176.192 172.859C175.999 172.666 175.891 172.405 175.891 172.132C175.891 171.86 175.999 171.599 176.192 171.406C176.385 171.214 176.646 171.105 176.918 171.105H231.613C231.886 171.105 232.147 171.214 232.34 171.406C232.532 171.599 232.64 171.86 232.64 172.132C232.64 172.405 232.532 172.666 232.34 172.859C232.147 173.051 231.886 173.159 231.613 173.159Z" fill="#264653"/>
<path d="M231.613 186.943H176.918C176.646 186.943 176.385 186.834 176.192 186.642C175.999 186.449 175.891 186.188 175.891 185.916C175.891 185.643 175.999 185.382 176.192 185.189C176.385 184.997 176.646 184.889 176.918 184.889H231.613C231.886 184.889 232.147 184.997 232.34 185.189C232.532 185.382 232.64 185.643 232.64 185.916C232.64 186.188 232.532 186.449 232.34 186.642C232.147 186.834 231.886 186.943 231.613 186.943Z" fill="#264653"/>
<path d="M143.42 263.757L205.304 212.225L266.9 263.757H143.42Z" fill="#E76F51"/>
<path d="M266.9 264.784H143.42C143.211 264.782 143.008 264.716 142.837 264.595C142.666 264.474 142.537 264.304 142.465 264.108C142.394 263.911 142.384 263.698 142.437 263.495C142.49 263.293 142.604 263.112 142.763 262.976L204.647 211.423C204.831 211.27 205.064 211.186 205.304 211.186C205.544 211.186 205.777 211.27 205.961 211.423L267.578 262.956C267.737 263.092 267.851 263.273 267.904 263.475C267.957 263.677 267.947 263.891 267.876 264.087C267.805 264.284 267.675 264.454 267.504 264.574C267.334 264.695 267.13 264.761 266.921 264.763L266.9 264.784ZM146.255 262.73H264.066L205.304 213.559L146.255 262.73Z" fill="#264653"/>
</svg>
