<svg width="330" height="225" viewBox="0 0 330 225" fill="none" xmlns="http://www.w3.org/2000/svg">
<rect x="29.7051" y="26.3301" width="135.304" height="135.304" rx="67.652" fill="#E76F51"/>
<path d="M144.748 83.7201V67.5558C144.748 66.1541 144.192 64.8097 143.2 63.8185C142.209 62.8274 140.865 62.2705 139.463 62.2705H54.8982C53.4965 62.2705 52.1521 62.8274 51.1609 63.8185C50.1697 64.8097 49.6129 66.1541 49.6129 67.5558V83.7201C48.5834 84.0841 47.6919 84.758 47.061 85.6492C46.43 86.5404 46.0906 87.6051 46.0894 88.6971V109.838C46.0894 111.24 46.6462 112.584 47.6374 113.576C48.6286 114.567 49.9729 115.124 51.3747 115.124H56.66V123.933C56.66 124.4 56.8456 124.848 57.176 125.178C57.5064 125.509 57.9545 125.694 58.4217 125.694C58.889 125.694 59.3371 125.509 59.6675 125.178C59.9979 124.848 60.1835 124.4 60.1835 123.933V115.124H134.178V123.933C134.178 124.4 134.363 124.848 134.694 125.178C135.024 125.509 135.472 125.694 135.94 125.694C136.407 125.694 136.855 125.509 137.185 125.178C137.516 124.848 137.701 124.4 137.701 123.933V115.124H142.987C144.388 115.124 145.733 114.567 146.724 113.576C147.715 112.584 148.272 111.24 148.272 109.838V88.6971C148.271 87.6051 147.931 86.5404 147.3 85.6492C146.669 84.758 145.778 84.0841 144.748 83.7201ZM141.225 67.5558V83.4118H135.94C134.538 83.4118 133.194 83.9686 132.202 84.9598C131.211 85.951 130.654 87.2953 130.654 88.6971V95.7442C130.654 96.2114 130.469 96.6595 130.138 96.9899C129.808 97.3203 129.36 97.5059 128.893 97.5059H98.9424V65.7941H139.463C139.93 65.7941 140.379 65.9797 140.709 66.3101C141.039 66.6405 141.225 67.0886 141.225 67.5558ZM54.8982 65.7941H95.4189V97.5059H65.4688C65.0016 97.5059 64.5535 97.3203 64.2231 96.9899C63.8927 96.6595 63.7071 96.2114 63.7071 95.7442V88.6971C63.7071 87.2953 63.1502 85.951 62.159 84.9598C61.1678 83.9686 59.8235 83.4118 58.4217 83.4118H53.1364V67.5558C53.1364 67.0886 53.322 66.6405 53.6524 66.3101C53.9828 65.9797 54.431 65.7941 54.8982 65.7941ZM144.748 109.838C144.748 110.306 144.563 110.754 144.232 111.084C143.902 111.415 143.454 111.6 142.987 111.6H51.3747C50.9074 111.6 50.4593 111.415 50.1289 111.084C49.7985 110.754 49.6129 110.306 49.6129 109.838V88.6971C49.6129 88.2298 49.7985 87.7817 50.1289 87.4513C50.4593 87.1209 50.9074 86.9353 51.3747 86.9353H58.4217C58.889 86.9353 59.3371 87.1209 59.6675 87.4513C59.9979 87.7817 60.1835 88.2298 60.1835 88.6971V95.7442C60.1835 97.1459 60.7404 98.4903 61.7315 99.4815C62.7227 100.473 64.0671 101.029 65.4688 101.029H128.893C130.294 101.029 131.639 100.473 132.63 99.4815C133.621 98.4903 134.178 97.1459 134.178 95.7442V88.6971C134.178 88.2298 134.363 87.7817 134.694 87.4513C135.024 87.1209 135.472 86.9353 135.94 86.9353H142.987C143.454 86.9353 143.902 87.1209 144.232 87.4513C144.563 87.7817 144.748 88.2298 144.748 88.6971V109.838Z" fill="white"/>
<path d="M220.164 168.624C219.148 170.324 217.499 171.552 215.579 172.037C213.659 172.522 211.625 172.225 209.924 171.211L158.32 140.39C157.475 139.887 156.737 139.222 156.149 138.434C155.56 137.646 155.133 136.749 154.891 135.796C154.649 134.842 154.597 133.851 154.738 132.877C154.879 131.904 155.211 130.968 155.714 130.122C156.217 129.277 156.882 128.539 157.67 127.951C158.458 127.362 159.354 126.935 160.308 126.693C161.261 126.451 162.253 126.399 163.226 126.54C164.2 126.682 165.136 127.013 165.981 127.516L217.585 158.338C218.432 158.842 219.171 159.508 219.76 160.298C220.349 161.089 220.775 161.988 221.015 162.944C221.255 163.9 221.303 164.894 221.157 165.869C221.011 166.844 220.673 167.78 220.164 168.624Z" fill="white" stroke="#264653" stroke-width="0.75" stroke-linecap="round" stroke-linejoin="round"/>
<path d="M169.655 134.766L198.102 151.976" stroke="#264653" stroke-width="0.75" stroke-linecap="round" stroke-linejoin="round"/>
<path d="M298.812 215.545C297.92 217.043 296.741 218.35 295.343 219.393C293.945 220.435 292.355 221.192 290.665 221.62C288.974 222.047 287.216 222.138 285.491 221.886C283.765 221.634 282.106 221.045 280.608 220.152L206.926 176.152C203.903 174.339 201.724 171.399 200.869 167.98C200.013 164.56 200.552 160.94 202.365 157.917C204.178 154.894 207.118 152.715 210.537 151.86C213.957 151.004 217.577 151.542 220.6 153.356L294.194 197.402C297.204 199.203 299.38 202.122 300.246 205.521C301.111 208.92 300.596 212.524 298.812 215.545Z" fill="#264653" stroke="#264653" stroke-width="0.75" stroke-linecap="round" stroke-linejoin="round"/>
<path d="M27.5485 52.6268C19.3454 66.3639 15.4001 82.2251 16.2115 98.2045C17.0228 114.184 22.5543 129.564 32.1066 142.4C41.6589 155.235 54.8028 164.95 69.8763 170.316C84.9499 175.681 101.276 176.456 116.79 172.543C132.304 168.63 146.31 160.205 157.035 148.332C167.761 136.459 174.725 121.672 177.046 105.842C179.368 90.0111 176.944 73.8474 170.079 59.3948C163.215 44.9421 152.219 32.8496 138.482 24.6463C120.059 13.6502 98.0244 10.4205 77.2216 15.6676C56.4188 20.9146 38.5515 34.2088 27.5485 52.6268ZM154.435 128.406C147.651 139.763 137.651 148.853 125.7 154.527C113.75 160.2 100.385 162.203 87.2962 160.281C74.2074 158.36 61.9824 152.6 52.1669 143.731C42.3514 134.862 35.3863 123.281 32.1523 110.453C28.9183 97.6256 29.5606 84.1271 33.998 71.6644C38.4355 59.2018 46.4688 48.3348 57.0821 40.4376C67.6954 32.5405 80.4121 27.9677 93.6242 27.2976C106.836 26.6275 119.95 29.8902 131.308 36.6731C146.537 45.7727 157.529 60.5484 161.866 77.7509C166.203 94.9534 163.53 113.174 154.435 128.406Z" fill="#264653" stroke="#264653" stroke-width="0.75" stroke-linecap="round" stroke-linejoin="round"/>
<path d="M63.0927 143.055C56.6347 138.577 51.1286 132.863 46.8927 126.244C42.6569 119.625 39.7755 112.232 38.4151 104.492" stroke="#264653" stroke-width="0.75" stroke-linecap="round" stroke-linejoin="round"/>
<path d="M86.5012 152.766C80.529 151.693 74.7568 149.709 69.3866 146.884" stroke="#264653" stroke-width="0.75" stroke-linecap="round" stroke-linejoin="round"/>
<path d="M99.6662 172.547C80.6914 173.179 62.1303 166.913 47.4214 154.909C32.7124 142.905 22.8525 125.977 19.6681 107.261C16.4837 88.5444 20.1906 69.3081 30.1021 53.1153C40.0137 36.9225 55.4581 24.8707 73.5745 19.1924" stroke="white" stroke-miterlimit="10"/>
<path d="M101.794 15.7477C120.594 16.8535 138.37 24.6811 151.878 37.8026C165.387 50.9241 173.727 68.4648 175.379 87.2244C177.03 105.984 171.882 124.712 160.874 139.992C149.865 155.271 133.731 166.084 115.413 170.457" stroke="white" stroke-miterlimit="10"/>
<path d="M80.8154 17.3115C86.0635 16.199 91.412 15.6286 96.7766 15.6094" stroke="white" stroke-miterlimit="10"/>
</svg>
