<?xml version="1.0" standalone="no"?>
<!DOCTYPE svg PUBLIC "-//W3C//DTD SVG 20010904//EN"
 "http://www.w3.org/TR/2001/REC-SVG-20010904/DTD/svg10.dtd">
<svg version="1.0" xmlns="http://www.w3.org/2000/svg"
 width="512.000000pt" height="512.000000pt" viewBox="0 0 512.000000 512.000000"
 preserveAspectRatio="xMidYMid meet">
<metadata>
Created by potrace 1.14, written by Peter Selinger 2001-2017
</metadata>
<g transform="translate(0.000000,512.000000) scale(0.100000,-0.100000)"
fill="#000000" stroke="none">
<path d="M3141 3550 c-312 -43 -572 -252 -672 -543 -61 -177 -61 -357 1 -537
16 -46 28 -85 27 -86 -1 -1 -82 -50 -180 -109 -170 -102 -180 -106 -240 -109
-62 -2 -64 -3 -447 -233 -212 -127 -393 -240 -403 -251 -11 -11 -22 -37 -27
-57 -25 -109 82 -204 182 -162 56 23 760 446 790 474 15 14 30 39 33 55 6 24
33 44 191 138 102 61 187 110 189 110 2 0 30 -28 62 -61 108 -114 234 -188
388 -230 112 -30 297 -31 408 -1 368 100 611 419 609 797 0 136 -24 234 -86
360 -82 164 -197 279 -361 361 -147 73 -318 103 -464 84z m557 -512 c8 -8 12
-45 12 -100 0 -74 3 -93 21 -117 19 -26 20 -39 17 -145 -3 -131 -11 -146 -75
-146 -33 0 -33 0 -33 -50 0 -38 -4 -50 -15 -50 -11 0 -15 12 -15 50 l0 50
-375 0 -375 0 0 -50 c0 -27 -4 -50 -10 -50 -5 0 -10 23 -10 50 l0 50 -37 0
c-66 0 -73 16 -73 160 0 96 3 130 14 139 9 8 15 42 18 107 3 69 8 98 18 105
24 14 903 12 918 -3z m-1150 -733 l31 -49 -182 -108 -181 -107 -12 36 c-7 19
-22 45 -33 57 l-22 23 178 106 c98 59 181 103 184 99 4 -4 20 -29 37 -57z
m739 -351 c-3 -3 -12 -4 -19 -1 -8 3 -5 6 6 6 11 1 17 -2 13 -5z"/>
<path d="M2801 3016 c-8 -9 -11 -43 -9 -93 l3 -78 40 -3 c22 -2 44 -8 50 -13
5 -5 12 -36 15 -67 l5 -57 158 -3 157 -3 0 166 0 165 -204 0 c-163 0 -206 -3
-215 -14z"/>
<path d="M3257 3023 c-4 -3 -7 -78 -7 -165 l0 -158 159 0 c177 0 171 -3 171
74 0 52 13 66 62 66 l38 0 0 89 c0 72 -3 90 -16 95 -21 8 -399 8 -407 -1z"/>
<path d="M2762 2688 l3 -123 472 -3 473 -2 5 22 c3 13 5 68 3 123 l-3 100 -55
0 -55 0 -3 -55 c-2 -37 -8 -59 -19 -67 -13 -10 -97 -13 -343 -13 -381 0 -370
-2 -370 86 l0 54 -55 0 -56 0 3 -122z"/>
<path d="M2375 2259 c-71 -44 -137 -84 -145 -89 -8 -5 -12 -11 -10 -14 7 -6
299 166 300 177 0 13 -14 6 -145 -74z"/>
</g>
</svg>
